<svg width="905" height="1333" viewBox="0 0 905 1333" fill="none" xmlns="http://www.w3.org/2000/svg">
<path d="M639.75 1191.14C638.964 1189.91 636.268 1188.45 634.809 1186.88C636.268 1188.45 638.403 1189.57 639.75 1191.14Z" fill="#E0A144"/>
<path d="M226.719 1034.26C222.901 1033.37 214.478 1030.89 212.457 1030.67C218.184 1032.02 220.43 1032.02 226.719 1034.26Z" fill="#E0A144"/>
<path d="M236.265 1038.31C232.784 1037.18 228.629 1034.83 226.607 1034.38C229.976 1035.61 233.008 1037.07 236.265 1038.31Z" fill="#E0A144"/>
<path d="M245.924 1042.24C243.117 1040.89 239.298 1039.43 236.266 1038.3C239.971 1039.54 242.443 1040.55 245.924 1042.24Z" fill="#E0A144"/>
<path d="M288.709 604.5L316.784 604.837C317.121 610.003 294.662 607.42 289.047 609.216C289.496 608.88 288.26 604.725 288.709 604.612V604.5Z" fill="#E0A144"/>
<path d="M260.52 1050.55C257.263 1048.64 247.831 1043.13 245.922 1042.24C253.334 1045.83 252.996 1045.16 260.52 1050.55Z" fill="#E0A144"/>
<path d="M290.056 1071.77C283.318 1066.49 268.944 1056.61 260.521 1050.55C275.794 1059.31 275.906 1057.51 290.056 1071.77Z" fill="#E0A144"/>
<path d="M870.074 236.275C866.705 229.2 858.058 225.944 854.914 218.644C842.112 188.661 862.887 187.425 821 182.26C798.653 179.564 817.855 169.121 816.62 156.993C815.722 148.458 799.439 139.586 808.535 136.667C808.535 136.217 808.76 131.613 808.535 129.143C808.423 127.009 808.197 125.549 807.748 123.977C806.738 120.383 805.952 118.924 803.593 116.004C803.593 115.892 803.368 115.779 803.368 115.667C803.144 115.442 802.92 115.218 802.695 114.993C802.134 114.544 801.685 113.982 801.123 113.533C800.562 113.084 800 112.635 799.438 112.186C799.101 111.961 798.765 111.737 798.428 111.512C795.845 109.827 793.038 108.48 790.118 107.245C783.829 104.549 778.439 103.09 771.813 100.956C766.985 99.3838 762.156 97.6992 757.551 95.5656C755.53 95.1164 753.396 94.5549 751.375 93.9934C751.375 93.5442 740.707 85.6834 736.439 80.63C727.792 76.5872 708.365 55.9244 698.708 51.7694C692.868 49.1866 681.526 48.962 676.023 47.5021C665.13 47.839 655.248 42.7856 644.692 40.6519C644.692 40.7642 644.692 40.9888 644.692 41.1011C623.58 47.839 606.399 31.7804 586.297 36.0477C579.559 37.5076 533.405 50.7587 529.811 52.5555C518.469 58.1704 519.255 87.1432 496.347 75.1274C493.315 73.5552 492.753 66.4805 489.159 66.2559C470.406 64.9083 450.754 84.6727 438.177 55.8121C431.888 41.5503 437.728 35.037 424.027 21.8982C397.413 -3.81806 334.413 -14.3741 324.755 32.6788C322.397 43.9086 327.563 50.4218 326.777 56.5982C325.654 65.6944 312.402 77.3733 312.178 91.6352C311.953 104.549 328.798 124.314 318.018 136.554L318.917 149.581C318.917 149.581 319.926 149.581 320.375 149.581C317.568 161.821 337.783 178.666 335.537 185.292C326.553 211.12 225.036 212.917 197.972 218.869C110.716 237.959 22.5627 287.258 3.02286 381.364C-5.17488 420.78 4.48213 439.085 17.8456 474.796C17.1718 474.459 16.6099 474.122 16.0484 473.673C19.3051 479.063 22.7872 484.229 25.37 489.956C25.37 490.18 25.3701 490.293 25.4824 490.517C25.9316 491.303 26.1556 492.09 26.2679 492.876L45.6952 525.667C54.5668 531.843 64.7867 548.126 71.8615 553.292C96.1178 570.923 160.801 595.404 190.56 599.783L248.281 626.173C233.345 622.58 228.854 640.323 224.811 645.601C224.137 649.98 222.228 654.135 219.982 658.066C218.746 660.2 217.287 662.333 215.827 664.355C213.356 671.429 204.372 682.098 200.442 696.135C198.758 702.199 204.035 710.06 202.463 712.643C200.554 715.899 186.854 719.605 183.372 729.151C179.217 740.605 184.833 752.172 182.587 763.289C181.127 770.476 170.684 777.663 168.662 790.802C161.251 838.529 162.71 891.983 161.363 940.944C159.903 990.356 154.737 972.163 142.833 1003.27C134.186 1025.84 126.214 1036.17 119.588 1052.79C67.8188 1182.61 175.848 1278.96 299.488 1219.11C301.397 1218.21 325.766 1189.24 326.777 1187.33C331.044 1179.24 338.344 1126.57 340.589 1124.1C356.76 1132.75 369.787 1125.9 382.926 1127.58C405.498 1130.39 425.375 1149.26 453.337 1139.71C462.321 1157.34 448.733 1176.77 446.487 1195.41C445.589 1202.49 441.995 1242.8 442.332 1245.27C443.118 1250.77 460.861 1295.24 464.567 1300.63C482.984 1327.59 545.758 1337.69 576.303 1330.06C598.987 1324.44 644.355 1287.5 653.901 1266.5C671.644 1227.75 672.992 1177.44 686.467 1142.18C701.852 1101.87 743.177 1066.94 762.829 1020.9C770.915 1002.03 771.925 980.922 777.091 961.27C805.053 997.543 842.336 1022.25 885.234 991.703C907.244 976.094 906.683 962.618 900.282 937.014C895.004 916.127 877.486 884.122 872.994 862.785C867.154 835.047 878.272 788.444 866.032 770.027C850.31 746.22 810.894 753.519 798.99 777.776C790.006 796.192 798.989 831.229 765.524 826.962C759.685 826.288 752.048 792.487 744.524 787.321C726.22 774.743 693.654 787.321 731.274 745.209C736.215 739.594 746.546 738.696 749.129 734.541C754.519 725.557 749.13 706.354 743.964 697.37C823.022 703.996 860.978 599.896 794.498 558.121C827.963 562.051 860.641 567.666 880.742 534.65C890.399 518.704 903.876 472.437 902.753 454.47C900.956 425.16 865.02 364.295 869.4 342.284C870.635 336.108 883.1 316.68 886.244 312.188C887.929 309.718 889.389 305.787 888.266 306.012C898.036 285.125 879.507 255.927 870.074 236.163V236.275ZM744.3 94.5549C747.444 95.9025 747.557 97.4747 744.637 99.1592L744.3 94.5549ZM500.726 84.2235C503.871 85.5711 503.983 87.1432 501.064 88.8277L500.726 84.2235ZM493.427 80.1808C493.427 80.1808 495.897 89.8384 491.854 89.6138C478.603 83.3251 487.7 75.352 493.427 80.1808ZM229.976 599.446C226.944 619.885 207.067 597.088 195.837 593.719C188.313 591.473 178.207 594.168 167.651 591.136C144.517 584.286 69.0532 542.624 54.1176 524.656C-30.555 423.026 12.7916 294.108 130.929 248.066C198.532 221.676 257.49 224.596 321.499 208.2C326.104 206.965 330.595 200.789 336.659 199.217C352.606 195.286 373.156 206.853 384.723 190.907C377.761 190.457 344.745 190.907 342.499 189.334C341.938 188.885 346.991 181.361 343.959 175.522C339.242 166.313 327.338 165.527 325.092 146.212C321.611 116.453 343.621 125.212 365.632 122.292C361.701 111.736 342.499 123.191 333.739 118.924C330.483 117.351 321.836 100.507 321.275 95.2287C319.478 76.8118 335.873 68.5018 336.772 60.7532C337.67 51.6571 328.237 45.0315 334.302 27.6253C348.676 -14.1495 420.883 11.2298 425.6 47.839L416.166 46.1545C414.369 56.0367 426.723 53.0047 434.022 60.7532C454.573 82.539 435.256 109.041 411.898 116.341C402.578 119.26 385.172 101.293 374.841 119.26C384.049 119.822 403.139 113.309 407.406 126.672C408.08 128.806 398.76 169.682 397.188 171.367C395.728 172.939 366.306 164.18 355.414 174.399C360.018 187.425 387.642 168.335 392.583 171.704C389.664 177.094 387.643 186.752 384.611 190.907C403.926 192.254 386.969 196.634 391.686 214.938C394.493 225.607 417.29 246.494 428.295 246.606C442.557 246.719 438.401 234.59 439.075 233.58C424.813 237.286 412.572 240.318 403.364 222.013C392.246 200.003 406.846 130.939 422.455 114.544C423.578 113.309 448.395 99.1591 451.203 98.1485C468.384 92.0844 525.881 93.9934 539.581 104.437C546.768 109.827 564.512 161.372 562.603 163.955C560.132 167.436 550.699 167.885 550.923 171.816C551.597 180.014 566.983 192.928 563.052 205.73C553.058 202.81 527.116 216.398 521.389 215.949C510.833 215.051 503.197 205.056 491.967 206.965C479.726 209.099 445.813 223.585 438.963 233.467C463.668 227.066 487.139 210.671 512.631 218.756L497.694 238.409C510.159 227.179 550.587 209.548 565.298 211.345C572.26 212.243 576.976 223.024 583.265 225.27C592.361 228.639 602.58 224.371 611.452 227.853C613.586 228.639 644.581 256.713 645.928 258.51C651.431 266.146 651.318 280.296 653.788 282.542C655.81 284.226 662.996 280.857 667.376 285.237C677.932 295.568 678.606 319.825 681.301 323.643C684.557 328.359 703.649 318.028 704.547 347.225C705.558 379.118 688.039 368.113 687.253 369.685C682.986 377.995 702.413 386.642 702.638 389.562C702.862 392.369 689.05 402.139 687.478 407.08C685.119 414.492 692.081 421.005 690.958 427.069C689.611 434.144 650.531 458.849 643.344 473.224C625.489 508.71 654.462 523.87 597.19 542.399C592.024 544.084 584.051 540.827 583.49 541.276C582.255 542.399 577.763 562.725 570.8 571.709C567.431 575.976 540.143 600.569 535.876 602.478C506.566 615.617 511.619 597.537 495.336 595.741C476.133 593.719 461.871 604.5 445.363 606.97C419.198 610.901 376.862 604.275 359.231 594.73C332.392 580.243 340.926 588.666 318.018 588.554C294.098 588.441 276.468 578.559 260.858 606.409C272.537 609.216 287.922 579.907 297.355 594.393C282.419 590.463 278.265 615.056 268.383 614.045C263.891 613.596 260.297 605.96 256.366 604.724C249.853 602.703 237.725 612.248 230.089 599.334L229.976 599.446ZM656.371 264.574C657.719 261.317 664.456 266.708 661.649 273.445C660.301 276.702 653.564 271.312 656.371 264.574ZM682.2 300.06L720.044 306.686L708.253 335.546L682.312 300.172L682.2 300.06ZM696.35 429.876C701.628 422.128 692.644 404.273 703.537 401.353C703.537 412.919 716.226 428.978 696.35 429.876ZM631.778 537.458L631.441 532.854C634.586 534.201 634.698 535.773 631.778 537.458ZM572.26 714.664L536.886 677.381C553.394 671.542 541.266 668.173 540.593 657.729C539.47 641.67 544.523 628.868 527.903 617.302L556.65 594.281C542.389 634.708 563.726 675.023 572.372 714.552L572.26 714.664ZM794.161 828.197C801.46 821.459 801.236 796.978 804.605 786.872C813.701 759.134 860.977 754.979 866.48 790.241C868.95 805.738 856.485 810.791 856.822 821.459C857.047 829.545 862.438 858.63 864.684 867.614C871.31 894.229 906.683 950.827 894.218 973.623C878.384 1002.37 831.78 1001.81 806.85 985.078C804.604 983.618 773.947 945.773 773.049 943.303C767.771 929.265 777.316 915.004 771.926 907.03C771.14 905.795 764.065 906.581 763.391 903.549C761.594 895.913 766.423 889.849 766.311 885.02C766.311 882.999 759.011 883.897 757.551 880.079C736.664 824.828 773.498 847.176 794.161 828.31V828.197ZM730.712 805.962C720.268 796.305 716.002 784.064 699.045 787.209C705.333 802.93 711.397 804.502 724.087 811.128C730.488 814.497 740.482 814.16 745.984 823.481L752.161 813.711C754.407 822.695 756.317 842.01 742.616 842.347C739.023 842.347 733.632 824.042 724.312 815.732C742.167 856.721 759.011 905.234 757.102 950.827C756.653 962.393 749.803 970.928 750.477 982.045C766.311 976.88 756.878 954.757 766.648 948.131C768.333 966.099 765.187 996.083 758.449 1012.82C756.203 1018.43 723.075 1077.39 720.493 1080.08C716.225 1084.57 714.541 1089.18 706.905 1087.94L705.895 1074.02L686.355 1126.8C681.189 1060.2 636.607 1020.68 571.025 1018.43L617.292 1032.92C673.777 1055.71 684.671 1115.57 675.35 1169.7C665.468 1171.04 669.847 1154.31 668.163 1152.51C660.639 1144.09 626.387 1124.21 615.607 1118.04C618.19 1119.61 650.083 1149.48 652.891 1153.08C667.265 1171.6 677.595 1199.9 657.943 1217.76C654.911 1202.71 647.275 1199.68 639.639 1191.03C682.2 1260.66 606.623 1329.61 535.988 1323.66C519.143 1322.2 475.347 1307.6 467.374 1292.21C465.69 1288.96 453 1248.64 452.214 1243.81C444.241 1196.42 529.25 1195.52 561.143 1203.83C578.1 1208.21 592.137 1220.45 609.319 1223.6C566.758 1187.21 501.625 1184.63 454.685 1213.83C452.102 1196.98 458.502 1178.34 469.844 1165.99C466.7 1166.33 460.524 1168.35 460.412 1164.42C468.946 1139.37 475.909 1126.91 498.593 1112.54L493.652 1108.27C489.047 1110.07 484.444 1111.64 480.064 1113.88C479.278 1088.84 506.79 1069.75 527.453 1061.22C536.549 1057.51 553.394 1060.88 554.966 1052.34C531.832 1049.76 496.01 1065.93 482.534 1084.46C465.128 1108.38 479.165 1135.78 437.727 1135.56C434.471 1135.56 435.145 1128.03 432.225 1127.58C415.493 1125.11 399.546 1122.42 381.578 1119.16C365.071 1116.13 354.74 1130.62 348.339 1100.07L338.119 1119.5C326.216 1101.19 317.12 1092.88 300.163 1080.19C305.89 1086.93 330.819 1121.18 331.605 1127.36C332.391 1133.42 326.89 1152.51 324.307 1159.14C322.285 1164.42 315.659 1162.85 315.435 1163.29C314.536 1165.09 315.435 1175.87 311.505 1183.73C289.27 1228.54 285.114 1191.59 260.071 1169.47C230.312 1143.08 183.709 1123.99 144.181 1119.72L199.992 1138.14C233.12 1155.1 266.81 1176.55 286.013 1209.45C263.553 1241.68 178.769 1227.75 152.828 1207.88C123.63 1185.42 104.539 1114.89 122.731 1082.55C131.715 1066.61 181.126 1075.25 197.185 1078.4C171.581 1068.07 155.074 1064.14 126.55 1069.53C124.866 1031.46 157.881 1026.96 188.875 1027.64C177.982 1026.29 165.854 1020.9 151.368 1025.73C149.796 1012.59 147.775 1004.06 158.78 995.072C192.02 967.784 286.125 1014.95 311.505 1044.6L352.606 1095.13C327.339 1027.08 238.736 973.511 166.977 982.495C171.02 955.206 161.811 929.153 189.885 913.094C185.843 894.565 185.281 916.351 183.148 916.014C161.474 912.308 165.854 873.229 186.63 868.849C172.368 858.63 167.314 855.373 170.346 835.16C172.816 818.427 185.057 820.449 187.19 816.855C188.201 815.171 179.443 786.872 181.127 778.112C181.801 774.856 189.548 775.193 191.233 766.209C193.591 754.081 189.099 741.054 191.345 731.396C193.928 720.391 212.008 718.819 212.907 717.247C214.367 714.889 201.004 701.188 215.041 681.985C226.271 666.713 226.832 661.772 235.816 647.847C247.607 629.655 268.719 615.505 289.045 608.992C287.473 610.002 285.451 608.767 284.328 606.97L288.708 604.275C300.836 592.596 332.616 599.222 348.787 595.291L340.252 605.174C374.84 610.564 415.716 611.575 446.823 625.499L443.455 611.799C462.995 604.5 461.871 618.762 462.994 619.323C473.775 625.387 470.406 594.505 498.929 605.51C525.881 615.842 483.994 622.355 477.93 635.045C488.261 638.189 507.913 617.976 511.619 617.639C532.394 615.842 538.347 654.809 536.438 670.419C526.106 665.814 528.128 640.435 511.171 641.895C525.545 652.9 524.983 671.766 533.63 686.365C543.625 703.097 566.87 718.819 580.57 732.969C586.634 739.37 586.072 752.172 598.312 750.15L598.65 754.754L585.062 760.369C597.303 761.717 608.87 747.904 620.436 751.835C623.356 752.845 670.858 781.032 673.778 783.615C679.28 788.444 684.558 797.203 686.355 804.39C702.75 797.652 685.119 785.299 683.996 774.294C682.761 761.268 696.461 779.685 697.248 780.021C708.927 785.412 740.594 786.759 730.712 805.85V805.962ZM881.191 304.44C879.732 310.953 863.785 339.814 857.497 334.086L851.882 322.857C857.048 364.182 892.534 420.107 894.106 459.523C894.78 474.683 875.802 538.581 863.336 546.217C834.027 564.185 790.904 550.709 760.471 542.174C772.712 551.944 786.3 571.147 796.968 580.131C798.316 581.254 813.14 574.404 818.642 598.436C825.605 628.868 809.994 675.36 776.866 684.793C757.326 690.295 696.349 684.007 676.023 677.83C663.783 674.125 656.034 662.67 643.232 663.007C648.173 669.633 666.59 684.119 673.216 686.253C697.36 694.114 737.675 679.739 740.594 714.439C742.84 740.493 731.835 730.386 724.985 737.91C719.37 744.086 717.349 758.797 711.285 763.177C702.301 769.69 664.008 767.107 663.671 750.263C655.698 748.69 661.312 757.113 659.291 759.134C650.869 766.995 633.687 748.129 625.826 745.995C615.27 743.075 608.195 749.027 602.58 747.567C577.537 740.717 559.234 639.649 560.357 615.168C562.042 581.816 599.774 535.661 636.158 541.725C640.875 542.511 670.521 616.74 695.788 614.719C641.323 571.709 613.249 480.523 688.04 442.342C720.382 425.834 719.033 441.668 746.097 450.652C755.754 453.908 766.535 453.459 775.744 456.716C790.118 461.657 800.337 474.459 816.395 472.55C793.262 456.716 773.386 447.62 752.274 428.08C747.445 423.588 746.771 409.663 737.787 419.882L767.883 448.069C725.772 439.31 706.681 423.251 711.397 377.433L721.279 385.968C707.804 343.295 722.178 299.274 754.744 269.066C727.68 277.376 733.744 301.969 699.83 297.477C678.606 294.67 669.846 281.306 665.916 261.093C659.178 227.066 667.488 217.97 674.226 188.436C662.21 212.58 647.612 221.227 653.451 255.366C637.056 250.312 628.971 228.976 620.661 222.799C601.683 208.537 567.768 218.869 566.758 179.677C566.533 171.03 573.945 164.517 572.822 156.88C572.373 153.961 552.159 105.223 550.25 102.528C540.256 88.3785 522.962 88.7154 508.251 90.7368C516.449 84.3358 526.442 64.9082 534.078 60.8655C536.774 59.4056 587.646 45.0315 591.239 44.5824C597.865 43.7963 692.98 57.3843 698.82 60.1918C702.526 61.9885 704.209 68.8387 707.803 71.0847C718.696 78.0471 738.349 79.507 732.846 101.742C730.601 110.501 712.857 111.4 704.435 116.678C682.424 130.715 679.168 165.976 674.003 188.436C687.029 162.271 690.846 131.164 719.033 116.341C724.086 113.646 754.295 103.763 758.226 104.1C760.584 104.325 801.236 120.945 802.695 122.854C806.289 127.795 794.722 138.351 796.968 148.683C797.754 152.164 809.433 147.56 807.636 161.934C806.176 173.388 788.882 184.281 812.016 187.425C822.122 188.773 833.016 183.383 840.315 194.949C847.951 228.414 888.603 271.087 881.191 304.327V304.44Z" fill="#E0A144"/>
<path d="M211.448 1082.1C209.426 1081.2 203.474 1080.98 197.186 1078.51C203.362 1079.74 205.945 1080.53 211.448 1082.1Z" fill="#E0A144"/>
<path d="M295.108 1076.04C293.649 1074.47 291.628 1073.23 290.168 1071.77C291.852 1073.12 293.424 1074.69 295.108 1076.04Z" fill="#E0A144"/>
<path d="M240.644 1098.72C234.468 1095.24 214.592 1083.45 211.447 1082.1C232.672 1088.05 229.078 1092.1 240.644 1098.72Z" fill="#E0A144"/>
<path d="M300.051 1080.3C298.254 1078.96 296.794 1077.27 295.109 1076.04C296.569 1077.61 298.704 1078.73 300.051 1080.3Z" fill="#E0A144"/>
<path d="M634.7 1186.87C633.352 1185.41 631.33 1183.73 629.758 1182.61C631.442 1184.07 633.24 1185.41 634.7 1186.87Z" fill="#E0A144"/>
<path d="M212.346 1030.67C207.854 1030.11 190.897 1027.75 188.764 1027.75C198.084 1028.87 201.228 1028.2 212.346 1030.67Z" fill="#E0A144"/>
<path d="M629.757 1182.5C627.96 1181.15 626.389 1179.13 624.816 1178.23C626.613 1179.46 628.185 1181.15 629.757 1182.5Z" fill="#E0A144"/>
<path d="M250.302 1102.65C248.842 1101.75 244.575 1100.85 240.645 1098.72C242.441 1099.73 246.035 1100.18 250.302 1102.65Z" fill="#E0A144"/>
<path d="M510.61 1149.14C499.492 1151.5 486.241 1164.53 469.846 1166.1C485.006 1149.59 492.193 1153.19 510.61 1149.14Z" fill="#E0A144"/>
<path d="M624.704 1178.23C602.356 1165.2 535.314 1143.98 510.496 1149.14C556.538 1139.04 587.196 1151.17 624.704 1178.23Z" fill="#E0A144"/>
<path d="M315.435 1163.41C306.901 1163.41 307.686 1154.2 305.104 1150.15C309.932 1154.2 317.232 1153.52 315.435 1163.41Z" fill="#E0A144"/>
<path d="M724.423 815.733C723.188 814.61 714.878 814.049 724.086 811.129C724.76 811.354 723.75 814.386 724.423 815.733Z" fill="#E0A144"/>
<path d="M511.843 1102.32C511.057 1102.54 502.747 1110.06 498.592 1112.65L493.65 1108.38C500.501 1105.69 502.185 1104.9 511.843 1102.43V1102.32Z" fill="#E0A144"/>
<path d="M615.719 1118.15C595.955 1106.47 533.742 1095.8 511.844 1102.32C557.886 1090.3 575.404 1094.79 615.719 1118.15Z" fill="#E0A144"/>
<path d="M305.104 1150.04C290.505 1137.69 274.334 1122.42 260.297 1111.3C261.869 1112.42 268.944 1112.53 274.896 1116.91C289.27 1127.47 296.12 1135.78 305.216 1150.04H305.104Z" fill="#E0A144"/>
<path d="M260.298 1111.3C258.501 1109.95 257.042 1108.16 255.357 1107.03C257.154 1108.38 258.613 1109.95 260.298 1111.3Z" fill="#E0A144"/>
<path d="M255.356 1107.03C253.559 1105.8 252.099 1103.77 250.414 1102.76C252.211 1103.89 253.671 1105.8 255.356 1107.03Z" fill="#E0A144"/>
<path d="M440.76 1088.84C442.332 1098.05 427.396 1092.66 423.128 1091.54C414.481 1089.29 402.016 1087.16 397.861 1077.95L440.647 1088.84H440.76Z" fill="#E0A144"/>
<path d="M384.724 1088.28C389.216 1105.23 374.392 1093.33 361.927 1094.57L361.59 1089.96L384.724 1088.28Z" fill="#E0A144"/>
<path d="M748.566 986.873C751.711 988.221 751.823 989.793 748.904 991.477L748.566 986.873Z" fill="#E0A144"/>
<path d="M800.899 646.611C798.428 658.74 789.331 654.36 780.797 652.339L739.135 632.35C760.247 635.606 778.439 650.205 800.899 646.499V646.611Z" fill="#E0A144"/>
<path d="M734.081 628.193L734.418 632.797C715.215 636.503 714.541 627.295 734.081 628.193Z" fill="#E0A144"/>
<path d="M576.078 1247.29L598.089 1262C591.688 1263.69 574.393 1254.82 576.078 1247.29Z" fill="#E0A144"/>
<path d="M577.09 1293.78C577.09 1293.78 567.432 1296.25 567.656 1292.21L578.438 1279.86C579.448 1282.33 577.539 1293.33 577.09 1293.89V1293.78Z" fill="#E0A144"/>
<path d="M609.992 1296.14C608.645 1299.4 601.907 1294.01 604.715 1287.27C606.062 1284.01 612.8 1289.4 609.992 1296.14Z" fill="#E0A144"/>
<path d="M521.054 1293.33C521.727 1293.9 521.053 1296.37 521.389 1297.94C514.202 1297.26 501.401 1296.93 502.187 1290.08C503.759 1289.29 520.267 1292.77 521.054 1293.45V1293.33Z" fill="#E0A144"/>
<path d="M535.313 1296.93C538.57 1298.28 533.18 1305.01 526.442 1302.21C523.186 1300.86 528.575 1294.12 535.313 1296.93Z" fill="#E0A144"/>
<path d="M566.42 1243.25C569.564 1244.6 569.677 1246.17 566.757 1247.85L566.42 1243.25Z" fill="#E0A144"/>
<path d="M605.951 1273.12C608.758 1275.93 615.72 1278.51 611.341 1281.88C608.87 1279.3 601.571 1276.71 605.951 1273.12Z" fill="#E0A144"/>
</svg>
