<svg width="1031" height="1490" viewBox="0 0 1031 1490" fill="none" xmlns="http://www.w3.org/2000/svg">
<path d="M996.742 497.71C997.977 494.453 1010.33 497.373 1004.15 476.71C995.619 447.962 964.288 369.016 946.32 345.658C944.972 343.862 912.967 320.728 910.609 319.605C901.063 314.777 884.668 319.605 882.984 317.921C880.064 315.001 882.422 307.365 875.909 302.873C865.353 295.574 846.037 305.007 837.278 300.964C829.978 297.595 828.294 286.365 827.508 286.028C822.904 283.558 817.963 295.686 815.38 296.247C810.102 297.595 808.306 293.103 790.338 299.392C788.204 300.066 787.419 288.723 776.638 294.788C775.291 295.574 770.124 322.862 754.739 309.162C753.167 307.814 735.762 276.82 734.751 273.676C718.917 224.826 702.746 198.436 673.661 154.415C668.719 146.891 653.335 133.528 651.763 128.474C649.966 122.972 655.917 117.357 655.468 115.448C654.345 110.394 639.859 110.17 638.286 108.485C634.693 104.555 635.704 97.1432 633.234 92.4267C631.325 88.8332 625.933 91.0791 623.912 88.7209C612.794 76.2558 612.571 59.0742 596.624 81.6461C596.4 63.3416 578.319 74.2344 566.64 64.9137C559.229 58.9619 553.838 42.791 545.416 38.9729C537.667 35.3793 533.512 44.2509 524.416 41.1066C522.507 40.4328 500.16 29.6522 499.037 28.7538C495.892 26.0586 496.005 18.8716 495.219 18.3101C493.31 17.1871 486.348 26.0586 479.834 24.711C472.647 23.1389 452.995 0.117828 449.963 0.00553047C435.701 -0.331363 443.899 14.8289 433.905 16.6256C423.349 18.5347 416.611 6.06959 414.702 5.5081C413.355 5.17121 394.151 8.09097 387.638 8.76475C370.906 10.3369 333.286 21.2298 319.922 20.3314C313.184 19.8822 311.388 11.0107 310.49 10.6738C303.078 7.86635 299.371 24.8234 294.206 29.0907C287.692 34.481 256.024 41.668 242.324 49.6412C234.014 54.47 196.508 80.86 190.107 86.3626C185.278 90.4053 184.716 99.5015 178.54 103.207C172.476 106.801 154.171 109.271 153.61 110.394C152.487 112.416 159.673 124.432 157.988 129.934C157.314 132.068 136.877 144.533 132.946 149.699C107.118 182.49 98.6962 217.527 90.3861 257.28C79.2687 309.948 94.8774 370.476 98.134 424.267C98.5832 431.229 92.7443 438.978 94.5411 442.347C96.4502 445.828 106.668 443.807 108.914 448.074C114.304 458.293 113.519 477.047 123.289 488.165C114.529 494.902 97.9091 485.694 92.1819 488.389C89.936 489.4 71.2953 521.966 67.7017 527.918C57.9318 519.72 49.3973 523.426 43.8947 534.319C37.4937 547.009 49.0594 554.308 28.8458 550.715C31.9901 559.361 31.2047 566.885 28.1727 575.42C25.8144 582.158 8.18394 603.382 7.39786 607.313C5.71339 615.061 10.6536 622.136 9.30604 627.189C8.63226 629.772 0.884418 632.243 0.210631 636.847C-1.92303 650.098 12.788 644.708 15.7078 649.986C20.9858 659.868 17.5046 706.135 22.7826 719.498C23.7933 721.969 53.3279 759.139 55.3493 760.824C59.7289 764.305 66.3533 759.926 71.0699 763.968C77.5831 769.583 86.0064 794.064 87.4663 794.963C90.1614 796.535 100.156 787.102 104.199 786.989C110.038 786.989 113.519 796.422 118.123 797.995C122.615 799.454 127.107 793.166 129.016 793.727C132.048 794.626 159.898 809.561 161.92 809.561C166.861 809.561 171.352 803.048 174.047 803.273C174.721 803.273 175.619 810.46 184.715 810.572C189.993 810.572 236.26 797.208 237.944 795.075C241.426 790.695 236.822 785.642 237.608 782.497C237.833 781.711 251.533 785.193 247.041 771.043C252.881 768.348 253.329 775.872 253.329 779.802C253.329 821.24 213.464 815.176 212.341 818.096C211.443 820.342 219.978 856.614 216.496 865.598C214.363 871.101 202.122 869.865 199.314 876.603C197.63 880.646 204.256 887.271 204.144 892.774C204.144 897.49 187.748 959.254 185.839 962.286C182.358 968.014 173.149 968.238 172.475 975.538C171.24 987.666 182.695 998.671 182.919 1008.67C183.144 1025.85 156.192 1069.64 151.476 1091.65C143.727 1127.81 147.77 1162.96 164.84 1195.98C84.0975 1180.26 20.648 1261.34 40.0755 1337.02C44.7921 1355.1 96.0003 1428.88 110.711 1445.17C165.176 1505.47 265.345 1500.53 326.323 1452.24L324.414 1469.65C340.698 1469.65 348.783 1456.4 359.676 1450C363.045 1447.97 371.243 1451.23 377.644 1445.62C382.922 1440.9 382.36 1428.21 388.648 1421.47C394.825 1414.85 404.595 1412.94 411.558 1408C416.723 1404.18 418.969 1395.76 422.45 1394.07C428.402 1391.26 437.048 1398.9 443 1396.09C447.604 1393.85 448.952 1383.63 453.22 1381.72C466.583 1375.43 483.99 1399.46 487.696 1410.69C485.113 1411.93 482.642 1413.27 480.059 1414.51C483.765 1414.62 487.358 1415.18 490.727 1416.08C497.465 1413.05 502.294 1411.25 503.979 1411.59C505.102 1411.81 506.674 1417.32 509.369 1417.88C515.208 1419.23 523.631 1416.76 526.888 1418.67C529.92 1420.46 530.256 1428.66 537.78 1431.47C550.245 1436.18 598.308 1432.48 613.019 1435.85C621.105 1437.64 623.913 1447.3 624.699 1447.64C627.619 1448.76 633.682 1428.55 655.131 1427.31C668.27 1426.53 661.982 1431.24 678.265 1425.4C676.918 1427.2 643.003 1417.77 634.019 1424.73C627.73 1429.56 633.346 1437.64 626.496 1438.77C620.881 1416.53 615.265 1430.34 603.025 1430.34C566.64 1430.46 539.577 1417.54 508.583 1404.96C503.305 1402.83 498.252 1407.55 497.241 1407.44C495.444 1407.21 485.113 1380.37 477.364 1376.22C452.659 1363.19 443.787 1382.51 432.557 1385.99C399.093 1396.32 396.061 1406.99 375.061 1431.35C371.355 1435.62 344.964 1443.48 339.237 1452.92L334.072 1441.46L314.195 1446.63C326.435 1437.87 339.462 1431.24 344.852 1417.43C343.168 1419 339.238 1416.76 339.799 1414.51C333.061 1426.41 318.126 1441.91 306.335 1448.87L312.174 1455.61C250.747 1491.43 167.646 1496.82 116.439 1440.79C101.615 1424.5 52.6537 1353.31 47.9372 1334.89C37.1566 1292.67 54.1133 1234.05 95.3266 1214.06C171.577 1176.89 256.025 1224.84 292.185 1295.03C302.292 1287.28 282.302 1271.67 281.966 1263.81C300.832 1280.31 328.008 1287.84 337.329 1312.99L352.377 1347.58C346.537 1298.84 322.168 1285.14 287.693 1259.88C276.126 1251.34 261.528 1244.72 249.063 1233.6C245.245 1230.12 240.976 1227.08 239.404 1221.69C239.18 1214.4 306.559 1169.7 316.89 1170.04C332.499 1170.6 327.896 1222.14 352.489 1215.86C344.516 1195.53 326.998 1175.43 324.864 1153.87C322.955 1134.55 331.488 1109.96 332.05 1090.53C332.611 1069.98 332.163 1047.86 332.612 1026.63C332.949 1011.47 320.821 1007.99 339.687 999.794L345.864 916.02C344.179 909.282 355.633 900.186 355.521 897.49C355.072 886.598 341.82 871.438 357.542 872.336C333.847 860.545 347.996 881.993 347.66 889.742C347.323 899.624 338.002 906.811 336.655 913.998C329.917 949.148 329.131 996.2 324.414 1031.91C322.056 1049.65 320.821 1076.04 300.72 1080.42C304.763 1090.64 321.382 1071.22 323.067 1085.14C323.853 1091.65 318.463 1157.46 316.442 1160.6C315.768 1161.73 297.238 1167.34 291.398 1171.27C277.473 1180.71 237.833 1215.07 223.459 1214.06C220.988 1213.95 180.448 1196.43 177.528 1194.18C130.7 1156.67 168.433 1070.43 184.155 1026.52C185.839 1021.69 185.053 1012.71 185.39 1012.15C191.791 1001.93 194.261 1020.57 199.314 1017.09C200.887 1010.01 183.593 984.634 183.93 982.837C184.94 977.784 194.037 965.768 196.619 956.447C199.876 944.543 209.308 882.218 211.33 878.625C212.677 876.379 220.202 877.389 222.111 872.673C224.245 867.395 228.848 837.187 224.132 832.245H241.089L234.127 821.24L242.099 827.641C257.933 810.684 257.147 785.08 264.784 766.663C268.153 758.69 279.27 746.225 284.323 736.792C288.366 729.268 293.756 705.573 299.708 702.766C302.852 701.306 326.997 706.696 338.002 705.124C372.253 700.295 391.681 686.82 420.092 675.927C442.889 667.167 534.074 658.296 562.935 656.387C593.255 654.366 585.507 662.002 592.357 686.707C603.924 695.354 595.614 679.633 599.319 680.643C616.276 685.023 600.668 701.531 605.609 712.985L625.484 707.932C629.302 715.456 620.544 720.509 622.116 727.808C622.678 730.504 640.757 751.166 643.901 753.862C650.302 759.027 657.602 758.69 662.543 762.396C676.917 773.514 678.827 787.102 700.837 786.316L702.185 775.31C682.532 786.203 675.233 754.984 662.318 751.503C660.746 751.054 631.773 762.059 651.201 741.733C621.891 734.209 635.704 715.231 632.784 710.065C632.335 709.167 621.667 694.681 620.881 694.119C619.646 693.221 614.816 698.274 614.479 698.049C605.608 691.087 619.645 688.616 619.982 687.83C623.688 679.408 606.619 678.734 602.352 675.814C598.309 673.007 607.181 655.376 594.379 669.189L603.699 656.162L585.282 650.323C605.72 640.665 629.415 630.334 648.281 618.318C664.34 608.099 687.923 580.249 705.104 581.821C708.923 582.158 732.505 608.885 739.804 614.724C746.317 619.89 755.414 619.89 760.916 624.831C775.29 638.082 774.055 669.863 804.713 645.045C809.541 653.355 806.397 669.75 811.563 676.151C816.616 682.552 831.664 684.349 832.337 686.82C832.562 687.83 825.262 696.028 827.508 700.745C830.428 706.921 857.38 705.91 861.984 710.851C864.792 713.883 860.974 727.471 877.481 737.017C881.636 739.375 884.443 734.771 887.924 736.904C902.411 745.551 902.411 762.284 903.646 763.407C906.005 765.54 922.849 766.327 927.791 777.332C919.705 785.754 925.208 786.203 915.55 787.214C903.872 788.562 923.411 795.636 924.085 796.085C937.673 805.406 969.228 829.887 976.752 843.138C985.175 858.074 994.046 952.966 994.607 975.65C994.72 981.377 994.608 1002.6 992.249 1005.52C984.052 1015.4 924.422 1025.17 911.171 1023.15C893.989 1020.57 878.605 994.179 858.279 1000.69C853.787 981.152 812.909 925.116 819.198 908.945C820.321 906.025 843.904 888.282 842.557 875.592C831.776 877.389 829.98 892.886 824.365 898.501C805.499 917.367 810.327 901.758 801.006 894.571C798.984 892.999 784.386 882.443 783.376 881.769C776.526 877.502 765.184 876.378 758.221 869.753C763.499 880.197 776.076 886.036 784.611 893.897C791.349 900.073 787.418 911.191 798.76 903.779C803.702 916.357 814.819 938.592 822.23 951.394C833.348 970.821 856.481 989.687 847.61 1010.57C841.658 1024.72 831.102 1016.3 835.257 1028.54L850.305 1028.88C838.626 998.446 880.738 1001.14 886.241 1028.21L896.011 1017.2C903.759 1025.85 914.203 1046.73 925.208 1039.55C927.342 1038.2 924.871 1031.57 925.208 1031.13C933.518 1021.69 936.55 1044.94 948.117 1046.29C952.609 1046.85 944.411 1036.63 952.047 1036.85C948.341 1057.29 961.143 1047.52 971.137 1053.25C985.961 1061.67 980.571 1093 991.464 1107.49L946.768 1065.83C849.967 1010.69 750.697 1075.71 754.179 1185.2C756.2 1249.32 788.429 1305.92 836.38 1347.13C806.621 1355.89 791.91 1368.92 773.718 1392.95L768.776 1381.61L752.831 1385.65L758.894 1392.5C750.472 1396.43 740.365 1392.72 732.28 1395.31C728.911 1396.32 727.676 1400.47 727.002 1400.7C728.013 1399.35 738.681 1404.74 743.847 1404.29C769.001 1402.05 779.332 1389.13 796.851 1379.47C804.375 1375.32 813.471 1375.88 819.535 1373.07C825.487 1370.38 809.765 1362.74 830.54 1357.24C827.396 1353.08 835.369 1351.06 834.47 1356.23C864.117 1350.95 868.385 1362.4 892.416 1363.98C929.699 1366.45 969.453 1348.03 994.159 1320.52C1002.36 1311.31 1008.53 1293.45 1017.97 1286.15C1019.43 1283.01 1021 1279.86 1022.57 1276.72C1021.78 1261.67 1029.42 1249.1 1030.43 1233.71C1034.14 1174.19 1007.75 1137.02 990.004 1083.91C980.796 1056.39 991.464 1058.19 960.694 1036.63C955.978 1033.26 931.271 1029.22 957.998 1023.49C987.42 1017.09 996.518 1021.8 998.651 1029.22C1001.12 1021.69 1004.04 1014.39 1005.72 1006.42L997.527 917.704C994.383 905.127 992.362 892.325 991.576 879.523C990.229 873.234 989.106 866.945 988.544 860.432C988.432 858.972 988.544 857.4 988.544 855.828C987.983 854.48 987.421 853.133 986.859 851.785C985.736 848.866 984.613 845.946 983.49 843.026C983.153 842.352 982.929 841.679 982.704 841.117C981.918 839.433 981.02 837.187 980.122 835.39C979.448 834.491 978.886 833.593 978.437 832.807L976.527 830.673C974.057 827.753 969.453 823.149 969.677 823.823L934.416 794.963C937.336 775.535 935.427 773.851 923.411 759.14C923.635 759.252 923.973 759.476 924.198 759.589C919.481 754.76 914.091 750.717 908.813 746.45C906.23 744.428 903.872 742.183 901.626 739.824L874.224 724.889C867.711 696.253 853.899 701.194 844.017 687.381C833.798 673.119 843.679 672.67 820.995 674.804C816.503 664.585 816.279 642.462 808.867 635.275C799.435 626.179 793.595 648.526 787.868 645.045C787.194 644.596 787.194 637.745 783.825 634.938C773.494 626.066 765.857 614.949 759.456 609.671C755.75 606.639 750.585 612.029 746.766 608.997C724.868 591.703 748.563 547.907 760.129 528.929L785.621 564.864C786.295 592.939 803.59 577.554 808.98 580.698C810.552 581.596 821.22 608.099 829.98 611.019C844.915 616.184 851.653 593.275 856.706 631.681C873.776 620.115 891.07 625.617 908.813 625.28C912.968 625.28 916.561 620.339 919.143 620.002C922.175 619.553 923.41 627.302 925.881 626.965C928.015 626.628 957.212 607.088 961.367 603.831C966.421 600.013 965.297 593.051 966.42 592.04C969.902 589.008 982.03 588.896 987.87 578.677C990.34 574.409 984.838 559.698 993.484 546.784C998.875 538.699 1020.89 527.918 1012.91 513.656C1009.77 508.041 993.934 505.346 996.742 498.047V497.71ZM183.48 995.527L182.47 991.484C185.39 992.158 185.726 993.505 183.48 995.527ZM613.694 702.204C616.614 702.878 616.95 704.226 614.704 706.247L613.694 702.204ZM810.776 1370.04L804.713 1363.3C811.338 1369.37 809.878 1360.72 815.155 1362.63L810.776 1370.04ZM959.122 1339.5C826.274 1413.16 715.436 1213.72 780.793 1105.47C792.135 1086.71 812.686 1065.6 834.135 1058.86C995.956 1008.22 1094.89 1264.14 959.122 1339.5ZM996.067 1016.41L995.057 1012.37C997.977 1013.05 998.313 1014.39 996.067 1016.41ZM968.667 407.647L997.527 484.683C963.613 477.159 928.015 494.004 903.983 517.25C902.748 495.801 881.973 453.801 882.984 435.497C883.882 420.449 962.603 401.695 968.667 407.759V407.647ZM95.3266 784.407L94.3163 780.364C97.236 781.038 97.5725 782.385 95.3266 784.407ZM266.693 740.386C259.731 750.156 239.18 758.578 236.822 761.835C236.036 762.845 235.812 780.588 229.299 785.754C226.379 788 204.817 799.118 203.469 798.556C195.609 795.861 199.988 777.893 183.368 804.171C178.876 788.786 162.481 795.861 152.038 791.144C147.433 789.011 144.962 782.273 142.491 781.374C139.234 780.139 124.637 790.134 119.583 788.449C115.091 786.877 111.16 779.69 106.332 776.995C96.5616 771.605 65.2312 757.23 60.7393 754.086C58.1565 752.177 58.0444 744.204 53.8893 739.824C47.7129 733.536 43.7824 741.172 35.4723 719.835C23.1196 688.167 32.1023 665.595 11.8887 633.478C10.6534 631.457 18.4029 630.783 18.5152 626.74C18.7398 621.462 14.8087 616.409 16.3809 608.997C17.0547 605.853 44.1194 561.607 48.2744 553.522C50.4081 549.367 48.2743 541.506 50.9695 538.025C55.1245 532.635 64.4449 537.126 68.9369 534.993C73.7657 532.747 74.1017 523.988 79.2674 521.629C84.2085 519.271 91.7337 524.774 94.5411 516.688C95.4395 514.218 86.4545 504.335 94.7645 499.844C96.1121 499.057 123.401 496.25 124.861 496.699C127.893 497.598 141.593 548.019 145.299 556.554C148.106 562.955 153.946 566.549 156.528 571.939C161.357 581.709 165.513 608.099 178.652 609.109C182.807 609.446 190.106 605.74 191.79 606.751C193.811 608.099 193.139 616.521 195.497 619.104C208.636 634.04 215.822 647.965 228.399 662.226C244.458 680.531 268.377 686.034 284.548 703.215C276.463 712.985 272.982 731.627 266.806 740.273L266.693 740.386ZM725.767 592.602L724.757 588.559C727.676 589.233 728.013 590.58 725.767 592.602ZM985.399 543.415C979.335 554.196 977.427 582.158 976.079 583.73C974.282 585.752 964.961 581.933 961.592 583.618C956.988 585.864 959.122 594.848 957.775 596.644C955.304 599.676 944.523 594.174 942.053 597.206C940.817 598.666 942.389 605.516 940.143 608.099C934.865 614.051 925.432 611.58 917.571 612.703C914.427 613.152 910.609 617.981 909.036 617.532C907.464 617.083 904.994 608.548 899.266 608.211C890.62 607.65 886.914 617.532 867.149 614.5C864.904 614.163 861.984 617.756 861.872 617.532C859.738 615.061 860.749 605.404 857.38 602.259C853.786 598.89 837.166 604.618 833.348 602.708C830.203 601.136 820.434 578.115 815.942 575.083C810.44 571.49 796.514 575.532 795.616 574.971C794.044 573.848 800.332 558.239 785.734 554.42L759.119 490.86C757.322 490.635 752.269 521.854 750.697 526.57C749.461 530.164 744.521 532.522 743.061 536.34C733.516 562.393 740.589 590.58 699.713 574.185C695.783 571.265 709.259 553.297 711.28 547.121C719.815 520.169 714.987 495.913 703.757 469.972C697.693 456.047 681.073 450.432 670.18 434.935C664.004 426.064 663.666 414.609 653.896 405.738C647.046 399.449 628.741 391.476 623.126 382.492C620.656 378.674 620.994 370.589 619.646 369.353C618.411 368.23 603.699 386.984 599.657 357.562C592.919 358.573 600.667 381.931 601.79 382.492C603.699 383.503 614.03 377.214 617.399 378.786C618.522 379.348 625.036 394.396 630.201 400.235C637.051 407.872 653.223 413.936 654.683 415.62C660.522 422.246 659.96 431.679 664.901 438.641C686.125 468.4 708.586 470.646 710.719 516.239C713.639 579.575 619.757 636.173 566.753 651.109C522.62 663.462 462.203 652.793 423.573 667.28C407.964 673.232 390.558 686.37 373.264 691.873C290.276 718.488 211.892 669.301 203.582 581.372C201.448 558.239 208.859 512.758 204.255 491.084C201.897 479.967 175.62 436.508 176.967 431.903C194.823 434.374 182.919 423.706 183.817 417.417C185.951 401.583 188.085 383.166 205.491 377.663L192.464 368.455L173.71 402.931C170.791 390.465 166.075 370.027 168.657 357.674C168.994 356.102 179.214 328.589 180 327.129C185.727 316.349 209.87 301.975 202.907 284.905L198.977 294.338C164.839 280.301 206.839 299.055 187.074 314.44C181.235 319.044 177.417 302.312 167.197 311.071C167.422 318.707 178.876 308.488 177.64 318.932C176.967 324.883 168.207 341.728 166.411 349.477L164.165 316.012L152.261 319.156C169.106 336.45 154.284 342.065 145.075 357.113C171.128 344.872 160.347 377.327 162.593 391.027C171.801 449.422 195.721 476.823 198.977 541.169C199.763 556.217 195.497 570.367 195.722 583.169C195.834 592.602 205.267 607.65 198.304 613.377C197.967 594.735 178.091 603.607 173.037 595.971C168.545 589.233 169.218 576.992 165.4 568.907C145.973 528.367 135.642 486.592 117.786 449.197C113.856 440.887 103.525 438.866 102.739 436.058C102.177 434.149 105.321 407.759 103.861 396.866C103.075 390.802 97.1232 385.524 96.5617 379.011C88.8131 299.841 93.1928 219.66 140.133 154.527C145.748 146.779 158.213 141.389 162.48 133.865C166.299 127.015 163.717 118.255 164.84 116.683C166.636 114.212 178.315 112.977 183.705 109.271C199.427 98.7154 224.133 70.304 241.763 59.0742C263.661 45.037 294.992 46.0476 308.13 23.925C311.163 21.679 310.377 29.203 312.735 29.9891C318.35 31.8981 353.723 20.4437 365.739 19.2085C381.798 17.524 440.306 26.5078 445.472 20.6684C448.392 17.4117 445.359 8.76476 448.728 8.98936C459.171 12.1337 462.653 24.4865 470.626 29.0907C478.375 33.5826 489.155 31.112 497.802 34.5933C505.101 37.6253 524.866 51.3257 526.438 51.8872C534.748 54.2454 543.732 43.0156 544.743 43.8017C545.641 44.4755 547.438 54.8069 550.807 59.4111C561.812 74.3467 596.961 97.817 614.929 85.352C611.335 107.362 617.624 93.3251 626.046 95.3465C626.832 95.5711 624.699 106.015 630.314 111.967C634.02 116.009 641.207 114.213 643.228 118.143C665.463 162.838 705.441 206.072 724.419 251.328C727.451 258.515 724.981 271.317 729.809 282.996C737.446 301.638 765.744 314.552 743.509 337.124C754.402 327.242 766.418 322.413 777.311 315.45C780.68 313.317 777.985 307.814 780.231 307.14C786.52 305.119 817.065 301.301 823.803 302.312C830.541 303.435 864.342 310.06 868.834 311.408C873.214 312.755 871.642 322.188 877.706 324.21C885.005 326.68 893.764 322.75 896.571 324.21C900.839 326.343 901.401 345.546 914.315 331.734C913.866 352.509 931.608 342.514 942.726 352.509C948.341 357.562 951.709 390.353 963.613 399.674C936.774 399.225 910.609 407.759 887.476 420.561C883.321 422.92 880.963 429.433 876.246 430.893C873.214 431.791 871.529 424.604 867.374 422.807C861.086 420.112 844.69 416.968 842.107 414.16C839.749 411.69 841.658 403.492 838.177 398.102C822.905 373.958 799.772 377.888 776.75 366.995C784.387 375.081 795.166 398.214 801.006 403.604C803.476 405.963 810.776 400.797 811.113 402.594C816.952 428.422 830.54 458.743 840.535 484.01C841.658 486.705 848.732 484.01 849.968 486.817C851.764 490.86 850.755 515.228 853.674 517.25C880.626 500.181 858.054 498.833 857.717 497.373C851.204 468.512 841.097 458.743 829.755 435.609C829.081 434.262 820.546 408.208 821.22 406.861C821.557 406.299 829.866 402.594 831.888 399.562C833.123 434.262 868.722 416.743 877.819 445.604C882.31 459.753 869.958 459.978 868.049 468.849C866.701 475.026 884.443 499.619 885.117 506.469C885.566 511.073 874 513.768 875.572 520.169C884.331 516.801 908.363 528.367 913.416 526.57C919.368 524.437 917.347 511.747 922.513 508.266C931.721 501.977 986.971 482.325 991.687 492.657C995.281 500.517 974.282 510.961 1006.74 518.485C1001.46 528.03 991.352 533.87 985.961 543.303L985.399 543.415ZM898.931 514.105C895.786 521.629 891.63 516.014 889.497 510.287C885.005 498.496 881.188 486.817 876.471 474.913C873.551 467.502 879.053 465.368 882.647 467.389C889.834 471.432 896.235 504.897 898.931 514.218V514.105ZM826.273 396.754C791.797 404.727 788.653 367.669 818.188 387.546C820.097 388.893 826.722 396.193 826.273 396.754Z" fill="#E0A144"/>
<path d="M830.654 1356.56C830.654 1356.56 834.584 1355.78 834.584 1355.55C834.135 1355.55 830.991 1356.45 830.654 1356.56Z" fill="#E0A144"/>
<path d="M727.117 1400.13C727.117 1400.13 730.373 1406.87 726.667 1408.89C717.571 1413.72 690.62 1421.02 678.38 1425.4C678.604 1425.06 675.122 1418.78 678.828 1416.64C686.464 1412.49 715.325 1404.29 727.117 1400.13Z" fill="#E0A144"/>
<path d="M343.956 1413.5C343.956 1413.5 340.025 1414.29 340.025 1414.51C342.608 1409.91 340.249 1398.68 347.886 1395.53C351.479 1402.27 345.416 1406.76 344.068 1413.5H343.956Z" fill="#E0A144"/>
<path d="M345.079 1417.54C345.079 1417.54 344.293 1413.72 344.068 1413.5C344.068 1413.72 346.651 1413.5 345.079 1417.54Z" fill="#E0A144"/>
<path d="M395.499 753.974C397.296 748.359 390.334 714.22 390.109 705.237C389.885 697.488 386.853 694.905 397.184 694.119C394.938 708.83 400.777 717.252 406.392 730.054L397.409 728.033C396.061 731.402 402.574 747.348 402.237 750.38C401.9 753.637 395.836 753.412 395.612 754.086C394.826 756.332 402.912 763.968 403.248 770.257C403.81 782.385 384.269 823.374 378.317 836.176C373.264 847.069 368.884 859.534 361.473 869.192C362.596 853.695 368.772 832.021 374.275 817.647C378.879 805.519 392.692 802.824 381.912 783.171C389.211 779.353 383.933 792.043 391.906 789.123C378.655 776.77 396.51 772.278 395.387 768.797C394.376 765.541 389.21 762.284 388.087 758.578C386.964 754.872 395.499 754.648 395.612 754.199L395.499 753.974Z" fill="#E0A144"/>
<path d="M374.5 1236.18C377.307 1238.54 372.816 1249.21 374.837 1254.04C376.185 1257.18 383.709 1255.61 386.516 1258.19C395.163 1266.39 407.292 1284.02 411.896 1295.14C413.131 1298.17 422.339 1308.39 413.131 1310.52C409.762 1311.31 373.826 1262.35 369.222 1255.83C365.292 1250.22 369.222 1240.22 353.275 1234.5C354.174 1229.33 373.714 1235.39 374.5 1236.07V1236.18Z" fill="#E0A144"/>
<path d="M719.367 789.571C722.399 790.582 729.586 786.09 731.046 786.876C735.987 789.346 726.33 811.918 727.116 815.624C728.463 822.587 743.849 824.72 730.373 833.816C728.689 830.672 729.698 822.474 725.206 822.362C712.854 821.913 727.452 834.153 718.356 836.848C719.367 829.1 706.004 821.913 705.779 820.902C704.656 816.073 722.624 809.56 722.511 803.721C722.399 795.86 701.736 789.908 706.902 775.983C719.928 774.748 718.245 789.234 719.256 789.459L719.367 789.571Z" fill="#E0A144"/>
<path d="M320.71 1355.78L298.25 1285.03L324.191 1335.9L320.71 1355.78Z" fill="#E0A144"/>
<path d="M735.537 853.806C752.045 846.731 745.869 826.63 740.254 814.277C759.907 815.85 752.382 862.229 748.564 863.015C747.666 863.239 734.864 855.603 735.537 853.806Z" fill="#E0A144"/>
<path d="M432.22 1327.14L428.514 1362.07C424.247 1347.47 412.904 1335.23 432.22 1327.14Z" fill="#E0A144"/>
<path d="M321.72 1359.71C331.265 1360.16 329.356 1362.74 329.693 1369.25C330.816 1389.13 326.099 1415.18 317.115 1433.04C317.452 1408.45 331.153 1384.41 321.72 1359.71Z" fill="#E0A144"/>
<path d="M294.769 1073.24L296.791 1081.21L283.877 1080.31L282.865 1076.38L294.769 1073.24Z" fill="#E0A144"/>
<path d="M355.747 1227.65C347.661 1230.9 346.763 1230.34 345.752 1221.69L355.747 1227.65Z" fill="#E0A144"/>
<path d="M416.163 1314.23C419.195 1314.9 415.602 1321.64 409.201 1320.18C406.169 1319.51 409.762 1312.77 416.163 1314.23Z" fill="#E0A144"/>
<path d="M701.286 820.117C704.319 820.79 700.725 827.528 694.324 826.068C691.292 825.395 694.885 818.657 701.286 820.117Z" fill="#E0A144"/>
<path d="M741.153 809.785C740.479 812.817 733.741 809.223 735.201 802.822C735.874 799.79 742.613 803.384 741.153 809.785Z" fill="#E0A144"/>
<path d="M704.206 798.107C707.238 798.781 703.645 805.518 697.244 804.059C694.212 803.385 697.805 796.647 704.206 798.107Z" fill="#E0A144"/>
<path d="M284.775 1067.4C287.807 1068.07 284.213 1074.81 277.812 1073.35C274.78 1072.67 278.374 1065.94 284.775 1067.4Z" fill="#E0A144"/>
<path d="M252.883 1067.17C255.69 1069.19 262.203 1070.32 258.946 1073.91C256.476 1072.11 249.626 1070.88 252.883 1067.17Z" fill="#E0A144"/>
<path d="M238.846 1062.23C241.653 1064.25 248.166 1065.37 244.909 1068.97C242.439 1067.17 235.589 1065.94 238.846 1062.23Z" fill="#E0A144"/>
<path d="M407.851 548.242C405.493 551.387 403.248 560.595 400.553 565.985C397.97 571.039 389.997 575.98 389.435 577.889C386.291 589.006 402.573 622.808 412.68 630.557C422.001 637.631 431.995 632.353 438.62 640.888L386.851 654.139L409.76 644.032C383.595 631.343 388.311 592.038 380.226 577.664C378.766 575.081 330.141 578.338 331.377 553.633C348.109 560.82 371.916 568.905 389.21 559.247C396.959 554.868 410.995 505.12 429.075 528.59C422.45 535.777 413.69 540.157 407.851 548.242Z" fill="#E0A144"/>
<path d="M603.813 407.197C605.386 408.208 603.814 434.373 602.803 435.272C599.883 437.742 592.358 435.272 586.407 438.865C578.097 443.806 535.087 500.517 520.938 481.651L603.701 407.31L603.813 407.197Z" fill="#E0A144"/>
<path d="M333.738 217.524C335.535 218.198 338.904 227.856 342.835 227.182C344.856 226.845 351.93 217.974 357.882 216.177C363.834 214.38 377.534 218.423 385.395 218.984C389.774 219.321 395.278 214.155 396.401 214.492C398.759 215.278 405.496 227.519 410.774 230.102C420.881 235.043 463.218 239.759 478.49 244.476C490.955 248.406 486.239 262.893 505.779 240.882L512.854 251.888L510.719 226.957C515.773 231.898 515.772 245.936 517.345 248.856C518.018 250.203 528.013 243.69 529.922 251.775C522.173 251.551 514.762 260.198 509.372 261.321C507.126 261.77 505.778 255.481 502.072 255.032C462.207 250.203 434.469 237.176 396.849 226.957C339.128 211.348 309.931 257.39 262.654 260.871C256.59 261.321 247.718 255.369 246.707 256.604C245.696 257.839 238.397 281.197 233.905 285.689C223.237 296.358 212.007 288.047 212.793 273.786C220.654 270.08 216.162 290.293 225.707 283.106C232.221 278.278 242.777 238.075 263.439 239.535L267.594 255.481C278.824 248.519 298.364 244.364 308.696 237.85C315.097 233.808 329.022 215.728 333.85 217.524H333.738Z" fill="#E0A144"/>
<path d="M741.49 397.314C743.174 397.651 746.879 395.293 749.462 395.293C752.157 397.314 743.062 423.817 745.982 432.014C746.543 433.587 757.773 435.608 759.794 457.843C760.805 468.511 760.355 489.174 749.125 493.104C730.933 469.859 754.628 464.693 749.687 446.164L734.863 454.137C731.943 447.848 743.959 447.511 743.398 441.672C742.836 435.383 728.463 424.041 741.04 412.138C723.858 410.341 720.827 392.822 741.49 397.202C735.762 393.945 729.025 402.255 741.49 405.624C745.083 405.287 741.826 397.427 741.49 397.202V397.314Z" fill="#E0A144"/>
<path d="M593.931 269.407C597.412 290.968 582.926 298.492 585.958 271.428C573.156 280.188 557.995 273 552.717 290.631C571.808 286.701 563.386 296.246 569.899 307.139C573.38 312.866 578.771 316.01 581.691 321.625C584.611 327.24 584.834 340.716 587.754 342.85C593.144 346.668 631.325 339.368 614.256 323.759C609.427 317.134 619.198 322.411 620.321 324.882C622.342 329.374 626.048 334.54 621.668 338.919C617.625 342.962 590.562 358.459 586.631 356.213C580.68 347.229 580.118 329.711 574.952 322.187C572.144 318.032 566.081 319.492 564.734 317.358C562.376 313.652 563.161 302.198 557.322 296.92C554.739 294.562 545.643 295.46 544.744 292.653C544.071 290.519 556.648 276.257 555.862 272.776C555.413 270.867 541.825 262.557 538.232 257.84C532.392 250.429 532.391 238.862 521.498 234.819C543.172 231.001 534.862 243.691 539.242 250.429C555.862 276.369 567.541 269.407 594.043 269.407H593.931Z" fill="#E0A144"/>
<path d="M221.213 505.458C223.234 506.693 219.305 517.025 220.428 518.035C223.235 520.506 276.352 525.11 268.379 540.046C265.796 544.762 239.069 533.42 233.117 533.982C227.39 534.543 220.54 547.794 210.658 546.334C204.93 536.677 217.957 534.094 219.08 530.837C220.315 527.244 200.775 509.838 221.325 505.346L221.213 505.458Z" fill="#E0A144"/>
<path d="M548.338 323.648L503.083 311.52C497.805 306.691 473.323 306.354 473.885 298.156C474.558 288.948 481.072 291.98 486.687 293.44C498.59 296.696 516.109 301.301 527.226 305.006C537.445 308.488 547.215 310.397 548.338 323.536V323.648Z" fill="#E0A144"/>
<path d="M736.099 343.412C737.11 351.048 735.201 358.909 737.334 366.545C738.008 368.903 764.397 384.176 750.36 390.689C741.825 394.62 729.249 378.561 745.869 381.144C745.42 371.037 737.896 380.807 734.527 371.711C732.393 365.871 722.736 342.177 736.099 343.412Z" fill="#E0A144"/>
<path d="M485.787 212.137V220.559L442.889 210.453C459.284 202.03 469.504 220.335 485.787 212.137Z" fill="#E0A144"/>
<path d="M143.84 366.657C145.637 367.555 147.66 360.705 150.692 364.074C147.547 370.026 139.462 373.17 142.382 381.143L136.317 374.181C128.681 374.518 135.531 381.592 134.408 383.165C133.397 384.625 119.585 382.715 131.152 369.913C133.286 367.668 141.707 371.486 137.327 361.267L141.145 360.256C141.819 362.277 142.045 365.871 143.729 366.769L143.84 366.657Z" fill="#E0A144"/>
<path d="M214.139 267.835C212.455 271.204 206.615 275.359 202.797 276.369L197.744 264.915C215.599 270.642 207.739 258.851 216.611 247.396C217.06 251.552 215.375 265.589 214.252 267.835H214.139Z" fill="#E0A144"/>
<path d="M268.154 208.543C270.624 213.933 262.539 215.955 258.721 218.201C247.379 225.051 234.689 227.634 224.357 236.73C227.502 217.751 254.453 221.345 268.041 208.543H268.154Z" fill="#E0A144"/>
<path d="M391.907 210.676L380.003 213.708C378.88 196.751 383.485 196.639 391.907 210.676Z" fill="#E0A144"/>
<path d="M298.138 226.286C293.646 234.034 282.527 218.313 283.089 217.414C287.019 212.136 300.833 221.457 298.138 226.286Z" fill="#E0A144"/>
<path d="M412.793 206.41C411.221 208.207 416.724 219.1 405.943 215.618C409.425 198.437 420.317 195.517 433.231 206.522C427.728 210.565 418.071 200.346 412.793 206.298V206.41Z" fill="#E0A144"/>
<path d="M148.894 438.977C144.739 444.929 135.193 435.384 134.519 432.127C131.263 416.068 149.68 437.967 148.894 438.977Z" fill="#E0A144"/>
<path d="M213.241 375.642C212.567 378.674 205.829 375.08 207.288 368.68C207.962 365.647 214.7 369.241 213.241 375.642Z" fill="#E0A144"/>
<path d="M757.211 376.202C756.537 379.235 749.799 375.641 751.259 369.24C751.933 366.208 758.671 369.802 757.211 376.202Z" fill="#E0A144"/>
<path d="M403.809 199.221C408.751 201.804 400.44 210.9 399.43 206.632L403.809 199.221Z" fill="#E0A144"/>
<path d="M301.168 229.766C304.088 230.439 304.426 231.787 302.18 233.808L301.168 229.766Z" fill="#E0A144"/>
<path d="M356.773 195.343L355.4 197.662L372.892 208.015L374.265 205.696L356.773 195.343Z" fill="#E0A144"/>
<path d="M126.21 614.949C126.21 614.949 132.386 608.211 133.06 608.884C139.461 625.729 120.258 639.991 123.515 656.05C126.772 672.108 142.83 675.814 147.21 688.055C150.916 698.386 150.018 726.348 153.274 732.974C155.408 737.241 163.718 738.476 166.862 743.53C171.466 750.941 178.204 771.829 168.209 778.454C171.466 758.465 149.793 743.867 146.312 735.332C142.269 725.45 142.606 680.306 133.51 676.825C131.938 676.263 122.055 692.434 118.013 674.354C112.847 651.782 124.975 635.387 123.852 625.28C122.954 616.633 108.242 596.756 106.333 583.842C104.986 575.195 103.751 541.955 111.275 540.158C114.195 552.174 118.686 611.804 126.21 614.949Z" fill="#E0A144"/>
<path d="M91.0606 594.174C101.504 602.933 80.3918 615.061 79.2688 614.163C70.9588 607.2 81.403 595.185 91.0606 594.174Z" fill="#E0A144"/>
<path d="M72.0833 603.269C75.1154 603.943 71.5219 610.681 65.1209 609.221C62.0889 608.547 65.6824 601.809 72.0833 603.269Z" fill="#E0A144"/>
</svg>
