<svg width="615" height="1529" viewBox="0 0 615 1529" fill="none" xmlns="http://www.w3.org/2000/svg">
<path d="M110.201 763.672C111.886 766.704 101.891 769.287 103.014 761.875C104.923 762.773 109.752 762.886 110.201 763.672Z" fill="#E0A144"/>
<path d="M332.888 791.297C322.444 792.87 312.45 792.87 302.231 791.522C303.354 770.972 285.836 788.939 288.643 769.062C303.242 781.303 314.022 787.592 332.888 791.297Z" fill="#E0A144"/>
<path d="M510.095 738.853C521.998 742.559 538.618 742.334 535.362 760.302C529.41 760.302 533.902 754.125 531.207 751.542C518.629 739.414 509.645 748.061 498.19 746.264C484.49 744.018 467.871 728.072 451.363 728.409C449.791 729.083 454.282 738.741 452.373 740.088C440.133 748.735 453.945 729.532 445.186 730.767C436.427 732.003 433.507 733.238 432.496 742.896C427.106 728.409 417.224 723.805 407.904 713.923C405.321 711.228 408.577 701.121 400.042 704.827C399.144 705.276 395.438 722.008 389.037 701.794C413.406 698.089 413.631 719.762 438.673 717.741C439.572 722.906 422.615 717.853 428.903 726.725C430.7 729.307 450.576 723.468 456.416 723.468C462.255 723.468 495.608 727.286 485.838 734.922C485.164 738.516 490.667 733.912 492.015 734.473C498.977 737.73 496.282 743.682 510.095 738.853Z" fill="#E0A144"/>
<path d="M558.83 743.119C573.878 751.766 573.541 759.515 584.434 766.028C590.835 769.846 606.444 773.103 607.904 774.899C609.252 776.584 606.445 780.964 606.781 781.637C587.242 778.156 572.193 767.6 562.423 751.766C559.503 755.472 564.445 760.975 563.995 766.365C563.658 770.744 558.268 776.023 558.718 777.145C559.167 778.605 566.579 781.076 567.59 785.455C569.836 795.338 550.071 803.199 552.99 782.087C554.899 768.162 554.9 753.338 558.83 743.119Z" fill="#E0A144"/>
<path d="M401.95 398.589C400.827 398.589 399.478 397.578 398.355 397.69C398.58 397.69 401.837 398.589 401.95 398.589Z" fill="#E0A144"/>
<path d="M270.786 795.226C263.823 791.633 271.236 791.97 271.685 791.633C271.011 792.756 271.46 794.44 270.786 795.226Z" fill="#E0A144"/>
<path d="M324.464 215.095C320.646 208.02 321.544 210.154 319.859 202.518C321.207 206.56 323.004 210.715 324.464 215.095Z" fill="#E0A144"/>
<path d="M335.357 233.063C321.769 223.63 328.171 225.989 324.465 215.096C326.711 219.251 332.662 228.908 335.357 233.063Z" fill="#E0A144"/>
<path d="M332.887 791.295C368.71 785.792 364.779 769.621 365.004 737.953L393.528 746.712C401.164 760.413 384.656 741.884 380.388 753.113C378.143 751.317 371.966 745.926 370.506 746.825C369.945 777.707 367.474 798.145 332.887 791.182V791.295Z" fill="#E0A144"/>
<path d="M68.6512 761.2C62.8117 760.863 61.464 756.259 57.309 752.89C55.7368 751.655 51.5816 753.451 51.4693 753.227C51.2447 752.553 53.3794 739.414 56.7483 739.189L68.6512 761.2Z" fill="#E0A144"/>
<path d="M105.822 1298.43C101.442 1315.84 90.9981 1315.05 76.0625 1310.34C78.7576 1312.81 93.9172 1326.96 95.0402 1326.39C97.7353 1325.16 99.6446 1318.08 106.495 1317.07C106.495 1316.63 106.495 1316.18 106.495 1315.61C106.832 1314.27 107.281 1312.92 107.955 1311.68C108.067 1311.01 108.292 1310.22 108.404 1309.55C107.169 1305.96 110.538 1302.14 105.822 1298.32V1298.43Z" fill="#E0A144"/>
<path d="M147.371 1144.02C147.371 1144.02 147.484 1144.14 147.596 1144.25C147.259 1140.77 147.146 1137.17 147.259 1133.69C144.788 1128.08 146.024 1121.79 153.548 1118.76L116.602 1113.59C116.938 1123.7 135.58 1120.22 139.061 1127.52C141.195 1132.12 143.104 1166.15 140.296 1172.89C151.526 1172.77 144.676 1146.05 147.371 1144.02Z" fill="#E0A144"/>
<path d="M160.511 1091.81C161.634 1102.7 153.66 1104.27 169.719 1115.05C175.334 1103.6 163.992 1103.37 165.789 1091.47C166.912 1083.61 171.628 1077.66 173.088 1070.02C170.393 1067.89 166.8 1064.85 167.698 1061.04C149.955 1050.26 137.377 1055.53 117.725 1040.71C97.7359 1025.66 90.7738 1006.8 99.8699 982.428C106.046 966.032 123.004 958.396 120.084 941.439C119.41 937.621 113.794 937.733 114.805 931.557C117.613 913.589 130.752 909.546 134.907 897.755C139.736 884.167 131.65 871.702 133.447 863.279C135.019 855.98 148.72 836.44 155.121 830.264H147.597L154.559 801.516L128.169 862.156C124.913 871.926 134.12 887.873 130.415 896.407C130.078 897.193 125.361 902.471 120.757 906.963C116.827 911.792 113.008 916.509 110.538 922.236C110.538 922.236 110.314 922.685 110.314 922.91C110.314 923.134 109.977 923.696 109.977 923.696C109.752 924.482 109.415 925.268 109.19 926.054C108.741 927.738 108.292 929.535 107.955 931.22C107.73 932.343 107.618 934.139 107.955 935.824C107.955 935.15 108.292 936.61 108.292 936.835C108.292 936.947 108.517 937.171 108.517 937.284C108.517 937.284 108.517 937.284 108.742 937.508C109.191 937.621 109.528 937.845 109.865 938.182C121.431 949.861 97.849 968.84 93.2447 981.529C91.2234 987.032 91.6721 1002.3 89.9877 1003.76C89.9877 1004.55 89.9878 1005.34 90.1001 1006.12C90.1001 1006.46 90.1002 1006.91 90.2125 1007.25C90.2125 1007.25 90.2125 1007.36 90.2125 1007.47C90.4371 1009.15 90.7733 1010.73 90.8856 1012.41C91.1102 1015.89 90.2125 1019.04 88.865 1022.07C87.8543 1024.31 86.5071 1026.34 85.0472 1028.36C82.4644 1036.67 75.7265 1043.41 69.6625 1050.14L67.0785 1060.92C76.9607 1083.94 62.2495 1104.72 59.8912 1124.71C58.8806 1133.58 63.9351 1139.98 62.4752 1148.18C60.117 1161.54 48.9994 1176.37 46.9781 1194.33C44.0583 1220.16 41.8113 1248.8 34.6242 1274.96C31.9291 1284.73 23.6197 1294.95 19.9139 1305.62C19.9139 1310.9 18.2292 1315.95 16.8817 1321.01C19.5768 1340.21 2.39545 1356.38 0.261791 1373.11C-1.87187 1390.52 9.69448 1403.99 11.1544 1416.01C11.3789 1417.81 11.1542 1419.72 11.0419 1421.85C11.7157 1423.42 12.3901 1424.99 13.0639 1426.57C13.9623 1428.03 14.9734 1429.26 16.321 1430.16C16.321 1430.16 16.321 1429.93 16.321 1429.82C66.2935 1469.24 73.031 1416.23 79.0951 1376.26C79.2074 1376.26 79.4311 1376.37 79.5434 1376.48C80.3294 1375.25 81.6777 1374.46 83.0253 1374.12C83.0253 1374.12 83.1378 1374.12 83.2501 1374.12C83.4747 1374.12 83.5874 1374.01 83.6997 1373.9C84.0366 1373.79 84.2607 1373.56 84.5976 1373.45C85.8329 1372.78 87.0676 1371.88 88.3029 1371.09L105.71 1321.57C85.2714 1338.08 94.1424 1393.21 54.6136 1366.49C53.3783 1372.66 62.9245 1373.56 66.7426 1379.06C76.0633 1392.76 60.116 1438.81 44.6189 1439.03C23.7315 1439.37 2.95688 1392.43 7.2242 1371.99C9.91935 1358.85 24.6305 1343.69 25.6412 1338.41C26.4273 1334.14 20.5881 1327.18 23.171 1316.29C26.0907 1303.82 36.3092 1291.7 37.9937 1278.22C38.7798 1277.66 49.6722 1283.61 51.5813 1285.3C30.8062 1252.95 51.8066 1245.77 56.5231 1219.49C57.983 1211.52 53.3785 1204.1 54.8384 1192.65C58.2073 1166.37 70.2234 1131.56 74.7153 1102.92C77.1859 1086.75 74.266 1057.11 80.2178 1046.44C83.699 1040.04 96.0524 1035.32 96.277 1024.54C105.71 1033.52 112.784 1045.65 124.8 1052.05C139.848 1060.03 164.329 1055.08 167.249 1078.22L156.917 1073.73C154.222 1080.46 159.837 1085.07 160.511 1091.81Z" fill="#E0A144"/>
<path d="M439.571 1432.63C440.245 1427.35 438.559 1406.02 437.549 1399.73C436.763 1394 429.577 1386.03 430.138 1383.56C430.475 1381.87 437.212 1378.62 439.121 1374.01C447.993 1352.23 434.854 1333.58 437.998 1319.66C439.458 1313.26 452.709 1304.39 453.496 1291.14C454.057 1281.59 440.918 1259.02 443.164 1252.62C443.837 1250.82 457.987 1241.95 460.008 1235.44C460.233 1234.2 460.346 1232.85 460.57 1231.51C460.57 1230.94 460.57 1230.38 460.683 1229.82C460.683 1229.15 460.796 1228.47 461.132 1227.8C456.977 1214.77 459.448 1200.17 449.903 1189.28C472.25 1190.29 475.394 1180.63 475.843 1158.17C476.067 1145.82 462.255 1133.13 462.255 1123.36C462.255 1120.44 471.239 1124.49 476.18 1121.12C501.672 1103.49 468.543 1057.11 471.351 1054.86C517.168 1058.34 484.49 999.722 487.297 991.637C488.533 987.931 539.403 978.049 528.959 935.263C523.906 914.488 502.008 899.665 496.842 887.088C495.944 884.954 492.126 860.922 492.687 859.687C493.137 858.676 508.184 845.65 509.307 845.65C519.077 846.436 520.762 858.227 526.939 862.719C544.008 875.072 565.682 865.302 583.088 859.013C586.569 844.976 611.836 834.869 614.307 823.752C614.644 822.179 614.307 792.757 614.082 791.073C613.296 786.469 608.355 784.447 606.782 781.752C608.355 793.656 611.387 813.982 607.007 824.987C605.098 829.703 568.826 859.575 563.66 860.248C557.259 861.034 553.441 856.093 548.836 855.757C539.853 855.195 534.351 862.944 524.356 853.286L536.034 852.388C548.162 842.618 511.554 839.136 508.634 839.81C492.351 843.628 494.934 871.366 473.372 827.457C472.586 821.393 486.286 819.597 489.768 819.372C501.671 818.698 514.811 824.425 526.826 819.709C520.762 835.431 526.826 832.848 539.516 838.013C540.976 832.623 529.634 830.602 532.779 822.966C534.014 819.934 540.189 818.249 542.997 816.003L555.686 834.308C565.344 816.115 541.874 817.014 556.361 800.057L520.537 814.431C513.575 790.511 515.597 784.335 497.517 806.795C502.907 812.185 507.96 792.421 514.024 801.18C514.473 801.854 515.26 815.891 514.137 816.452C484.265 805.559 478.089 826.559 446.533 811.399C449.116 819.035 460.458 820.383 450.238 827.57C445.073 831.163 448.555 827.794 446.646 826.671C444.961 825.661 441.704 826.11 439.683 824.762L444.848 818.586C436.201 812.746 437.549 823.302 433.394 823.415C425.758 823.527 415.427 818.137 406.106 820.607L433.058 827.121C440.02 825.885 439.122 834.42 436.876 835.655C432.271 838.238 400.041 830.826 392.63 828.805L416.999 838.575C416.55 843.741 401.053 842.056 398.807 841.495C390.272 838.912 390.496 828.693 385.667 824.987C380.614 820.944 372.641 823.864 371.069 821.955C367.7 817.912 371.294 809.041 370.844 808.142C370.058 806.57 345.577 810.95 338.39 800.281C338.39 804.324 340.075 807.019 342.545 808.816C328.508 802.976 314.808 801.741 300.546 798.709C299.872 801.067 299.535 803.538 298.861 805.896L270.899 795.228C268.99 797.586 271.349 804.436 261.916 800.73L273.594 807.356L265.621 809.265L229.462 792.757L242.937 784.672C237.659 782.426 229.461 782.651 224.857 780.18C225.194 780.405 227.777 787.592 224.857 787.816L216.66 781.977L217.558 778.383C219.691 779.169 223.622 779.169 224.745 780.068C224.296 779.843 223.397 772.768 217.333 771.982C212.504 771.421 206.89 774.902 201.163 774.004C189.596 772.319 178.478 768.164 167.024 765.918L167.248 773.442C159.388 761.539 148.719 774.565 140.409 772.993C129.965 771.084 92.683 733.913 103.014 761.651C108.854 753.229 109.752 763.111 110.202 763.448C115.48 766.704 121.655 768.389 124.687 774.677C129.628 787.704 84.3732 772.207 82.2395 768.052C81.5658 766.817 95.7141 757.047 74.0406 746.94C66.7413 753.341 74.7154 761.202 79.2073 765.357C76.3998 769.736 71.1212 761.538 68.763 760.865C60.5652 758.506 65.0568 766.48 51.5811 752.892C50.795 752.106 45.9667 752.892 45.0683 750.758C43.3838 746.828 50.1223 736.047 45.7427 730.32L56.4105 733.015C55.7367 727.512 45.8544 722.122 45.0683 719.988C44.5068 718.528 50.4592 692.251 51.3576 689.556C60.0046 664.85 108.18 683.828 126.821 686.973C135.805 688.545 152.538 685.85 157.703 687.197C158.939 687.534 156.131 699.999 164.666 696.181C165.901 695.62 175.447 684.165 184.768 679.673L171.965 682.593L172.863 671.363C163.206 673.048 168.259 685.064 167.473 685.288C165.34 685.962 124.35 680.235 123.227 678.326C122.216 661.257 144.677 669.567 158.041 669.567C161.746 669.567 167.922 671.925 168.146 666.422C152.874 659.347 138.163 666.085 126.259 665.636C113.794 665.075 124.912 651.15 125.362 646.321C126.934 629.813 129.291 599.493 134.682 583.771C136.591 578.156 145.687 574.675 144.901 572.878C144.564 572.092 136.478 573.215 138.724 565.579C140.633 559.065 146.137 556.707 148.046 552.44C149.618 549.071 147.484 542.782 149.954 538.403C155.008 529.419 173.2 535.371 174.098 532.002C176.457 522.569 169.045 528.183 161.858 527.285C140.634 524.478 165.227 509.654 175.221 511.226L165.226 505.05C166.799 489.778 183.42 486.745 195.773 489.553L182.184 482.478C183.082 471.585 190.831 466.981 201.05 467.879L195.21 460.805C202.51 448.227 244.509 425.206 259.332 419.479C298.524 404.207 350.294 403.645 391.732 401.736C395.774 401.511 397.797 397.469 398.133 397.469C387.802 393.201 381.063 385.677 380.052 385.453C378.031 385.004 374.101 392.64 369.16 394.1C358.604 397.356 340.412 394.549 328.845 399.715C331.99 385.453 330.529 370.293 332.213 356.031C332.775 351.314 337.268 348.058 337.717 346.149C338.391 343.341 331.653 344.913 331.653 341.095C331.653 332.448 337.492 338.625 340.973 335.143C345.353 330.651 346.588 322.903 352.315 319.309L344.68 319.534C343.107 307.855 356.807 298.646 358.38 291.01C359.952 283.037 353.888 275.064 354 269C354.112 260.914 362.085 252.829 359.615 242.834L376.797 258.556C389.037 242.497 389.936 261.251 391.059 261.588C396 262.711 412.732 265.294 417.448 265.406C426.32 265.519 447.319 259.904 452.148 261.476C455.742 262.711 472.362 311.561 463.49 318.074C461.357 319.646 456.415 310.999 453.158 313.582C459.559 319.983 453.159 336.491 449.453 343.117C445.186 350.865 437.55 352.213 435.865 355.806C432.496 362.881 441.592 385.453 436.426 397.469L425.534 394.886L433.281 410.158C419.693 409.148 411.945 399.153 412.394 386.014C399.255 387.699 411.496 396.795 412.507 401.287C408.913 400.725 405.32 399.265 401.726 398.704C397.01 409.148 410.262 407.576 417.673 411.955C429.464 418.918 486.175 451.259 489.094 459.569C490.105 462.489 488.533 466.42 487.635 469.452L492.912 463.163C509.532 463.163 506.163 473.27 511.89 480.794C521.997 494.045 519.19 495.168 519.864 495.954C521.998 498.874 553.552 510.44 540.077 520.547C537.719 522.344 524.805 507.296 522.109 516.168C528.847 521.221 548.612 527.51 552.431 533.125C556.024 538.403 551.869 544.354 553.553 549.408C555.799 556.258 568.488 561.087 562.874 568.274C562.424 568.835 555.013 556.819 554.788 570.071C561.751 573.327 570.847 577.482 569.724 587.14C568.488 598.594 558.27 585.118 556.698 593.541C582.077 599.156 570.735 603.872 566.58 617.348C565.906 619.706 570.398 639.471 563.211 662.492C562.874 663.615 574.777 670.353 565.231 683.716L553.553 684.727H568.826C571.409 701.122 557.035 701.796 556.586 702.919C552.767 713.138 572.869 748.737 536.709 722.796L542.099 731.667C527.275 731.667 535.81 723.582 529.521 720.999C524.805 736.608 501.335 723.806 491.677 734.699C497.629 736.384 503.805 737.282 509.757 739.079C515.147 737.17 519.414 731.892 528.735 732.341C539.627 732.79 527.836 738.967 528.735 739.865C534.911 747.277 537.494 734.587 540.077 734.812C545.467 735.261 553.44 740.427 558.494 743.346C571.97 708.871 581.067 649.465 579.158 612.295C576.799 566.814 545.917 498.649 513.014 467.992C499.987 455.864 444.062 424.083 440.806 413.415C443.838 392.64 440.02 375.234 447.993 355.469C456.415 334.357 484.265 334.357 501.11 321.443C501.334 321.443 501.447 321.555 501.672 321.668C501.896 321.668 502.008 321.443 502.232 321.331C502.457 321.331 502.795 321.106 503.019 320.994C505.378 319.983 507.623 318.748 509.869 317.513C513.912 313.47 528.398 297.748 530.757 297.074C530.757 297.074 530.757 297.074 530.869 297.074C532.217 294.828 534.125 292.807 535.922 290.898C536.483 290.336 536.933 289.663 537.494 289.101C537.719 288.764 537.944 288.54 538.169 288.203C538.505 287.866 538.73 287.417 539.066 287.08C539.066 286.967 539.291 286.743 539.404 286.631C539.853 285.957 540.414 285.283 540.864 284.609C541.201 284.16 541.537 283.711 541.874 283.262C547.601 269.786 564.446 249.235 569.05 232.728C569.05 232.391 569.051 232.054 569.163 231.717C570.398 226.551 571.521 221.273 572.756 215.995C573.654 175.905 572.981 135.365 553.441 98.8685C547.265 87.4141 543.671 86.7403 537.046 79.5533C543.784 100.778 558.381 119.868 563.884 144.798C581.739 226.102 544.344 312.01 460.008 332.56C460.008 323.464 470.228 318.86 471.913 311.224C474.383 299.882 462.929 275.85 463.49 273.941C463.827 272.369 482.917 260.802 488.195 254.738C532.328 203.979 515.372 123.574 464.052 85.505C458.213 81.1254 446.758 75.8474 442.828 73.7137C435.978 70.1202 424.522 63.8315 417.897 63.0455C385.33 58.7781 356.583 62.2593 330.755 96.5102C304.252 131.772 306.722 164.001 319.748 202.519C311.438 164.675 319.299 89.0986 363.545 76.4089C364.219 75.7351 364.893 75.1736 365.792 74.8367C371.294 72.5907 383.085 68.548 393.416 68.2111C400.94 67.9866 409.475 68.9973 416.886 70.008L417.224 69.4464L416.999 70.008C419.245 70.3449 421.378 70.794 423.512 71.3555C423.624 71.3555 450.801 83.3714 457.09 88.7617C458.887 89.7724 460.796 90.8953 462.592 91.906C467.983 94.9381 474.496 98.307 477.865 103.697C477.865 103.585 477.865 103.473 477.865 103.36C501.11 130.424 512.677 166.472 507.174 202.407C507.174 205.215 506.949 208.022 506.275 210.717C505.938 211.953 505.265 212.851 504.254 213.525C502.57 227.899 480.784 259.118 471.463 263.048C465.848 265.406 455.068 257.433 446.421 256.535C435.752 255.412 422.501 262.823 410.149 255.187H410.261C407.791 254.513 405.207 253.952 402.849 253.278C400.154 252.492 397.347 251.481 394.876 250.134C391.732 249.572 387.801 248.112 384.32 246.091C381.849 245.53 379.267 245.193 376.797 244.631C374.438 244.07 371.968 243.284 369.834 241.824C367.027 241.262 360.625 239.69 360.4 239.353C360.288 239.129 360.175 238.679 360.288 238.23C359.389 238.006 358.379 237.781 357.48 237.556C357.48 237.556 357.032 237.556 356.807 237.556C356.583 237.556 356.022 237.556 355.909 237.556C355.685 237.556 355.46 237.556 355.235 237.556C355.684 237.556 355.01 237.556 354.673 237.669C353.101 239.578 350.744 239.915 348.835 239.241C348.835 239.578 348.835 240.027 348.835 240.364C347.487 241.262 337.828 234.974 335.246 233.289C341.31 242.385 352.765 251.931 353.214 253.278C354 255.187 348.047 260.69 347.823 264.508C347.261 272.818 353.551 280.342 351.754 288.877C350.856 293.481 340.074 316.39 333.673 312.796C282.69 284.16 245.184 203.755 253.269 146.37C259.67 100.553 276.29 72.1415 306.273 38.7891C288.642 50.1312 274.942 62.8209 268.541 84.0452C268.541 84.3821 268.541 84.8312 268.541 85.2804C267.306 91.3445 263.488 96.5102 260.007 101.564C259.108 104.259 257.648 107.179 255.627 110.211C253.718 115.264 251.696 120.317 249.562 125.259C249.338 146.82 246.194 168.156 249.787 189.717C250.349 191.851 250.685 193.985 250.797 196.118C250.797 196.792 250.797 197.354 250.91 198.028L251.472 198.252C252.482 199.263 256.863 221.722 257.649 228.573C257.649 228.685 257.76 228.909 257.872 229.022C260.006 232.952 262.14 236.883 264.274 240.813C272.359 250.808 277.076 264.396 285.049 274.615C287.969 278.321 304.926 294.155 314.92 307.293C317.054 308.641 319.524 309.652 321.77 310.887C324.802 312.571 327.498 314.705 330.193 316.839C330.193 316.726 330.193 316.502 330.305 316.39L340.187 322.678C338.728 325.037 337.155 326.384 335.808 327.17C332.551 331.774 327.61 335.929 325.925 341.432C325.139 343.903 325.589 346.148 326.263 348.507C327.049 351.427 327.835 354.459 327.835 357.491C327.835 358.389 327.722 359.063 327.385 359.737C329.519 368.047 323.342 378.266 321.546 384.667C319.861 390.618 325.477 399.827 316.718 403.084C312.562 404.656 304.588 402.41 298.636 403.645C279.883 407.576 260.681 417.907 242.039 419.479C239.007 421.725 236.087 424.196 233.055 426.329C230.247 428.351 227.216 430.26 223.959 431.495C220.478 434.302 214.639 434.078 211.27 436.997C156.131 485.847 119.746 582.423 114.917 655.529C114.468 661.818 119.409 669.567 116.265 675.294C110.987 684.951 96.9503 672.374 88.9771 670.69C73.3677 667.208 50.3469 672.599 44.2828 689.106C41.7 696.181 37.4325 740.09 38.5555 747.614C41.5875 768.726 70.785 770.41 84.9346 775.351C97.5119 779.731 99.5323 789.164 118.96 786.356C121.093 786.019 133.447 778.271 138.051 779.843C140.073 779.057 142.318 778.383 144.452 777.934C147.596 777.26 150.852 776.811 154.109 777.485C154.671 777.597 155.232 777.934 155.681 778.159C175.67 777.709 167.585 803.313 158.826 817.351C172.976 830.153 175.896 861.147 199.927 858.788C194.537 868.109 206.553 870.692 209.922 880.125L208.013 864.403C222.611 876.756 240.354 848.906 236.76 840.821C231.707 829.367 227.441 852.5 225.307 854.521C208.911 870.355 169.831 842.73 171.516 814.431C175.334 748.175 206.553 778.383 228.227 813.757C230.697 817.8 228.9 825.211 231.82 830.04C237.884 840.147 253.044 834.757 237.772 852.5C271.798 856.655 237.322 834.869 244.622 815.779C265.734 808.142 266.632 814.992 278.199 827.907C277.413 824.875 283.252 822.853 281.792 828.805C285.947 830.377 294.481 829.703 295.829 834.083C279.658 834.083 280.669 842.955 275.054 846.436C271.348 848.682 263.038 847.896 258.434 850.928C254.841 853.286 236.424 876.419 234.74 880.687C228.451 897.307 237.996 915.611 232.83 930.21C226.878 946.83 214.076 952.557 211.606 974.343C210.146 987.145 219.466 997.252 218.68 1002.75C217.782 1008.37 207.114 1020.61 204.643 1033.86C202.509 1045.65 207.676 1056.21 205.205 1064.18C202.735 1072.15 193.077 1077.21 189.596 1084.51C185.328 1093.49 185.778 1104.05 181.96 1111.68C182.185 1113.82 182.97 1116.29 183.756 1118.53C184.093 1119.54 184.093 1120.55 183.756 1121.45C189.708 1130.66 172.863 1147.39 170.168 1159.3C167.473 1170.75 172.638 1178.73 171.179 1186.14C168.933 1197.14 156.355 1208.48 154.334 1224.43C153.323 1232.18 158.264 1239.59 157.029 1243.52C154.671 1250.6 136.928 1259.47 133.334 1269.46C128.955 1281.81 138.388 1314.38 123.677 1316.4C123.34 1316.74 123.003 1317.08 122.666 1317.53C121.431 1318.65 120.308 1319.77 119.185 1321.01C119.185 1321.01 119.41 1321.01 119.522 1321.12C112.11 1338.19 118.623 1354.25 118.847 1370.75L117.949 1370.42C118.062 1371.88 117.613 1373.34 116.602 1374.35C115.142 1375.81 113.57 1377.27 112.11 1378.73C109.976 1387.04 103.912 1397.37 106.27 1406.91C106.832 1408.26 107.393 1409.61 107.955 1410.85C107.955 1410.96 107.955 1411.18 108.18 1411.29C108.404 1411.63 108.517 1411.86 108.742 1412.19C108.742 1412.19 108.629 1412.19 108.517 1412.19C109.303 1414.21 109.976 1416.35 110.65 1418.37C110.874 1419.04 111.1 1419.6 111.324 1420.28C111.324 1420.39 111.437 1420.62 111.549 1420.73C111.549 1420.73 111.774 1421.18 111.774 1421.29C111.999 1421.85 112.335 1422.3 112.672 1422.86C112.896 1423.09 113.12 1423.31 113.232 1423.42C113.569 1423.76 113.795 1424.21 114.019 1424.55C116.939 1426.9 119.185 1429.04 119.634 1430.61C120.533 1433.53 121.655 1442.18 121.655 1450.04C122.553 1453.18 123.452 1457.9 126.484 1459.69C127.046 1460.03 127.382 1460.37 127.719 1460.71C129.292 1461.6 134.906 1467.33 141.757 1467.33C150.965 1467.33 165.901 1457.22 174.773 1455.09C186.115 1452.4 199.141 1464.3 206.89 1439.26C206.553 1437.68 206.553 1436.34 206.665 1434.76C206.665 1434.32 206.665 1433.87 206.777 1433.42C206.777 1432.97 207.003 1432.52 207.227 1432.07C206.666 1426.9 205.766 1406.13 205.991 1404.89C206.328 1402.98 213.852 1404 217.895 1399.73C239.344 1377.16 214.975 1362.22 218.793 1350.99C219.803 1347.96 240.916 1353.69 240.242 1319.55C240.13 1312.14 233.055 1299.45 234.515 1293.38C236.199 1286.64 249.676 1278.9 252.146 1271.03C257.537 1253.85 237.996 1236.22 258.547 1220.84C281.343 1243.63 257.986 1257.78 254.841 1286.08C249.339 1336.17 223.622 1379.4 227.777 1431.17C228.114 1435.21 224.071 1440.83 226.317 1446.44C226.205 1446.44 225.98 1446.44 225.868 1446.44C226.092 1447.45 226.205 1448.58 226.092 1449.59C225.98 1451.16 225.644 1452.73 225.307 1454.19C225.082 1454.98 224.857 1455.65 224.632 1456.44C224.632 1456.89 224.632 1457.45 224.632 1457.9C224.857 1461.27 225.082 1464.64 224.857 1468C225.643 1470.81 226.542 1473.62 228.002 1476.2C231.034 1481.48 238.22 1485.64 242.825 1491.25C246.306 1492.37 249.563 1493.95 252.707 1495.41V1495.07L252.932 1495.52C257.648 1497.65 262.364 1499.45 267.754 1499.56C276.626 1493.95 280.669 1484.18 287.969 1478.11C287.969 1478 287.969 1477.89 287.969 1477.66C288.642 1474.85 288.643 1472.16 289.541 1469.58C288.979 1456.89 304.027 1457.22 310.653 1451.38C313.124 1449.14 315.032 1445.99 316.941 1442.96C316.941 1442.96 316.941 1442.96 316.941 1442.85C317.053 1442.29 317.166 1441.73 317.278 1441.17C317.278 1440.94 317.278 1440.83 317.278 1440.72C317.278 1440.72 317.278 1440.49 317.278 1440.27C317.278 1439.26 317.278 1438.25 317.278 1437.12C317.278 1434.99 317.053 1432.97 316.829 1430.83C316.379 1426.34 316.155 1421.85 317.166 1417.36C317.166 1417.36 317.166 1417.36 317.166 1417.25C317.166 1413.43 317.504 1403.66 318.065 1402.42C320.648 1396.7 333.561 1395.91 336.481 1387.15C339.064 1379.29 330.417 1362.67 334.46 1348.63C339.85 1329.88 347.262 1339.2 348.16 1338.41C356.246 1331 340.524 1284.62 341.085 1273.5C341.085 1272.04 360.063 1268.56 357.593 1252.73C363.881 1257.9 365.679 1280.24 364.219 1287.21C362.31 1296.64 353.887 1302.03 352.203 1310.11C350.518 1318.42 355.685 1332.01 354.449 1342.23C352.877 1355.82 346.026 1364.13 344.005 1373.79C341.984 1383.78 344.679 1408.6 336.145 1417.92C335.471 1419.38 334.572 1420.73 333.673 1422.19C331.764 1425.33 330.193 1428.36 329.295 1431.73C329.295 1432.07 329.07 1432.41 328.958 1432.63C328.958 1433.08 328.733 1433.53 328.62 1433.98C328.733 1439.37 328.283 1443.86 327.16 1447.45C327.16 1447.79 327.16 1448.02 327.16 1448.35C327.16 1448.35 327.16 1448.46 327.16 1448.58C326.936 1450.94 327.161 1453.18 327.385 1455.54C327.498 1457 327.723 1458.46 327.947 1459.92L337.38 1475.53C337.38 1475.53 336.369 1476.2 335.808 1476.54C335.808 1477.21 335.582 1478 335.246 1478.67C334.46 1480.92 333.899 1483.28 333.337 1485.64C332.664 1515.06 363.321 1538.86 390.721 1522.92C400.154 1517.42 401.389 1501.24 405.207 1498.55C407.677 1496.87 417.223 1500.68 422.726 1494.39C438.335 1476.76 419.244 1453.29 420.929 1446.11C421.715 1442.85 437.1 1447.34 439.009 1432.29L439.571 1432.63ZM352.54 248.786L353.438 245.193C355.459 246.989 355.235 248.225 352.54 248.786ZM172.414 782.763L173.313 779.169C175.334 780.966 175.109 782.201 172.414 782.763ZM242.039 811.174L242.937 807.581C244.958 809.377 244.734 810.613 242.039 811.174ZM286.171 818.137L287.071 814.543C289.092 816.34 288.867 817.575 286.171 818.137ZM295.268 828.019L296.166 824.425C298.188 826.222 297.963 827.457 295.268 828.019ZM300.546 813.982C285.049 812.073 286.845 804.998 301.444 810.388L300.546 813.982ZM430.924 1439.03C426.993 1441.5 356.583 1413.32 351.08 1406.02C339.738 1390.74 359.39 1361.55 361.973 1345.6C405.319 1368.06 444.624 1380.64 430.924 1439.03ZM447.881 1244.2C432.72 1232.29 411.159 1230.16 394.764 1222.63C369.272 1211.07 373.202 1171.99 389.822 1153.46C398.469 1168.06 439.233 1174.23 444.624 1180.07C448.217 1184 458.1 1236.67 447.881 1244.2ZM317.391 1066.88C320.423 1063.4 315.706 1060.81 315.481 1058.79C314.246 1045.65 326.486 1059.35 330.978 1061.6C342.208 1067.1 373.652 1077.43 379.716 1084.17C384.433 1089.45 395.438 1147.39 376.235 1141.78C360.513 1137.18 326.936 1126.62 314.583 1117.64C302.455 1108.65 291.45 1084.17 303.353 1071.93C305.038 1070.25 314.134 1070.69 317.391 1066.88ZM309.979 1065.08L310.878 1061.49C312.899 1063.28 312.674 1064.52 309.979 1065.08ZM360.625 1143.46C365.454 1150.2 373.54 1200.06 361.637 1206.01C347.936 1212.86 297.177 1189.84 286.846 1177.6C267.531 1154.58 286.845 1132.23 300.321 1112.58C307.171 1128.42 356.919 1138.52 360.513 1143.58L360.625 1143.46ZM369.047 1144.59L386.566 1150.76L374.55 1168.84L369.047 1144.59ZM462.928 1182.77C448.554 1174.79 400.603 1164.01 394.314 1149.19C390.833 1140.99 396.112 1132.35 395.214 1124.04C393.978 1113.37 387.016 1098.43 386.454 1089.45C386.342 1087.43 401.278 1085.97 402.176 1087.54L399.592 1098.43L406.556 1092.59C413.294 1104.83 449.229 1113.03 453.833 1119.1C465.175 1134.37 472.586 1165.03 463.041 1182.77H462.928ZM475.17 1116.96C454.17 1112.02 425.758 1107.19 410.934 1089.9C400.154 1077.32 408.689 1070.13 408.464 1057.56C408.464 1051.15 404.085 1033.75 406.106 1031.17C414.865 1019.71 421.715 1034.76 429.351 1038.8C438.897 1043.97 459.672 1050.14 465.287 1056.88C472.138 1064.97 485.501 1110.67 475.282 1116.96H475.17ZM466.747 828.131C468.544 828.917 485.052 855.757 486.287 859.462C493.586 882.147 486.287 878.89 502.682 903.371C506.949 909.772 512.34 912.691 514.361 916.173C528.511 940.204 528.174 961.541 503.357 978.273L488.87 951.771C486.399 960.306 493.699 968.279 490.554 977.038C487.185 986.471 476.853 981.979 476.853 985.124C476.853 990.289 485.051 1002.87 486.848 1009.83C495.045 1041.05 492.127 1055.65 456.977 1045.76C443.502 1042.06 420.255 1030.04 415.314 1016.12C412.282 1007.47 419.582 1003.54 420.256 995.231C421.716 977.6 402.513 971.648 425.871 951.771C443.951 936.386 493.361 941.664 505.04 963.338C513.125 928.413 457.427 942.675 448.555 937.959C437.438 932.007 453.271 921.9 455.293 915.05C461.02 895.398 449.566 876.644 433.058 867.323C446.983 862.607 452.597 821.73 466.971 828.019L466.747 828.131ZM442.153 844.751L429.576 864.628C423.849 857.89 419.357 853.061 409.699 852.051C412.843 846.211 440.132 841.719 442.041 844.751H442.153ZM384.432 830.714C386.566 832.511 380.839 836.329 376.347 832.511C374.213 830.714 379.94 826.896 384.432 830.714ZM392.181 849.131C410.711 862.27 425.758 862.719 443.388 885.515C462.591 910.333 434.63 933.579 416.101 951.21C401.39 965.247 420.93 935.6 412.058 936.948C389.823 957.162 416.662 981.081 415.426 1000.96C415.426 1002.87 410.374 1001.18 409.026 1002.53C405.32 1006.35 404.197 1012.75 398.469 1013.42C397.346 1013.54 376.46 1008.82 375.449 1008.26C381.401 1012.19 388.7 1015.22 392.181 1018.03C403.523 1027.35 402.175 1069.01 395.662 1082.04C364.331 1069.01 313.011 1063.28 319.075 1019.37C325.476 972.659 347.375 989.616 375.449 1008.14C375 1007.81 373.764 1000.73 369.385 998.15C337.38 978.947 316.267 975.803 339.513 931.221C354.112 903.146 370.62 899.44 397.909 913.028C413.743 921.002 409.363 927.515 410.261 928.526C418.347 937.509 416.101 923.248 419.133 921.002C423.737 917.633 431.598 920.777 432.608 914.937C426.544 909.435 396.897 911.119 395.662 909.659C395.437 909.435 403.523 902.023 397.009 904.269C356.694 906.291 357.257 861.708 368.149 834.083C387.577 832.062 387.465 845.537 392.069 848.794L392.181 849.131ZM405.319 1027.12L401.839 1026.22C403.748 1010.73 410.822 1012.52 405.319 1027.12ZM368.262 826.671C370.283 828.468 370.058 829.703 367.363 830.265L368.262 826.671ZM354.112 876.868C361.412 881.585 363.32 897.531 358.042 903.708C357.369 904.494 348.833 904.269 347.71 909.21L320.198 952.67C324.016 935.713 321.995 918.531 317.166 902.248C335.358 909.323 351.08 894.387 354 876.756L354.112 876.868ZM317.615 806.682L316.718 810.276C301.22 808.367 303.017 801.292 317.615 806.682ZM305.936 815.329L306.835 811.736C308.857 813.533 308.631 814.768 305.936 815.329ZM238.109 928.862C239.457 928.076 248.44 934.477 251.584 936.049C220.141 892.253 247.204 859.013 291.562 842.505C293.471 857.553 298.188 870.131 302.568 883.382C301.669 877.879 299.199 854.297 299.536 849.917C300.659 834.981 304.364 818.024 319.973 813.308C328.059 810.837 339.063 815.105 343.443 809.377C349.058 812.634 357.256 812.185 357.818 812.746C358.716 813.869 358.716 837.677 358.155 841.832C354.337 871.141 339.851 919.991 305.263 887.874C311.439 907.975 317.952 921.339 317.503 943.461C317.503 949.301 313.236 960.98 313.798 962.664C314.135 963.675 325.926 957.162 325.027 975.915C324.466 990.065 314.134 1002.08 311.663 1017.58C309.305 1032.85 318.064 1046.55 303.353 1059.58C296.616 1065.64 289.54 1048.46 290.102 1042.84C290.775 1035.66 297.514 1040.04 300.996 1035.32C318.065 1011.96 291.674 981.53 319.973 968.055C307.396 957.835 310.091 968.504 305.824 968.391C286.059 967.942 270.113 945.258 251.247 935.937C262.701 951.884 297.85 974.006 300.096 978.498C304.364 987.145 303.129 1028.25 292.798 1032.51C289.654 1033.75 250.461 1016.45 243.947 1012.64C199.141 987.257 217.558 964.573 237.772 928.75L238.109 928.862ZM297.401 1069.68L298.301 1066.09C300.322 1067.89 300.096 1069.12 297.401 1069.68ZM126.372 1433.64C138.388 1442.06 162.419 1440.83 167.024 1454.98C143.216 1458.46 122.217 1469.58 126.372 1433.64ZM188.136 1452.28C182.633 1452.73 129.292 1430.83 122.329 1425.33C103.8 1410.51 111.886 1389.4 122.442 1371.65C137.939 1377.49 149.394 1389.85 165.115 1396.25C173.538 1399.73 198.804 1403.88 201.275 1406.58C205.767 1411.29 202.397 1451.27 188.136 1452.4V1452.28ZM210.483 1400.4C207.9 1401.52 161.633 1389.06 155.906 1386.36C148.607 1382.77 128.73 1368.4 124.687 1362.33C117.388 1350.99 119.522 1317.64 133.334 1313.6C137.602 1312.36 206.215 1342.68 211.606 1349.42C218.793 1358.29 222.386 1395.24 210.37 1400.4H210.483ZM228.338 1343.35C223.621 1346.72 146.473 1315.05 141.644 1308.88C126.709 1290.12 143.105 1258.68 160.736 1247C171.067 1258.79 223.509 1282.26 228.338 1290.01C232.605 1296.98 234.739 1338.75 228.338 1343.35ZM235.862 1279.57C234.852 1280.02 232.381 1276.09 230.697 1276.54C229.574 1276.76 228.451 1282.26 226.092 1282.15C220.927 1281.7 167.697 1246.78 163.879 1240.15C157.141 1228.36 164.328 1196.69 173.874 1192.76C177.467 1191.3 229.574 1230.83 240.017 1233.86C246.418 1245.88 250.236 1273.28 235.862 1279.68V1279.57ZM244.172 1225.44C228.338 1223.53 184.654 1197.25 177.804 1182.43C167.472 1160.08 188.472 1143.58 192.178 1129.43C193.863 1122.8 188.136 1110.11 194.425 1092.37C198.468 1080.69 209.472 1071.82 211.606 1065.3C213.964 1058.34 206.777 1039.93 210.483 1027.68C212.841 1019.82 220.814 1013.65 223.285 1005.67C232.83 1019.49 278.311 1030.83 283.926 1036.44C286.397 1039.03 297.515 1103.15 297.065 1106.74C296.279 1114.04 279.096 1127.18 278.872 1137.85C274.492 1136.28 274.717 1113.59 275.167 1112.13C276.851 1107.19 291.449 1101.24 290.326 1091.02C284.15 1088.21 286.733 1096.97 283.476 1099.67C268.99 1111.57 228.562 1081.81 217.22 1069.35C214.301 1068.11 213.515 1075.64 213.74 1076.09C218.681 1085.07 260.007 1101.24 265.621 1107.64C274.156 1117.52 271.91 1157.05 264.274 1164.46C253.269 1175.24 204.869 1144.81 195.66 1134.82C205.093 1157.95 231.482 1159.75 248.215 1170.53C265.509 1181.53 262.926 1227.8 244.285 1225.55L244.172 1225.44ZM258.771 1173.11C258.771 1171.65 272.809 1171.09 272.696 1163.23C285.947 1176.7 274.606 1187.48 267.419 1200.17L258.771 1173.11ZM331.428 1267.44C339.289 1289.23 356.694 1337.74 318.176 1336.95C330.641 1344.25 329.632 1380.75 323.455 1390.97C320.648 1395.57 312.787 1396.81 310.99 1400.74C305.712 1411.74 325.251 1451.27 293.584 1453.07C264.948 1454.64 261.803 1438.13 241.702 1431.17C253.044 1446.44 264.723 1454.42 285.161 1457.11C279.883 1478.11 277.188 1502.26 250.349 1489.23C227.328 1478 228.338 1452.4 233.953 1431.4C234.514 1428.03 239.344 1430.38 241.702 1431.17C220.59 1402.76 241.702 1393.21 243.162 1362.67C255.739 1372.1 270.226 1387.71 284.038 1394.67C287.969 1396.58 304.925 1404.33 307.284 1397.48C264.835 1384.34 232.943 1353.69 260.007 1309.33C275.953 1321.68 292.461 1337.85 314.696 1336.05C267.306 1319.66 246.194 1296.64 275.054 1247.9L310.765 1267.67L327.385 1268.34C300.771 1260.82 259.333 1241.05 269.552 1206.46C280.557 1169.07 299.087 1195.12 322.108 1205.45C329.182 1208.6 344.679 1209.38 348.048 1212.75C354.449 1219.26 357.144 1276.54 331.54 1267.44H331.428ZM362.31 1250.03L355.572 1216.23L370.282 1209.94C377.245 1224.77 366.128 1236.33 362.31 1250.03ZM379.379 1219.71C388.812 1232.63 431.373 1236.9 436.314 1241.95C438.672 1244.31 449.004 1301.02 443.726 1308.2C426.656 1302.14 403.972 1301.13 387.802 1294.5C357.706 1282.26 369.497 1243.86 379.379 1219.71ZM371.182 1292.03C374.101 1290.91 428.34 1311.01 430.586 1313.26C433.506 1316.18 441.368 1370.31 431.261 1373.67C425.309 1375.7 364.78 1344.14 361.075 1335.49C356.358 1324.71 359.278 1296.64 371.182 1292.03ZM341.085 1478.34C358.828 1487.21 376.572 1500.46 397.909 1495.97C389.823 1539.88 329.743 1519.89 341.085 1478.34ZM422.276 1467.44C423.961 1498.33 407.791 1498.33 382.187 1491.81C335.246 1479.91 318.963 1453.29 346.14 1410.73C371.968 1432.07 420.143 1426.79 422.276 1467.44Z" fill="#E0A144"/>
<path d="M535.249 72.364C534.575 71.241 534.013 70.0057 533.452 68.7704C533.002 67.6474 532.553 66.4122 532.329 65.1769L500.437 37.327C496.506 35.7548 493.362 32.9473 490.33 29.9153C487.41 26.9956 485.501 25.5357 482.02 23.5143C477.865 21.0438 473.373 18.7978 469.555 15.7658L422.276 0.268655C419.581 0.0440593 416.886 -0.0682438 414.191 0.0440541C407.903 0.0440541 401.613 1.27932 395.437 0.380934L357.705 7.00651C353.662 8.80328 349.62 10.6 345.69 12.6214C344.567 13.1829 343.556 13.6321 342.433 14.1936C341.31 14.8674 340.188 15.4289 339.065 15.7658C339.065 15.7658 338.84 15.7658 338.84 15.8781C337.717 16.3273 336.593 16.8888 335.47 17.3379C331.428 20.1454 327.272 23.402 322.556 24.8619C318.289 28.2308 310.541 33.8457 306.498 38.4499C398.47 -20.8434 468.206 3.86221 537.382 79.551C536.371 76.1821 535.024 73.5992 535.361 72.364H535.249Z" fill="#E0A144"/>
<path d="M450.237 827.568C450.237 827.568 446.644 826.894 446.644 826.669C445.97 822.964 452.595 824.536 450.237 827.568Z" fill="#E0A144"/>
<path d="M271.572 791.633C272.134 791.184 272.133 787.366 276.063 788.938C275.726 793.205 271.685 791.409 271.572 791.633Z" fill="#E0A144"/>
<path d="M173.537 1061.37C174.772 1057.67 177.579 1054.63 179.6 1051.27C183.418 1044.75 185.777 1037.45 190.044 1031.16C190.493 1029.7 190.943 1028.24 191.504 1026.78C202.734 998.261 199.702 987.368 202.622 956.711C203.52 947.727 215.873 940.315 202.509 933.69C217.557 932.342 215.311 916.845 220.814 905.615C208.012 899.776 213.739 917.856 206.552 925.155C193.974 937.732 168.931 924.706 156.916 916.845C159.498 928.412 182.856 930.77 189.145 937.171C199.476 947.839 200.151 993.544 186.787 998.935C176.568 1003.09 136.253 970.411 126.596 962.887C129.515 971.759 139.173 980.63 146.585 986.133C151.863 989.951 170.953 1001.85 176.455 1004.44C182.295 1007.24 191.84 1000.96 194.985 1012.19L167.81 1060.92C170.617 1062.61 172.414 1062.05 173.424 1062.38C173.424 1062.05 173.536 1061.71 173.648 1061.37H173.537ZM196.332 943.572C196.669 940.315 203.744 943.235 203.969 943.572C207.001 948.738 199.589 954.802 196.332 943.572Z" fill="#E0A144"/>
<path d="M278.087 827.68C278.087 827.68 280.556 828.129 281.679 828.578C281.23 830.263 281.118 831.386 278.984 831.722C276.738 831.049 278.199 827.904 278.087 827.792V827.68Z" fill="#E0A144"/>
<path d="M387.801 770.184C394.202 771.082 395.886 779.167 401.838 780.515C407.004 781.75 423.961 775.574 427.442 779.954C428.228 781.077 425.308 785.905 425.758 787.141C421.266 787.141 397.683 784.333 395.1 782.986C389.486 780.066 390.047 773.665 387.913 770.296L387.801 770.184Z" fill="#E0A144"/>
<path d="M76.1741 1310.34C62.586 1305.96 67.1902 1303.15 63.4844 1299.56C65.0565 1301.24 72.4683 1306.97 76.1741 1310.34Z" fill="#E0A144"/>
<path d="M305.487 887.871C304.701 887.085 302.903 884.277 302.791 883.379C303.24 884.839 305.038 886.299 305.487 887.871Z" fill="#E0A144"/>
<path d="M63.4855 1299.56C58.8812 1295.18 57.1961 1292.59 54.3887 1289.67C55.2871 1290.8 61.4641 1297.31 63.4855 1299.56Z" fill="#E0A144"/>
<path d="M380.389 753.115C384.095 756.147 385.667 760.639 388.586 762.099C394.314 765.131 403.971 758.506 407.003 769.174L387.689 770.184C383.87 764.233 377.02 761.987 380.389 753.115Z" fill="#E0A144"/>
<path d="M54.3884 1289.67C53.3777 1288.33 52.5917 1286.64 51.6934 1285.18C52.8163 1286.3 53.2654 1288.55 54.3884 1289.67Z" fill="#E0A144"/>
<path d="M446.533 811.396C441.928 809.15 437.662 806.231 433.057 804.209L441.48 800.616C439.009 792.867 428.565 794.439 425.758 787.14C426.881 787.14 429.576 782.536 432.833 782.311C454.506 780.627 442.939 800.167 446.645 811.396H446.533Z" fill="#E0A144"/>
<path d="M276.064 788.938C276.064 788.938 276.065 785.008 273.819 783.099C271.236 780.628 261.579 783.099 260.231 775.575L272.359 772.879C258.097 766.142 254.616 771.307 250.236 754.013L273.257 769.174C274.267 753.789 269.776 754.238 260.119 744.917L274.043 750.195L274.829 731.329C289.877 721.559 276.065 780.74 277.3 785.232C284.488 783.323 287.407 791.296 292.46 792.644C297.065 793.991 300.546 791.296 302.23 791.521C302.23 793.542 301.107 796.574 300.433 798.708C284.038 795.227 290.326 800.617 276.064 788.938Z" fill="#E0A144"/>
<path d="M446.645 669.789C441.367 681.468 429.799 691.463 430.585 704.04L382.746 696.291L384.656 704.377C369.271 701.345 362.197 689.89 348.609 703.254C344.117 693.821 361.972 694.944 354.448 687.42C350.855 683.826 344.342 688.431 340.411 689.666C339.176 681.243 353.662 688.543 352.426 679.334C350.405 663.613 337.041 666.982 336.704 665.859C332.999 653.169 351.529 653.506 357.368 659.458C357.593 659.682 353.1 663.276 354.111 666.42C355.01 669.228 360.063 671.024 361.523 674.73C364.668 682.03 357.031 694.382 375.336 686.409C380.614 684.051 397.122 666.42 385.443 685.511C389.71 686.185 394.088 688.431 398.243 688.992C405.431 689.89 410.035 672.147 412.506 692.136C419.019 688.094 429.575 682.591 433.618 676.19C440.243 665.522 420.591 676.864 424.185 668.217L446.645 669.901V669.789Z" fill="#E0A144"/>
<path d="M344.343 571.978C343.444 572.652 335.022 570.519 333.113 574.786C331.541 578.492 334.685 593.09 329.968 599.155L331.653 576.695L315.931 578.604C334.572 592.529 311.102 586.24 307.284 589.609C302.455 593.764 302.455 604.994 300.321 611.17L302.006 588.599C289.878 589.16 258.435 576.246 255.964 588.823C249.563 588.823 254.842 583.321 253.494 581.411C252.933 580.625 238.109 579.952 235.189 579.952L239.568 561.872L248.552 571.754L254.842 554.123C258.323 584.668 282.916 570.519 303.578 581.187C303.129 567.823 315.931 571.866 320.423 566.364C321.883 564.567 319.862 558.84 320.648 558.615C323.119 558.053 327.611 564.005 332.103 564.23C336.033 564.454 340.412 559.738 341.31 559.963C343.332 560.299 346.813 569.733 344.118 571.978H344.343Z" fill="#E0A144"/>
<path d="M497.293 584.331C498.079 584.78 494.711 592.529 504.817 588.261C497.855 597.133 504.255 604.432 502.458 614.427C506.726 616.448 541.988 615.213 538.282 607.913C537.496 606.341 528.961 608.812 531.993 602.523L549.96 606.903C545.58 613.528 542.999 625.769 538.394 631.047C534.576 635.314 488.309 616.785 486.961 614.427C482.357 606.117 496.171 608.587 496.395 607.24C498.641 595.224 466.411 587.363 480.448 578.379C481.234 577.93 494.598 582.759 497.293 584.106V584.331Z" fill="#E0A144"/>
<path d="M288.306 707.634C268.991 707.073 276.402 705.388 265.397 703.03C253.605 700.56 238.333 701.907 225.98 696.292V703.816C218.568 691.239 208.91 692.811 196.221 692.699C201.948 675.517 247.766 701.346 252.034 698.651C253.943 697.415 252.594 686.859 256.525 688.207C256.525 700.784 269.215 696.742 277.301 704.827L278.086 685.961C294.819 688.095 270.786 707.298 291.674 700.672C293.358 701.233 293.135 703.142 292.686 704.715C292.573 705.164 289.092 706.062 288.193 707.41L288.306 707.634Z" fill="#E0A144"/>
<path d="M292.8 704.94L303.58 692.25L307.06 693.148C302.905 705.389 328.173 710.33 326.039 693.934C332.328 693.822 326.152 700.672 330.082 702.694C334.574 704.94 340.975 704.715 345.804 706.512C336.708 714.934 323.119 700.56 318.852 722.795V707.523C310.205 701.908 298.414 712.913 292.687 712.576C286.062 712.239 288.532 707.747 288.195 707.747L292.687 705.052L292.8 704.94Z" fill="#E0A144"/>
<path d="M178.479 734.475C178.479 734.475 186.115 731.555 186.564 732.566C179.377 743.009 186.564 750.983 172.302 751.993L173.089 725.491L159.725 733.689C162.42 712.015 172.303 724.368 178.929 717.293C183.87 712.015 174.998 709.545 171.404 709.769C166.351 709.994 144.677 734.138 146.137 741.886L142.544 733.352C135.133 734.138 140.972 748.4 132.774 742.336C121.432 733.913 142.318 731.443 142.768 724.143C143.441 713.026 124.913 716.732 131.202 709.545L151.415 704.828L143.892 720.325L150.629 723.806C148.159 709.994 168.485 701.796 179.041 707.86C187.126 712.577 174.773 729.758 178.591 734.475H178.479Z" fill="#E0A144"/>
<path d="M423.96 543.68C424.859 539.974 416.437 533.798 428.902 539.188C423.175 565.353 417.335 591.069 409.923 616.898C408.688 621.278 409.362 630.935 403.186 628.577C410.036 600.278 417.11 571.979 423.96 543.68Z" fill="#E0A144"/>
<path d="M482.02 788.153C481.346 788.49 467.197 788.49 466.41 788.153C440.694 781.415 448.106 764.233 468.32 774.452C472.363 776.474 466.186 783.324 472.475 783.212L476.966 772.768C483.255 794.554 482.581 775.912 483.255 775.239C485.389 772.88 500.55 761.875 504.817 760.527C500.662 767.041 487.298 785.345 482.02 788.153ZM457.201 775.688L456.303 779.281C458.886 778.607 459.223 777.484 457.201 775.688Z" fill="#E0A144"/>
<path d="M228.9 731.44L221.713 722.007C207.9 727.173 217.446 739.076 202.848 728.857L227.103 708.082C234.402 711.339 230.248 725.488 229.013 731.44H228.9Z" fill="#E0A144"/>
<path d="M401.829 524.845L387.713 582.664L391.313 583.543L405.429 525.724L401.829 524.845Z" fill="#E0A144"/>
<path d="M366.015 577.367L349.17 615.324C352.09 605.217 353.438 594.549 356.694 584.554C358.94 577.48 356.357 573.437 366.127 577.367H366.015Z" fill="#E0A144"/>
<path d="M311.663 690.34C301.219 689.441 305.375 686.971 306.61 679.672C308.856 666.87 313.347 654.405 315.93 641.715L311.663 690.34Z" fill="#E0A144"/>
<path d="M332.102 744.58C326.151 740.874 316.044 764.007 311.103 755.36C310.092 753.564 338.279 718.527 332.102 744.58Z" fill="#E0A144"/>
<path d="M347.15 779.391C340.187 777.145 348.16 764.792 348.385 758.728C348.497 753.675 343.219 745.028 344.342 744.354C354.562 737.953 355.685 774.787 347.15 779.391Z" fill="#E0A144"/>
<path d="M471.576 801.965C471.576 801.965 466.972 800.392 465.4 801.965C460.908 806.007 465.175 814.654 454.731 809.601C447.656 790.847 482.469 792.869 471.576 802.077V801.965Z" fill="#E0A144"/>
<path d="M533.562 786.128C534.124 786.802 537.38 785.455 538.953 785.118L537.493 799.155L527.162 779.391C531.093 765.69 532.664 785.006 533.675 786.241L533.562 786.128Z" fill="#E0A144"/>
<path d="M366.463 669.34C356.357 660.132 373.876 641.154 372.64 628.801C379.154 629.475 373.987 637.785 373.089 642.277C371.292 651.373 368.485 660.357 366.463 669.453V669.34Z" fill="#E0A144"/>
<path d="M123.565 737.281C124.8 739.415 122.217 744.468 121.767 747.388L129.292 747.163C137.04 745.479 127.832 752.778 126.147 752.329C122.105 751.318 120.308 746.152 116.715 744.243C114.132 742.896 108.405 745.254 107.282 743.794C106.833 743.233 113.346 735.259 112.56 729.869C114.02 734.81 121.88 734.361 123.565 737.281Z" fill="#E0A144"/>
<path d="M343.779 652.27C336.704 645.196 348.271 627.79 348.159 618.918C355.346 625.656 343.667 643.399 343.779 652.27Z" fill="#E0A144"/>
<path d="M227.664 486.182L199.814 490.786C199.814 478.209 220.589 488.428 227.664 486.182Z" fill="#E0A144"/>
<path d="M99.1964 730.318L83.9241 730.431L92.3464 726.837L80.2188 714.26L99.1964 730.318Z" fill="#E0A144"/>
<path d="M230.808 754.912C226.204 760.976 201.947 764.458 198.691 760.64C195.434 756.821 201.385 747.388 189.369 752.442L192.064 741.549C203.968 763.11 211.043 754.575 230.808 754.912Z" fill="#E0A144"/>
<path d="M208.237 737.955C208.237 737.955 205.654 745.479 208.237 745.591C216.435 746.04 221.039 736.495 228.001 735.035C231.258 740.762 203.633 759.067 199.814 741.548C202.06 740.201 207.002 736.158 208.237 737.843V737.955Z" fill="#E0A144"/>
<path d="M287.968 661.705C278.085 656.202 288.642 647.892 289.765 639.133L293.245 640.031L287.968 661.705Z" fill="#E0A144"/>
<path d="M386.969 586.327L380.816 611.527L384.307 612.38L390.46 587.18L386.969 586.327Z" fill="#E0A144"/>
<path d="M401.5 651.036C400.826 651.485 396.558 649.688 394.312 649.239L398.692 631.271L402.174 632.17C400.265 636.1 402.959 650.138 401.387 651.036H401.5Z" fill="#E0A144"/>
<path d="M225.195 622.961C225.981 623.747 242.601 620.828 247.205 624.983C241.365 633.068 230.023 617.459 224.745 630.934L220.141 610.721C225.868 611.956 223.847 621.614 225.195 623.074V622.961Z" fill="#E0A144"/>
<path d="M87.179 685.399C86.0561 691.351 75.2755 689.442 74.6017 690.003C72.4681 691.912 80.4417 702.468 76.5113 705.612C68.089 692.81 68.6499 679.222 87.179 685.399Z" fill="#E0A144"/>
<path d="M63.8226 702.579C63.8226 702.579 63.0361 711.001 64.8329 714.258L54.0527 711.675L56.6354 700.895C58.769 701.681 63.2611 701.905 63.8226 702.579Z" fill="#E0A144"/>
<path d="M322.186 616.419L316.912 638.02L320.403 638.872L325.677 617.272L322.186 616.419Z" fill="#E0A144"/>
<path d="M295.951 613.937L290.678 635.537L294.169 636.389L299.442 614.789L295.951 613.937Z" fill="#E0A144"/>
<path d="M431.259 654.516L419.58 655.527L422.163 644.746C427.216 643.511 433.281 653.505 431.259 654.516Z" fill="#E0A144"/>
<path d="M392.629 671.923C383.309 666.757 391.395 660.581 393.529 653.057L397.009 653.955L392.629 672.035V671.923Z" fill="#E0A144"/>
<path d="M213.965 620.604C210.259 627.342 204.306 626.892 197.793 624.197C201.499 617.459 207.451 617.909 213.965 620.604Z" fill="#E0A144"/>
<path d="M315.594 767.938L314.808 771.532L296.729 767.152L298.524 759.965L315.594 767.938Z" fill="#E0A144"/>
<path d="M81.1141 726.05L79.3183 733.237C76.8477 734.697 61.7998 723.467 66.6286 722.568L81.0017 726.05H81.1141Z" fill="#E0A144"/>
<path d="M252.595 783.21C253.606 783.434 261.692 792.418 263.039 795.226C250.125 797.472 240.467 781.076 252.595 783.21Z" fill="#E0A144"/>
<path d="M495.382 501.791L480.896 498.197L481.794 494.716L497.067 494.604L495.382 501.791Z" fill="#E0A144"/>
<path d="M577.248 824.2C579.045 827.12 573.092 836.665 568.263 837.227C569.499 829.703 577.36 826.895 565.568 825.098L566.468 821.617C569.275 822.628 576.686 823.302 577.248 824.2Z" fill="#E0A144"/>
<path d="M454.567 622.048L450.172 640.049L453.663 640.901L458.058 622.9L454.567 622.048Z" fill="#E0A144"/>
<path d="M418.684 674.394C409.7 668.779 415.09 666.42 418.684 659.121L422.165 660.019L418.684 674.394Z" fill="#E0A144"/>
<path d="M461.244 531.775L448.778 544.016L445.971 531.888L461.244 531.775Z" fill="#E0A144"/>
<path d="M418.908 532.899L407.229 533.91C409.25 523.69 417.897 521.108 418.908 532.899Z" fill="#E0A144"/>
<path d="M194.985 619.816C194.985 632.394 174.434 619.367 168.033 620.827L194.985 619.816Z" fill="#E0A144"/>
<path d="M266.406 656.314L259.219 654.63L262.701 640.256L266.294 641.042L266.406 656.314Z" fill="#E0A144"/>
<path d="M340.86 774.114C330.079 783.547 325.7 786.467 318.85 770.633L340.86 774.114Z" fill="#E0A144"/>
<path d="M347.725 527.068L343.33 545.068L346.821 545.921L351.216 527.92L347.725 527.068Z" fill="#E0A144"/>
<path d="M401.051 731.441L400.153 734.923C392.292 734.249 389.373 738.741 386.229 729.645L401.051 731.441Z" fill="#E0A144"/>
<path d="M321.715 524.499L317.32 542.5L320.811 543.352L325.206 525.352L321.715 524.499Z" fill="#E0A144"/>
<path d="M414.754 753.787C409.7 754.124 397.909 743.905 402.064 743.119C408.69 743.681 414.642 746.376 414.754 753.787Z" fill="#E0A144"/>
<path d="M512.565 788.49C511.891 788.939 504.367 789.163 501.447 790.286C501.672 783.099 508.41 781.639 514.025 778.158C512.902 780.741 513.014 788.265 512.677 788.49H512.565Z" fill="#E0A144"/>
<path d="M106.158 701.457L104.36 708.644C98.7455 708.532 97.286 705.275 94.9277 700.559L106.158 701.457Z" fill="#E0A144"/>
<path d="M582.639 817.798L581.741 821.391C574.666 820.268 567.929 819.033 565.121 811.621L582.639 817.91V817.798Z" fill="#E0A144"/>
<path d="M411.158 768.276L415.538 757.832C421.153 764.345 419.805 767.04 411.158 768.276Z" fill="#E0A144"/>
<path d="M479.889 800.355L479.037 803.846L493.437 807.361L494.29 803.871L479.889 800.355Z" fill="#E0A144"/>
<path d="M470.902 492.022C472.362 493.819 462.255 499.995 458.325 496.514C456.865 494.717 466.972 488.541 470.902 492.022Z" fill="#E0A144"/>
<path d="M180.051 508.98L180.949 505.387L199.366 507.857C193.526 513.135 187.126 511.226 180.051 508.868V508.98Z" fill="#E0A144"/>
<path d="M379.378 726.164C374.437 733.351 371.293 733.239 368.148 725.266L379.378 726.164Z" fill="#E0A144"/>
<path d="M444.494 569.715L440.979 584.115L444.47 584.968L447.985 570.568L444.494 569.715Z" fill="#E0A144"/>
<path d="M172.747 664.279L171.895 667.77L186.295 671.285L187.147 667.795L172.747 664.279Z" fill="#E0A144"/>
<path d="M219.691 675.518C223.734 668.78 239.793 675.855 246.194 676.191C238.67 681.582 228.114 676.079 219.691 675.518Z" fill="#E0A144"/>
<path d="M334.207 676.849L330.691 691.25L334.182 692.102L337.698 677.701L334.207 676.849Z" fill="#E0A144"/>
<path d="M474.832 711.117L473.935 714.598C465.175 712.801 460.795 713.812 464.95 704.828L474.832 711.117Z" fill="#E0A144"/>
<path d="M226.679 646.866L225.826 650.357L240.227 653.873L241.079 650.381L226.679 646.866Z" fill="#E0A144"/>
<path d="M168.594 743.569L162.306 753.452L158.824 752.553C160.621 743.794 159.61 739.414 168.594 743.569Z" fill="#E0A144"/>
<path d="M273.482 627.566C268.541 634.753 265.396 634.641 262.252 626.668L273.482 627.566Z" fill="#E0A144"/>
<path d="M322.443 520.77C321.095 515.604 331.314 509.54 332.212 511.673C333.56 516.839 323.341 522.903 322.443 520.77Z" fill="#E0A144"/>
<path d="M430.474 516.615C428.677 518.075 422.502 507.968 425.983 504.038C427.78 502.578 433.955 512.685 430.474 516.615Z" fill="#E0A144"/>
<path d="M198.356 574.785L197.457 578.379L179.041 575.908C184.881 570.63 191.281 572.539 198.356 574.897V574.785Z" fill="#E0A144"/>
<path d="M383.309 616.11L377.021 625.993L373.539 625.094C375.336 616.335 374.325 611.955 383.309 616.11Z" fill="#E0A144"/>
<path d="M151.863 639.919L150.965 643.512L128.506 641.828L129.291 638.234L151.863 639.919Z" fill="#E0A144"/>
<path d="M452.596 598.592L443.611 603.983C444.397 596.234 445.296 595.673 452.596 598.592Z" fill="#E0A144"/>
<path d="M371.292 555.693L367.811 554.795C369.72 539.298 376.795 541.095 371.292 555.693Z" fill="#E0A144"/>
<path d="M224.182 515.941C216.433 515.155 215.872 514.256 218.792 506.957L224.182 515.941Z" fill="#E0A144"/>
<path d="M198.243 731.665C198.243 731.665 197.681 739.638 194.761 738.403C192.74 731.553 182.522 729.868 184.768 724.478C186.003 724.254 197.906 730.991 198.243 731.665Z" fill="#E0A144"/>
<path d="M346.586 499.884C346.586 499.884 338.614 499.434 339.849 496.402C347.934 487.98 351.752 496.739 346.586 499.884Z" fill="#E0A144"/>
<path d="M484.151 610.047C487.183 615.212 479.772 621.276 476.516 610.047C476.853 606.79 483.927 609.71 484.151 610.047Z" fill="#E0A144"/>
<path d="M256.412 650.138L255.514 653.731C240.017 651.822 241.813 644.747 256.412 650.138Z" fill="#E0A144"/>
<path d="M556.584 845.873C559.616 851.039 552.204 857.103 548.947 845.873C549.284 842.616 556.36 845.536 556.584 845.873Z" fill="#E0A144"/>
<path d="M495.381 846.208C486.509 843.289 503.129 825.096 507.846 826.332L495.381 846.208Z" fill="#E0A144"/>
<path d="M553.216 703.48L552.319 707.073C536.821 705.164 538.618 698.089 553.216 703.48Z" fill="#E0A144"/>
<path d="M306.16 509.203C309.192 514.369 301.78 520.433 298.523 509.203C298.86 505.946 305.936 508.866 306.16 509.203Z" fill="#E0A144"/>
<path d="M410.037 569.057L401.053 574.448C401.839 566.699 402.738 566.138 410.037 569.057Z" fill="#E0A144"/>
<path d="M355.797 525.037C348.049 524.251 347.487 523.352 350.407 516.053L355.797 525.037Z" fill="#E0A144"/>
<path d="M459.336 508.306L458.438 511.899C442.941 509.99 444.737 502.915 459.336 508.306Z" fill="#E0A144"/>
<path d="M546.14 560.187L545.242 563.78C529.745 561.871 531.542 554.796 546.14 560.187Z" fill="#E0A144"/>
<path d="M162.42 596.571L161.522 600.165C146.025 598.256 147.821 591.181 162.42 596.571Z" fill="#E0A144"/>
<path d="M333.786 630.822C336.818 635.988 329.407 642.052 326.15 630.822C326.487 627.565 333.561 630.485 333.786 630.822Z" fill="#E0A144"/>
<path d="M482.468 632.618L481.57 636.212C466.073 634.303 467.87 627.228 482.468 632.618Z" fill="#E0A144"/>
<path d="M279.883 491.235C279.883 491.235 271.91 490.786 273.146 487.754C281.231 479.332 285.049 488.091 279.883 491.235Z" fill="#E0A144"/>
<path d="M227.327 597.133L226.43 600.614L211.605 599.042C216.771 594.325 220.814 594.662 227.327 597.133Z" fill="#E0A144"/>
<path d="M220.926 576.47L220.027 580.063C204.53 578.154 206.327 571.079 220.926 576.47Z" fill="#E0A144"/>
<path d="M326.486 613.641L323.004 612.742C324.913 597.245 331.988 599.042 326.486 613.641Z" fill="#E0A144"/>
<path d="M166.798 578.491C165.002 580.625 161.184 574.898 165.003 570.406C166.799 568.272 170.616 573.999 166.798 578.491Z" fill="#E0A144"/>
<path d="M314.131 492.022C316.265 493.819 310.538 497.637 306.046 493.819C303.913 492.022 309.639 488.204 314.131 492.022Z" fill="#E0A144"/>
<path d="M160.51 573.213C162.644 575.01 156.917 578.828 152.425 575.01C150.291 573.213 156.018 569.395 160.51 573.213Z" fill="#E0A144"/>
<path d="M431.147 639.245C429.35 641.379 425.532 635.651 429.35 631.16C431.147 629.026 434.965 634.753 431.147 639.245Z" fill="#E0A144"/>
<path d="M356.918 567.487C359.052 569.283 353.325 573.102 348.833 569.283C346.7 567.487 352.427 563.669 356.918 567.487Z" fill="#E0A144"/>
<path d="M257.086 600.614C259.22 602.41 253.493 606.228 249.001 602.41C246.868 600.614 252.595 596.796 257.086 600.614Z" fill="#E0A144"/>
<path d="M493.698 539.748C495.831 541.545 490.105 545.363 485.613 541.545C483.479 539.748 489.206 535.93 493.698 539.748Z" fill="#E0A144"/>
<path d="M441.705 595.897C439.908 598.031 436.091 592.304 439.909 587.812C441.706 585.678 445.523 591.405 441.705 595.897Z" fill="#E0A144"/>
<path d="M261.803 486.969C263.936 488.766 258.208 492.584 253.716 488.766C251.582 486.969 257.311 483.151 261.803 486.969Z" fill="#E0A144"/>
<path d="M389.711 636.774C391.844 638.571 386.116 642.389 381.624 638.571C379.491 636.774 385.219 632.956 389.711 636.774Z" fill="#E0A144"/>
<path d="M414.978 642.952C417.112 644.748 411.384 648.566 406.892 644.748C404.758 642.951 410.486 639.133 414.978 642.952Z" fill="#E0A144"/>
<path d="M560.965 655.639C563.098 657.436 557.37 661.254 552.878 657.436C550.745 655.639 556.473 651.821 560.965 655.639Z" fill="#E0A144"/>
<path d="M490.779 661.478C489.656 668.778 482.806 663.387 480.447 656.986L490.779 661.478Z" fill="#E0A144"/>
<path d="M519.639 668.553C521.773 670.35 516.046 674.168 511.554 670.35C509.42 668.553 515.147 664.735 519.639 668.553Z" fill="#E0A144"/>
<path d="M530.418 671.137C532.552 672.934 526.825 676.752 522.333 672.934C520.2 671.137 525.927 667.319 530.418 671.137Z" fill="#E0A144"/>
<path d="M199.364 601.737C197.567 603.871 193.749 598.144 197.567 593.652C199.363 591.518 203.182 597.245 199.364 601.737Z" fill="#E0A144"/>
<path d="M233.953 491.573C232.156 493.707 228.339 487.98 232.157 483.488C233.954 481.354 237.771 487.081 233.953 491.573Z" fill="#E0A144"/>
<path d="M216.659 468.215C218.792 470.012 213.065 473.83 208.574 470.012C206.44 468.215 212.167 464.397 216.659 468.215Z" fill="#E0A144"/>
<path d="M468.094 629.137C470.227 630.934 464.499 634.752 460.007 630.934C457.873 629.137 463.602 625.319 468.094 629.137Z" fill="#E0A144"/>
<path d="M433.842 628.352C432.046 630.486 428.227 624.759 432.045 620.267C433.842 618.133 437.66 623.86 433.842 628.352Z" fill="#E0A144"/>
<path d="M430.586 531.998C432.72 533.795 426.993 537.613 422.501 533.795C420.368 531.998 426.095 528.18 430.586 531.998Z" fill="#E0A144"/>
<path d="M186.336 529.754C188.47 531.551 182.743 535.369 178.251 531.551C176.118 529.754 181.845 525.936 186.336 529.754Z" fill="#E0A144"/>
<path d="M266.745 560.749C264.948 562.883 261.129 557.155 264.948 552.663C266.744 550.53 270.563 556.257 266.745 560.749Z" fill="#E0A144"/>
<path d="M277.077 471.472C275.28 473.605 271.461 467.878 275.28 463.386C277.076 461.252 280.895 466.98 277.077 471.472Z" fill="#E0A144"/>
<path d="M383.984 566.475C386.118 568.272 380.39 572.09 375.898 568.272C373.764 566.475 379.492 562.657 383.984 566.475Z" fill="#E0A144"/>
<path d="M421.379 491.348C418.235 488.765 430.25 486.07 433.395 488.541C429.24 491.685 426.32 493.819 421.379 491.348Z" fill="#E0A144"/>
<path d="M435.303 575.235C437.437 577.031 431.71 580.85 427.218 577.031C425.084 575.235 430.811 571.417 435.303 575.235Z" fill="#E0A144"/>
<path d="M355.573 479.108C353.776 481.242 349.958 475.515 353.776 471.023C355.572 468.889 359.391 474.616 355.573 479.108Z" fill="#E0A144"/>
<path d="M539.629 539.41C541.762 541.207 536.034 545.025 531.542 541.207C529.409 539.411 535.137 535.592 539.629 539.41Z" fill="#E0A144"/>
<path d="M498.191 693.821C496.394 695.955 492.577 690.228 496.395 685.736C498.192 683.602 502.009 689.329 498.191 693.821Z" fill="#E0A144"/>
<path d="M342.659 594.663C340.862 596.797 337.043 591.069 340.862 586.577C342.658 584.444 346.477 590.171 342.659 594.663Z" fill="#E0A144"/>
<path d="M393.64 526.723C395.774 528.52 390.046 532.338 385.554 528.52C383.42 526.723 389.149 522.905 393.64 526.723Z" fill="#E0A144"/>
<path d="M382.748 508.755C380.951 510.888 377.134 505.161 380.952 500.669C382.749 498.536 386.566 504.263 382.748 508.755Z" fill="#E0A144"/>
<path d="M161.632 615.55C164.777 618.133 152.762 620.828 149.617 618.358C153.772 615.213 156.691 613.08 161.632 615.55Z" fill="#E0A144"/>
<path d="M146.247 615.662C148.38 617.459 142.653 621.277 138.161 617.459C136.028 615.662 141.755 611.844 146.247 615.662Z" fill="#E0A144"/>
<path d="M253.494 771.868C255.628 773.664 249.899 777.482 245.407 773.664C243.274 771.868 249.002 768.049 253.494 771.868Z" fill="#E0A144"/>
<path d="M278.985 651.823C281.119 653.619 275.392 657.437 270.9 653.619C268.766 651.823 274.493 648.004 278.985 651.823Z" fill="#E0A144"/>
<path d="M293.247 467.764C295.38 469.561 289.653 473.379 285.161 469.561C283.028 467.764 288.755 463.946 293.247 467.764Z" fill="#E0A144"/>
<path d="M300.097 565.128C298.3 567.261 294.483 561.534 298.301 557.042C300.098 554.909 303.915 560.636 300.097 565.128Z" fill="#E0A144"/>
<path d="M281.792 514.706C279.996 516.84 276.179 511.112 279.997 506.62C281.793 504.487 285.611 510.214 281.792 514.706Z" fill="#E0A144"/>
<path d="M458.66 557.827C456.863 559.961 453.046 554.233 456.864 549.742C458.661 547.608 462.478 553.335 458.66 557.827Z" fill="#E0A144"/>
<path d="M374.774 541.208C372.977 543.342 369.159 537.614 372.977 533.122C374.774 530.989 378.592 536.716 374.774 541.208Z" fill="#E0A144"/>
<path d="M446.983 558.839C445.186 560.972 441.368 555.245 445.186 550.753C446.983 548.62 450.801 554.347 446.983 558.839Z" fill="#E0A144"/>
<path d="M477.976 807.578C480.11 809.375 474.382 813.193 469.89 809.375C467.756 807.578 473.484 803.76 477.976 807.578Z" fill="#E0A144"/>
<path d="M324.915 494.604C323.118 496.738 319.299 491.011 323.117 486.519C324.914 484.385 328.733 490.112 324.915 494.604Z" fill="#E0A144"/>
<path d="M105.372 712.799L115.816 724.815C111.886 725.039 100.993 715.943 105.372 712.799Z" fill="#E0A144"/>
<path d="M523.682 573.774C525.816 575.571 520.089 579.389 515.597 575.571C513.463 573.774 519.19 569.956 523.682 573.774Z" fill="#E0A144"/>
<path d="M236.537 465.407C238.671 467.203 232.942 471.021 228.45 467.203C226.317 465.407 232.045 461.588 236.537 465.407Z" fill="#E0A144"/>
<path d="M414.528 550.977C416.662 552.774 410.935 556.592 406.443 552.774C404.309 550.977 410.036 547.159 414.528 550.977Z" fill="#E0A144"/>
<path d="M475.393 473.942C477.527 475.739 471.8 479.557 467.308 475.739C465.174 473.942 470.901 470.124 475.393 473.942Z" fill="#E0A144"/>
<path d="M342.659 766.815C340.862 768.949 337.043 763.222 340.862 758.73C342.658 756.596 346.477 762.323 342.659 766.815Z" fill="#E0A144"/>
<path d="M508.971 524.25C511.104 526.047 505.376 529.865 500.884 526.047C498.75 524.25 504.479 520.432 508.971 524.25Z" fill="#E0A144"/>
<path d="M311.326 472.143C309.529 474.277 305.712 468.55 309.53 464.058C311.327 461.924 315.144 467.651 311.326 472.143Z" fill="#E0A144"/>
<path d="M281.79 671.698C284.373 668.553 286.956 680.569 284.598 683.714C281.454 679.558 279.32 676.639 281.79 671.698Z" fill="#E0A144"/>
<path d="M486.174 476.637C488.308 478.434 482.581 482.252 478.089 478.434C475.956 476.637 481.682 472.819 486.174 476.637Z" fill="#E0A144"/>
<path d="M491.676 485.509C489.88 487.642 486.061 481.915 489.879 477.423C491.676 475.29 495.494 481.017 491.676 485.509Z" fill="#E0A144"/>
<path d="M518.854 515.155C517.057 517.289 513.239 511.562 517.057 507.07C518.854 504.936 522.672 510.663 518.854 515.155Z" fill="#E0A144"/>
<path d="M517.729 488.203C519.863 490 514.136 493.818 509.644 490C507.51 488.203 513.237 484.385 517.729 488.203Z" fill="#E0A144"/>
<path d="M276.401 677.989C278.535 679.785 272.808 683.603 268.316 679.785C266.182 677.989 271.909 674.171 276.401 677.989Z" fill="#E0A144"/>
<path d="M340.974 460.241C339.177 462.375 335.36 456.648 339.178 452.156C340.975 450.022 344.792 455.749 340.974 460.241Z" fill="#E0A144"/>
<path d="M199.028 697.414C201.162 699.211 195.435 703.029 190.943 699.211C188.809 697.414 194.536 693.596 199.028 697.414Z" fill="#E0A144"/>
<path d="M210.594 508.866C212.728 510.662 207.001 514.481 202.509 510.662C200.375 508.866 206.102 505.047 210.594 508.866Z" fill="#E0A144"/>
<path d="M336.928 539.748C339.062 541.545 333.335 545.363 328.843 541.545C326.709 539.748 332.436 535.93 336.928 539.748Z" fill="#E0A144"/>
<path d="M298.188 541.657C296.391 543.791 292.573 538.064 296.391 533.572C298.188 531.438 302.006 537.165 298.188 541.657Z" fill="#E0A144"/>
<path d="M506.612 753.34C508.745 755.137 503.019 758.955 498.527 755.137C496.393 753.34 502.12 749.522 506.612 753.34Z" fill="#E0A144"/>
<path d="M236.76 683.602C238.894 685.399 233.167 689.217 228.675 685.399C226.541 683.602 232.268 679.784 236.76 683.602Z" fill="#E0A144"/>
<path d="M344.229 556.706C342.432 558.84 338.614 553.112 342.432 548.62C344.229 546.487 348.047 552.214 344.229 556.706Z" fill="#E0A144"/>
<path d="M258.997 451.708C257.2 453.842 253.381 448.114 257.199 443.622C258.996 441.489 262.815 447.216 258.997 451.708Z" fill="#E0A144"/>
<path d="M209.698 669.34C211.831 671.137 206.105 674.955 201.613 671.137C199.479 669.34 205.206 665.522 209.698 669.34Z" fill="#E0A144"/>
<path d="M215.086 678.325C213.29 680.459 209.471 674.731 213.289 670.24C215.086 668.106 218.905 673.833 215.086 678.325Z" fill="#E0A144"/>
<path d="M277.412 532.786C279.546 534.582 273.817 538.4 269.325 534.582C267.192 532.785 272.92 528.967 277.412 532.786Z" fill="#E0A144"/>
<path d="M555.35 615.886C553.553 618.019 549.735 612.292 553.553 607.8C555.35 605.666 559.168 611.394 555.35 615.886Z" fill="#E0A144"/>
<path d="M260.12 674.057L264.162 680.682L257.537 684.725L260.12 674.057Z" fill="#E0A144"/>
<path d="M264.833 529.754C266.855 531.551 266.631 532.786 263.936 533.347L264.833 529.754Z" fill="#E0A144"/>
<path d="M193.413 665.41C194.873 668.218 199.478 671.923 195.323 673.383C194.087 670.8 189.146 667.095 193.413 665.41Z" fill="#E0A144"/>
<path d="M350.517 711.34C352.538 713.137 352.314 714.372 349.619 714.933L350.517 711.34Z" fill="#E0A144"/>
<path d="M309.865 533.123C312.672 537.278 302.229 540.984 303.127 537.166L309.865 533.123Z" fill="#E0A144"/>
<path d="M480.559 601.514C482.581 603.31 482.355 604.546 479.66 605.107L480.559 601.514Z" fill="#E0A144"/>
<path d="M501.558 499.547C503.018 502.354 507.621 506.06 503.466 507.52C502.231 504.937 497.291 501.231 501.558 499.547Z" fill="#E0A144"/>
<path d="M147.372 650.361C149.394 652.158 149.17 653.393 146.475 653.955L147.372 650.361Z" fill="#E0A144"/>
<path d="M402.398 467.654C404.419 469.451 404.195 470.686 401.5 471.248L402.398 467.654Z" fill="#E0A144"/>
<path d="M362.645 457.883C364.667 459.68 364.441 460.915 361.746 461.476L362.645 457.883Z" fill="#E0A144"/>
<path d="M351.865 455.301C353.886 457.098 353.662 458.333 350.967 458.894L351.865 455.301Z" fill="#E0A144"/>
<path d="M552.542 588.486C554.563 590.283 554.338 591.518 551.643 592.08L552.542 588.486Z" fill="#E0A144"/>
<path d="M465.96 567.373C467.982 569.17 467.758 570.405 465.062 570.967L465.96 567.373Z" fill="#E0A144"/>
<path d="M424.859 469.225C426.88 471.021 426.656 472.257 423.961 472.818L424.859 469.225Z" fill="#E0A144"/>
<path d="M447.88 562.881C449.902 564.678 449.678 565.913 446.982 566.474L447.88 562.881Z" fill="#E0A144"/>
<path d="M169.943 651.934C171.964 653.73 171.74 654.966 169.045 655.527L169.943 651.934Z" fill="#E0A144"/>
<path d="M440.245 469.225C442.266 471.021 442.041 472.257 439.346 472.818L440.245 469.225Z" fill="#E0A144"/>
<path d="M456.078 576.357C458.099 578.154 457.875 579.389 455.18 579.951L456.078 576.357Z" fill="#E0A144"/>
<path d="M319.636 680.906C321.658 682.703 321.433 683.938 318.738 684.5L319.636 680.906Z" fill="#E0A144"/>
<path d="M259.22 662.266C261.242 664.062 261.017 665.298 258.322 665.859L259.22 662.266Z" fill="#E0A144"/>
<path d="M588.927 815.553C590.948 817.35 590.722 818.585 588.027 819.146L588.927 815.553Z" fill="#E0A144"/>
<path d="M202.396 644.635C205.204 648.79 194.76 652.496 195.659 648.677L202.396 644.635Z" fill="#E0A144"/>
<path d="M172.638 641.154C174.659 642.951 174.435 644.186 171.74 644.748L172.638 641.154Z" fill="#E0A144"/>
<path d="M165.339 639.355C167.361 641.152 167.137 642.388 164.441 642.949L165.339 639.355Z" fill="#E0A144"/>
<path d="M484.714 709.768C486.174 712.575 490.777 716.281 486.622 717.741C485.387 715.158 480.447 711.452 484.714 709.768Z" fill="#E0A144"/>
<path d="M462.704 470.91C464.725 472.707 464.5 473.942 461.805 474.504L462.704 470.91Z" fill="#E0A144"/>
<path d="M479.773 792.643C481.794 794.439 481.57 795.675 478.875 796.236L479.773 792.643Z" fill="#E0A144"/>
<path d="M463.265 578.154C465.286 579.951 465.062 581.186 462.367 581.748L463.265 578.154Z" fill="#E0A144"/>
<path d="M539.066 581.299C541.087 583.096 540.863 584.331 538.168 584.892L539.066 581.299Z" fill="#E0A144"/>
<path d="M285.386 664.848C287.407 666.644 287.181 667.88 284.486 668.441L285.386 664.848Z" fill="#E0A144"/>
<path d="M395.1 450.471C397.122 452.267 396.896 453.503 394.201 454.064L395.1 450.471Z" fill="#E0A144"/>
<path d="M187.91 641.041C189.931 642.838 189.707 644.073 187.012 644.635L187.91 641.041Z" fill="#E0A144"/>
<path d="M239.456 508.191C241.477 509.988 241.252 511.223 238.557 511.785L239.456 508.191Z" fill="#E0A144"/>
<path d="M524.468 719.426C526.489 721.223 526.264 722.458 523.568 723.019L524.468 719.426Z" fill="#E0A144"/>
<path d="M251.134 507.295C253.156 509.092 252.931 510.327 250.236 510.888L251.134 507.295Z" fill="#E0A144"/>
<path d="M311.999 430.258C314.021 432.055 313.797 433.29 311.102 433.851L311.999 430.258Z" fill="#E0A144"/>
<path d="M490.218 561.76C492.24 563.557 492.015 564.792 489.32 565.353L490.218 561.76Z" fill="#E0A144"/>
<path d="M517.169 717.629C519.19 719.426 518.965 720.661 516.27 721.222L517.169 717.629Z" fill="#E0A144"/>
<path d="M413.966 451.258C415.988 453.055 415.764 454.29 413.068 454.851L413.966 451.258Z" fill="#E0A144"/>
<path d="M502.794 714.146C504.816 715.943 504.592 717.179 501.896 717.74L502.794 714.146Z" fill="#E0A144"/>
<path d="M474.158 580.85C476.179 582.646 475.955 583.882 473.26 584.443L474.158 580.85Z" fill="#E0A144"/>
<path d="M443.726 454.74C445.747 456.537 445.523 457.772 442.828 458.334L443.726 454.74Z" fill="#E0A144"/>
<path d="M448.667 700.895C450.688 702.691 450.463 703.927 447.768 704.488L448.667 700.895Z" fill="#E0A144"/>
<path d="M513.798 590.508C515.82 592.305 515.596 593.54 512.9 594.101L513.798 590.508Z" fill="#E0A144"/>
<path d="M217.669 644.521C219.691 646.318 219.467 647.554 216.771 648.115L217.669 644.521Z" fill="#E0A144"/>
<path d="M292.684 509.766C294.706 511.562 294.48 512.798 291.785 513.359L292.684 509.766Z" fill="#E0A144"/>
<path d="M460.345 699.885C462.367 701.682 462.142 702.917 459.447 703.478L460.345 699.885Z" fill="#E0A144"/>
<path d="M196.896 635.65C198.917 637.447 198.693 638.682 195.998 639.244L196.896 635.65Z" fill="#E0A144"/>
<path d="M436.539 452.943C438.56 454.74 438.336 455.975 435.641 456.537L436.539 452.943Z" fill="#E0A144"/>
<path d="M454.057 694.494C456.079 696.291 455.853 697.526 453.158 698.088L454.057 694.494Z" fill="#E0A144"/>
<path d="M215.872 636.438C217.894 638.234 217.67 639.47 214.975 640.031L215.872 636.438Z" fill="#E0A144"/>
<path d="M552.992 837.338C555.013 839.135 554.789 840.37 552.094 840.931L552.992 837.338Z" fill="#E0A144"/>
<path d="M340.413 517.514C342.434 519.31 342.209 520.546 339.514 521.107L340.413 517.514Z" fill="#E0A144"/>
<path d="M325.028 659.234C327.05 661.031 326.824 662.266 324.129 662.828L325.028 659.234Z" fill="#E0A144"/>
<path d="M447.206 440.252C449.227 442.049 449.002 443.284 446.307 443.845L447.206 440.252Z" fill="#E0A144"/>
<path d="M562.986 843.627C565.007 845.424 564.783 846.659 562.088 847.22L562.986 843.627Z" fill="#E0A144"/>
<path d="M299.759 653.057C301.78 654.853 301.555 656.089 298.859 656.65L299.759 653.057Z" fill="#E0A144"/>
<path d="M315.145 511.338C317.167 513.135 316.941 514.37 314.246 514.931L315.145 511.338Z" fill="#E0A144"/>
<path d="M88.4135 735.371C90.4349 737.168 90.2108 738.403 87.5156 738.965L88.4135 735.371Z" fill="#E0A144"/>
<path d="M521.099 592.305C523.12 594.101 522.896 595.337 520.201 595.898L521.099 592.305Z" fill="#E0A144"/>
<path d="M318.063 546.486C320.085 548.283 319.859 549.518 317.164 550.08L318.063 546.486Z" fill="#E0A144"/>
<path d="M515.259 694.158C517.281 695.955 517.056 697.19 514.361 697.752L515.259 694.158Z" fill="#E0A144"/>
<path d="M472.922 680.121C475.729 684.276 465.286 687.982 466.184 684.164L472.922 680.121Z" fill="#E0A144"/>
<path d="M378.145 660.693C380.167 662.49 379.941 663.725 377.246 664.287L378.145 660.693Z" fill="#E0A144"/>
<path d="M79.4325 740.875C81.4538 742.672 81.2284 743.907 78.5332 744.469L79.4325 740.875Z" fill="#E0A144"/>
<path d="M482.806 514.031C484.827 515.828 484.603 517.063 481.908 517.625L482.806 514.031Z" fill="#E0A144"/>
<path d="M377.47 522.791C379.492 524.588 379.267 525.823 376.572 526.385L377.47 522.791Z" fill="#E0A144"/>
<path d="M537.831 695.842C539.853 697.639 539.629 698.874 536.934 699.435L537.831 695.842Z" fill="#E0A144"/>
<path d="M523.343 692.361C525.365 694.158 525.14 695.393 522.445 695.955L523.343 692.361Z" fill="#E0A144"/>
<path d="M508.972 688.768C510.993 690.564 510.767 691.8 508.072 692.361L508.972 688.768Z" fill="#E0A144"/>
<path d="M93.019 748.061C95.0403 749.857 94.8162 751.093 92.1211 751.654L93.019 748.061Z" fill="#E0A144"/>
<path d="M451.249 674.73C453.27 676.527 453.045 677.763 450.35 678.324L451.249 674.73Z" fill="#E0A144"/>
<path d="M257.199 623.637C260.006 627.792 249.563 631.498 250.461 627.679L257.199 623.637Z" fill="#E0A144"/>
<path d="M237.772 530.766C239.794 532.562 239.568 533.798 236.873 534.359L237.772 530.766Z" fill="#E0A144"/>
<path d="M145.35 596.234C147.372 598.031 147.146 599.266 144.451 599.828L145.35 596.234Z" fill="#E0A144"/>
<path d="M279.77 625.207C281.792 627.004 281.566 628.239 278.871 628.801L279.77 625.207Z" fill="#E0A144"/>
<path d="M305.935 627.789C307.956 629.586 307.732 630.821 305.037 631.383L305.935 627.789Z" fill="#E0A144"/>
<path d="M447.542 658.561C449.564 660.357 449.34 661.593 446.645 662.154L447.542 658.561Z" fill="#E0A144"/>
<path d="M357.257 636.438C359.278 638.234 359.053 639.47 356.357 640.031L357.257 636.438Z" fill="#E0A144"/>
<path d="M191.279 596.01C193.3 597.807 193.076 599.042 190.381 599.603L191.279 596.01Z" fill="#E0A144"/>
<path d="M184.093 594.213C186.115 596.01 185.89 597.245 183.195 597.807L184.093 594.213Z" fill="#E0A144"/>
<path d="M267.98 610.832C270.001 612.629 269.777 613.864 267.082 614.426L267.98 610.832Z" fill="#E0A144"/>
<path d="M468.319 510.551C470.341 512.348 470.115 513.583 467.42 514.144L468.319 510.551Z" fill="#E0A144"/>
<path d="M218.904 529.979C220.925 531.775 220.701 533.011 218.006 533.572L218.904 529.979Z" fill="#E0A144"/>
<path d="M550.296 675.967C552.318 677.764 552.094 678.999 549.398 679.56L550.296 675.967Z" fill="#E0A144"/>
<path d="M543.109 674.17C545.13 675.967 544.906 677.202 542.211 677.763L543.109 674.17Z" fill="#E0A144"/>
<path d="M523.57 550.754C525.591 552.551 525.367 553.786 522.672 554.347L523.57 550.754Z" fill="#E0A144"/>
<path d="M535.921 672.484C537.943 674.281 537.719 675.516 535.023 676.078L535.921 672.484Z" fill="#E0A144"/>
<path d="M516.269 548.957C518.29 550.754 518.066 551.989 515.371 552.551L516.269 548.957Z" fill="#E0A144"/>
<path d="M470.903 656.539C472.925 658.336 472.699 659.571 470.004 660.133L470.903 656.539Z" fill="#E0A144"/>
<path d="M509.081 547.271C511.103 549.068 510.879 550.304 508.184 550.865L509.081 547.271Z" fill="#E0A144"/>
<path d="M449.339 651.26C451.361 653.057 451.137 654.292 448.441 654.853L449.339 651.26Z" fill="#E0A144"/>
<path d="M332.999 469.787C335.021 471.584 334.797 472.819 332.102 473.381L332.999 469.787Z" fill="#E0A144"/>
<path d="M332.214 504.037C334.236 505.834 334.012 507.069 331.316 507.631L332.214 504.037Z" fill="#E0A144"/>
<path d="M366.802 566.139C368.823 567.935 368.597 569.171 365.902 569.732L366.802 566.139Z" fill="#E0A144"/>
<path d="M499.2 540.984C501.221 542.781 500.996 544.016 498.301 544.578L499.2 540.984Z" fill="#E0A144"/>
<path d="M242.712 447.775C244.734 449.572 244.51 450.807 241.814 451.369L242.712 447.775Z" fill="#E0A144"/>
<path d="M464.275 589.834C466.296 591.631 466.072 592.866 463.377 593.428L464.275 589.834Z" fill="#E0A144"/>
<path d="M481.121 536.605C483.142 538.402 482.918 539.638 480.223 540.199L481.121 536.605Z" fill="#E0A144"/>
<path d="M451.024 644.072C453.046 645.869 452.82 647.104 450.125 647.666L451.024 644.072Z" fill="#E0A144"/>
<path d="M561.749 613.641C563.771 615.437 563.547 616.673 560.852 617.234L561.749 613.641Z" fill="#E0A144"/>
<path d="M264.386 453.055C266.407 454.851 266.181 456.087 263.486 456.648L264.386 453.055Z" fill="#E0A144"/>
<path d="M289.878 489.889C291.899 491.685 291.674 492.921 288.979 493.482L289.878 489.889Z" fill="#E0A144"/>
<path d="M263.376 598.256C265.397 600.053 265.172 601.288 262.477 601.849L263.376 598.256Z" fill="#E0A144"/>
<path d="M268.203 484.611C270.224 486.408 270 487.643 267.305 488.205L268.203 484.611Z" fill="#E0A144"/>
<path d="M406.218 514.482C408.239 516.279 408.014 517.514 405.318 518.076L406.218 514.482Z" fill="#E0A144"/>
<path d="M209.247 585.004C211.269 586.801 211.045 588.036 208.35 588.597L209.247 585.004Z" fill="#E0A144"/>
<path d="M359.277 503.027C361.298 504.824 361.074 506.059 358.379 506.621L359.277 503.027Z" fill="#E0A144"/>
<path d="M275.054 597.244C277.076 599.041 276.851 600.276 274.156 600.838L275.054 597.244Z" fill="#E0A144"/>
<path d="M173.986 572.652C176.007 574.449 175.783 575.684 173.088 576.246L173.986 572.652Z" fill="#E0A144"/>
<path d="M474.496 642.164C476.517 643.961 476.293 645.196 473.598 645.758L474.496 642.164Z" fill="#E0A144"/>
<path d="M338.165 604.992C340.187 606.789 339.963 608.024 337.268 608.586L338.165 604.992Z" fill="#E0A144"/>
<path d="M301.556 488.877C303.577 490.674 303.353 491.909 300.658 492.47L301.556 488.877Z" fill="#E0A144"/>
<path d="M273.255 589.16C275.277 590.957 275.053 592.192 272.357 592.754L273.255 589.16Z" fill="#E0A144"/>
<path d="M204.642 572.426C206.663 574.223 206.439 575.458 203.744 576.019L204.642 572.426Z" fill="#E0A144"/>
<path d="M548.386 652.496C550.408 654.293 550.183 655.528 547.488 656.09L548.386 652.496Z" fill="#E0A144"/>
<path d="M393.191 614.65C395.212 616.447 394.988 617.682 392.293 618.244L393.191 614.65Z" fill="#E0A144"/>
<path d="M513.239 640.143C515.26 641.939 515.035 643.175 512.34 643.736L513.239 640.143Z" fill="#E0A144"/>
<path d="M502.345 637.447C504.367 639.244 504.142 640.479 501.447 641.041L502.345 637.447Z" fill="#E0A144"/>
<path d="M495.158 635.65C497.179 637.447 496.955 638.682 494.26 639.244L495.158 635.65Z" fill="#E0A144"/>
<path d="M171.179 552.775C173.201 554.572 172.976 555.807 170.281 556.369L171.179 552.775Z" fill="#E0A144"/>
<path d="M334.909 493.256C336.93 495.053 336.705 496.288 334.01 496.849L334.909 493.256Z" fill="#E0A144"/>
<path d="M160.398 550.193C162.419 551.99 162.195 553.225 159.5 553.787L160.398 550.193Z" fill="#E0A144"/>
<path d="M179.376 550.977C181.398 552.773 181.174 554.009 178.479 554.57L179.376 550.977Z" fill="#E0A144"/>
<path d="M545.13 540.758C547.151 542.555 546.926 543.79 544.23 544.351L545.13 540.758Z" fill="#E0A144"/>
<path d="M436.425 609.936C438.447 611.732 438.222 612.968 435.527 613.529L436.425 609.936Z" fill="#E0A144"/>
<path d="M411.609 508.082C413.63 509.879 413.406 511.114 410.711 511.676L411.609 508.082Z" fill="#E0A144"/>
<path d="M191.054 549.967C193.076 551.764 192.851 552.999 190.156 553.56L191.054 549.967Z" fill="#E0A144"/>
<path d="M458.997 611.506C461.019 613.303 460.795 614.538 458.1 615.099L458.997 611.506Z" fill="#E0A144"/>
<path d="M372.417 590.395C374.438 592.191 374.213 593.427 371.518 593.988L372.417 590.395Z" fill="#E0A144"/>
<path d="M393.528 503.701C395.55 505.498 395.324 506.733 392.629 507.295L393.528 503.701Z" fill="#E0A144"/>
<path d="M217.22 552.551C219.242 554.348 219.017 555.583 216.322 556.144L217.22 552.551Z" fill="#E0A144"/>
<path d="M209.923 550.754C211.944 552.551 211.719 553.786 209.023 554.347L209.923 550.754Z" fill="#E0A144"/>
<path d="M560.966 632.619C562.987 634.416 562.762 635.651 560.066 636.213L560.966 632.619Z" fill="#E0A144"/>
<path d="M553.665 630.82C555.686 632.617 555.461 633.852 552.766 634.414L553.665 630.82Z" fill="#E0A144"/>
<path d="M546.477 629.137C548.499 630.933 548.273 632.169 545.578 632.73L546.477 629.137Z" fill="#E0A144"/>
<path d="M371.855 498.422C373.876 500.219 373.652 501.454 370.957 502.015L371.855 498.422Z" fill="#E0A144"/>
<path d="M403.074 590.283C405.881 594.438 395.438 598.144 396.336 594.326L403.074 590.283Z" fill="#E0A144"/>
<path d="M439.121 599.041C441.142 600.838 440.918 602.073 438.223 602.635L439.121 599.041Z" fill="#E0A144"/>
<path d="M424.636 595.561C426.657 597.357 426.431 598.593 423.736 599.154L424.636 595.561Z" fill="#E0A144"/>
<path d="M527.949 532.674C529.97 534.471 529.746 535.706 527.051 536.267L527.949 532.674Z" fill="#E0A144"/>
<path d="M314.583 560.973C316.605 562.769 316.381 564.005 313.686 564.566L314.583 560.973Z" fill="#E0A144"/>
<path d="M520.761 530.988C522.783 532.785 522.558 534.02 519.863 534.582L520.761 530.988Z" fill="#E0A144"/>
<path d="M461.58 600.727C463.601 602.523 463.377 603.759 460.682 604.32L461.58 600.727Z" fill="#E0A144"/>
<path d="M268.991 465.633C271.012 467.43 270.787 468.665 268.092 469.226L268.991 465.633Z" fill="#E0A144"/>
<path d="M277.525 555.807C279.546 557.603 279.322 558.839 276.627 559.4L277.525 555.807Z" fill="#E0A144"/>
<path d="M489.992 515.83C492.013 517.627 491.789 518.862 489.094 519.424L489.992 515.83Z" fill="#E0A144"/>
<path d="M138.612 1203.2C137.489 1199.27 139.399 1194.33 139.736 1191.08C139.623 1190.4 139.623 1189.73 139.736 1189.17C139.736 1189.06 139.736 1188.83 139.736 1188.72C136.142 1180.63 97.1743 1174.91 90.0995 1171.31C85.383 1168.84 85.2701 1161.32 78.1953 1161.54C84.484 1181.19 113.907 1179.06 128.393 1191.08C130.864 1193.21 135.917 1211.96 130.751 1212.53L145.238 1216.12C150.741 1206.8 140.296 1208.03 138.836 1203.2H138.612Z" fill="#E0A144"/>
<path d="M113.793 1281.25C102.676 1275.86 114.242 1258.68 112.333 1254.52C110.2 1250.03 86.1679 1247.67 85.7188 1240.04C94.7026 1237.68 122.776 1254.41 124.461 1253.29C128.728 1250.71 137.6 1225.1 138.723 1218.48C151.076 1247.45 106.831 1252.84 113.793 1281.25Z" fill="#E0A144"/>
<path d="M227.104 895.62C232.045 906.626 207.115 903.93 214.526 884.84C216.435 888.77 226.767 894.834 227.104 895.62Z" fill="#E0A144"/>
<path d="M79.3193 1234.65C79.7685 1235.32 78.8703 1239.48 76.6243 1237.79C54.8385 1227.57 67.6404 1217.35 79.3193 1234.65Z" fill="#E0A144"/>
<path d="M112.896 1112.69C115.03 1114.49 109.302 1118.31 104.81 1114.49C102.676 1112.69 108.404 1108.87 112.896 1112.69Z" fill="#E0A144"/>
<path d="M137.602 1183.66C135.805 1185.8 131.987 1180.07 135.805 1175.58C137.602 1173.45 141.42 1179.17 137.602 1183.66Z" fill="#E0A144"/>
<path d="M157.029 1111.91C159.05 1113.7 158.826 1114.94 156.131 1115.5L157.029 1111.91Z" fill="#E0A144"/>
<path d="M93.9174 1104.16C95.9388 1105.95 95.7147 1107.19 93.0195 1107.75L93.9174 1104.16Z" fill="#E0A144"/>
<path d="M131.537 1216.68C133.558 1218.48 133.334 1219.71 130.639 1220.27L131.537 1216.68Z" fill="#E0A144"/>
<path d="M375.335 304.035C360.512 303.137 377.244 282.811 371.854 274.276L381.511 271.244L375.335 304.035Z" fill="#E0A144"/>
<path d="M430.474 329.079C429.576 343.79 407.454 328.405 399.93 329.191L403.412 322.453L430.587 329.079H430.474Z" fill="#E0A144"/>
<path d="M393.416 323.913C387.015 332.672 371.743 321.891 362.871 324.025C369.609 316.613 386.116 318.635 393.416 323.913Z" fill="#E0A144"/>
<path d="M378.254 354.568C378.816 365.91 374.997 358.723 371.516 358.947C361.746 359.509 351.976 358.386 342.318 361.193C342.992 350.637 345.912 355.691 352.201 355.017C360.623 354.119 369.72 354.68 378.254 354.68V354.568Z" fill="#E0A144"/>
<path d="M360.177 334.805L357.593 345.586L346.812 342.891C352.203 336.827 351.978 330.313 360.288 334.693L360.177 334.805Z" fill="#E0A144"/>
<path d="M446.756 340.644L434.066 329.975L446.644 325.371L446.756 340.644Z" fill="#E0A144"/>
<path d="M437.548 315.49C437.548 315.49 428.115 315.827 426.318 314.704L433.843 299.319C436.987 295.388 439.57 314.254 437.548 315.49Z" fill="#E0A144"/>
<path d="M341.534 380.06C337.267 373.21 354.56 370.964 354.897 371.862C357.368 377.14 344.117 384.327 341.534 380.06Z" fill="#E0A144"/>
<path d="M416.212 371.527C416.549 372.201 415.425 373.885 415.313 375.008C408.687 374.447 402.735 371.752 402.623 364.34C405.543 364.677 415.538 370.404 416.1 371.527H416.212Z" fill="#E0A144"/>
<path d="M456.302 285.617C456.639 286.291 455.517 287.975 455.405 289.098C448.779 288.536 442.827 285.841 442.715 278.43C445.635 278.767 455.629 284.494 456.19 285.617H456.302Z" fill="#E0A144"/>
<path d="M393.753 385.115C383.871 384.553 386.678 381.184 389.148 372.537L392.629 373.436L393.64 385.115H393.753Z" fill="#E0A144"/>
<path d="M416.213 356.141L416.886 345.023L432.72 350.638L416.213 356.141Z" fill="#E0A144"/>
<path d="M387.35 364.452C387.35 364.452 379.377 364.003 380.612 360.971C388.698 352.548 392.516 361.308 387.35 364.452Z" fill="#E0A144"/>
<path d="M407.116 346.372L398.133 351.762C398.919 344.014 399.816 343.452 407.116 346.372Z" fill="#E0A144"/>
<path d="M385.444 340.982C391.172 349.854 378.144 346.26 373.428 343.79C376.123 340.87 383.648 338.175 385.444 340.982Z" fill="#E0A144"/>
<path d="M419.582 310.998C411.834 310.211 411.272 309.313 414.192 302.014L419.582 310.998Z" fill="#E0A144"/>
<path d="M412.171 278.656C412.171 278.656 411.721 286.629 408.689 285.393C400.267 277.308 409.027 273.49 412.171 278.656Z" fill="#E0A144"/>
<path d="M393.192 277.757C391.395 279.89 387.577 274.163 391.395 269.671C393.192 267.538 397.01 273.265 393.192 277.757Z" fill="#E0A144"/>
<path d="M400.379 279.554C398.583 281.687 394.764 275.96 398.582 271.468C400.379 269.334 404.198 275.062 400.379 279.554Z" fill="#E0A144"/>
<path d="M394.54 366.136C392.743 368.269 388.924 362.542 392.742 358.05C394.539 355.916 398.358 361.644 394.54 366.136Z" fill="#E0A144"/>
<path d="M361.411 384.889C363.432 386.685 363.207 387.921 360.512 388.482L361.411 384.889Z" fill="#E0A144"/>
<path d="M371.181 375.793C373.202 377.59 372.976 378.825 370.281 379.386L371.181 375.793Z" fill="#E0A144"/>
<path d="M346.812 366.023C348.833 367.82 348.609 369.055 345.914 369.617L346.812 366.023Z" fill="#E0A144"/>
<path d="M428.901 374.559C430.923 376.355 430.697 377.591 428.002 378.152L428.901 374.559Z" fill="#E0A144"/>
<path d="M425.195 358.387C427.216 360.183 426.992 361.419 424.297 361.98L425.195 358.387Z" fill="#E0A144"/>
<path d="M406.892 308.078C408.352 310.886 412.956 314.591 408.801 316.051C407.566 313.468 402.624 309.763 406.892 308.078Z" fill="#E0A144"/>
<path d="M392.518 304.484C394.54 306.281 394.314 307.516 391.619 308.078L392.518 304.484Z" fill="#E0A144"/>
<path d="M385.22 302.688C387.241 304.484 387.015 305.72 384.32 306.281L385.22 302.688Z" fill="#E0A144"/>
<path d="M395.1 293.592C397.122 295.389 396.896 296.624 394.201 297.185L395.1 293.592Z" fill="#E0A144"/>
<path d="M428.341 282.586C430.363 284.383 430.139 285.618 427.443 286.18L428.341 282.586Z" fill="#E0A144"/>
<path d="M422.05 277.195C424.072 278.992 423.847 280.227 421.152 280.789L422.05 277.195Z" fill="#E0A144"/>
<path d="M27.3479 1343.77L25.2363 1345.05L34.735 1360.7L36.8466 1359.41L27.3479 1343.77Z" fill="#E0A144"/>
<path d="M43.0463 1359.64C45.0677 1361.43 44.8436 1362.67 42.1484 1363.23L43.0463 1359.64Z" fill="#E0A144"/>
<path d="M49.4487 1365.03C51.47 1366.82 51.2459 1368.06 48.5508 1368.62L49.4487 1365.03Z" fill="#E0A144"/>
<path d="M373.7 812.895L372.848 816.387L390.848 820.781L391.701 817.29L373.7 812.895Z" fill="#E0A144"/>
<path d="M413.068 791.745L412.17 795.339C396.673 793.43 398.469 786.355 413.068 791.745Z" fill="#E0A144"/>
<path d="M402.399 819.819C404.533 821.615 398.806 825.434 394.314 821.615C392.18 819.819 397.907 816.001 402.399 819.819Z" fill="#E0A144"/>
<path d="M334.683 799.381C336.817 801.178 331.089 804.996 326.597 801.178C324.463 799.381 330.192 795.563 334.683 799.381Z" fill="#E0A144"/>
<path d="M389.598 786.018C391.62 787.814 391.394 789.05 388.699 789.611L389.598 786.018Z" fill="#E0A144"/>
<path d="M416.773 800.279C418.794 802.076 418.57 803.311 415.875 803.873L416.773 800.279Z" fill="#E0A144"/>
<path d="M382.524 799.607C384.546 801.404 384.32 802.639 381.625 803.201L382.524 799.607Z" fill="#E0A144"/>
<path d="M414.08 811.061C416.101 812.857 415.877 814.093 413.182 814.654L414.08 811.061Z" fill="#E0A144"/>
<path d="M359.052 801.516C361.074 803.312 360.849 804.548 358.154 805.109L359.052 801.516Z" fill="#E0A144"/>
</svg>
