<svg width="910" height="1190" viewBox="0 0 910 1190" fill="none" xmlns="http://www.w3.org/2000/svg">
<path d="M500.59 850.59C504.408 851.263 508.9 852.386 513.392 853.622C513.392 853.622 513.392 853.622 513.392 853.734C513.841 855.98 515.076 858.675 516.873 860.472C510.921 859.236 504.857 858.001 498.793 856.878C496.547 855.194 495.986 850.814 488.911 852.611C488.686 846.435 496.772 849.916 500.478 850.59H500.59Z" fill="#E0A144"/>
<path d="M528.776 931.891C528.776 931.891 528.664 931.667 528.664 931.555C527.092 927.961 523.948 925.715 520.466 924.817C506.766 903.368 483.408 895.956 466.451 879.785C475.772 879.897 487.9 891.913 499.018 896.181C509.686 904.491 520.242 919.988 530.461 928.635C529.9 929.758 529.45 930.768 528.889 931.891H528.776Z" fill="#E0A144"/>
<path d="M434.447 834.979C434.447 834.979 434.784 834.979 434.896 834.979C435.008 834.979 435.233 834.979 435.345 835.091C435.345 835.091 435.121 835.091 435.121 834.979C436.469 835.54 437.816 835.989 439.276 836.102C439.501 836.102 439.838 836.102 440.062 836.102C440.287 836.102 440.511 836.214 440.736 836.326C443.319 838.011 445.564 840.032 448.035 841.716C453.65 845.422 460.612 844.412 465.104 839.807C467.687 841.38 471.056 842.952 474.649 845.759C476.783 847.444 476.671 852.946 480.714 854.743C486.216 857.214 493.066 855.641 498.794 856.764C500.815 858.337 505.868 861.481 504.97 864.064L481.275 862.155C498.232 866.647 515.526 869.005 532.371 872.935C533.83 874.62 535.29 876.304 536.526 878.101C537.312 879.336 537.761 880.684 538.434 882.031L457.581 860.358C460.949 869.679 461.399 881.807 456.794 890.903C443.431 876.753 460.5 856.091 447.025 842.39C446.126 855.304 443.993 881.695 449.271 892.587C457.356 909.095 483.521 926.501 504.745 931.667C503.959 933.352 503.622 935.148 503.622 937.057C502.499 936.72 501.377 936.271 500.254 935.934C483.297 929.758 468.923 919.651 453.426 911.229C451.741 912.689 458.479 933.913 456.907 939.977C455.222 946.49 444.779 949.859 445.677 963.223C446.014 968.164 457.019 982.313 460.949 986.805C451.853 980.629 446.575 976.586 438.602 967.939C435.458 979.506 446.8 981.977 450.618 987.479C453.875 992.083 453.089 997.249 458.254 1003.2C462.185 1007.69 484.308 1020.27 502.612 1029.48C501.938 1032.17 501.601 1034.87 501.489 1037.68C498.007 1036.78 494.751 1035.88 491.719 1034.64C462.409 1022.85 408.057 976.474 438.939 944.357C441.746 941.549 450.955 938.63 451.179 936.608C451.404 934.811 433.885 910.892 436.917 903.031C440.736 905.502 447.249 921.897 449.944 909.207C450.281 907.411 434.335 889.218 432.987 876.304C432.313 870.128 433.436 851.374 434.222 834.979H434.447Z" fill="#E0A144"/>
<path d="M33.9923 815.552C62.5159 818.809 119.675 807.467 137.755 784.333L165.268 768.499C158.755 782.649 153.14 795.451 149.21 810.723C142.809 835.092 132.59 890.455 137.194 913.813C139.777 926.727 161.787 938.743 161.001 951.545C161.226 951.882 161.338 952.219 161.451 952.556C161.9 953.791 162.349 955.026 162.686 956.261C162.686 956.486 162.686 956.598 162.686 956.823C162.798 957.721 162.911 958.62 162.911 959.518C163.023 959.518 163.135 959.518 163.247 959.406C195.814 1175.02 462.409 1272.16 616.257 1104.83C621.198 1099.44 633.102 1080.69 634.449 1079.9C638.492 1077.77 643.545 1077.54 648.935 1078.33C649.609 1077.77 650.395 1077.32 651.182 1076.98C653.652 1075.86 656.122 1075.07 658.705 1074.62H658.256L675.662 1069.12L678.245 1079.56L674.764 1078.67C675.999 1079.68 677.234 1080.8 678.133 1082.15C679.256 1083.72 680.379 1085.4 681.277 1087.09C681.839 1088.21 682.288 1089.33 682.737 1090.35C688.015 1092.59 692.507 1094.39 695.763 1094.84C701.94 1095.74 708.004 1093.94 714.18 1092.37C714.742 1091.81 715.191 1091.36 715.753 1090.79C715.865 1090.68 715.977 1090.57 716.089 1090.46C716.202 1090.23 716.427 1090.12 716.539 1089.9C717.886 1088.32 719.234 1086.64 720.357 1084.95C721.03 1083.94 721.705 1083.05 722.266 1082.04C722.603 1081.59 722.827 1081.02 723.164 1080.46C723.164 1080.35 723.277 1080.24 723.389 1080.13C723.613 1079.56 723.951 1079.12 724.287 1078.67C724.849 1077.32 725.186 1075.86 725.523 1074.85C725.859 1073.72 726.196 1072.71 726.533 1071.59C726.645 1071.14 726.758 1070.69 726.87 1070.24C726.87 1070.24 726.87 1070.13 726.87 1070.02C727.319 1067.44 727.656 1064.97 727.993 1062.38C728.667 1057.67 729.453 1052.84 730.8 1048.35C730.8 1037.79 739.223 1030.49 741.02 1021.62C742.03 1016.34 740.458 1004.77 742.142 996.239C742.142 996.127 742.142 995.903 742.142 995.79C742.704 988.379 744.051 980.967 745.96 973.78C744.837 967.94 749.105 960.866 752.137 953.679C752.249 953.005 752.474 952.331 752.587 951.769C752.587 951.545 752.587 951.545 752.587 951.32C752.811 950.31 752.923 949.299 753.147 948.176C753.147 947.39 753.372 946.491 753.372 945.705C753.372 945.368 753.372 945.144 753.372 944.807C753.035 943.796 752.362 939.08 752.25 938.743C751.913 937.283 751.8 935.823 751.575 934.363C749.666 931.781 749.554 926.166 750.34 921.224C750.34 917.743 750.34 914.262 750.565 910.893C750.565 910.893 750.565 910.781 750.565 910.668C750.565 910.668 750.565 910.668 750.565 910.556C750.789 905.952 751.464 901.348 752.362 896.968C751.8 894.722 751.464 892.139 751.352 889.107C750.902 877.091 755.393 852.049 755.73 838.685C755.955 827.68 747.196 820.044 751.688 808.365C753.372 803.873 766.511 794.328 771.227 786.692C782.232 769.285 788.859 757.494 800.313 740.986C801.998 738.628 798.179 733.35 799.189 730.093C802.334 719.987 809.858 711.677 807.612 698.313C805.253 693.26 803.121 688.206 800.426 683.377C799.752 682.591 799.078 681.693 798.404 681.019C795.484 678.436 792.564 675.854 789.981 672.934C787.174 669.565 784.591 666.084 781.896 662.827C780.886 661.929 779.988 660.918 779.426 659.683C777.405 656.875 775.046 654.18 773.024 651.373C771.677 649.576 770.442 647.779 769.319 645.87C767.298 642.726 761.233 636.1 752.25 632.507C757.415 631.496 779.65 617.683 780.324 617.683L807.276 598.929C815.473 586.689 828.724 579.39 838.045 568.384C844.559 560.748 856.349 537.727 860.055 534.92C860.504 533.909 861.066 532.898 861.628 531.888C861.964 531.214 862.301 530.652 862.75 530.091C863.536 529.08 864.211 527.957 864.885 526.834C865.221 526.16 865.67 525.374 866.007 524.701C868.029 513.583 879.819 506.396 883.75 496.065C895.092 466.193 903.627 428.349 906.771 397.355C913.397 332.11 906.659 281.014 892.734 216.78C888.13 195.555 850.509 138.845 835.686 120.203C742.703 3.18892 561.118 -42.1794 432.65 46.7605C391.212 75.5088 397.164 98.7544 373.918 137.273C333.94 203.753 313.165 218.576 287.898 298.869C287.111 301.452 281.048 300.666 280.599 302.463C279.251 309.538 285.989 314.03 286.101 319.869C286.438 333.794 277.679 358.612 278.69 379.499C280.262 412.515 287.786 451.145 296.882 482.589L247.808 478.658C246.797 478.658 236.016 487.193 231.412 489.102C226.134 491.123 219.396 489.102 214.455 491.46C212.321 492.471 193.119 514.369 192.333 517.626C189.413 529.642 205.808 541.882 209.963 555.021C211.76 560.748 217.711 591.855 215.578 594.887C214.679 596.122 194.242 609.71 190.76 611.956C187.279 614.202 180.204 612.742 175.151 615.886C169.199 619.592 164.37 634.416 152.017 631.271C152.242 631.047 152.354 630.71 152.466 630.373C151.119 631.159 149.884 631.833 148.424 632.507C146.29 633.517 143.932 634.303 141.686 634.977C138.654 638.346 134.611 640.03 132.365 643.512C114.735 670.912 96.8795 688.992 73.7461 711.789C68.5804 716.955 65.0988 728.521 58.5855 731.104C58.3609 731.104 57.4624 731.329 56.3394 731.553C55.3287 732.676 54.206 733.687 53.083 734.585C50.9494 736.382 48.4785 737.73 46.4571 739.526C44.4358 741.323 42.5271 743.344 40.5057 745.141C40.1688 745.366 39.8316 745.591 39.4947 745.927C35.7889 752.89 24.6717 753.901 18.7199 759.403C-8.23157 784.782 -8.34401 810.836 33.3185 815.664L33.9923 815.552ZM296.432 451.707C302.159 452.381 300.138 461.028 303.844 465.856C315.636 481.241 346.854 510.663 363.25 522.567C374.367 530.652 392.223 538.962 404.688 545.7C404.8 552.214 397.388 547.834 393.683 547.16C380.207 544.802 376.95 540.647 370.1 537.278C355.164 530.203 325.854 509.989 314.737 497.524C305.079 486.856 297.218 465.856 296.432 451.595V451.707ZM383.127 138.171C379.758 177.924 370.437 218.913 367.966 258.554C367.068 273.153 366.731 291.121 366.394 305.495C365.945 328.516 388.517 345.024 383.576 377.927C383.014 381.97 377.736 385.563 377.174 389.045C376.388 393.312 381.779 397.018 381.779 399.937C381.779 407.349 377.736 410.943 379.645 420.376C384.474 444.295 430.292 472.482 454.66 465.407C461.398 463.498 488.35 444.295 492.056 438.905C496.884 431.83 494.975 424.755 497.446 421.049C499.018 418.804 507.665 419.365 510.472 412.29C513.279 405.103 510.921 396.569 514.852 387.809C516.087 385.114 550.113 344.687 552.471 343.002C569.99 330.537 560.445 343.452 578.188 321.329C593.685 302.014 622.321 285.394 643.32 271.806C663.871 258.442 681.053 237.667 710.138 243.394C717.213 244.742 724.063 250.918 730.351 251.255C738.324 251.817 748.993 243.057 758.202 243.956C760.448 244.18 796.382 263.159 798.067 264.843C804.692 271.132 812.329 286.853 816.933 294.265C820.078 299.431 827.601 303.923 828.836 309.65C830.745 318.971 825.804 324.698 824.906 332.446C824.457 336.601 827.152 341.543 826.478 346.034C825.58 351.649 820.863 355.243 819.403 360.072C817.382 366.922 818.73 374.558 815.248 381.071C810.195 390.392 781.672 411.167 771.004 414.312C767.859 415.21 762.132 416.333 763.479 411.055C775.607 409.483 783.132 401.06 782.234 388.708L737.314 418.13C698.122 405.216 669.037 382.868 635.797 360.296C628.16 355.131 614.909 351.537 610.305 347.831C605.813 344.238 613.674 334.692 602.332 336.714C606.487 342.104 599.524 355.692 600.647 357.04C601.209 357.713 611.203 358.387 616.369 360.97C663.646 384.89 705.197 439.354 763.929 424.98C777.068 421.723 784.591 415.884 795.709 410.381C807.837 404.429 803.345 419.14 796.158 425.878C792.789 429.135 786.163 429.696 785.714 430.258C783.019 433.402 790.207 442.274 790.543 446.429C791.442 459.006 779.538 456.985 775.832 462.151C772.351 467.092 773.249 475.065 770.329 478.883C768.083 481.915 751.688 487.754 747.87 495.054C744.501 501.567 746.186 509.653 742.817 515.155C739.111 521.444 729.341 519.198 726.421 522.791C723.164 526.722 723.277 536.155 718.448 542.331C706.656 557.379 629.957 591.069 609.182 595.448C582.343 601.063 588.856 593.539 574.145 586.015C554.83 576.133 550.114 579.277 533.381 576.582C526.98 575.571 522.375 568.946 516.761 568.609C511.033 568.272 506.317 574.673 501.039 576.021C490.034 578.716 447.024 566.7 438.938 558.951C422.767 543.454 416.591 546.711 396.04 535.593C384.474 529.305 342.362 499.658 333.715 490.899C327.539 484.722 327.651 475.851 324.394 472.033C320.913 467.878 313.389 467.765 307.662 459.455C293.849 439.242 283.855 379.275 285.315 353.895C285.539 349.628 288.459 326.158 289.357 325.147C289.694 324.81 296.208 329.751 299.24 327.842C306.764 315.489 344.496 305.832 349.55 297.634C352.806 292.132 347.865 291.907 342.811 293.479C333.266 296.399 301.149 315.939 298.678 315.714C296.545 315.489 294.523 309.875 294.299 306.955C290.817 269.447 332.48 205.774 353.817 174.78C354.94 173.096 360.555 172.31 362.913 169.053C368.865 160.855 370.437 143.449 382.789 138.508L383.127 138.171ZM483.296 584.443L474.2 592.192L466.789 578.042C473.863 578.267 479.59 577.705 483.184 584.443H483.296ZM388.741 363.665C401.656 360.184 415.356 371.302 424.452 372.537C431.19 373.435 437.479 366.136 447.698 368.382C450.954 369.056 477.12 379.275 483.633 381.633C485.767 382.419 494.862 398.927 509.012 393.761C513.392 411.504 494.75 413.862 491.494 419.59C488.462 424.755 490.259 432.055 487.788 435.648C485.655 438.905 450.056 460.241 444.104 460.354C429.842 460.803 390.538 437.445 386.046 423.857C382.453 412.739 389.415 407.125 388.517 400.162C388.067 396.681 383.014 393.312 383.351 388.595C383.688 384.328 393.795 373.997 388.741 363.553V363.665ZM721.929 635.539C702.052 635.875 701.94 605.443 683.411 600.726C675.101 598.593 637.369 609.036 626.701 612.181C603.23 619.143 606.487 631.72 590.878 603.309C612.663 601.175 639.615 593.427 660.165 584.668C676.336 577.817 704.523 562.208 717.886 552.438C729.565 544.016 726.758 532.898 730.576 528.294C732.373 526.16 741.02 526.385 745.624 521.893C752.138 515.492 750.565 505.834 754.495 498.984C758.875 491.348 775.832 484.61 777.067 482.813C779.65 478.995 777.292 471.808 780.774 466.867C784.255 461.814 795.035 463.274 797.281 449.236C800.875 426.552 802.335 434.862 808.736 417.905C818.506 392.301 827.827 359.51 831.42 332.896C832.768 322.789 840.179 312.682 833.441 302.126C831.419 299.094 825.58 297.409 823.783 294.602C817.607 284.944 808.622 266.64 799.189 258.779C796.831 256.758 763.816 237.442 761.682 236.993C749.666 234.747 737.875 244.517 730.239 244.629C722.715 244.742 717.549 238.004 710.474 236.319C675.101 228.009 614.235 282.025 589.418 305.046C582.118 311.896 565.498 331.436 563.926 332.559C539.894 349.965 538.434 356.927 519.007 374.221C494.077 396.456 501.376 383.093 484.082 375.569C480.601 373.997 446.912 361.644 444.89 361.419C436.805 360.296 431.19 366.585 424.901 365.799C423.329 365.574 397.388 357.489 395.143 356.591C370.774 346.259 373.244 280.902 374.592 259.116C377.287 215.432 384.923 142.663 397.838 101.786C406.484 74.3858 417.938 64.8405 441.633 49.4557C513.729 2.62744 616.369 -6.13181 695.427 25.3116C830.297 79.1023 902.391 200.609 904.974 339.072C905.985 390.617 898.798 428.012 881.504 474.279C862.638 524.476 837.595 567.935 793.574 600.839C780.323 610.833 737.201 635.314 721.817 635.539H721.929ZM748.88 798.595C750.003 790.285 730.239 757.382 735.405 753.227C736.865 752.104 761.906 753.227 764.152 735.147C754.27 732.452 752.699 744.917 746.859 747.275C722.603 757.494 677.235 748.735 659.042 728.184L703.4 685.848C695.314 685.848 686.443 692.81 680.155 697.415C671.957 703.479 646.689 731.778 641.636 733.575C629.395 738.067 579.985 739.302 568.979 732.452C565.049 729.981 540.68 697.302 540.006 694.046C539.333 690.677 536.301 657.212 536.975 655.303C542.59 640.255 550.001 637.335 563.813 643.849C554.83 616.897 526.755 652.72 525.295 663.501C524.734 667.88 529.675 671.474 529.788 674.394C529.9 685.736 526.643 692.249 529.788 705.837C533.943 724.029 544.835 731.329 534.391 754.013L544.723 751.43C544.162 757.27 544.723 763.67 542.59 769.285C541.916 771.082 523.611 799.606 522.264 800.953C517.21 806.007 486.44 818.36 479.815 817.91C466.339 808.477 432.201 804.098 421.757 797.697C416.816 794.665 414.57 782.424 411.201 781.863C409.966 781.638 402.554 787.028 396.827 787.141C357.747 788.039 332.704 733.35 341.351 699.211C344.608 686.297 366.619 666.645 353.592 650.586C349.437 657.549 351.683 666.982 349.212 675.067C346.742 682.928 337.646 687.982 335.288 695.842C331.694 707.746 336.86 725.938 321.363 731.441C307.438 736.382 302.945 726.051 296.32 725.601C291.603 725.265 287.224 731.216 276.556 728.97C263.754 726.388 253.535 716.618 249.155 704.714C242.53 686.409 233.658 652.496 229.503 633.068C222.99 602.972 224.112 568.834 212.209 540.534C209.738 534.583 199.295 527.733 199.969 520.433C200.193 517.626 215.466 499.321 217.824 498.086C224.225 494.942 240.957 497.3 244.776 494.605C245.337 494.268 243.091 489.214 244.102 488.091C248.818 483.038 292.053 487.305 300.251 490.786C312.154 495.84 309.684 507.294 312.94 509.989C321.25 516.84 347.977 527.171 357.41 540.085C361.003 544.914 359.544 551.652 359.993 552.101C360.555 552.887 374.03 549.518 378.859 549.855C404.126 551.54 427.596 553.786 448.259 569.957C452.19 573.101 466.115 587.812 467.462 591.518C468.248 593.651 466.676 630.148 466.002 633.293C465.441 635.651 459.938 635.426 458.928 637.672C454.885 647.105 453.987 656.651 449.27 666.308C438.153 688.992 410.639 693.484 393.458 711.901C386.945 718.864 379.196 727.847 379.196 737.73L390.089 728.409L387.73 758.842C402.441 751.093 392.447 728.633 399.746 715.495C405.923 704.377 429.393 695.618 439.5 688.094L464.093 655.864C487.9 696.067 510.921 748.735 480.489 791.857C486.665 800.055 495.2 777.82 497.558 771.082C505.194 748.623 497.783 708.645 489.248 686.522C483.072 670.576 465.778 659.683 468.81 642.501L474.986 649.8C474.537 627.004 467.574 614.427 483.408 594.774C488.686 588.261 509.461 574.785 516.985 574.673C524.622 574.673 528.327 580.849 533.718 581.972C538.21 582.871 543.6 579.726 549.44 581.411C591.888 593.764 595.145 622.512 606.375 659.346C607.947 664.511 613.899 670.014 614.797 674.618C616.482 683.377 607.273 683.265 607.946 691.126C641.187 686.746 597.278 640.255 607.946 626.33C611.765 621.389 673.417 605.33 681.39 606.453C692.956 608.138 692.507 621.052 698.571 628.351C707.555 639.244 725.859 642.501 733.159 655.64C734.956 658.897 740.683 676.752 741.02 680.458C742.03 690.228 738.998 722.008 744.725 729.42C755.843 743.794 746.859 708.981 746.747 707.185C745.512 679.784 749.779 662.265 728.105 639.469C761.458 630.485 775.047 661.03 789.308 683.714C796.72 695.618 806.938 691.688 799.302 717.516C795.708 729.756 772.575 772.43 764.827 784.558C762.805 787.815 751.576 799.83 749.442 797.921L748.88 798.595ZM275.882 898.428C279.027 864.514 295.085 820.942 319.79 796.349C324.058 792.194 347.528 773.89 351.01 773.553C353.031 773.328 377.624 790.51 387.394 792.531C396.265 794.328 404.8 790.51 409.741 792.082C414.682 793.654 416.928 801.515 421.532 804.435C425.575 807.018 433.885 806.568 434.559 807.354C434.559 807.354 434.671 807.804 434.783 808.028C436.468 808.253 438.152 808.59 439.837 809.039C439.837 809.039 439.949 809.039 440.062 809.039C440.286 809.039 440.398 809.039 440.623 809.151C440.623 809.151 441.746 809.488 442.307 809.6C445.227 810.05 448.259 810.611 450.954 812.071C453.537 813.419 456.008 814.766 458.254 816.563C459.826 817.798 461.398 819.033 463.195 820.156C486.553 826.557 505.868 815.664 527.766 808.253C542.702 824.311 554.493 843.402 559.21 864.739C561.006 867.546 562.578 870.578 563.813 873.722C565.835 879.113 566.846 884.166 567.07 889.669H567.519C565.947 904.043 575.268 928.524 567.744 939.978C567.07 943.684 566.621 947.502 566.284 951.208C570.889 971.871 557.3 977.261 552.135 988.042C548.541 995.453 544.273 1020.38 534.953 1022.63C534.167 1023.98 533.493 1025.32 532.707 1026.56L528.215 1039.81C528.215 1039.81 528.103 1039.81 527.99 1039.81C527.99 1040.37 528.103 1040.82 528.328 1041.38C528.664 1042.28 529.001 1043.18 529.114 1044.19C530.798 1044.75 532.37 1045.43 533.718 1046.21C536.525 1047.67 539.894 1047.67 537.424 1052.39C533.943 1059.01 510.248 1073.95 502.387 1077.88C419.511 1119.99 315.411 1080.58 274.646 998.485C269.593 988.266 255.556 953.903 256.792 944.358C258.139 934.363 269.481 933.914 273.86 929.535C282.058 921.337 274.872 908.647 275.882 898.316V898.428ZM673.416 1056.77C662.299 1041.27 644.556 1022.97 635.123 1007.36C615.695 975.128 610.529 935.037 593.46 900.898C583.241 880.46 532.37 810.274 535.29 794.103C537.199 783.098 549.664 776.248 550.787 763.895C552.247 748.286 544.161 725.826 541.466 710.217C552.696 716.955 562.691 739.863 575.38 743.12C582.792 745.029 628.048 742.334 638.604 741.099C644.781 740.425 653.091 733.799 657.021 734.361C659.155 734.698 673.192 746.489 679.031 749.184C696.325 757.157 709.352 759.515 728.33 756.034C729.341 772.43 741.019 785.232 744.5 800.729C748.094 816.675 749.442 854.744 749.217 871.813C748.993 889.444 745.288 906.963 742.929 923.134C742.031 929.422 748.88 936.722 747.42 946.828C743.377 973.78 732.822 1007.02 727.095 1034.65C724.4 1047.56 724.175 1075.52 714.629 1084.84C712.047 1087.31 703.4 1088.66 699.807 1088.1C684.422 1086.08 681.165 1067.55 673.416 1056.88V1056.77ZM606.711 1066.31C596.268 1064.52 536.525 1046.77 535.29 1038.58C540.231 1028.69 546.744 1019.93 551.91 1010.05C565.723 983.325 567.968 976.363 573.583 946.491C574.594 940.877 579.872 936.609 580.658 932.679C581.893 926.166 574.594 918.529 573.696 911.455C572.348 901.235 575.268 890.006 572.123 879.674C576.503 880.909 578.749 885.851 580.883 889.556C602.781 925.492 607.048 968.165 627.262 1004.66C632.428 1013.98 665.78 1054.97 666.454 1059.8C668.7 1075.63 616.144 1067.89 606.824 1066.31H606.711ZM164.82 942.336L250.053 943.796C266 1060.81 404.575 1143.57 510.472 1080.24C519.905 1074.62 538.322 1055.42 545.958 1054.97C562.466 1054.07 609.519 1077.77 630.856 1077.21C490.708 1274.29 188.065 1175.58 164.707 942.449L164.82 942.336ZM178.071 759.403C181.889 755.024 189.076 754.911 193.68 751.767C201.316 746.601 243.091 713.922 246.348 714.147C248.145 714.259 260.834 733.125 275.657 735.259C283.181 736.382 309.796 739.863 315.748 739.976C329.673 740.2 337.533 723.58 344.945 755.922C349.325 775.125 330.459 776.36 318.555 787.478C305.304 799.943 282.058 838.685 275.545 855.53C269.818 870.241 272.176 920.775 270.267 923.583C257.69 942.112 182.787 936.609 161.001 934.363C157.183 932.904 144.718 918.192 143.932 914.262C138.43 886.861 152.466 819.932 162.349 792.756C164.258 787.59 175.825 761.761 178.071 759.291V759.403ZM7.37772 788.938C7.82691 787.478 23.0995 765.243 24.3348 764.12C43.4254 746.489 77.2273 727.51 95.4195 706.735C137.082 659.009 141.349 649.8 196.937 616.56C199.519 614.988 212.659 596.908 217.6 605.667L243.54 710.104C228.829 712.799 223.327 724.591 213.781 730.992C190.76 746.489 151.793 762.323 132.029 779.505C128.211 782.761 127.2 790.959 125.29 791.97C121.697 793.879 113.836 789.724 106.537 794.103C103.505 795.9 102.27 802.526 100.361 803.424C95.4196 805.782 83.0668 801.515 75.7674 802.301C70.0402 802.975 65.9969 807.242 58.3607 807.691C47.1309 808.365 1.31364 806.456 7.37772 788.825V788.938Z" fill="#E0A144"/>
<path d="M507.889 1017.46C490.258 1010.27 473.301 1001.18 461.061 986.805C467.462 991.072 491.044 1004.44 510.022 1013.64C509.236 1014.88 508.562 1016.23 507.889 1017.46Z" fill="#E0A144"/>
<path d="M315.859 674.955L356.286 639.132C366.393 635.538 378.297 640.479 388.628 640.03C394.805 639.805 394.018 641.602 394.131 633.629C359.992 620.939 331.244 646.656 315.859 674.955Z" fill="#E0A144"/>
<path d="M285.653 628.126C285.99 652.719 277.455 675.516 269.818 698.424C274.872 697.975 277.006 692.81 279.027 688.879C284.305 678.323 291.043 646.094 292.166 633.741C292.727 627.003 292.166 628.238 285.653 628.014V628.126Z" fill="#E0A144"/>
<path d="M290.93 604.655C305.304 606.789 321.587 586.126 324.058 573.324L290.93 604.655Z" fill="#E0A144"/>
</svg>
