<svg width="1338" height="1537" viewBox="0 0 1338 1537" fill="none" xmlns="http://www.w3.org/2000/svg">
<path d="M153.725 830.797C131.714 863.933 61.0798 984.906 72.5341 1020.85C76.0153 1031.63 85.336 1036.46 82.9777 1046.91C62.9889 1093.75 34.6903 1140.03 14.5892 1186.3C-34.3721 1298.52 46.706 1366.25 156.532 1352.09C137.329 1438.36 175.285 1537.54 277.138 1536.87C362.371 1536.19 415.151 1435.66 479.272 1402.53C490.951 1396.46 495.78 1402.98 506.56 1402.53C524.977 1401.74 545.639 1388.04 556.195 1373.21C556.195 1373.21 556.42 1373.32 556.532 1373.44C556.757 1372.99 588.874 1331.31 593.141 1323.56C593.365 1323.11 599.205 1308.74 605.381 1303.23C605.606 1303.01 605.83 1302.9 606.167 1302.67C609.312 1296.16 623.012 1274.25 627.167 1269.76C627.167 1269.65 627.167 1269.54 627.279 1269.42C628.177 1267.51 645.359 1241.12 652.434 1232.47C660.294 1222.92 676.128 1213.6 683.876 1203.49C692.186 1192.71 719.25 1130.14 723.293 1129.13C739.351 1173.27 779.665 1193.38 825.258 1193.6C843.899 1193.6 850.525 1189.22 857.712 1189.79C858.722 1189 859.957 1188.55 861.193 1188.33C860.744 1188.33 860.407 1188.55 859.957 1188.66C863.326 1187.76 866.695 1186.87 869.952 1185.97L869.278 1185.18C913.298 1160.81 939.8 1117.22 946.763 1068.03C950.805 1039.27 942.046 1010.85 945.752 982.21H945.977C945.415 979.739 945.078 977.156 944.854 974.572C944.854 974.572 944.517 974.348 944.517 974.235C941.822 971.427 939.912 952.669 942.832 947.951C942.495 945.817 942.046 943.795 941.597 941.773C941.485 941.1 941.26 940.538 941.148 939.864C941.148 939.752 941.148 939.639 941.148 939.527C941.148 939.527 941.148 939.527 941.148 939.415C940.811 938.179 940.474 936.943 940.137 935.596C939.576 933.461 938.902 931.327 938.228 929.193C936.544 925.936 936.207 922.566 938.003 919.309C938.453 918.41 949.458 907.065 953.725 903.246C954.062 902.348 954.399 901.449 954.736 900.55C954.96 899.989 955.073 899.427 955.185 898.866C955.185 898.978 955.185 899.09 955.073 899.203C954.399 901.112 954.848 899.989 955.073 899.203V898.978C955.297 897.855 955.634 896.844 955.859 895.72C956.42 893.249 956.982 890.666 957.768 888.195C957.094 879.209 956.308 858.204 957.206 857.081C958.329 855.621 968.324 855.396 972.591 852.363C993.478 837.424 1004.6 820.688 1021.44 805.412C1026.49 800.919 1034.13 801.481 1039.52 795.078C1042.44 791.484 1052.66 752.395 1052.77 746.779C1053 732.626 1045.47 722.292 1033.79 714.878C1099.71 691.403 1141.04 639.396 1172.82 579.303C1183.82 558.635 1199.32 505.955 1208.75 493.263C1215.04 484.726 1254.01 461.7 1265.12 450.242C1295.67 419.016 1336.09 360.945 1336.32 316.464C1336.66 315.79 1338.12 298.942 1335.53 290.517C1334.86 280.408 1319.92 259.291 1319.59 257.045C1319.36 254.911 1319.03 247.834 1318.46 245.7C1317.23 241.319 1315.21 237.388 1312.4 234.805C1307.91 230.649 1302.63 226.942 1297.46 223.572C1293.53 220.989 1289.04 219.079 1285.11 216.383C1250.08 204.702 1214.37 197.962 1216.84 152.134C1216.84 152.134 1210.88 124.951 1183.03 105.07C1180.56 103.385 1179.1 101.139 1177.76 99.1168C1177.2 98.6675 1173.04 93.7253 1163.16 91.8158C1155.52 91.3665 1122.28 86.6488 1112.06 86.8735C1102.63 87.0981 1082.64 87.8844 1074.11 89.2323C1067.03 90.2432 1057.94 98.8922 1050.3 97.432C1045.02 96.4211 1039.3 81.4819 1031.43 73.6192C1027.17 71.4851 1019.64 60.365 1005.49 53.9625C959.677 33.1825 904.988 -27.248 846.594 14.1997C798.307 48.5709 822.114 105.969 800.665 129.894C794.938 136.296 745.078 159.21 731.49 168.421C696.791 191.784 660.856 225.594 633.006 256.932C606.392 286.923 581.013 318.823 568.099 357.238C551.816 357.687 544.517 344.882 526.774 348.814C510.266 352.52 450.187 393.519 441.54 408.346C435.252 419.016 435.589 436.876 433.904 449.007C364.617 431.709 276.128 408.795 241.428 492.926C210.097 568.857 246.032 637.15 331.49 641.643C331.49 641.643 193.702 780.813 192.579 782.048C192.467 782.161 167.762 810.242 153.837 831.134L153.725 830.797ZM437.273 456.42C414.365 485.175 421.327 522.916 401.001 552.345C398.306 556.277 392.242 567.284 387.414 563.578C384.494 570.991 380.451 583.01 372.366 585.93C372.366 571.44 366.976 555.49 365.628 541.674C365.628 543.135 362.933 546.954 362.596 551.447C361.698 562.454 371.131 589.188 369.671 594.579C367.313 603.228 351.816 624.233 345.078 630.186C335.869 638.273 294.657 626.816 283.988 621.537C218.52 588.738 228.626 500.227 277.7 456.645C309.255 428.676 351.591 441.93 388.424 447.434C392.579 451.029 374.612 478.773 371.58 487.646C368.997 495.285 370.457 499.777 369.559 505.618C376.072 486.299 390.221 441.032 415.151 453.612C409.985 460.464 409.311 468.664 407.066 476.414C414.589 464.508 423.349 448.221 437.386 456.308L437.273 456.42ZM562.147 371.728C566.639 383.522 553.163 448.895 566.639 465.406C542.495 466.642 542.158 495.509 522.956 499.216C509.255 501.799 484.663 485.962 471.524 481.132C468.043 479.896 458.273 475.515 459.733 483.94C460.294 486.973 508.357 502.698 516.779 504.271C479.946 540.439 503.865 562.005 542.046 577.618C530.704 594.355 490.277 630.074 469.952 624.57C412.119 609.069 414.14 500.676 441.653 460.127C454.904 440.583 500.384 413.849 475.566 389.138C476.353 418.904 463.551 427.553 444.348 447.434C435.701 427.778 447.043 409.581 461.417 396.215C466.583 391.385 524.752 354.655 528.683 353.981C537.33 352.52 558.666 362.63 562.147 371.728ZM532.838 737.231C519.474 747.677 493.759 757.225 476.577 769.693C464 778.791 409.087 831.471 398.082 825.518C375.061 812.938 401.675 773.849 406.055 759.247C418.183 719.596 419.081 667.59 458.722 645.237C483.09 631.422 515.095 634.23 540.474 633.219C544.292 633.106 567.2 627.041 568.548 627.49C592.13 636.139 544.18 647.484 539.688 648.832C545.19 657.93 535.645 654.56 534.971 654.897C533.511 655.571 530.704 654.897 529.581 655.571C503.865 670.286 487.807 683.765 455.016 682.417C454.23 689.718 462.428 686.685 466.47 686.46C517.228 684.776 549.345 645.687 596.734 635.128L571.58 664.108L567.987 656.357C562.821 662.311 561.698 669.05 555.185 674.105C541.821 684.439 489.828 703.534 471.861 707.69C460.743 710.273 451.198 704.095 442.327 712.295C422.675 730.379 433.118 783.059 405.381 801.705C408.525 805.524 414.926 799.796 417.172 797.549C443.562 771.602 424.359 712.52 475.342 714.991L526.324 696.907C503.641 729.368 461.642 749.474 430.76 775.534L435.589 781.599C457.037 757.786 495.106 740.488 516.892 719.933C527.897 709.599 528.57 699.602 535.308 691.964C544.18 681.967 572.703 678.148 579.328 660.513C587.751 665.793 584.157 664.22 582.024 669.724C577.869 680.283 555.409 726.223 547.885 728.582C544.741 729.593 539.688 725.886 538.228 726.335C536.88 726.785 536.319 734.535 532.838 737.343V737.231ZM443.113 719.259L440.755 722.292C439.632 719.708 440.418 718.698 443.113 719.259ZM572.366 613.45C578.992 595.815 600.777 618.841 607.739 624.233C599.317 637.936 567.2 627.153 572.366 613.45ZM486.01 630.411C509.817 617.83 530.929 604.688 545.078 579.977C550.244 594.018 565.404 593.681 575.173 603.677C565.291 606.935 561.586 617.606 554.286 622.773C544.404 629.737 504.427 622.997 486.01 630.411ZM929.581 114.618C942.495 115.404 998.195 125.401 1005.27 132.028C1006.5 133.151 1004.15 155.391 1006.95 164.939C1013.13 186.28 1033.79 221.438 1050.52 236.152C1064.11 248.059 1093.65 258.056 1099.49 265.469C1102.97 269.85 1104.43 281.868 1108.81 289.17C1112.74 295.572 1120.26 299.166 1124.42 306.355C1131.15 318.037 1130.03 345.669 1134.75 359.709C1142.27 382.399 1160.91 391.497 1164.84 413.4C1172.25 454.96 1125.99 603.341 1102.07 639.397C1083.76 667.028 1051.09 687.359 1018.86 695.896C1006.62 699.153 929.918 710.273 921.721 707.577C913.298 704.769 911.389 696.57 903.978 691.964C870.962 671.521 822.226 685 786.74 672.42C745.303 657.818 753.163 647.821 728.121 621.986C711.614 604.913 693.309 595.478 677.476 581.999C666.021 572.227 657.711 551.222 641.541 543.809C645.247 535.497 646.706 539.877 650.749 539.877C663.326 539.877 676.128 546.055 689.042 542.124C681.631 600.195 764.056 634.005 808.413 604.351L888.144 620.189C891.4 617.493 895.219 612.888 888.368 610.754C882.866 609.069 811.894 604.127 812.007 599.521L837.273 560.994C853.893 569.531 873.096 578.741 890.839 584.695C897.015 586.829 897.689 592.557 902.742 583.01C894.769 576.607 838.06 559.646 836.937 555.603C835.365 549.986 848.391 538.08 836.937 511.796C837.723 518.985 837.835 554.929 831.434 556.164C800.328 546.392 800.777 526.735 795.836 499.104C782.585 503.709 798.531 520.782 799.205 527.409C799.766 532.576 792.579 543.022 796.734 547.515C799.317 550.323 831.659 557.961 831.996 561.668C818.52 584.245 811.558 610.866 783.147 586.716C770.345 597.387 795.387 597.724 795.836 601.543C759.227 628.389 682.529 583.571 693.646 538.642C696.117 528.645 706.785 528.195 701.732 522.916C677.026 550.548 640.193 534.486 619.643 509.55C602.012 488.208 602.798 469.675 603.472 443.278C611.445 440.583 619.194 459.228 620.317 459.004C634.691 441.93 643.225 421.487 667.257 417.893C660.406 409.244 650.412 421.487 644.348 418.567C642.439 417.668 630.423 402.954 631.209 401.606C661.866 376.895 700.159 382.848 724.079 413.625C724.977 404.863 738.116 386.779 745.527 387.453C753.051 388.127 794.039 422.498 795.836 428.115C802.798 450.916 753.388 454.848 740.362 458.779C738.228 459.453 734.971 455.859 734.634 455.971C733.062 456.645 707.796 478.324 713.298 483.041C756.869 439.01 813.242 458.105 836.824 511.796C832.782 474.168 796.398 464.395 792.13 450.355C789.884 442.829 807.403 431.934 798.643 419.578C793.927 412.951 755.971 383.41 748.784 381.949C736.993 379.366 729.132 394.979 722.619 402.842C710.042 382.511 674.893 377.569 653.332 382.848C630.648 388.352 634.803 407.672 613.916 384.645C610.435 380.714 604.82 368.133 603.809 368.133C589.098 369.144 620.878 399.36 620.878 401.494C620.878 403.403 606.504 421.151 605.494 427.89C602.461 428.564 590.446 390.711 580.676 391.385C581.574 407.11 597.521 421.487 599.766 435.528C601.788 448.221 593.927 469.675 599.991 484.614C594.488 494.274 578.43 474.617 576.633 471.022C555.971 430.698 572.591 346.904 596.51 310.174C661.08 210.992 806.504 106.867 929.244 114.618H929.581ZM625.37 409.132L640.53 420.926L619.194 448.108C600.103 428.452 610.884 428.789 625.482 409.132H625.37ZM641.878 534.036L639.519 537.069C638.396 534.486 639.183 533.475 641.878 534.036ZM951.03 110.911C940.249 109.226 923.405 108.103 912.512 108.215C894.657 108.44 876.353 115.965 858.385 112.034C879.385 109.114 898.475 102.711 919.924 102.262C930.143 102.037 1015.71 111.248 1015.71 116.078C1015.71 132.814 961.923 112.596 951.03 110.911ZM1016.27 109.001C1008.19 109.226 980.789 100.802 968.773 99.5661C928.908 95.5224 891.064 95.5224 852.434 108.103C845.808 110.237 810.547 128.77 809.424 124.727C823.573 64.0717 827.167 -7.25428 911.614 10.9423C931.49 15.2106 1038.51 75.8657 1037.5 94.3992C1037.27 98.2182 1021.55 108.889 1016.27 109.001ZM1251.98 230.649C1229.53 245.138 1162.26 305.457 1134.86 299.616C1095.78 291.191 1102.74 244.015 1124.98 220.202C1131.83 212.901 1170.34 189.201 1179.78 186.28C1158.67 190.099 1144.4 198.973 1126.89 211.778L1096.68 255.135C1048.62 241.656 976.633 149.213 1032.67 109.788C1049.51 97.8813 1124.53 90.3556 1145.42 94.1746C1183.82 101.139 1202.35 125.738 1210.77 162.131C1212.68 170.443 1217.28 186.617 1207.29 188.527C1215.26 193.245 1256.36 224.021 1251.87 230.761L1251.98 230.649ZM1260.97 225.482C1255.69 224.471 1254.23 212.452 1256.59 212.452L1268.04 216.496L1260.97 225.594V225.482ZM1289.38 356.676C1272.31 375.884 1254.57 377.007 1235.36 385.993C1227.05 389.812 1223.8 399.023 1212.68 401.831C1162.93 414.186 1125.88 349.6 1135.42 305.793C1182.36 298.043 1209.65 266.031 1245.13 241.207C1268.38 224.92 1284.55 212.227 1306.22 237.725C1330.37 266.255 1311.73 331.516 1289.27 356.676H1289.38ZM1143.73 611.091L1180.68 482.48C1187.86 463.721 1184.61 423.397 1191.57 407.447C1192.24 405.874 1207.29 410.929 1212.23 410.03C1224.7 407.896 1231.88 395.765 1241.32 390.823C1246.03 388.352 1253.11 389.587 1259.85 385.656C1299.26 362.068 1317.9 333.425 1324.53 287.709C1328.57 289.394 1330.93 300.065 1331.27 303.996C1333.96 349.488 1289.27 418.342 1256.48 447.322C1248.05 454.735 1207.52 487.647 1198.64 482.592C1191.12 478.324 1199.99 454.848 1190.45 465.069C1183.15 482.592 1201.68 487.983 1202.69 492.252C1204.26 498.991 1155.41 600.083 1143.84 611.315L1143.73 611.091ZM1012.12 707.465C1023.01 697.917 1041.54 696.345 1053.67 689.943C1135.65 646.248 1161.81 503.147 1170.79 418.005C1171.24 414.074 1170.23 403.066 1175.85 402.392C1182.25 401.606 1183.15 411.603 1183.6 416.433C1187.64 455.746 1144.97 602.667 1122.96 636.701C1100.5 671.409 1054.34 706.342 1012.12 707.353V707.465ZM1035.93 779.802L1038.85 782.161L1029.41 794.179L1026.49 791.82L1035.93 779.802ZM934.635 856.295C909.143 860.114 831.434 841.805 813.916 824.507C806.841 817.543 794.039 797.549 800.889 788.002C802.574 785.755 843.225 755.091 846.033 754.529C848.615 753.967 876.802 756.888 880.845 760.257C891.625 751.945 873.433 744.757 866.471 742.96C834.354 734.535 787.638 807.995 754.848 812.713C734.971 815.521 699.149 791.259 690.053 773.849C678.149 751.159 690.839 719.484 682.866 698.254C670.625 665.343 621.327 622.548 592.916 602.779C575.286 590.423 556.532 577.394 539.351 565.712C533.062 561.443 524.415 563.802 516.892 557.512C496.341 540.551 508.02 519.883 526.774 506.742C539.463 497.756 541.148 509.55 542.046 509.213C546.763 507.528 544.404 483.603 553.051 477.2C564.842 468.551 612.568 503.26 619.306 516.289C598.531 520.108 576.072 498.205 556.532 515.728C575.847 515.391 600.552 518.311 616.835 529.319C619.867 531.453 632.22 542.91 628.627 547.852L602.798 537.406C633.343 549.986 651.647 570.205 675.791 589.749C684.887 597.163 696.117 599.971 707.908 610.641C725.314 626.592 745.752 655.459 746.538 679.721C747.099 698.928 722.731 733.412 708.582 745.655C702.406 750.935 708.582 753.967 710.828 753.63C725.875 751.272 763.045 684.326 751.928 664.108C764.842 679.384 782.585 677.138 798.194 685.786C775.398 701.175 760.126 739.59 764.281 766.323C774.051 737.456 777.307 702.747 807.964 687.247C825.707 678.261 887.021 686.91 902.293 699.041C920.261 713.306 916.779 750.036 903.416 766.772C881.968 793.842 843.225 768.12 829.413 797.998C866.695 779.577 895.78 800.133 918.464 754.417C924.191 742.735 920.036 730.379 923.405 718.922C944.068 719.708 991.12 698.479 1007.07 708.476C1011 710.947 1012.01 716.339 1014.03 718.024C1015.49 719.371 1018.52 714.654 1019.64 714.991C1037.95 719.821 1049.74 737.793 1043.9 755.54C1041.43 763.178 1004.15 815.633 998.644 821.25C983.596 836.413 955.971 853.037 934.635 856.295ZM612.905 701.4C615.376 694.323 635.814 653.549 638.509 653.325C639.632 653.325 644.797 658.829 647.492 660.401L640.418 669.5C653.669 667.927 644.236 685.225 640.755 693.986C622.899 678.935 627.728 699.153 612.905 701.4ZM654.23 670.51C673.096 679.159 691.176 743.072 667.93 749.699C659.508 752.058 645.471 736.894 643.787 729.031C642.888 724.988 650.749 670.847 654.23 670.51ZM734.41 1096.22C733.399 1066.79 735.421 1004.9 763.719 990.297C758.778 992.432 751.816 993.106 746.763 996.475C743.394 982.21 747.436 971.539 757.431 961.093C755.859 961.093 749.233 960.082 749.121 959.408C754.96 950.422 754.848 936.157 766.078 932.114C793.478 928.519 911.389 898.529 927.672 919.758C929.469 922.117 932.164 941.549 931.378 944.132C930.031 948.288 917.566 947.502 914.197 947.614C928.346 952.444 941.035 959.633 931.266 975.583C909.592 964.688 889.941 967.833 867.706 969.63C881.631 970.753 928.907 974.235 935.645 984.457C937.779 987.714 940.474 1054.77 939.463 1063.31C930.704 1140.47 866.246 1209.67 785.168 1179.23C741.597 1162.83 735.87 1139.58 734.41 1096.33V1096.22ZM196.173 1318.4C200.328 1314.58 257.15 1278.18 260.968 1277.85C266.133 1277.4 265.684 1295.71 266.583 1301.66C267.369 1296.83 270.176 1274.59 270.962 1273.47C274.668 1268.08 285.561 1268.3 289.603 1266.17C293.534 1264.03 299.373 1256.17 304.427 1253.47C305.437 1253.47 308.918 1268.97 309.368 1271.89C309.368 1270.55 313.41 1254.6 314.084 1253.47C341.372 1225.84 327.784 1265.38 333.511 1281.44C335.083 1285.94 337.779 1287.96 338.789 1290.2C334.859 1268.3 329.918 1238.76 356.195 1230.78C351.591 1307.84 411.221 1363.44 475.679 1395.11C452.995 1419.83 436.487 1409.94 412.456 1392.08C385.729 1372.09 352.489 1320.98 338.789 1290.2C346.987 1336.48 402.349 1403.31 449.514 1416.01C428.514 1444.31 388.761 1404.77 369.671 1387.48C384.719 1405.67 404.37 1423.87 426.942 1432.41C426.717 1439.26 406.055 1449.03 398.98 1449.48C409.424 1458.46 396.622 1465.43 385.954 1465.88C368.66 1466.55 322.506 1423.2 309.368 1408.48C327.784 1439.59 350.131 1460.94 385.392 1472.95C318.913 1542.6 210.547 1556.97 167.425 1454.42C162.147 1441.84 157.655 1403.99 158.329 1389.83C159.789 1360.41 174.499 1338.05 196.06 1318.28L196.173 1318.4ZM364.281 1220.34L268.042 1264.93C287.357 1253.7 330.142 1191.13 334.859 1190.23C341.933 1188.89 366.639 1208.66 364.168 1220.34H364.281ZM369.671 1207.31C363.831 1207.98 362.484 1197.31 368.323 1196.64C374.163 1195.96 375.51 1206.63 369.671 1207.31ZM265.123 1257.07L241.091 1272.12L274.219 1152.04C284.213 1176.53 306.448 1178.67 328.795 1184.96C309.031 1210.34 290.502 1236.85 265.235 1257.07H265.123ZM91.0631 1047.25C102.293 1056.01 112.736 1065.22 125.426 1071.96C168.772 1094.76 223.011 1075.21 253.332 1125.87L215.038 1125.09C227.054 1128.34 264.898 1133.4 265.796 1146.32C266.021 1149.8 259.845 1153.5 259.62 1155.08C257.711 1172.15 267.818 1175.41 240.754 1179.23C246.594 1181.02 255.353 1181.14 256.027 1181.59C258.834 1183.83 254.567 1203.6 249.401 1205.06C183.483 1187.54 112.512 1188.77 51.9839 1153.06C47.0429 1158.22 59.5078 1163.61 62.989 1165.41C79.4966 1173.5 112.961 1183.72 131.265 1188.44C170.344 1198.32 212.905 1194.62 249.064 1212.25C251.31 1218.88 231.658 1281.33 226.83 1288.97C220.204 1299.41 198.194 1307.95 187.75 1316.71C162.708 1337.72 174.612 1344.79 134.073 1346.59C54.9036 1350.07 -13.2605 1297.5 11.6694 1213.94C20.8777 1183.16 41.428 1158.56 51.7593 1128.57C73.4325 1142.5 108.806 1157.89 133.848 1162.6C138.564 1163.5 142.607 1161.03 143.056 1161.14C130.367 1157.21 57.0372 1132.95 54.679 1125.54L62.989 1108.13C84.8868 1124.19 106.672 1127.11 131.49 1132.61C120.26 1128.68 65.6841 1109.25 64.7857 1099.7C64.7857 1098.92 73.4325 1088.13 74.3308 1088.02C76.4645 1087.68 104.651 1101.39 114.533 1104.64C102.068 1099.36 86.9081 1087.91 73.6571 1082.29L91.2877 1047.36L91.0631 1047.25ZM147.548 894.26C147.099 883.702 147.211 871.571 149.794 861.237C165.066 799.796 299.373 693.2 346.313 641.081C372.59 611.877 394.039 574.361 414.814 541.113C419.755 583.908 425.033 620.189 473.657 633.556C415.488 646.922 413.354 713.755 399.205 760.033C393.478 778.679 377.307 792.495 384.045 816.42C396.622 860.788 463.214 786.766 482.416 773.287C503.191 758.573 526.549 752.732 541.709 733.187L542.944 743.858C551.591 732.289 561.698 721.506 569.559 709.262C577.419 696.907 606.616 630.86 616.835 631.871C620.541 632.208 629.862 640.632 630.985 644.451C631.771 647.147 611.782 692.751 609.199 696.457C594.601 718.023 570.12 735.097 554.511 762.953C542.944 783.846 517.678 910.884 508.582 911.783C506.673 912.008 499.373 904.257 497.689 900.887C493.871 892.912 518.239 795.752 522.956 780.476C526.324 769.693 532.95 759.92 538.116 749.924C531.939 745.88 522.731 763.178 520.934 766.997C513.186 784.407 493.309 863.034 491.625 882.466C490.502 895.159 494.994 930.541 515.768 914.029C529.581 903.022 544.18 795.64 558.554 767.896C574.5 737.119 603.023 706.566 637.049 698.254C644.011 698.254 634.129 732.401 640.642 741.612C645.134 747.902 653.332 753.181 660.519 756.102C668.043 759.134 672.422 752.619 673.994 753.967C679.385 758.236 681.855 775.758 688.93 785.081C696.341 794.741 719.811 811.253 730.367 816.869C751.254 827.989 774.388 815.746 789.997 801.368C805.269 834.391 829.862 845.399 863.326 854.947C886.572 861.574 923.517 867.527 945.977 860.338C964.281 923.465 929.806 903.359 893.983 904.819C846.931 906.728 796.847 920.544 749.121 925.374C742.271 926.048 731.153 923.577 726.998 924.813C719.811 926.947 721.833 933.798 718.239 937.056C716.106 938.965 706.336 930.429 705.774 940.201C705.774 941.773 716.33 937.955 711.052 951.995C705.213 967.383 685.673 976.257 685.785 978.167C686.796 991.87 719.474 962.216 723.293 961.093C727.784 959.745 732.501 959.97 735.87 964.014L734.185 972.326L740.811 970.192C734.41 1009.28 730.704 1048.03 723.293 1087.12C722.17 1092.74 726.774 1095.99 724.865 1103.41C708.919 1166.31 662.203 1203.6 627.167 1251.56C600.328 1288.18 555.634 1393.54 505.437 1394.44C457.037 1395.34 373.938 1317.39 365.179 1269.65C360.35 1243.25 373.713 1225.06 379.777 1201.02C393.478 1211.24 409.536 1213.37 425.482 1217.19C430.311 1212.7 421.889 1210.12 418.744 1207.08L406.504 1207.31C402.798 1205.29 412.343 1202.25 412.68 1202.37C378.879 1186.08 328.458 1177.88 294.207 1161.26C283.539 1156.09 237.498 1097.9 227.728 1084.2C191.344 1033.21 170.344 972.887 155.184 912.794C148.222 924.026 165.066 949.299 160.687 958.51C156.757 966.934 147.211 956.151 143.506 961.879C147.773 968.731 158.89 965.025 162.484 969.068C168.435 975.808 178.654 1020.29 186.066 1031.75L141.709 1013.89C151.366 1026.92 182.585 1031.41 191.344 1039.5C194.039 1041.97 220.541 1085.44 215.937 1086.67C176.97 1080.83 81.6301 1060.84 77.4751 1012.09C74.1062 972.55 127.447 902.46 141.484 865.168L147.548 894.373V894.26ZM395.948 1198.66C401.9 1199.78 402.461 1206.86 399.654 1206.3C393.702 1205.17 393.141 1198.1 395.948 1198.66ZM737.105 949.749C731.153 948.625 730.592 941.549 733.399 942.11C739.351 943.234 739.912 950.31 737.105 949.749Z" fill="#E0A144"/>
<path d="M215.375 1149.57C218.407 1150.25 220.091 1150.81 223.797 1151.26C221.551 1150.92 218.632 1150.02 215.375 1149.57Z" fill="#E0A144"/>
<path d="M273.32 1336.37C278.823 1354.9 278.486 1355.91 288.593 1372.76C283.09 1359.4 280.058 1350.41 273.32 1336.37Z" fill="#E0A144"/>
<path d="M268.379 1317.83C270.176 1327.38 267.817 1325.02 273.32 1336.37C271.411 1329.97 272.085 1327.61 268.379 1317.83Z" fill="#E0A144"/>
<path d="M268.379 1317.83C267.705 1314.02 267.143 1306.6 266.47 1301.66C266.02 1304.13 262.315 1306.94 263.437 1311.54C264.336 1314.91 267.817 1316.49 268.379 1317.83Z" fill="#E0A144"/>
<path d="M359.9 1375.01C363.157 1379.05 362.932 1381.41 369.558 1387.48C366.526 1383.88 363.831 1379.61 359.9 1375.01Z" fill="#E0A144"/>
<path d="M350.244 1362.54C354.399 1369.17 355.859 1369.95 359.902 1375.01C357.656 1372.31 352.602 1365.69 350.244 1362.54Z" fill="#E0A144"/>
<path d="M366.189 522.467C366.414 520.221 367.425 517.076 367.874 514.043C366.975 517.188 366.639 519.322 366.189 522.467Z" fill="#E0A144"/>
<path d="M319.137 1308.96C328.457 1336.48 333.96 1340.75 350.131 1362.54C339.575 1345.92 328.457 1325.81 319.137 1308.96Z" fill="#E0A144"/>
<path d="M539.688 648.831C532.164 650.965 518.352 649.393 509.256 656.694C499.486 667.814 528.234 656.02 529.581 655.458C531.266 654.897 533.512 655.346 534.972 654.784C536.431 654.223 537.891 650.291 539.688 648.719V648.831Z" fill="#E0A144"/>
<path d="M398.981 1449.48C363.832 1419.49 345.191 1409.27 320.822 1367.48C301.395 1334.23 294.096 1303.79 289.604 1266.17C284.663 1279.31 288.706 1302.9 292.524 1316.37C302.63 1352.43 358.554 1451.95 399.093 1449.48H398.981Z" fill="#E0A144"/>
<path d="M387.526 563.577C392.691 550.323 389.996 551.783 390.333 541.449C388.649 547.964 381.911 556.164 387.526 563.577Z" fill="#E0A144"/>
<path d="M309.93 1277.4C313.074 1294.13 309.368 1291.21 319.25 1309.07C317.678 1304.36 310.603 1280.77 309.93 1277.4Z" fill="#E0A144"/>
<path d="M288.705 1372.76C295.78 1389.72 296.229 1393.65 309.368 1408.48C302.518 1396.91 295.667 1384.33 288.705 1372.76Z" fill="#E0A144"/>
<path d="M143.057 1161.03C158.441 1165.86 164.168 1167.1 179.665 1170.24C170.12 1168.33 155.409 1163.61 143.057 1161.03Z" fill="#E0A144"/>
<path d="M309.93 1277.4C309.593 1275.6 309.593 1273.8 309.256 1272.01C309.256 1274.03 309.593 1275.49 309.93 1277.4Z" fill="#E0A144"/>
<path d="M179.664 1170.24C182.471 1170.8 185.167 1171.36 188.086 1171.93C185.279 1171.36 182.471 1170.8 179.664 1170.24Z" fill="#E0A144"/>
<path d="M367.873 514.043C368.21 511.572 369.108 508.764 369.558 505.619C368.322 509.214 368.435 511.909 367.873 514.043Z" fill="#E0A144"/>
<path d="M131.377 1132.5C149.794 1138.9 148.221 1137.11 164.954 1139.35C152.152 1135.87 142.943 1135.08 131.377 1132.5Z" fill="#E0A144"/>
<path d="M1198.98 186.617C1200.55 186.617 1203.02 189.088 1207.4 188.302C1203.7 186.168 1201.11 187.179 1198.98 186.617Z" fill="#E0A144"/>
<path d="M187.975 1172.04C198.306 1174.17 202.124 1173.72 210.097 1174.85C201.001 1173.05 193.365 1173.05 187.975 1172.04Z" fill="#E0A144"/>
<path d="M1185.17 185.607C1185.84 185.607 1193.59 186.73 1198.98 186.618C1190 183.922 1192.47 185.158 1185.17 185.607Z" fill="#E0A144"/>
<path d="M1179.89 186.281C1180.9 185.944 1183.6 185.832 1185.28 185.607C1183.48 185.607 1181.69 185.944 1179.89 186.281Z" fill="#E0A144"/>
<path d="M390.221 541.338C392.804 531.678 393.477 524.04 395.386 516.178C392.803 527.747 390.67 524.827 390.221 541.338Z" fill="#E0A144"/>
<path d="M210.209 1174.73C213.016 1175.3 215.599 1175.97 218.631 1176.42C216.498 1176.19 213.353 1175.07 210.209 1174.73Z" fill="#E0A144"/>
<path d="M395.387 516.177C396.847 510.224 397.633 503.821 398.868 499.328C394.713 510.448 396.622 510.898 395.387 516.177Z" fill="#E0A144"/>
<path d="M114.309 1104.53C126.886 1108.57 128.683 1109.7 142.495 1112.06C135.42 1109.81 116.555 1105.54 114.309 1104.53Z" fill="#E0A144"/>
<path d="M365.741 541.674C366.078 536.17 365.854 524.826 366.19 522.467C365.854 524.938 362.934 527.746 363.046 532.464C363.046 536.283 365.517 539.428 365.741 541.674Z" fill="#E0A144"/>
<path d="M218.52 1176.53C226.942 1177.32 226.268 1181.36 240.642 1179.34C228.065 1175.52 225.482 1177.77 218.52 1176.53Z" fill="#E0A144"/>
<path d="M164.955 1139.35C167.762 1140.14 172.367 1144.18 177.869 1145.75C189.773 1149.12 198.644 1146.77 206.954 1148C192.018 1145.08 181.35 1141.6 164.955 1139.46V1139.35Z" fill="#E0A144"/>
<path d="M867.48 944.919C882.304 946.379 885.672 946.604 900.383 946.379C885.56 945.031 883.539 943.908 867.48 944.919Z" fill="#E0A144"/>
<path d="M724.191 413.512C723.18 422.722 729.356 428.002 732.164 434.404C731.827 430.922 734.185 426.654 731.939 422.161C729.693 417.668 726.324 416.32 724.191 413.624V413.512Z" fill="#E0A144"/>
<path d="M732.164 434.404C732.726 440.919 730.143 449.68 734.747 455.971C743.281 447.434 734.971 440.919 732.164 434.404Z" fill="#E0A144"/>
<path d="M206.953 1147.89C209.761 1148.45 212.568 1149.01 215.375 1149.57C212.905 1149.24 210.097 1148.34 206.953 1147.89Z" fill="#E0A144"/>
<path d="M398.867 499.328C399.541 496.632 401.675 492.701 402.91 487.871C400.439 492.926 400.215 495.397 398.867 499.328Z" fill="#E0A144"/>
<path d="M900.385 946.378C906.224 946.94 906.673 947.501 914.197 947.389C904.428 944.019 906.898 946.266 900.385 946.378Z" fill="#E0A144"/>
<path d="M223.686 1151.26C229.974 1152.04 231.434 1152.04 237.498 1152.27C230.086 1150.92 227.504 1151.71 223.686 1151.26Z" fill="#E0A144"/>
<path d="M843.001 945.142C855.241 946.041 855.915 945.591 867.482 944.918C865.573 944.693 862.316 942.109 857.599 941.772C851.985 941.435 847.268 944.693 842.889 945.142H843.001Z" fill="#E0A144"/>
<path d="M142.494 1111.95C165.066 1119.02 191.118 1126.88 215.038 1124.97C189.322 1118.12 167.312 1116.21 142.494 1111.95Z" fill="#E0A144"/>
<path d="M237.498 1152.38C243.674 1153.5 252.209 1161.25 259.62 1155.19C253.332 1147.21 243.674 1152.72 237.498 1152.38Z" fill="#E0A144"/>
<path d="M810.658 949.074C821.439 947.838 832.219 946.378 842.887 945.142C820.989 943.57 827.727 945.592 810.658 949.074Z" fill="#E0A144"/>
<path d="M402.91 487.982C403.584 485.399 405.718 481.131 406.953 476.525C403.359 482.254 404.033 485.624 402.91 487.982Z" fill="#E0A144"/>
<path d="M832.445 970.978C846.033 970.753 853.22 970.641 867.706 969.405C850.974 968.057 850.188 967.383 832.445 970.978Z" fill="#E0A144"/>
<path d="M805.27 949.748C806.842 949.411 808.863 949.411 810.66 949.074C808.863 949.299 807.066 949.524 805.27 949.748Z" fill="#E0A144"/>
<path d="M803.135 977.269C812.905 975.359 823.46 972.776 832.444 970.979C816.049 971.315 817.172 971.989 803.135 977.269Z" fill="#E0A144"/>
<path d="M799.879 950.422C801.563 950.085 803.472 950.197 805.269 949.748C803.472 949.973 801.676 950.197 799.879 950.422Z" fill="#E0A144"/>
<path d="M412.68 1202.14C414.252 1202.59 416.61 1205.62 418.744 1206.86C415.599 1203.94 419.867 1205.51 412.68 1202.14Z" fill="#E0A144"/>
<path d="M794.488 950.984C796.173 950.647 798.082 950.76 799.878 950.311C798.082 950.535 796.285 950.76 794.488 950.984Z" fill="#E0A144"/>
<path d="M789.211 951.658C790.895 951.209 792.804 951.434 794.601 950.984C792.804 951.209 791.008 951.321 789.211 951.658Z" fill="#E0A144"/>
<path d="M757.543 960.98C761.586 960.756 764.168 957.498 765.291 957.273C763.382 958.397 760.463 957.947 757.543 960.98Z" fill="#E0A144"/>
<path d="M763.832 990.298C767.987 988.164 793.703 980.975 803.248 977.381C782.585 981.312 782.361 982.211 763.832 990.298Z" fill="#E0A144"/>
<path d="M765.291 957.274C777.756 955.59 780.002 953.792 789.21 951.658C777.981 953.568 778.767 949.524 765.291 957.274Z" fill="#E0A144"/>
<path d="M709.256 923.127C706.336 922.566 707.01 929.642 712.962 930.766C715.882 931.327 715.208 924.251 709.256 923.127Z" fill="#E0A144"/>
<path d="M427.953 1204.39C425.258 1203.83 424.472 1204.84 425.595 1207.42L427.953 1204.39Z" fill="#E0A144"/>
<path d="M996.622 510.336C1001.79 513.481 1002.01 513.706 997.521 518.199L982.585 518.648C990.558 522.467 999.542 546.392 987.19 535.946C975.735 526.399 970.233 516.627 955.41 509.325C944.966 504.159 906.224 498.992 901.844 494.386C900.946 493.488 899.373 486.524 903.528 485.85C912.961 484.277 911.726 495.173 919.924 474.393C926.662 479.559 934.41 482.031 927.56 489.893C948.447 494.162 978.543 499.329 996.622 510.336ZM920.261 489.332L922.619 486.299C919.924 485.737 919.138 486.748 920.261 489.332Z" fill="#E0A144"/>
<path d="M697.352 236.601C692.187 237.275 696.341 250.08 692.86 254.91C692.186 255.808 680.283 249.743 678.486 260.751C708.245 253 689.941 328.257 708.469 328.033L710.154 288.382C704.315 281.868 705.213 235.702 697.464 236.601H697.352Z" fill="#E0A144"/>
<path d="M1036.38 331.965L1029.3 341.063C1056.93 346.005 1043.34 376.221 1059.62 389.25C1066.58 366.336 1058.39 342.411 1036.26 332.077L1036.38 331.965Z" fill="#E0A144"/>
<path d="M802.574 158.312C818.633 163.142 831.434 158.537 846.37 170.78C843.899 151.573 813.804 140.79 802.574 158.312Z" fill="#E0A144"/>
<path d="M685.225 475.515C689.605 446.536 686.123 453.837 661.53 437.438C658.723 453.949 652.996 443.615 649.851 445.974C638.51 454.735 641.429 461.7 643.9 472.258C643.787 471.022 650.862 449.793 651.985 449.456C661.98 453.5 667.707 460.239 668.156 447.434C675.904 447.996 687.134 469.562 685.225 475.403V475.515Z" fill="#E0A144"/>
<path d="M643.899 472.371C644.573 475.404 641.091 478.437 646.706 484.39C656.364 494.611 675.791 500.228 685.448 487.647C689.828 481.919 684.999 477.201 685.224 475.516C677.251 499.554 645.695 487.31 643.899 472.371Z" fill="#E0A144"/>
<path d="M760.464 510.224C749.459 520.67 764.731 517.301 768.661 521.232C770.458 523.029 765.068 528.196 767.201 530.218C769.11 532.015 776.522 531.79 776.859 532.801C777.42 534.262 768.661 551.223 764.506 554.031C752.94 561.781 718.24 539.316 733.625 522.805C741.261 514.605 751.929 515.279 755.859 506.742C732.951 506.742 714.647 532.24 732.165 550.549C744.181 563.129 758.105 568.071 769.897 554.143C785.506 535.722 780.003 522.355 760.351 510.224H760.464Z" fill="#E0A144"/>
<path d="M687.133 423.51L699.598 447.884V482.031C714.196 463.834 704.426 436.202 687.133 423.51Z" fill="#E0A144"/>
<path d="M713.074 502.248L740.475 491.914L760.8 491.016C744.293 482.479 726.55 493.711 713.074 502.248Z" fill="#E0A144"/>
<path d="M675.118 414.074L672.76 416.995C684.102 428.339 688.818 422.386 675.118 414.074Z" fill="#E0A144"/>
<path d="M768.547 487.309C765.627 486.747 766.301 493.824 772.253 494.947C775.173 495.509 774.499 488.432 768.547 487.309Z" fill="#E0A144"/>
<path d="M708.133 517.861C705.438 517.3 704.652 518.311 705.775 520.894L708.133 517.861Z" fill="#E0A144"/>
<path d="M624.135 500.676C621.44 500.114 620.654 501.125 621.777 503.709L624.135 500.676Z" fill="#E0A144"/>
</svg>
