<svg width="1060" height="1848" viewBox="0 0 1060 1848" fill="none" xmlns="http://www.w3.org/2000/svg">
<path d="M651.576 502.987C652.249 501.415 648.656 496.248 648.768 493.44C648.768 493.103 655.955 489.396 652.137 487.262C654.046 496.248 659.436 483.892 651.463 502.987H651.576Z" fill="#E0A144"/>
<path d="M648.206 509.166C648.655 507.818 646.409 505.684 646.859 504.336C647.308 503.325 651.239 503.887 651.688 502.988C650.79 505.122 649.217 507.032 648.318 509.166H648.206Z" fill="#E0A144"/>
<path d="M558.707 182.414C548.824 174.552 494.698 137.372 488.072 135.463C521.312 143.663 538.605 152.873 558.707 182.414Z" fill="#E0A144"/>
<path d="M644.837 515.344C645.399 514.782 642.928 511.412 643.49 510.514C644.164 509.503 647.982 510.065 648.319 509.166C647.308 511.3 645.96 513.21 644.95 515.344H644.837Z" fill="#E0A144"/>
<path d="M631.25 540.055C631.924 539.493 629.341 536.236 629.903 535.225C630.464 534.214 634.619 534.663 634.731 533.877C633.496 535.899 632.597 538.145 631.362 540.055H631.25Z" fill="#E0A144"/>
<path d="M488.071 135.462C483.242 134.002 394.303 133.103 386.33 134.227C318.166 143.325 216.987 269.914 207.105 336.747C206.768 339.106 216.537 380.217 217.436 382.351C222.04 392.685 235.853 394.37 242.141 403.693C254.269 421.664 250.563 442.332 256.178 454.688C258.312 459.405 269.542 462.775 274.819 468.616C280.097 474.457 282.119 484.678 287.509 489.284C298.963 499.056 355.673 489.396 371.843 485.689C379.704 499.056 363.085 499.168 353.203 501.415C334.112 505.683 308.958 505.009 289.306 504.448C287.734 530.731 310.193 530.507 315.92 547.243C320.412 560.61 316.257 575.998 325.128 589.14C331.305 598.351 342.31 594.981 346.24 598.351C352.641 603.854 355.111 622.051 362.523 627.218C367.015 630.363 409.014 634.856 417.324 633.508C480.434 623.287 616.426 573.19 636.751 505.009C647.532 468.841 637.986 438.513 622.602 407.062C616.089 393.696 607.217 381.34 601.827 367.3L577.009 415.936L565.443 429.64C550.732 439.412 588.239 373.927 589.474 370.445C596.998 348.991 606.992 260.142 590.148 245.877C583.635 240.261 560.165 244.417 551.406 246.888C542.422 230.152 572.742 233.409 582.175 227.568C583.635 224.872 562.86 188.592 558.705 182.526C560.165 183.649 565.106 183.2 569.598 188.03C577.458 196.454 579.031 213.977 588.913 215.325C582.624 194.769 574.426 174.214 566.116 154.557C600.704 197.578 598.233 232.623 608.34 284.404C618.447 336.186 636.751 388.08 648.43 443.118C650.788 454.126 648.992 472.323 652.361 487.487C648.655 485.465 649.328 492.766 648.991 493.664C647.307 498.494 647.756 502.201 646.97 504.672C646.072 506.806 644.612 508.716 643.601 510.85C643.489 511.075 638.773 511.636 639.559 514.557L644.949 515.568C641.243 523.093 638.885 527.025 634.73 534.101C635.067 531.967 633.158 530.619 631.024 530.057C627.992 530.844 630.238 535.112 630.013 535.449C629.789 535.786 625.072 536.235 625.971 539.156C627.543 540.728 629.676 541.627 631.361 540.167C629.788 542.525 630.35 549.04 626.869 551.736L619.457 543.649L605.533 558.026L627.318 561.958C602.725 574.875 576.56 576.897 554.325 596.104C539.39 609.021 532.203 630.475 519.289 645.077L526.364 606.887C480.659 616.996 505.701 616.21 506.487 630.363C506.824 637.439 491.551 645.976 492.45 650.357C494.247 659.904 513.562 655.187 512.888 667.767C511.428 670.013 463.478 667.992 458.986 666.868C451.462 664.847 447.756 655.748 443.938 656.31C441.58 656.647 403.174 675.18 401.49 676.753C388.688 689.221 399.02 737.183 407.217 750.325C390.148 735.723 378.694 700.453 349.609 712.584C357.807 714.382 359.94 722.694 363.983 726.625C340.625 705.059 273.809 735.049 258.873 757.177L235.628 748.416C257.526 746.394 364.994 690.793 376.223 697.196C379.48 698.993 376.785 718.987 386.442 714.943L394.528 671.137C351.63 684.166 296.381 672.709 254.606 658.893C225.072 649.121 177.571 628.903 170.721 595.879C181.277 599.137 183.635 613.964 193.966 622.837C221.254 646.538 300.76 667.655 337.144 669.34C397.559 672.26 441.917 653.951 497.503 633.283C455.729 618.681 411.484 651.705 367.127 636.541C346.128 629.352 352.866 620.029 342.534 608.235C330.855 594.981 322.209 601.72 310.867 572.291C298.626 540.391 301.995 553.421 287.958 532.079C279.087 518.6 279.311 495.799 271.9 480.972C266.734 470.75 254.382 467.493 249.328 455.699C243.264 441.546 248.43 426.944 241.243 413.016C234.056 399.087 218.447 398.413 212.383 391.449C208.565 387.069 200.254 344.048 200.254 336.523C200.254 328.66 209.8 316.754 210.137 301.815C211.147 263.849 206.656 274.857 216.987 237.228C229.115 192.972 225.971 209.933 246.858 179.269C242.703 186.233 236.414 195.443 233.494 202.071C229.003 212.404 209.912 270.588 217.885 275.868L273.135 203.868C307.61 173.877 339.839 131.419 387.34 125.915C411.821 123.107 464.938 129.621 487.958 135.238L488.071 135.462ZM216.874 281.596L218.222 286.426C220.917 283.955 220.356 282.382 216.874 281.596ZM617.548 367.637L612.607 332.816C606.543 334.613 608.789 370.22 617.548 367.637ZM621.703 382.014C623.163 374.264 614.966 370.108 614.292 373.814C612.832 381.565 621.03 385.721 621.703 382.014ZM634.73 409.309C636.19 401.558 627.992 397.402 627.318 401.109C625.858 408.86 634.056 413.016 634.73 409.309ZM633.832 414.813L635.179 419.643C637.874 417.172 637.313 415.599 633.832 414.813ZM536.92 598.688L531.866 607.898C533.214 612.953 542.984 601.608 536.92 598.688ZM490.429 617.221L491.776 622.051C494.471 619.58 493.91 618.007 490.429 617.221ZM489.531 658.893C493.012 654.288 461.681 648.784 456.74 652.94C460.221 661.477 486.05 663.499 489.531 658.893Z" fill="#E0A144"/>
<path d="M255.506 763.131C256.292 760.772 257.527 758.975 258.875 756.953C260.784 762.345 255.843 762.457 255.506 763.131Z" fill="#E0A144"/>
<path d="M665.724 944.983C626.084 969.47 581.726 989.015 537.481 1002.94C552.529 1021.36 602.052 1019.34 595.651 1043.04C609.351 1048.32 732.653 973.963 753.315 961.046C717.717 988.677 681.221 1012.49 640.907 1033.83C631.024 1039 602.838 1044.39 599.806 1053.71C598.458 1057.76 603.175 1065.4 602.389 1066.86C599.806 1071.35 571.058 1072.02 563.983 1067.98L584.197 1093.03C573.529 1100.78 556.572 1086.51 549.497 1089.32C545.791 1090.78 542.984 1101 537.481 1101.45C531.08 1102.01 528.722 1086.85 521.31 1090.56C534.674 1131.67 567.24 1106.95 598.795 1099.2C653.821 1085.73 688.745 1064.95 739.054 1037.76C674.258 1083.14 639.559 1097.41 563.085 1120.21C556.01 1122.34 541.861 1120.88 541.187 1121.67C539.84 1123.47 541.974 1131.78 539.391 1134.92C535.348 1139.87 524.792 1135.49 524.343 1136.27C523.557 1137.73 528.722 1149.3 524.567 1154.92C521.648 1158.85 512.776 1156.04 508.172 1158.4C499.75 1162.89 498.851 1173 481.894 1169.29C491.664 1149.86 481.333 1133.46 476.279 1113.92L511.878 1147.73C527.824 1153.57 505.365 1108.19 501.322 1101.11C488.632 1078.99 467.408 1059.33 454.045 1037.31C472.237 1035.29 474.595 1057.42 476.392 1059.55C478.301 1061.8 484.028 1055.29 489.868 1055.85C521.535 1058.77 536.583 1079.55 565.555 1082.69C545.117 1063.82 517.829 1053.71 495.482 1038.21C490.878 1035.07 488.97 1028.66 487.397 1027.65C518.167 1046.41 553.203 1061.13 589.138 1065.51L558.593 1040.68C561.288 1034.51 593.068 1039.67 575.662 1028.1C571.956 1025.63 500.648 1018.44 488.071 1011.82L487.621 1001.71L534.45 1011.48C517.605 996.877 479.312 1000.81 465.275 987.442C485.937 989.576 522.433 1000.25 538.043 997.551C563.646 993.283 637.313 957.901 665.387 944.871L665.724 944.983ZM542.647 1011.82L543.995 1016.65C546.69 1014.18 546.128 1012.6 542.647 1011.82ZM584.421 1030.91L585.769 1035.74C588.464 1033.27 587.902 1031.7 584.421 1030.91ZM537.257 1127.51C531.305 1122.79 493.124 1047.2 483.018 1065.51L537.257 1127.51ZM541.861 1089.88C544.893 1084.04 529.733 1076.63 524.343 1074.38C525.803 1082.58 536.358 1100.66 541.861 1089.88ZM499.75 1159.19L494.247 1140.09L489.531 1141.44L495.033 1160.53L499.75 1159.19Z" fill="#E0A144"/>
<path d="M473.923 1016.2C462.581 1008 446.635 998.226 435.518 991.037C438.1 993.396 454.608 995.081 461.008 999.574C469.094 1005.19 469.992 1012.49 473.81 1016.2H473.923Z" fill="#E0A144"/>
<path d="M413.395 753.696C412.384 753.584 407.556 750.888 407.219 750.326C407.443 750.551 412.497 753.359 413.395 753.696Z" fill="#E0A144"/>
<path d="M689.418 704.721C688.52 703.373 684.477 702.812 683.242 701.352C685.039 702.699 687.509 703.373 689.418 704.721Z" fill="#E0A144"/>
<path d="M246.971 179.495C250.676 173.991 246.409 151.975 249.217 148.493C258.65 137.148 317.493 132.655 289.756 94.4652C299.301 92.7803 295.932 105.361 310.531 104.125C343.209 101.429 341.861 80.7616 354.326 75.5947C357.134 74.4715 408.902 69.9785 413.619 69.9785C433.608 70.2032 504.692 90.6462 521.648 99.9691C536.808 108.281 559.716 139.17 566.117 154.334C520.3 97.3856 452.136 76.381 382.737 83.0081C374.764 83.7944 364.882 79.1891 359.717 80.2C349.61 82.1095 349.273 99.1828 340.851 104.574C328.274 112.662 315.247 108.618 307.499 111.988C299.75 115.358 302.894 127.938 297.167 133.779C287.51 143.439 256.965 148.942 255.056 151.751C253.596 153.885 258.088 167.476 256.067 173.654C254.27 179.382 247.532 178.708 246.971 179.495Z" fill="#E0A144"/>
<path d="M953.99 1224.56C885.601 1304.76 570.609 1414.84 461.906 1428.99C440.682 1431.8 379.143 1433.93 363.422 1421.8C388.127 1416.75 436.415 1425.96 470.777 1420.56C631.923 1395.63 817.662 1311.39 953.99 1224.56Z" fill="#E0A144"/>
<path d="M936.808 1182.89C916.82 1204.68 904.13 1211.53 877.404 1224.56C738.942 1292.18 523.67 1380.58 370.272 1376.53C352.193 1376.08 351.07 1375.86 342.086 1365.75C346.915 1364.07 375.438 1369.57 386.331 1369.23C550.171 1363.39 714.911 1292.74 862.693 1224.45C888.072 1212.65 913.787 1198.72 936.808 1182.89Z" fill="#E0A144"/>
<path d="M946.018 1107.52C947.141 1106.51 947.814 1103.02 949.386 1101.34C948.825 1103.25 947.141 1105.61 946.018 1107.52Z" fill="#E0A144"/>
<path d="M949.385 1101.34C950.62 1099.99 951.294 1096.96 952.754 1095.16C952.417 1097.52 949.946 1099.54 949.385 1101.34Z" fill="#E0A144"/>
<path d="M924.567 1051.47C917.268 1058.88 919.626 1058.21 908.172 1066.63C913.562 1060.9 923.894 1052.48 924.567 1051.47Z" fill="#E0A144"/>
<path d="M733.888 894.102C704.466 919.599 709.296 924.991 665.725 944.984C689.307 930.382 711.878 911.175 733.888 894.102Z" fill="#E0A144"/>
<path d="M831.586 1052.48C765.78 1099.43 651.462 1149.86 572.63 1169.07C536.583 1177.83 495.37 1179.52 459.659 1191.54C455.504 1193.33 453.708 1190.19 451.35 1188.73C512.551 1168.85 579.368 1166.71 638.099 1144.92C693.124 1124.48 779.031 1081.35 831.586 1052.59V1052.48Z" fill="#E0A144"/>
<path d="M992.507 855.237C986.219 841.196 976.785 815.362 969.149 804.466C968.251 803.68 967.465 802.894 966.903 801.77C966.679 801.433 966.342 801.209 966.118 800.984C966.23 800.984 966.342 800.984 966.454 801.096C965.668 799.524 964.77 798.064 963.759 796.603C963.647 796.379 963.085 795.705 962.748 795.256C962.748 795.143 962.524 795.031 962.524 794.919C962.187 794.582 961.962 794.245 961.626 793.908C959.267 791.324 956.685 788.853 953.99 786.494C936.584 777.396 919.514 766.276 903.006 756.616C896.606 756.953 890.093 757.178 883.804 755.493C884.59 755.942 885.376 756.391 885.938 756.616C858.65 764.479 853.259 762.457 848.655 736.398C848.655 736.173 848.43 735.948 848.318 735.611C847.757 733.589 847.083 731.68 846.297 729.771C844.5 725.839 842.479 722.02 840.57 718.089C834.73 713.933 830.126 709.664 825.971 703.15C821.255 698.994 817.549 694.164 814.405 688.884V689.221C798.908 679.786 788.913 660.916 775.55 646.875C755.224 625.758 742.984 608.685 723.22 587.006C713.787 576.56 708.509 561.733 693.013 555.78C693.013 550.501 702.782 551.063 706.039 547.019C713.899 537.134 677.066 458.844 673.81 436.716C671.227 419.643 680.884 398.077 677.516 378.308C673.248 353.821 655.281 318.776 649.89 294.065C647.644 283.731 654.495 273.285 653.372 266.545C649.666 244.867 604.86 139.956 591.272 119.962C572.069 91.544 483.916 25.1604 451.238 16.2868C429.901 10.4459 413.618 14.6019 386.667 3.81876C364.208 -5.16718 378.245 3.81876 361.064 5.3913C313.562 9.65962 295.37 16.9607 251.687 25.4973C184.421 38.6393 124.118 -6.51508 52.0237 29.7657C38.3235 36.6174 15.3026 65.1478 11.4845 79.6376C7.32951 95.5877 16.0887 105.585 15.7518 118.39C15.5272 128.162 4.18544 153.435 2.95018 163.656C-10.3008 278.676 23.6126 389.091 54.3818 497.484C76.392 574.763 99.4128 652.716 156.909 712.473C168.587 724.604 182.849 723.93 186.78 727.524C191.384 731.68 192.282 741.901 197.897 747.293C206.656 755.717 243.04 781.889 245.286 785.371C262.355 811.88 258.2 859.056 275.718 887.024C274.708 887.249 273.809 887.361 272.799 887.474C272.462 892.416 271.339 897.021 269.879 901.739C270.103 902.525 270.328 903.311 270.328 904.21L268.981 904.659C267.521 909.04 266.285 913.533 265.05 918.026C264.601 919.486 264.152 920.946 263.703 922.407C266.286 923.193 266.398 924.653 264.04 926.9L263.141 923.867C261.793 927.686 260.221 931.393 258.649 934.987C258.649 934.987 258.649 934.987 258.649 935.099C258.649 935.099 258.649 935.212 258.649 935.324C258.425 935.885 258.2 936.447 258.088 936.896C254.382 980.815 255.056 1051.69 233.046 1092.47C231.81 1098.19 219.121 1149.53 221.928 1165.03C224.287 1178.51 234.842 1186.93 235.067 1199.74C235.741 1236.24 200.255 1297.91 204.859 1348.23C211.148 1416.86 259.66 1425.96 301.434 1377.32L318.84 1320.6C318.279 1353.84 335.909 1384.85 346.016 1414.16C353.652 1436.07 357.133 1476.39 375.999 1490.66C382.4 1495.49 391.833 1494.36 396.437 1499.08C406.431 1509.53 411.934 1538.62 427.319 1546.93C462.692 1566.02 559.604 1542.44 595.763 1525.48C602.726 1552.55 622.041 1575.8 632.709 1600.85C636.078 1608.82 632.26 1618.93 636.976 1628.93C640.906 1637.13 653.147 1642.63 656.628 1651.05C669.767 1683.18 662.468 1709.13 659.324 1739.79C659.66 1752.37 667.521 1774.5 667.97 1774.27C696.493 1855.37 785.657 1872.56 845.848 1809.88C871.002 1783.71 864.602 1764.39 870.553 1731.03C900.087 1789.55 1014.52 1773.71 1045.62 1726.99C1071.79 1687.9 1063.25 1603.77 1009.13 1592.2C1020.13 1608.93 1039.67 1614.21 1046.75 1635.67C1063.25 1686.44 1047.87 1732.94 995.988 1751.92C934.787 1774.27 870.553 1753.94 855.056 1686.32C844.5 1640.38 853.484 1602.31 809.127 1564.79C806.319 1549.96 807.105 1558.27 814.068 1561.08C858.425 1579.39 936.696 1566.36 946.802 1511.66C958.818 1541.54 944.668 1562.32 978.807 1585.01C992.844 1594.33 1000.7 1591.3 1010.03 1589.39C1004.97 1587.48 1000.26 1584.56 995.651 1581.64C988.127 1580.74 982.176 1579.28 978.358 1576.58C952.193 1558.05 965.219 1541.88 962.187 1524.58C960.053 1511.88 935.011 1469.76 929.172 1441.68C920.637 1401.02 920.862 1389.68 930.632 1387.2C931.305 1386.87 931.867 1386.64 932.541 1386.42C934.562 1385.86 936.583 1385.29 938.493 1384.51C939.391 1384.17 940.289 1383.83 941.188 1383.5C941.3 1383.5 941.412 1383.39 941.636 1383.27C942.423 1382.82 943.209 1382.49 943.883 1382.04C944.332 1381.81 946.241 1380.8 946.353 1380.35C945.118 1381.36 944.893 1381.59 945.791 1380.69C946.128 1380.35 946.578 1380.02 946.915 1379.57C947.589 1378.89 948.15 1378.11 948.824 1377.43C949.048 1377.21 949.16 1377.1 949.385 1376.87C955.898 1358.9 973.304 1347.22 978.245 1328.12C988.689 1286.9 995.764 1217.71 989.251 1175.47C987.903 1167.05 978.807 1154.69 976.673 1142.45C966.454 1085.28 960.503 1030.35 938.717 974.637C961.85 981.826 968.476 957.676 989.812 954.644C990.823 953.52 991.834 952.397 992.732 951.162C992.732 951.049 992.956 950.937 993.068 950.712C993.518 950.038 993.967 949.477 994.304 948.803C995.314 947.23 996.438 945.545 997.448 943.861C998.01 942.288 999.918 938.918 1001.94 936.672C1002.73 935.324 1003.62 933.976 1004.3 932.74C1004.75 931.954 1005.2 931.056 1005.53 930.269C1005.53 930.157 1005.65 930.045 1005.76 929.932C1006.21 928.36 1006.77 926.9 1007.11 925.215C1007.33 924.316 1007.44 923.417 1007.67 922.519C1007.67 922.407 1007.67 922.407 1007.67 922.294C1007.67 920.609 1007.89 919.037 1007.89 917.352C1007.89 915.667 1007.89 913.982 1007.78 912.297L1001.94 888.822H1002.05C1000.48 883.318 998.908 877.814 997.336 872.31C997.336 872.31 997.223 872.198 997.111 872.085C997.111 872.085 997.224 872.085 997.336 872.085C995.764 866.469 994.079 860.741 992.507 855.124V855.237ZM231.473 1154.02L310.53 1167.27C297.616 1151.1 234.842 1160.31 231.473 1141.89C230.687 1137.4 235.628 1116.62 237.088 1109.54C240.794 1090.67 254.494 1068.32 257.414 1047.42C258.313 1040.57 257.077 1034.28 254.719 1027.88L306.712 1028.44C283.467 1015.97 240.12 1029.56 270.328 992.272C258.088 981.264 274.932 910.613 277.515 891.63L286.162 930.494L275.044 954.531C310.081 949.14 277.515 945.545 293.349 928.472C306.712 945.995 293.124 951.836 305.926 971.492C306.375 972.166 313.001 978.344 316.707 982.725C319.402 985.87 325.241 974.862 323.781 997.439C326.476 996.428 331.305 987.555 336.246 989.015C337.931 989.464 352.978 1006.2 353.091 1011.26C353.203 1016.42 346.24 1024.06 345.23 1031.47C344.219 1038.89 344.444 1061.24 343.096 1064.5C340.962 1069.66 326.364 1045.06 315.134 1057.08C318.054 1064.95 327.824 1060 335.685 1066.52C342.647 1072.36 339.503 1117.4 337.706 1127.85C332.877 1154.58 313.113 1176.93 315.696 1202.21C303.568 1190.75 236.527 1183.45 231.923 1179.07C228.217 1175.47 228.554 1159.3 231.811 1154.02H231.473ZM295.819 1372.38C294.696 1373.84 270.777 1395.29 269.318 1396.19C258.986 1402.26 240.682 1403.15 231.249 1395.63C188.015 1361.37 234.618 1237.59 242.815 1192.1C261.569 1195.35 303.568 1196.37 309.632 1216.7C316.482 1239.5 310.418 1353.39 295.819 1372.38ZM618.672 1560.63C615.303 1553.89 601.266 1529.86 605.646 1525.14L732.99 1480.55C755.898 1535.47 788.576 1599.61 709.407 1622.75C656.628 1638.14 638.886 1600.96 618.672 1560.63ZM750.396 1839.76C723.445 1837.29 685.488 1803.25 674.932 1779.67C653.371 1731.37 695.034 1666.89 643.939 1620.5C650.789 1617.58 650.003 1626.46 657.751 1628.7C701.996 1641.62 751.182 1619.27 771.508 1578.27C766.342 1627.35 827.319 1654.65 841.693 1680.93C884.815 1759.45 845.062 1848.41 750.396 1839.76ZM800.929 1572.31C804.186 1580.18 815.303 1582.87 822.041 1592.53C833.046 1608.26 853.821 1656.33 840.458 1672.51C835.629 1653.75 813.282 1648.92 802.389 1635.1C789.587 1618.7 788.24 1593.77 782.064 1578.38C778.695 1569.84 767.241 1562.88 766.791 1561.64C761.738 1544.23 742.984 1493.01 743.209 1480.32C743.433 1470.21 768.588 1460.1 776.224 1471.45C778.694 1475.15 795.314 1515.37 797.111 1521.66C801.715 1537.72 796.213 1560.86 800.929 1572.43V1572.31ZM935.685 1525.93C924.231 1552.43 838.548 1573.66 818.784 1558.16C805.196 1547.49 789.812 1476.61 777.909 1457.07L915.808 1396.42C912.44 1426.52 945.118 1504.13 935.685 1525.93ZM931.305 1378.78C825.747 1427.53 722.209 1480.66 611.373 1516.04C557.358 1533.23 421.591 1580.4 406.319 1497.51C488.071 1500.32 567.802 1480.55 644.949 1454.15C722.771 1427.53 844.725 1377.99 915.584 1338.01C935.012 1327 953.316 1312.4 970.048 1297.68C978.47 1331.38 955.561 1358.45 931.305 1378.78ZM963.198 1094.82C973.192 1134.14 962.524 1154.81 936.695 1182.77C950.508 1173.23 960.39 1171.09 969.374 1152.56C994.753 1182.89 974.427 1200.41 953.99 1224.45C961.626 1219.62 972.967 1218.49 977.572 1207.26C983.299 1217.03 985.657 1242.64 982.85 1254.44C971.957 1300.71 817.661 1356.99 773.417 1370.24L815.64 1363.39C867.97 1339.13 925.017 1322.39 968.251 1282.74C970.834 1293.98 952.529 1304.53 945.118 1310.15C907.723 1338.57 852.698 1360.58 809.127 1379.9C713.787 1422.47 592.17 1475.04 489.306 1488.52C457.751 1492.68 403.512 1495.26 375.213 1480.55C499.862 1487.73 649.216 1443.48 759.267 1384.51C766.903 1380.35 775.101 1385.74 768.475 1371.7C677.178 1418.54 571.62 1458.76 469.542 1473.36C419.907 1480.43 357.021 1491.67 353.764 1424.5C356.909 1423.71 360.053 1422.36 363.31 1421.8C346.465 1408.77 342.872 1389.11 337.818 1369.57C337.818 1366.65 339.727 1366.54 341.861 1365.75C327.599 1349.8 325.353 1340.7 323.22 1319.25C370.609 1324.53 422.265 1320.37 469.542 1312.4C579.144 1294.09 718.953 1236.35 821.255 1189.63C857.639 1173 926.14 1140.43 945.791 1107.52C915.359 1133.24 877.515 1155.7 841.468 1172.67C712.103 1233.66 505.252 1318.12 363.422 1315.32C317.942 1314.42 318.054 1310.6 317.493 1263.76C332.989 1266.46 349.385 1269.15 365.219 1268.25C497.055 1260.95 817.998 1162.89 907.948 1066.52C782.063 1158.96 570.834 1231.41 416.538 1255.11C400.48 1257.58 332.989 1265.22 322.77 1257.13C320.525 1255.34 313.45 1219.62 314.461 1217.93C315.584 1216.02 330.182 1215.01 335.572 1211.53C343.658 1206.47 359.829 1183.9 370.384 1196.48L347.925 1208.16C364.096 1205.69 384.646 1209.51 392.058 1190.3C395.202 1218.61 402.164 1204.45 413.955 1194.23C417.324 1191.31 417.212 1202.88 422.153 1202.54C430.126 1201.98 441.468 1191.76 451.125 1188.62C438.324 1180.86 445.174 1153.35 437.313 1140.76C454.944 1131.55 447.869 1161.88 458.874 1170.98C464.039 1175.25 475.606 1173.23 477.066 1170.87C478.638 1168.17 471.451 1116.39 469.542 1108.42C463.59 1083.03 453.821 1063.04 439.559 1041.69C427.207 1046.3 445.062 1060.45 445.848 1063.15L466.622 1134.92C466.959 1136.05 468.532 1159.19 463.366 1159.19C458.537 1146.49 449.553 1116.5 434.506 1131.22L428.33 1029.34C412.159 1074.16 429.228 1135.6 438.773 1181.76C426.757 1180.75 422.041 1159.07 424.399 1149.75C389.812 1151.55 420.693 1174.57 404.41 1196.93L389.924 1164.91L388.24 1186.14L374.539 1174.57L365.443 1187.72C350.508 1188.17 334 1176.37 352.978 1166.37C369.261 1157.73 372.855 1173.79 376.448 1145.37C375.55 1140.32 360.727 1160.53 360.952 1144.81C361.176 1121.11 377.571 1085.05 377.684 1059.44C386.443 1055.62 383.074 1067.53 382.962 1072.36C382.512 1089.43 379.031 1108.3 377.122 1125.49C376.336 1132.9 369.261 1142.11 380.266 1131.22C381.838 1109.43 396.212 1061.8 388.464 1043.27C387.229 1039.22 377.684 1042.82 375.774 1044.17C371.956 1046.75 356.46 1123.02 354.887 1133.46C352.978 1146.83 358.818 1154.58 358.593 1155.7C357.582 1161.1 344.893 1153.46 339.727 1158.96C338.38 1160.42 334.225 1190.86 323.444 1194.34C318.84 1191.54 342.198 1141.44 344.332 1131.55C348.823 1111.11 346.353 1088.08 348.823 1067.75C349.273 1063.82 350.171 1060.57 350.845 1056.75C353.764 1039.56 352.529 1026.76 366.117 1010.92C363.759 1023.39 361.737 1036.75 359.042 1049.22C364.32 1038.89 375.662 1006.76 377.347 1005.08C386.331 995.979 413.618 995.305 416.875 980.703C405.196 982.163 368.475 1006.2 361.401 1004.52C356.909 1003.39 323.22 971.717 318.84 965.315C293.012 926.9 281.221 889.383 300.199 846.026L280.435 885.34C270.777 864.447 270.328 840.747 265.5 819.63C261.345 801.433 246.971 789.302 255.281 762.906C242.142 788.179 220.581 757.515 204.185 742.575C193.742 733.028 165.78 709.664 158.593 701.24C77.4026 605.54 68.756 510.177 38.099 392.685C22.2652 332.143 8.45251 291.369 7.66644 226.333C7.21725 187.469 18.2222 155.457 20.9173 121.085C23.051 94.2398 11.4845 74.6954 37.8742 49.984C82.0068 8.76102 154.101 25.385 206.431 35.3819C245.623 42.9076 239.783 30.1026 271.339 22.6892C292.563 17.6346 358.818 7.18849 378.47 9.098C417.774 12.917 484.141 40.2118 518.616 61.2165C523.332 64.0246 582.625 119.063 585.207 122.77C593.742 135.463 594.079 148.155 600.368 160.96C630.576 222.739 656.067 311.7 667.521 380.667C674.82 424.922 659.885 441.322 681.109 496.248C684.703 505.571 694.472 509.503 698.403 521.971C705.253 543.762 697.616 549.827 676.505 552.41C741.861 597.228 681.221 591.275 662.58 611.044C651.013 623.287 667.746 634.969 632.372 632.61C630.126 631.599 634.843 624.298 634.393 621.715C632.484 622.725 626.982 624.41 624.848 624.523C626.084 627.443 629.34 633.958 625.185 634.857C605.421 636.429 577.684 647.774 572.855 624.073C580.154 615.874 617.1 624.972 624.848 624.523C622.603 619.356 618.896 616.098 615.977 611.605C630.912 605.315 632.148 606.438 634.506 621.715C636.639 620.479 638.998 614.413 642.479 612.167C650.789 606.775 662.355 608.797 662.355 592.96C648.655 607.337 632.372 598.576 620.918 601.945C613.169 604.192 606.993 614.301 599.02 616.211C591.946 617.896 552.08 602.844 565.107 634.182C570.497 647.212 581.39 637.552 584.646 646.651C564.882 650.357 549.497 669.902 532.204 676.416C521.199 680.572 477.291 684.055 463.254 684.504C452.585 684.841 413.169 668.329 419.346 702.7C425.297 735.948 456.74 691.58 475.045 688.884L529.396 688.66C506.825 688.211 505.253 706.632 494.248 715.618C474.371 731.905 440.345 757.964 413.394 753.471C431.698 761.558 435.853 759.873 456.291 750.887C490.654 735.948 540.401 687.761 579.93 674.282C586.892 671.923 637.987 670.014 642.591 672.485C648.655 675.742 697.167 751.786 700.311 761.446C713.001 800.872 628.105 838.95 598.683 853.552C576.673 864.447 441.917 923.417 431.137 905.783C422.153 886.912 423.501 865.908 419.682 847.037C417.886 838.613 408.116 824.909 408.565 819.518C409.576 806.151 427.094 794.02 419.57 775.15C416.313 767.062 374.09 736.061 363.871 726.176C383.523 744.373 404.41 826.032 411.822 855.124C417.661 878.151 429.565 925.439 431.698 946.444C432.934 959.024 421.142 989.127 426.308 992.722C428.217 994.069 434.506 990.138 435.404 990.7C434.506 989.801 430.912 980.928 434.955 980.478C445.061 988.678 454.831 986.094 465.387 987.218C456.628 978.793 452.473 962.956 464.601 958.013C471.002 955.318 514.236 957.339 529.845 952.397C549.497 946.219 552.642 936.223 562.187 928.023C558.706 929.483 551.631 926.563 548.936 927.349C546.578 928.023 549.273 935.099 545.567 937.683C510.643 961.945 460.446 930.943 442.254 978.456C440.907 968.572 430.688 921.396 438.212 917.127C519.851 898.032 592.956 868.828 664.376 825.471C676.729 817.945 697.055 796.266 707.05 793.121C709.071 792.447 748.599 789.302 750.396 790.426C765.893 799.636 732.99 821.989 725.242 828.841C728.161 826.594 737.931 825.134 743.882 821.202C756.684 812.778 761.737 796.491 778.807 804.466C796.437 812.666 804.523 833.67 806.993 851.642L788.801 833.446L796.213 823.786C784.422 828.054 775.55 823.561 765.78 817.159C766.342 825.583 778.807 829.627 783.186 836.703C793.405 853.327 782.4 853.776 767.802 868.379C783.186 861.302 796.886 848.947 809.014 862.875C822.827 878.825 821.592 904.322 808.341 918.812C813.057 913.982 820.693 910.276 824.624 903.761C830.239 907.804 814.854 951.499 833.495 942.737C852.81 933.751 839.559 913.421 850.003 901.627C881.558 948.129 867.746 947.343 831.25 979.692C849.554 968.572 857.414 962.394 873.81 949.477C880.884 943.861 893.574 955.767 884.141 938.581L908.397 960.035C877.965 972.953 914.349 966.55 914.686 981.489C918.055 977.67 927.6 974.076 932.99 973.514C934.787 1007.1 945.567 1020.8 924.568 1051.24C933.776 1041.92 940.851 1036.08 947.701 1023.84C953.653 1028.44 954.438 1084.72 952.866 1094.94C959.155 1087.52 960.503 1083.48 963.31 1094.6L963.198 1094.82ZM330.519 1200.52L339.054 1185.13C340.626 1187.49 341.075 1199.4 340.738 1200.07C340.513 1200.52 331.193 1204.79 330.519 1200.52ZM379.368 1199.29L378.021 1194.46C381.614 1195.13 382.063 1196.7 379.368 1199.29ZM422.827 1197.04L417.324 1177.94L422.041 1176.6C427.206 1186.14 434.618 1189.06 422.939 1197.04H422.827ZM383.523 1052.82L382.175 1047.99C385.769 1048.66 386.218 1050.23 383.523 1052.82ZM567.577 677.764L540.289 690.906C541.973 675.518 555.898 662.601 567.577 677.764ZM448.655 696.747L426.196 708.429C417.1 701.914 443.153 669.902 448.655 696.747ZM529.733 699.218L528.385 694.388C531.979 695.062 532.428 696.635 529.733 699.218ZM403.4 808.397L391.833 759.873C411.148 769.646 421.704 793.009 403.4 808.397ZM734.45 776.16C736.134 776.834 751.07 788.965 737.257 789.302C701.547 788.067 698.178 761.221 734.45 776.16ZM703.344 752.572L721.76 762.682C713.226 766.838 704.242 761.671 703.344 752.572ZM878.302 920.834L875.606 935.998L841.805 873.209L878.189 920.834H878.302ZM846.409 835.58C855.505 840.635 903.344 925.215 913.226 940.715C907.274 941.614 903.456 947.118 897.954 941.726C894.585 938.357 849.779 871.187 845.399 863.212C842.816 858.494 830.8 826.931 846.409 835.58ZM961.401 944.984C962.861 950.038 958.481 969.133 955.337 969.92C951.182 970.931 945.792 957.452 940.851 958.238C927.151 960.26 924.231 983.174 911.205 951.723C927.263 943.748 942.647 948.353 940.514 927.686C909.745 939.255 920.75 933.976 908.846 916.004C887.51 883.879 864.489 852.653 842.254 821.315L837.875 832.997L836.078 817.945C822.153 819.855 827.768 822.775 829.902 832.547C835.18 856.248 840.121 873.658 840.233 898.594C840.233 906.794 839.896 927.237 833.046 932.74C829.34 919.037 836.864 899.492 834.393 886.912C831.923 874.332 818.785 867.929 814.405 852.429C811.148 840.971 817.998 820.978 815.415 818.844C814.742 818.282 806.993 819.855 802.613 816.822C767.465 791.886 730.968 767.624 707.161 730.669L700.424 742.912L671.451 696.972C672.799 688.772 680.435 699.218 683.13 701.352C680.323 697.758 679.874 691.693 673.81 685.739C642.254 654.176 617.212 665.296 578.02 669.452C550.508 672.373 586.443 649.234 600.143 645.415C640.682 634.07 711.429 632.835 714.461 688.547C714.798 695.399 710.194 711.911 705.252 715.618C697.504 721.458 695.595 709.327 689.194 704.722C693.012 710.338 690.991 723.705 703.231 726.513C743.658 686.189 708.397 641.259 665.612 623.512C687.285 606.663 719.065 576.448 738.605 611.156C752.53 635.755 783.074 675.406 802.613 698.881C812.608 710.9 827.656 713.933 836.64 732.354C858.088 776.385 830.688 757.627 816.426 785.034C811.261 794.919 809.913 803.118 814.068 813.789C822.041 808.51 819.458 794.245 824.287 785.146C840.121 755.38 916.707 766.837 940.401 784.922C960.053 799.973 975.999 829.627 980.94 853.552L959.717 833.783C942.086 858.494 965.893 852.204 974.428 861.639C991.834 880.959 985.433 895.112 972.406 912.971L968.027 888.485L861.906 799.748L959.941 895.673L967.914 924.653L985.432 922.182C978.47 949.252 949.497 924.541 946.578 930.831C940.85 943.187 960.951 943.748 961.288 944.759L961.401 944.984ZM1002.05 929.371C1001.6 931.28 987.229 950.038 980.267 939.368C978.245 936.222 1006.32 927.237 993.181 912.297C1001.27 908.478 1002.95 925.664 1002.05 929.371ZM997.448 900.728L996.101 895.898C999.694 896.572 1000.14 898.145 997.448 900.728ZM990.149 866.469C989.475 870.176 981.165 866.02 982.737 858.269C983.411 854.563 991.721 858.719 990.149 866.469Z" fill="#E0A144"/>
<path d="M911.317 987.891C879.762 1022.71 875.045 1028.78 831.586 1052.48C858.088 1033.61 887.622 1010.13 911.317 987.891Z" fill="#E0A144"/>
<path d="M725.465 829.178C724.342 830.076 709.856 843.443 709.07 844.341C716.37 836.816 717.941 835.805 725.465 829.178Z" fill="#E0A144"/>
<path d="M709.072 844.229C704.019 849.845 702.446 858.269 690.768 870.288C694.136 866.693 698.292 855.349 709.072 844.229Z" fill="#E0A144"/>
<path d="M911.318 987.891C912.441 986.655 913.003 983.622 914.687 981.713C914.799 986.094 914.013 985.307 911.318 987.891Z" fill="#E0A144"/>
<path d="M305.59 971.718C318.728 978.906 299.189 983.175 298.852 984.073C299.189 981.827 292.676 964.641 305.59 971.718Z" fill="#E0A144"/>
<path d="M831.363 980.029C797.112 1010.47 778.358 1016.76 739.279 1037.88C770.61 1015.97 798.797 999.911 831.363 980.029Z" fill="#E0A144"/>
<path d="M353.878 1066.63C354.102 1063.82 350.397 1058.54 351.07 1057.08C352.193 1054.73 357.92 1052.14 359.268 1049.56C357.583 1057.42 361.963 1056.52 353.878 1066.63Z" fill="#E0A144"/>
<path d="M276.28 995.754C270.553 994.743 272.462 994.406 270.104 992.384C275.718 990.25 275.943 995.641 276.28 995.754Z" fill="#E0A144"/>
<path d="M296.83 994.969C290.317 990.476 298.739 984.635 298.851 983.961C298.627 984.523 302.332 998.675 296.83 994.969Z" fill="#E0A144"/>
<path d="M690.766 870.4C680.435 881.071 680.21 879.499 669.654 886.912C670.89 886.238 689.868 871.411 690.766 870.4Z" fill="#E0A144"/>
<path d="M296.831 994.967C299.189 995.529 307.162 1000.02 309.183 1001.82C289.307 1006.2 290.991 1002.38 276.393 995.753C282.232 996.764 291.553 993.732 296.943 994.967H296.831Z" fill="#E0A144"/>
<path d="M637.539 901.289C615.079 911.061 587.454 917.688 562.412 928.247C592.62 902.075 603.513 907.467 637.539 901.289Z" fill="#E0A144"/>
<path d="M669.655 886.799C663.141 891.292 658.874 900.053 647.532 902.3C641.243 903.535 638.1 901.289 637.65 901.289C644.95 898.144 665.5 889.382 669.767 886.799H669.655Z" fill="#E0A144"/>
<path d="M349.049 1067.98C349.161 1067.3 353.766 1067.19 353.878 1066.63C353.653 1066.86 355.787 1071.12 352.867 1072.02L349.161 1067.98H349.049Z" fill="#E0A144"/>
<path d="M318.055 1014.74C314.686 1031.92 314.686 1050.12 304.13 1065.39C304.13 1046.52 276.505 1061.13 264.826 1045.85C275.27 1042.03 295.146 1054.95 304.355 1049.56C313.002 1044.5 305.59 1031.14 306.488 1028.55C307.611 1025.29 317.943 1017.32 318.055 1014.85V1014.74Z" fill="#E0A144"/>
<path d="M808.566 919.148C786.893 941.613 779.481 944.758 753.316 961.045C764.434 952.396 802.727 925.439 808.566 919.148Z" fill="#E0A144"/>
<path d="M487.622 1027.77C478.077 1021.93 480.323 1022.38 473.922 1016.2C480.098 1020.69 485.376 1026.31 487.622 1027.77Z" fill="#E0A144"/>
<path d="M323.444 997.664C322.658 1010.58 318.616 1011.82 318.054 1014.74C318.167 1011.82 311.99 1004.4 309.07 1001.82C313.787 1000.81 318.84 999.237 323.444 997.664Z" fill="#E0A144"/>
<path d="M768.026 868.715C753.989 882.643 743.994 885.451 734 894.212C746.128 884.777 746.353 878.712 768.026 868.715Z" fill="#E0A144"/>
<path d="M223.837 46.1641C220.356 60.6539 191.833 56.7225 180.828 58.6321L193.068 65.3715C148.262 77.6149 120.637 95.5867 91.5517 132.092C61.0071 170.507 40.6813 219.93 23.0508 265.196C26.532 212.966 64.6005 174.101 85.1508 128.61C114.572 106.819 133.438 67.955 173.977 70.9877L161.737 64.2483C181.838 50.7694 200.704 49.1968 223.837 46.2764V46.1641Z" fill="#E0A144"/>
<path d="M169.262 591.049C168.252 596.778 151.07 576.784 150.396 570.719L169.262 591.049Z" fill="#E0A144"/>
<path d="M142.871 562.408C146.465 563.082 146.914 564.655 144.219 567.238L142.871 562.408Z" fill="#E0A144"/>
<path d="M399.581 1027.43C407.666 1023.84 407.442 1036.87 408.452 1042.37C414.629 1076.97 417.661 1127.29 398.346 1157.39C408.452 1114.26 405.645 1071.12 399.693 1027.43H399.581Z" fill="#E0A144"/>
<path d="M343.546 924.316C334.113 927.91 338.381 916.453 338.83 911.623C339.392 904.772 341.076 886.013 346.803 881.857L343.546 924.204V924.316Z" fill="#E0A144"/>
<path d="M357.133 863.437C358.031 858.158 369.149 870.289 368.475 875.568C362.074 872.872 357.582 870.851 357.133 863.437Z" fill="#E0A144"/>
<path d="M385.994 1150.65C389.588 1151.32 390.037 1152.9 387.342 1155.48L385.994 1150.65Z" fill="#E0A144"/>
<path d="M939.055 922.744C926.028 929.483 930.296 920.947 925.242 915.33C895.371 882.307 876.954 845.465 853.934 807.387L939.055 922.631V922.744Z" fill="#E0A144"/>
<path d="M955.45 907.691L945.343 926.113C939.279 911.061 939.504 910.612 955.45 907.691Z" fill="#E0A144"/>
<path d="M254.832 1100.55C268.981 1096.29 282.794 1105.83 294.473 1112.46L254.832 1100.55Z" fill="#E0A144"/>
<path d="M314.348 1109.2C319.739 1113.7 311.541 1127.96 309.07 1126.28L300.873 1115.6L314.348 1109.09V1109.2Z" fill="#E0A144"/>
<path d="M302.558 1086.63C301.885 1090.33 293.575 1086.18 295.147 1078.43C295.82 1074.72 304.13 1078.87 302.558 1086.63Z" fill="#E0A144"/>
<path d="M328.16 316.754C334.786 330.57 326.7 325.403 319.289 329.784C292.562 345.621 265.274 362.807 234.729 369.771C230.462 358.202 231.136 361.908 239.109 358.202C269.205 344.498 297.054 327.874 328.048 316.754H328.16Z" fill="#E0A144"/>
</svg>
