<svg width="989" height="1131" viewBox="0 0 989 1131" fill="none" xmlns="http://www.w3.org/2000/svg">
<path d="M876.923 641.994C872.095 633.795 875.576 620.203 863.56 605.826C856.261 597.177 833.802 594.032 834.7 579.43C834.924 575.723 840.315 571.005 840.652 565.501C842.111 543.71 812.577 525.289 813.027 522.706C813.364 521.133 813.925 520.122 814.599 519.673C815.048 518.999 815.609 518.325 816.283 517.876C816.845 517.539 817.406 517.202 817.968 516.865C817.968 516.865 817.968 516.865 818.192 516.753C818.417 516.64 818.641 516.416 818.754 516.303C819.203 515.966 819.54 515.517 819.989 515.068C820.214 514.843 820.438 514.619 820.663 514.282C820.663 514.282 820.663 514.281 820.663 514.169C820.663 514.169 821 513.72 821.112 513.608C821.224 513.383 821.449 513.158 821.561 512.934C821.898 512.372 822.235 511.923 822.572 511.361C822.796 510.912 823.133 510.35 823.358 509.789C823.358 509.564 823.582 509.339 823.695 509.115C823.919 508.441 824.144 507.879 824.369 507.205C823.021 493.277 824.032 473.171 807.412 463.736C799.439 459.243 792.252 465.533 786.862 454.637C781.696 444.416 790.567 431.499 787.311 420.828C782.257 403.867 766.087 380.616 750.253 371.967C734.98 363.655 715.778 369.608 709.714 345.795C716.789 344.11 720.045 355.118 728.804 347.592C731.275 345.683 733.633 343.661 735.991 341.639C736.328 341.302 736.665 340.965 737.002 340.516C737.002 340.516 737.114 340.291 737.226 340.179C737.226 340.067 737.451 339.842 737.563 339.842C737.9 339.28 738.349 338.831 738.686 338.269C740.034 336.248 741.269 334.113 742.392 331.867C744.413 327.936 746.098 324.004 748.232 320.073C748.232 320.073 748.119 320.073 748.007 320.073C753.509 308.84 743.964 295.811 742.841 288.847C741.157 285.589 739.809 282.332 738.349 278.962C725.885 268.404 707.917 256.61 691.522 262.675C689.5 254.363 706.682 253.465 710.275 247.287C711.174 245.714 715.216 213.589 714.206 210.669C705.222 184.947 663.784 170.794 638.855 168.884L650.758 135.973C650.758 135.973 650.87 135.973 650.983 135.973C650.983 135.636 651.095 135.412 651.32 135.075C652.106 133.39 653.004 131.705 653.678 129.908C653.678 129.796 653.678 129.683 653.79 129.571C653.341 130.47 653.678 129.796 653.79 129.571C653.902 129.234 654.127 128.785 654.239 128.448C654.576 127.661 654.913 126.763 655.25 125.864C655.811 124.179 656.373 122.495 656.934 120.81C656.485 116.654 655.811 112.385 653.678 108.117C644.469 89.8082 637.956 88.6849 633.914 83.518C630.096 81.0469 626.614 78.0141 622.796 75.4306C622.572 75.206 622.235 75.0937 621.898 74.8691C600.674 76.8909 601.797 64.0859 593.038 55.8862C589.107 52.1796 563.953 34.2076 560.359 32.8597C549.017 28.9284 541.718 38.0267 533.071 37.802C528.13 37.802 523.414 30.3886 513.869 32.1858C507.355 33.4214 495.452 41.6211 494.441 41.3964C492.645 40.9471 485.795 20.1671 472.544 13.3153C470.859 12.4168 439.191 3.09388 436.721 2.64458C420.438 -0.163528 387.535 0.398056 370.129 0.0610828C346.884 -0.27589 324.537 0.285753 304.772 15.0002C299.382 19.0439 296.463 31.8488 290.735 33.646C287.142 34.7693 281.976 30.6132 278.495 31.1749C251.432 35.4432 208.984 43.4182 187.872 59.8176C185.85 61.3901 165.412 81.8332 163.728 83.9673C160.135 88.4603 162.717 97.4462 159.91 103.849C156.541 111.487 150.814 114.969 147.333 121.147C145.424 124.516 149.354 130.133 146.771 131.48C142.841 133.502 116.002 133.839 109.826 137.434C108.927 137.995 95.7886 151.587 95.2271 152.485C94.3288 153.833 81.8639 179.78 81.1901 181.577C75.9121 195.955 79.281 229.54 71.9818 239.986C68.276 245.377 41.2125 259.867 40.0896 261.889C32.9026 275.143 51.6561 299.854 48.8487 306.032C44.5814 315.355 31.3304 310.975 24.0311 314.794C17.9671 317.939 1.57184 334.675 -0.112608 341.414C-0.561794 343.212 -0.337201 374.775 0.224282 377.808C3.25629 394.656 30.3198 420.715 27.9615 428.353C27.1754 430.825 4.71614 439.586 3.48088 456.435C2.9194 464.41 7.86045 479.124 8.75882 489.009C9.4326 495.748 5.61452 502.263 6.84978 509.227C16.9565 565.838 46.4905 574.712 70.185 617.508C78.0458 631.66 75.7999 654.575 82.6499 662.549C88.2648 669.064 123.414 647.049 128.579 665.245C129.927 670.188 120.943 677.376 121.28 684.003C121.28 685.576 125.772 710.287 126.446 711.523C128.692 715.567 151.488 730.506 179.113 756.902C190.005 767.348 203.818 747.691 211.903 748.253C217.967 748.702 231.218 759.485 231.667 769.258C232.004 770.718 232.117 772.29 232.229 773.863C232.341 775.435 232.454 776.896 232.566 778.468C232.566 778.918 232.678 779.367 232.79 779.928C233.464 780.939 245.929 800.147 252.779 805.314C259.405 810.256 275.575 813.064 275.912 812.952C277.148 812.502 284.896 810.593 284.896 810.593C287.254 810.593 287.928 811.379 286.917 813.289C286.917 813.513 286.468 814.075 286.468 815.423C286.468 816.546 286.805 817.782 286.805 817.782C295.115 846.424 319.259 865.969 348.905 868.889C352.611 869.226 389.893 864.733 391.802 863.835C403.593 858.555 421.785 839.573 431.106 829.8C433.577 851.816 430.545 875.179 435.261 896.97C438.967 914.268 452.779 958.861 462.325 972.228C476.811 992.446 490.511 978.405 495.003 980.539C497.586 981.775 520.494 1020.53 526.895 1028.39C554.745 1062.76 593.15 1087.7 631.443 1108.7C637.283 1111.4 648.624 1116 657.047 1117.91C675.913 1124.99 729.703 1131.73 749.467 1130.83C988.434 1118.81 1056.26 847.548 914.992 679.511C906.12 668.952 881.078 649.52 876.474 641.882L876.923 641.994ZM869.287 635.816C869.624 639.635 868.726 678.724 868.164 680.858C867.378 684.565 844.021 726.237 840.764 728.933C818.866 747.691 778.776 717.476 754.745 707.367C748.793 704.896 727.344 702.088 728.243 695.91C756.092 701.526 768.445 673.22 773.611 650.419C775.07 644.128 772.6 630.986 774.397 629.302C783.043 621.214 801.123 624.696 812.128 618.406C822.796 612.453 826.278 600.097 836.946 594.706C856.822 609.757 867.041 606.5 869.287 635.929V635.816ZM650.197 1002.67C648.961 1001.77 647.614 1001.09 646.379 1000.42C645.256 999.859 644.245 999.185 643.234 998.511C628.523 992.671 599.776 960.658 600.562 957.85C600.786 956.839 606.738 954.368 608.422 951.111C614.486 938.98 592.925 897.757 588.658 883.267C574.509 835.417 576.867 783.972 609.994 744.097C615.946 736.908 632.678 719.386 640.764 716.577C647.165 714.331 654.127 718.375 661.426 717.364C670.859 716.016 699.383 713.657 704.324 712.422C710.612 710.849 720.607 701.751 725.323 703.885C725.548 703.885 725.772 703.885 725.885 703.885C728.018 704.559 729.815 705.682 731.724 706.693C732.622 707.03 733.633 707.255 734.531 707.479C735.542 707.704 736.44 708.041 737.339 708.378C761.819 713.994 783.605 731.067 806.85 738.818C823.582 744.434 838.967 737.357 840.652 737.807C843.459 738.593 868.838 780.153 872.207 786.556C916.003 870.574 890.062 999.073 789.669 1024.8C784.616 1026.7 779.562 1028.39 774.284 1029.63C769.792 1030.64 765.076 1031.42 760.359 1031.42C728.58 1039.17 672.544 1018.95 649.747 1002.56C649.86 1002.56 649.972 1002.44 650.084 1002.33L650.197 1002.67ZM651.993 122.382C650.084 133.39 638.406 155.069 632.566 165.29C636.609 178.657 670.971 179.892 683.324 187.306C688.041 190.114 705.447 206.738 707.917 211.68C714.206 224.485 700.618 253.689 683.549 255.599C691.859 276.828 692.869 266.494 700.842 267.393C731.162 271.212 758.563 309.177 735.767 333.776C709.377 362.194 689.051 307.268 678.158 289.071C675.126 284.129 667.939 279.861 666.48 275.817C665.581 273.571 671.87 270.538 670.859 268.628C667.827 262.338 651.432 246.613 645.705 238.413C625.267 208.872 609.882 179.331 574.958 162.819L609.433 119.349C614.374 108.005 591.353 87.7864 602.92 78.4634C612.577 70.7131 654.913 106.544 652.106 122.382H651.993ZM647.389 471.935C629.534 475.08 637.956 483.505 635.935 484.74C630.657 488.11 614.599 488.447 608.198 496.197L613.363 505.408C622.235 490.244 637.619 492.491 651.881 487.773L648.175 477.776C654.127 478.45 663.448 476.99 668.052 481.595C671.758 485.302 687.591 524.615 685.795 529.782C679.618 547.193 660.753 549.214 678.608 573.813L665.02 556.403C649.074 538.544 608.422 545.058 596.631 518.887C598.316 512.709 630.208 516.416 618.978 508.441C606.738 499.679 579.001 516.64 598.877 533.601C600.112 534.725 626.502 549.214 628.187 549.664C633.577 551.012 639.528 547.193 643.908 549.102C655.924 554.494 676.249 582.462 679.169 595.155C679.506 596.728 679.843 625.146 678.72 626.269C671.87 633.795 645.031 635.367 637.058 638.737C629.197 642.107 625.941 655.585 613.251 658.506C607.973 659.741 600 654.911 593.487 654.687C586.412 654.35 580.124 658.281 572.375 656.035C567.996 654.799 544.189 640.197 541.381 636.49C537.563 631.323 518.81 583.698 519.034 578.643C519.259 572.466 527.457 568.534 528.243 564.378C529.141 559.885 523.077 550.562 524.649 547.754C526.109 545.171 531.836 544.384 533.745 542.138C534.756 541.015 545.873 521.807 548.793 517.09C554.071 508.441 555.418 486.088 559.461 481.034C563.504 476.091 571.477 477.889 576.306 473.171C580.797 468.79 579.113 458.007 583.38 454.525C587.198 451.38 596.294 451.942 602.583 446.887C606.738 443.63 607.412 436.216 611.454 434.531C614.936 433.071 620.887 435.318 624.705 433.745C630.096 431.611 633.24 424.647 637.732 423.524C641.999 422.4 650.534 429.477 656.485 430.937C662.549 432.509 671.758 430.6 676.362 433.745C678.495 435.205 706.457 457.445 707.692 459.018C714.318 468.229 733.071 515.629 734.419 527.76C735.093 534.051 729.59 537.533 729.253 541.913C728.804 547.979 733.072 555.392 731.724 559.548C730.826 562.132 724.986 564.827 723.751 568.871C721.842 575.274 724.088 583.923 720.831 588.865C715.216 597.401 700.73 605.04 695.452 615.373C702.19 597.177 675.913 562.806 677.036 550.562C677.934 540.565 700.73 542.587 689.388 512.597C682.426 494.175 671.308 468.004 647.614 472.048L647.389 471.935ZM711.286 456.322C708.815 452.953 686.019 432.959 682.313 430.375C676.362 426.107 665.244 427.792 657.721 425.77C651.769 424.198 642.785 416.447 636.609 417.233C630.882 418.02 627.737 425.096 621.224 427.455C617.181 428.915 611.23 426.669 607.861 428.129C603.818 429.926 603.257 437.339 599.102 440.26C591.915 445.314 580.348 448.909 575.295 453.739C572.487 456.435 576.53 463.062 573.161 466.768C568.108 472.272 558.226 471.261 554.071 476.765C550.14 482.045 548.568 504.06 541.831 514.955C536.665 523.267 525.211 532.927 520.494 545.171C517.687 552.472 521.28 558.537 520.157 564.603C519.371 568.871 513.644 573.813 513.195 579.43C512.746 585.72 530.938 633.907 535.317 639.86C538.798 644.578 560.247 656.933 566.311 659.292C573.61 662.213 580.236 658.731 584.615 662.999C578.215 665.47 571.365 672.322 565.3 674.007C561.595 675.018 558.113 668.166 553.172 669.177C545.873 670.525 539.248 678.5 531.948 679.848C525.997 680.971 520.494 672.659 515.328 673.894C510.724 675.018 507.917 682.319 502.302 684.116C497.81 685.576 490.062 681.42 484.11 683.554C474.116 687.149 460.303 708.041 437.058 712.758C429.983 714.219 428.748 703.436 422.572 709.276C420.213 711.411 424.481 714.78 423.919 716.016C423.133 717.813 397.08 717.476 392.027 716.577C359.124 711.186 309.938 694 286.131 669.626C280.629 664.01 278.72 654.687 273.554 649.969C269.399 646.15 261.538 648.846 256.26 647.049C243.908 642.668 228.635 616.272 219.09 604.141C193.262 571.455 171.252 538.993 157.327 497.208C144.975 460.029 153.509 476.765 163.953 449.807C168.108 439.137 166.985 386.906 164.514 374.662C162.83 366.238 156.541 359.836 156.541 354.556C156.541 343.099 168.444 309.29 182.145 305.92C166.872 295.923 185.177 279.412 192.364 268.628C204.155 251.106 237.507 212.354 255.025 197.976C262.212 192.023 271.196 191.574 276.698 186.182C283.548 179.555 285.457 169.109 295.003 165.402C301.965 162.707 307.805 168.098 312.97 166.863C351.825 157.877 385.289 137.883 428.299 134.513C590.23 121.933 639.529 231.449 705.896 353.658C717.911 375.786 738.125 404.091 745.424 427.006C753.509 452.503 744.526 491.48 736.89 516.528C731.836 495.523 724.088 473.732 711.061 455.985L711.286 456.322ZM131.274 474.856C90.3984 489.907 49.5225 428.241 56.0357 391.174C56.4848 388.478 64.3456 363.655 65.244 362.531C70.4096 355.904 107.018 338.382 115.553 336.36C128.355 333.327 153.509 362.082 157.439 372.865C159.236 377.695 161.819 437.676 160.359 442.619C157.103 454.188 142.841 470.587 131.274 474.856ZM503.201 43.4183C524.2 29.2654 526.446 45.8894 533.633 46.5633C540.146 47.1249 547.221 37.9143 556.429 39.2622C559.349 39.7115 589.332 59.4806 591.466 62.8503C599.102 74.7567 590.006 84.6412 592.027 91.3807C593.824 97.3339 607.075 106.32 604.717 116.878C603.481 122.495 591.69 128.111 587.198 133.952C581.696 141.253 583.605 156.304 567.546 156.978C561.932 157.203 539.36 143.612 530.489 141.028C501.853 132.491 472.319 142.376 475.688 97.3339C476.586 85.8769 494.329 49.3714 503.313 43.4183H503.201ZM414.486 839.348C399.102 852.153 371.477 864.846 351.151 863.273C349.579 863.161 321.617 854.512 320.157 853.725C301.291 843.729 296.126 817.782 292.869 798.687C276.811 818.231 249.186 800.708 240.427 782.062C236.384 773.526 240.651 761.395 234.138 755.105C208.871 731.067 208.759 746.568 188.321 751.398C178.551 753.645 158.45 729.045 150.589 720.958C148.119 718.487 148.456 712.759 146.434 711.748C143.29 710.287 137.451 715.454 133.183 708.603C122.066 690.743 141.156 671.76 131.162 658.281C118.697 641.433 113.644 653.114 103.649 656.147C77.4843 664.01 87.0295 642.556 81.9762 626.718C73.5539 599.985 37.9559 576.172 27.8492 556.965C26.614 554.606 14.1491 511.024 13.363 506.307C10.7802 492.828 16.7319 470.924 9.65719 455.985C16.5073 440.597 31.1058 434.981 46.2659 431.274C29.646 427.23 33.4641 416.335 27.9615 406.9C22.459 397.352 8.42193 394.095 5.27763 372.416C4.60385 368.26 9.4326 365.564 9.4326 362.756C9.09571 345.009 1.68414 335.686 24.1434 322.544C36.6084 315.243 58.7308 324.903 55.8111 300.641C76.4736 308.616 101.628 323.667 122.403 307.717L85.4574 308.391C75.1261 302.663 60.1906 301.652 52.8914 291.767C30.2075 261.215 65.9178 261.664 79.0564 245.04C87.2541 234.706 80.6286 199.212 88.4894 182.925C90.2861 179.218 100.168 160.46 100.954 159.225C114.767 139.343 126.782 140.691 149.916 138.108C151.825 125.752 162.605 119.125 166.648 109.016C171.252 97.7831 164.065 83.6303 182.257 80.3729C191.353 78.6881 226.614 121.371 235.71 129.908C238.967 132.941 245.368 141.59 249.972 139.006C234.812 116.991 205.952 98.9064 190.118 79.6989C179.113 66.557 213.925 51.5056 224.705 49.1468C243.122 45.2155 263.335 40.6101 282.201 38.139C285.794 37.6897 290.96 41.7334 294.441 40.6101C300.617 38.7006 301.628 26.008 307.692 21.5151C339.809 -1.84839 359.685 9.8333 393.15 11.7428C401.684 12.1921 427.962 7.13747 435.486 8.71001C440.427 9.72093 443.571 15.7865 448.624 17.2467C465.357 21.7397 470.522 10.1703 482.875 34.657C496.912 62.4011 475.126 66.4447 470.41 88.348C467.602 101.49 471.982 117.103 475.239 129.908C450.646 129.459 419.652 125.977 395.733 132.042C380.011 136.086 299.944 158.775 290.511 164.391C262.661 181.015 235.486 213.589 212.465 235.942C195.171 252.791 186.187 257.171 174.621 282.332C165.637 301.876 160.135 330.519 152.723 351.299C141.83 343.099 124.649 326.138 109.152 331.305C101.74 333.776 65.9178 353.995 60.9767 359.049C58.3939 361.745 49.6348 392.41 49.4102 397.24C47.2765 444.753 95.2271 503.835 142.841 474.182C151.825 497.208 159.91 523.492 170.803 545.508C181.246 566.625 233.801 645.139 252.33 651.766C257.271 653.564 265.581 651.092 267.827 653.564C271.87 658.057 273.442 666.256 277.821 671.199C286.356 680.858 301.74 686.25 299.944 703.548C306.906 704.447 299.495 689.17 304.772 690.743C306.794 691.305 316.901 699.841 323.526 702.312C351.6 713.096 379.337 721.071 408.085 721.969C412.016 722.081 414.486 726.013 418.304 725.451C419.652 725.227 441.437 718.487 443.459 717.701C465.357 708.827 496.126 681.308 518.361 682.094C522.403 682.206 526.895 688.946 532.398 687.935C540.483 686.362 545.199 675.692 551.151 675.579C556.429 675.467 560.696 681.532 563.616 681.982C568.669 682.768 589.22 665.133 594.161 662.999C601.572 659.854 613.7 666.593 622.235 661.988C628.411 658.618 631.555 649.295 637.732 645.926C645.143 641.994 673.217 640.309 681.864 632.334C687.142 627.504 684.896 596.728 680.629 589.09C685.57 585.271 687.816 594.481 688.602 597.851C690.174 604.253 686.581 627.617 698.035 623.798C699.944 623.124 722.965 594.818 724.312 592.347C732.847 577.52 733.184 554.044 734.756 539.555C735.317 534.5 744.975 520.01 746.547 513.046C750.141 497.658 758.338 432.397 752.162 421.277L723.639 370.507C735.879 371.854 758.114 381.851 765.301 391.174C782.482 413.302 777.429 419.929 779.001 441.832C781.696 481.371 802.92 459.804 813.476 479.798C825.042 501.926 820.214 515.629 795.621 520.347C810.893 526.637 841.438 549.439 833.128 568.422C830.208 574.937 820.775 578.306 820.55 579.205C819.877 581.339 830.769 587.18 830.433 589.651C830.208 591.224 812.128 611.779 809.321 613.239C807.075 614.475 787.198 618.968 786.075 618.631C779.001 616.497 791.466 602.793 792.926 595.941C793.599 592.796 794.835 583.249 787.872 589.314C789.669 604.478 770.803 613.913 768.333 621.439C764.514 633.233 772.151 652.328 758.787 674.456C746.098 695.348 738.799 685.239 727.12 690.069C719.147 693.326 712.184 703.773 700.618 706.244C693.543 707.704 677.934 709.614 668.164 711.298C654.913 713.545 640.988 706.356 629.085 712.871C623.358 716.016 621.336 725.676 615.16 730.169C607.861 735.448 599.439 731.292 595.171 734.774C592.027 737.358 591.129 746.006 586.188 750.499C584.728 751.847 556.541 771.504 554.857 772.403C548.568 775.885 540.483 772.852 533.857 774.312C473.779 787.229 460.752 800.821 414.262 839.348H414.486ZM460.528 953.357C441.774 914.044 437.956 869.339 438.518 826.655C444.132 821.938 451.095 819.804 456.71 814.974C498.709 778.468 543.852 790.375 587.423 758.699C595.845 752.634 594.385 742.974 602.583 738.144C580.685 782.961 565.974 816.322 578.327 867.317C581.696 881.02 607.524 942.462 606.176 946.505C603.481 955.042 595.284 942.799 590.118 943.922C580.348 945.944 571.814 956.165 558.001 956.502C549.467 956.727 546.435 951.335 542.729 950.886C540.932 950.661 508.029 955.154 506.233 955.716C486.581 961.669 483.436 1001.43 460.528 953.357ZM708.029 1123.3C634.924 1115.67 555.98 1065.12 516.451 1003.12C513.195 997.95 498.933 973.575 499.046 970.767C500.056 950.886 580.573 971.666 590.455 947.292C663.897 1080.06 877.822 1068.71 897.249 900.228C904.099 840.808 887.03 801.158 856.598 751.173C853.903 746.68 841.887 734.774 842.224 733.089C842.336 732.415 849.86 728.372 852.33 724.328C856.598 717.251 870.635 692.091 872.544 685.913C876.923 671.648 869.175 660.752 872.881 647.161C890.174 661.539 907.693 677.938 921.28 695.91C1059.41 878.212 956.429 1149.36 708.029 1123.3Z" fill="#E0A144"/>
<path d="M424.481 550.675C429.759 556.179 426.727 559.324 421.112 562.581C408.423 569.882 379.001 578.307 370.354 585.72C359.686 594.931 358.9 620.653 341.269 625.595C340.932 617.957 346.772 610.094 350.478 603.58C358.338 589.427 373.835 575.835 342.841 592.347L337.676 583.137C363.729 566.176 397.867 568.422 424.481 550.562V550.675Z" fill="#E0A144"/>
<path d="M319.146 430.263C324.873 414.762 329.702 398.812 342.616 386.344C346.995 382.076 345.423 377.695 354.07 381.851C356.092 386.232 336.103 415.548 332.734 422.4C328.579 430.825 328.017 446.662 321.616 453.065C302.526 472.048 316.9 436.665 319.146 430.263Z" fill="#E0A144"/>
<path d="M669.175 352.647C675.8 357.926 671.309 369.383 672.544 373.09C673.105 374.999 678.046 372.079 678.832 372.528C694.666 381.963 672.544 384.098 666.704 388.254C663.223 390.725 665.02 397.914 658.731 398.924C649.972 391.623 663.223 350.737 669.175 352.647Z" fill="#E0A144"/>
<path d="M612.129 242.232C614.15 242.906 617.295 239.648 617.968 239.873C620.664 240.659 623.246 247.736 616.846 248.522C609.434 249.421 590.793 236.503 587.424 228.641C592.253 228.641 604.83 230.775 607.974 233.246C610.445 235.268 609.771 241.558 612.017 242.344L612.129 242.232Z" fill="#E0A144"/>
<path d="M151.264 712.084L178.552 671.872L192.476 634.355C191.017 665.357 175.632 693.213 151.264 712.084Z" fill="#E0A144"/>
<path d="M310.162 764.54L299.943 717.701C307.018 730.506 317.462 750.163 310.162 764.54Z" fill="#E0A144"/>
<path d="M155.419 207.973C143.628 206.625 132.173 193.371 124.312 185.059C135.654 189.776 148.905 197.302 155.419 207.973Z" fill="#E0A144"/>
<path d="M149.13 405.663C140.146 410.156 131.05 413.751 129.478 424.758C126.895 410.718 113.083 428.69 103.088 431.61C86.8051 429.364 123.638 413.189 124.2 411.616L117.462 403.305H135.542L92.8691 384.659C99.6069 383.086 151.151 400.496 149.13 405.663Z" fill="#E0A144"/>
<path d="M514.093 111.937L519.371 106.995C519.371 113.285 520.045 116.318 526.895 116.879L552.049 82.6203C558.113 89.0228 537.563 105.871 539.809 107.669L573.498 102.951C564.739 109.803 553.734 110.252 543.852 113.734C534.643 116.992 525.435 129.123 510.949 117.665C505.895 113.734 500.168 82.8449 505.895 76.1055L513.981 112.049L514.093 111.937Z" fill="#E0A144"/>
</svg>
