<svg width="910" height="256" viewBox="0 0 910 256" fill="none" xmlns="http://www.w3.org/2000/svg">
<path d="M764.474 0L727.747 109.025L829.444 0H909.452L786.066 112.206L837.059 254.778H784.524C768.04 254.778 760.521 235.209 756.473 222.196L733.724 150.38C723.891 158.381 714.155 166.574 704.709 174.961C694.973 200.313 687.55 226.726 677.718 252.079C677.333 252.946 677.043 254.007 676.465 254.778H611.398L699.311 0.0963443H764.57L764.474 0Z" fill="#DDAC6B"/>
<path d="M247.604 0C246.736 3.4703 245.58 6.84418 244.423 10.2181C241.145 19.665 237.964 29.6903 234.398 38.9444C228.036 55.332 220.131 61.4051 202.298 62.0798C179.067 63.0438 155.257 61.4051 131.93 62.0798C106.867 66.0321 89.3233 92.0593 80.0694 113.845C68.9839 139.872 58.7661 190.963 100.409 192.987C115.35 193.758 131.159 192.023 146.004 192.987C160.848 193.951 177.525 200.988 173.283 219.304L161.716 254.392C139.449 254.007 117.278 254.778 95.0106 254.392C70.4299 253.91 47.3914 251.79 27.6305 235.691C-5.72217 208.604 -3.60147 165.996 6.71279 128.016C25.799 57.9347 78.9126 0.385524 155.739 0.385524L156.607 0H247.7H247.604Z" fill="#DDAC6B"/>
<path d="M370.412 222.582C342.168 247.163 318.165 253.14 281.053 254.393C250.785 255.357 220.228 254.778 189.96 255.164L188.707 254.586L203.552 210.725C208.95 196.362 224.277 193.662 237.965 193.084C258.883 192.217 281.632 194.723 302.164 193.084C338.89 190.192 363.953 136.692 371.376 105.555C374.942 90.5174 378.798 65.0685 357.687 62.1766H319.804L295.705 133.51C290.597 145.753 284.524 156.067 270.257 157.899C254.063 158.67 237.869 158.092 221.674 158.285L275.752 0.482422H376.195C399.137 1.63919 425.26 3.75987 437.792 26.0276C460.059 65.6469 433.839 130.426 413.404 166.768C402.126 186.915 387.859 207.447 370.412 222.678V222.582Z" fill="#DDAC6B"/>
<path d="M634.629 96.4941L621.809 138.716C617.856 153.465 603.686 157.514 589.998 158.188H446.273C450.804 144.596 454.178 130.619 458.805 117.123C464.589 100.446 475.288 97.6509 491.965 96.4941H634.533H634.629Z" fill="#DDAC6B"/>
<path d="M666.921 0.385407C663.933 9.73594 661.427 19.3757 658.535 28.7262C656.222 35.956 653.523 47.2345 648.51 52.7292C642.341 59.477 631.737 61.3086 623.062 62.0797H478.662L491.675 19.2793C496.206 4.24136 511.147 0.963843 525.124 0.289062H667.018L666.921 0.385407Z" fill="#DDAC6B"/>
<path d="M601.278 192.986C597.133 205.422 593.855 218.243 589.71 230.774C587.59 237.136 586.144 242.727 580.649 247.162C573.323 253.235 563.202 254.006 554.141 254.681H412.922C412.922 254.681 414.561 248.318 414.85 247.451C418.224 236.172 421.694 223.641 425.646 212.651C430.948 197.806 441.358 194.336 456.203 192.986H601.278Z" fill="#DDAC6B"/>
</svg>
