<svg width="510" height="510" viewBox="0 0 510 510" fill="none" xmlns="http://www.w3.org/2000/svg">
<path d="M138.015 0H370.468C444.149 3.6401 505.57 64.7938 509.819 138.445V369.713C506.177 443.486 444.999 505.125 371.197 509.493H139.836C65.9123 505.853 4.12711 444.456 0 370.562V138.809C4.00572 65.6432 64.6985 4.36812 138.015 0ZM145.42 39.1917C85.4554 41.7398 41.3925 86.3917 39.2075 146.211V362.675C39.9359 418.854 83.2705 465.448 139.472 469.816C216.43 470.422 293.51 470.422 370.468 469.816C423.757 465.569 465.999 423.344 470.247 370.077C470.854 293.149 470.854 216.101 470.247 139.173C465.756 82.9943 419.387 39.7984 363.064 38.9491H145.541L145.42 39.1917Z" fill="#DDAC6B"/>
<path d="M245.442 117.575C362.215 110.901 435.532 242.187 365.007 336.709C302.615 420.431 173.096 406.235 129.883 311.592C90.3116 225.079 150.519 122.914 245.442 117.575ZM252.968 156.766C178.923 158.101 133.282 238.547 169.819 303.099C206.356 367.65 300.308 369.106 338.666 305.525C378.723 239.154 330.169 155.31 252.968 156.766Z" fill="#DDAC6B"/>
<path d="M408.584 78.3841C426.549 76.2001 438.081 94.886 427.642 109.568C418.538 122.308 397.902 119.153 393.047 104.229C389.405 92.9446 396.567 79.8402 408.584 78.3841Z" fill="#DDAC6B"/>
</svg>
