<svg width="559" height="559" viewBox="0 0 559 559" fill="none" xmlns="http://www.w3.org/2000/svg">
<path d="M259.378 0.0963995C219.181 65.8393 150.645 116.93 107.652 179.01C101.387 188.071 82.4933 212.363 86.3491 222.388C87.3131 225.666 89.3373 226.148 92.3256 226.726C99.8444 228.076 155.464 189.035 165.682 181.902C236.34 132.353 299.767 70.5628 349.796 0.0963995H432.696C365.702 91.7702 278.175 164.357 191.516 236.655C181.105 239.065 127.606 252.368 122.979 256.609C117.967 261.237 118.641 268.274 118.641 274.347C116.617 274.154 95.8922 285.818 90.9761 286.975C63.8891 265.767 24.6563 272.708 0.557607 294.494C0.364817 266.828 0.750397 239.065 0.557607 211.399C73.4322 157.899 113.725 68.7312 171.369 0H259.282L259.378 0.0963995Z" fill="#F4E3CE"/>
<path d="M533.235 249.282C514.824 285.528 500.943 325.147 478.483 359.272C449.95 402.554 376.497 456.922 333.119 487.962C297.164 513.7 259.184 535.486 221.783 558.91H146.402C199.805 501.458 274.608 471.382 331.095 417.978C381.028 370.839 405.801 323.219 443.684 269.044C446.191 265.477 447.347 261.718 452.842 261.911C456.312 272.225 457.083 291.697 473.567 289.191C500.268 285.142 472.796 237.811 474.145 221.713C494.099 230.485 513.764 239.45 533.235 249.379V249.282Z" fill="#F4E3CE"/>
<path d="M550.779 75.6723L482.917 191.445C477.326 189.132 432.213 171.877 430.189 173.805C437.804 202.82 443.202 233.475 452.745 261.912C447.25 261.719 446.094 265.478 443.587 269.045C405.704 323.22 380.931 370.841 330.998 417.979C274.511 471.287 199.708 501.459 146.305 558.912H101.096L98.5898 556.405C207.613 487.481 334.179 419.136 397.607 302.206C430.96 274.636 438.575 225.666 395.101 204.073L525.716 35.4746C541.428 51.2838 543.26 53.0189 550.875 75.7686L550.779 75.6723Z" fill="#DDAC6B"/>
<path d="M349.796 0.0957031C299.767 70.5621 236.339 132.353 165.681 181.901C155.463 189.131 99.747 228.075 92.3246 226.726C89.3363 226.147 87.2157 225.665 86.3481 222.388C82.4923 212.266 101.386 187.974 107.651 179.009C150.74 116.833 219.277 65.8386 259.377 0.0957031H349.796Z" fill="#DDAC6B"/>
<path d="M558.297 312.231C526.198 339.415 506.244 378.552 479.157 410.459C424.212 475.142 359.917 517.364 286.946 558.911H221.59C259.087 535.583 296.971 513.797 332.926 487.963C376.304 456.923 449.757 402.458 478.29 359.272C500.846 325.148 514.63 285.529 533.042 249.283C538.151 251.886 554.924 253.332 557.719 261.044C558.779 278.106 557.815 295.168 558.105 312.231H558.297Z" fill="#DDAC6B"/>
<path d="M457.855 0.0957031C458.723 2.50563 460.843 2.31284 462.867 2.60203C426.237 75.7675 373.991 138.522 319.625 198.963C287.911 205.711 245.979 239.45 246.75 274.442L196.528 309.724C206.65 284.178 216 258.344 226.7 232.991L220.627 229.232C210.891 231.642 201.252 234.437 191.516 236.655C278.175 164.26 365.701 91.6731 432.696 0.0957031H457.855Z" fill="#DDAC6B"/>
<path d="M558.299 312.23C558.781 336.426 558.685 361.007 558.299 385.203C498.92 433.305 450.819 492.879 412.55 558.911H374.859C382.186 547.825 399.826 540.306 405.224 527.678C407.152 523.148 411.297 516.496 403.778 516.111C393.56 515.532 339.772 547.343 332.157 559.007H286.947C359.918 517.364 424.214 475.238 479.159 410.556C506.246 378.648 526.2 339.607 558.299 312.327V312.23Z" fill="#F4E3CE"/>
<path d="M171.466 0.0957031C113.822 68.8269 73.5288 157.994 0.654256 211.495C0.461466 186.528 -0.309693 160.886 0.654256 136.016L126.257 0.0957031H171.466Z" fill="#DDAC6B"/>
<path d="M558.299 445.644L462.868 558.911H412.646C450.819 492.879 499.016 433.402 558.396 385.203C558.01 405.157 559.649 425.786 558.396 445.644H558.299Z" fill="#DDAC6B"/>
<path d="M126.159 0.0957031L0.556641 136.016C2.77372 78.6594 8.36465 41.8357 63.3098 11.3742L103.603 0.0957031H126.256H126.159Z" fill="#F4E3CE"/>
<path d="M465.373 558.911H462.867L558.298 445.645C554.346 508.399 525.331 541.849 465.373 558.911Z" fill="#F4E3CE"/>
<path d="M332.252 558.91C339.867 547.246 393.559 515.435 403.873 516.014C411.489 516.496 407.247 523.147 405.319 527.581C399.921 540.306 382.377 547.728 374.955 558.814H332.252V558.91Z" fill="#DDAC6B"/>
<path d="M525.717 35.3786L395.102 203.977C375.341 194.145 341.217 194.434 319.721 198.965C373.991 138.62 426.237 75.8654 462.964 2.60352C492.268 6.6522 505.763 15.1352 525.813 35.2822L525.717 35.3786Z" fill="#F4E3CE"/>
<path d="M550.78 75.6719C552.226 79.9134 558.299 88.5891 558.299 94.5657V199.06C548.852 183.155 552.033 132.643 521.958 151.344C511.354 163.972 531.115 197.904 530.633 214.195C527.838 217.279 487.738 193.566 482.918 191.541L550.78 75.7683V75.6719Z" fill="#F4E3CE"/>
<path d="M118.641 274.443C121.34 274.636 124.232 281.962 134.836 282.155C142.74 282.155 175.996 269.334 178.984 271.937C169.441 299.313 155.368 324.955 146.307 352.428C136.185 357.152 114.303 366.791 106.11 372.575C120.087 346.452 115.171 305.965 91.0723 286.975C95.9884 285.818 116.713 274.25 118.738 274.347L118.641 274.443Z" fill="#DDAC6B"/>
<path d="M98.5916 556.405C81.3369 557.754 69.4804 549.271 55.8887 541.27C164.526 491.336 265.066 427.907 332.253 327.365C357.219 325.244 378.041 318.4 397.609 302.205C334.277 419.135 207.711 487.481 98.5916 556.405Z" fill="#F4E3CE"/>
<path d="M246.846 274.442C247.231 293.818 269.499 318.688 287.042 324.761C212.915 405.06 114.399 455.091 20.7031 508.495C6.62949 487.48 2.67733 476.394 0.556641 450.56L63.4061 402.747C86.8301 399.18 92.3246 382.214 106.109 372.574C114.303 366.887 136.184 357.151 146.306 352.427C145.053 356.187 134.931 375.659 140.04 377.684C156.427 370.647 240.966 355.705 248.581 346.74C255.521 338.643 251.28 323.894 240.291 322.159C230.941 320.713 189.105 337.39 186.406 334.787C185.539 325.436 193.539 316.857 196.431 309.627L246.653 274.346L246.846 274.442Z" fill="#F4E3CE"/>
<path d="M332.252 327.366C265.064 427.908 164.524 491.434 55.8873 541.271C37.6687 530.571 32.7525 526.522 20.7031 508.593C114.399 455.092 212.915 405.158 287.042 324.859C300.827 329.679 318.371 328.522 332.252 327.366Z" fill="#DDAC6B"/>
<path d="M75.07 364.189C42.4885 396.482 -8.11887 345.006 25.6194 313.388C58.972 282.059 107.844 331.8 75.07 364.189Z" fill="#DDAC6B"/>
<path d="M63.4066 402.844L0.557084 450.657C-1.17803 428.775 1.81022 404.869 0.557084 382.697C18.3902 397.157 39.7899 406.411 63.3102 402.844H63.4066Z" fill="#DDAC6B"/>
<path d="M374.956 229.137L314.613 297.097C229.207 286.976 311.817 205.52 374.956 229.137Z" fill="#F4E3CE"/>
<path d="M314.611 297.097L374.955 229.137C420.935 246.392 379.003 286.686 349.41 295.362C335.143 299.507 328.107 298.639 314.708 297.097H314.611Z" fill="#DDAC6B"/>
</svg>
