<svg width="881" height="387" viewBox="0 0 881 387" fill="none" xmlns="http://www.w3.org/2000/svg">
<path d="M103.638 131.383C96.9971 134.801 90.332 137.145 83.6426 138.414C77.002 139.684 70.3125 140.318 63.5742 140.318C54.6387 140.318 46.6064 139.073 39.4775 136.583C32.3975 134.044 26.3672 130.479 21.3867 125.89C16.4551 121.3 12.6709 115.807 10.0342 109.41C7.44629 103.014 6.15234 95.9336 6.15234 88.1699C6.15234 82.2129 6.86035 76.793 8.27637 71.9102C9.74121 66.9785 11.7676 62.584 14.3555 58.7266C16.9434 54.8691 20.0195 51.5244 23.584 48.6924C27.1973 45.8604 31.1523 43.5166 35.4492 41.6611C39.7461 39.7568 44.3115 38.3652 49.1455 37.4863C53.9795 36.5586 58.9355 36.0947 64.0137 36.0947C68.3105 36.0947 72.3877 36.3633 76.2451 36.9004C80.1025 37.4375 83.6914 38.0967 87.0117 38.8779C90.332 39.6104 93.335 40.4404 96.0205 41.3682C98.7549 42.2471 101.147 43.0527 103.198 43.7852V70.7383C101.782 69.8594 100 68.8096 97.8516 67.5889C95.752 66.3193 93.335 65.123 90.6006 64C87.915 62.8281 84.9121 61.8516 81.5918 61.0703C78.3203 60.2402 74.7803 59.8252 70.9717 59.8252C66.626 59.8252 62.4268 60.4844 58.374 61.8027C54.3213 63.1211 50.7324 65.0254 47.6074 67.5156C44.5312 70.0059 42.041 73.0332 40.1367 76.5977C38.2812 80.1133 37.3535 84.1172 37.3535 88.6094C37.3535 92.4668 38.1348 96.1045 39.6973 99.5225C41.2598 102.94 43.457 105.919 46.2891 108.458C49.1211 110.997 52.4902 112.999 56.3965 114.464C60.3027 115.929 64.5996 116.661 69.2871 116.661C73.3887 116.661 77.1973 116.271 80.7129 115.489C84.2285 114.708 87.4268 113.756 90.3076 112.633C93.2373 111.51 95.8008 110.313 97.998 109.044C100.244 107.774 102.124 106.651 103.638 105.675V131.383ZM119.238 73.3018C124.268 69.7861 129.761 67.2227 135.718 65.6113C141.724 63.9512 147.949 63.1211 154.395 63.1211C159.961 63.1211 164.771 63.6826 168.823 64.8057C172.925 65.9287 176.294 67.5156 178.931 69.5664C181.616 71.6172 183.618 74.083 184.937 76.9639C186.255 79.8447 186.914 83.0674 186.914 86.6318V115.416C186.914 118.053 187.158 120.079 187.646 121.495C188.135 122.862 189.087 123.546 190.503 123.546C191.138 123.546 191.772 123.473 192.407 123.326C193.091 123.131 193.726 122.936 194.312 122.74C194.946 122.496 195.508 122.252 195.996 122.008C196.484 121.764 196.899 121.568 197.241 121.422V135.265C195.923 135.802 194.507 136.363 192.993 136.949C191.479 137.535 189.795 138.097 187.939 138.634C186.133 139.122 184.131 139.513 181.934 139.806C179.736 140.147 177.344 140.318 174.756 140.318C172.266 140.318 170.239 140.025 168.677 139.439C167.114 138.902 165.869 138.219 164.941 137.389C164.014 136.559 163.33 135.704 162.891 134.825C162.5 133.897 162.207 133.092 162.012 132.408C160.986 133.238 159.814 134.117 158.496 135.045C157.178 135.973 155.591 136.827 153.735 137.608C151.929 138.39 149.805 139.024 147.363 139.513C144.971 140.05 142.163 140.318 138.94 140.318C134.546 140.318 130.908 139.732 128.027 138.561C125.195 137.34 122.925 135.826 121.216 134.02C119.556 132.164 118.384 130.138 117.7 127.94C117.065 125.743 116.748 123.619 116.748 121.568C116.748 117.955 117.456 114.879 118.872 112.34C120.337 109.752 122.314 107.53 124.805 105.675C127.344 103.819 130.347 102.208 133.813 100.841C137.28 99.4736 141.04 98.1553 145.093 96.8857C147.925 95.958 150.195 95.2256 151.904 94.6885C153.613 94.1514 154.98 93.7119 156.006 93.3701C157.031 93.0283 157.861 92.7354 158.496 92.4912C159.131 92.1982 159.814 91.8564 160.547 91.4658C160.547 90.0498 160.425 88.6582 160.181 87.291C159.985 85.9238 159.497 84.7031 158.716 83.6289C157.935 82.5059 156.763 81.6025 155.2 80.9189C153.638 80.2354 151.514 79.8936 148.828 79.8936C145.654 79.8936 142.627 80.3086 139.746 81.1387C136.914 81.9199 134.253 82.9697 131.763 84.2881C129.272 85.5576 126.978 86.998 124.878 88.6094C122.778 90.2207 120.898 91.8564 119.238 93.5166V73.3018ZM160.547 103.331C157.959 104.405 155.566 105.455 153.369 106.48C151.172 107.457 149.268 108.507 147.656 109.63C146.045 110.753 144.775 112.022 143.848 113.438C142.969 114.854 142.529 116.515 142.529 118.419C142.529 119.786 142.725 120.958 143.115 121.935C143.555 122.911 144.116 123.717 144.8 124.352C145.483 124.938 146.24 125.377 147.07 125.67C147.949 125.963 148.828 126.109 149.707 126.109C150.781 126.109 151.855 125.914 152.93 125.523C154.004 125.133 155.005 124.669 155.933 124.132C156.909 123.595 157.788 123.033 158.569 122.447C159.399 121.861 160.059 121.373 160.547 120.982V103.331ZM255.688 101.207L279.785 64.4395H300.513L306.958 139H281.763L278.467 103.917L255.688 139L232.837 103.917L229.541 139H204.346L210.791 64.4395H231.519L255.688 101.207ZM362.183 63.1211C369.312 63.1211 375.537 64.1221 380.859 66.124C386.23 68.0771 390.698 70.7871 394.263 74.2539C397.827 77.6719 400.488 81.749 402.246 86.4854C404.053 91.1729 404.956 96.2266 404.956 101.646C404.956 107.066 404.053 112.145 402.246 116.881C400.488 121.568 397.827 125.67 394.263 129.186C390.698 132.652 386.23 135.387 380.859 137.389C375.537 139.342 369.312 140.318 362.183 140.318C355.054 140.318 348.804 139.342 343.433 137.389C338.11 135.387 333.667 132.652 330.103 129.186C326.587 125.67 323.926 121.568 322.119 116.881C320.361 112.145 319.482 107.066 319.482 101.646C319.482 96.2266 320.361 91.1729 322.119 86.4854C323.926 81.749 326.587 77.6719 330.103 74.2539C333.667 70.7871 338.11 68.0771 343.433 66.124C348.804 64.1221 355.054 63.1211 362.183 63.1211ZM362.183 82.75C359.692 82.75 357.52 83.2139 355.664 84.1416C353.809 85.0205 352.246 86.29 350.977 87.9502C349.756 89.5615 348.828 91.5391 348.193 93.8828C347.559 96.1777 347.241 98.7656 347.241 101.646C347.241 104.479 347.559 107.066 348.193 109.41C348.828 111.754 349.756 113.78 350.977 115.489C352.246 117.149 353.809 118.443 355.664 119.371C357.52 120.25 359.692 120.689 362.183 120.689C364.673 120.689 366.846 120.25 368.701 119.371C370.605 118.443 372.168 117.149 373.389 115.489C374.658 113.78 375.61 111.754 376.245 109.41C376.88 107.066 377.197 104.479 377.197 101.646C377.197 98.7656 376.88 96.1777 376.245 93.8828C375.61 91.5391 374.658 89.5615 373.389 87.9502C372.168 86.29 370.605 85.0205 368.701 84.1416C366.846 83.2139 364.673 82.75 362.183 82.75ZM418.726 64.4395H456.812C463.452 64.4395 468.774 65.0254 472.778 66.1973C476.782 67.3203 479.858 68.8096 482.007 70.665C484.155 72.4717 485.571 74.5469 486.255 76.8906C486.938 79.2344 487.28 81.5781 487.28 83.9219C487.28 87.6328 486.206 90.9043 484.058 93.7363C481.958 96.5684 478.833 98.5459 474.683 99.6689C477.026 100.011 479.199 100.597 481.201 101.427C483.203 102.257 484.961 103.355 486.475 104.723C487.988 106.041 489.16 107.652 489.99 109.557C490.869 111.412 491.309 113.585 491.309 116.075C491.309 119.2 490.796 122.154 489.771 124.938C488.745 127.721 487.012 130.162 484.57 132.262C482.129 134.361 478.882 136.021 474.829 137.242C470.825 138.414 465.82 139 459.814 139H418.726V64.4395ZM444.36 122.813H453.076C457.324 122.813 460.352 122.228 462.158 121.056C463.965 119.884 464.868 118.126 464.868 115.782C464.868 113.146 463.94 111.29 462.085 110.216C460.229 109.093 457.471 108.531 453.809 108.531H444.36V122.813ZM444.36 80.626V94.9082H451.831C452.954 94.9082 454.053 94.7861 455.127 94.542C456.201 94.2979 457.153 93.9072 457.983 93.3701C458.862 92.833 459.546 92.1006 460.034 91.1729C460.571 90.2451 460.84 89.0977 460.84 87.7305C460.84 86.3145 460.571 85.167 460.034 84.2881C459.497 83.3604 458.789 82.6279 457.91 82.0908C457.08 81.5537 456.104 81.1875 454.98 80.9922C453.906 80.748 452.808 80.626 451.685 80.626H444.36ZM531.812 122.813H538.257C540.356 122.813 542.114 122.594 543.53 122.154C544.946 121.715 546.094 121.129 546.973 120.396C547.852 119.615 548.462 118.712 548.804 117.687C549.194 116.661 549.39 115.562 549.39 114.391C549.39 111.803 548.56 109.679 546.899 108.019C545.239 106.358 542.603 105.528 538.989 105.528H531.812V122.813ZM545.288 89.3418C549.731 89.3418 553.809 89.8789 557.52 90.9531C561.23 91.9785 564.429 93.541 567.114 95.6406C569.849 97.7402 571.973 100.328 573.486 103.404C575 106.48 575.757 110.045 575.757 114.098C575.757 117.223 575.244 120.299 574.219 123.326C573.193 126.305 571.46 128.966 569.019 131.31C566.577 133.604 563.33 135.46 559.277 136.876C555.273 138.292 550.269 139 544.263 139H505.444V64.4395H531.812V89.3418H545.288ZM614.136 64.4395V139H587.769V64.4395H614.136ZM630.981 64.4395H669.067C675.708 64.4395 681.03 65.0254 685.034 66.1973C689.038 67.3203 692.114 68.8096 694.263 70.665C696.411 72.4717 697.827 74.5469 698.511 76.8906C699.194 79.2344 699.536 81.5781 699.536 83.9219C699.536 87.6328 698.462 90.9043 696.313 93.7363C694.214 96.5684 691.089 98.5459 686.938 99.6689C689.282 100.011 691.455 100.597 693.457 101.427C695.459 102.257 697.217 103.355 698.73 104.723C700.244 106.041 701.416 107.652 702.246 109.557C703.125 111.412 703.564 113.585 703.564 116.075C703.564 119.2 703.052 122.154 702.026 124.938C701.001 127.721 699.268 130.162 696.826 132.262C694.385 134.361 691.138 136.021 687.085 137.242C683.081 138.414 678.076 139 672.07 139H630.981V64.4395ZM656.616 122.813H665.332C669.58 122.813 672.607 122.228 674.414 121.056C676.221 119.884 677.124 118.126 677.124 115.782C677.124 113.146 676.196 111.29 674.341 110.216C672.485 109.093 669.727 108.531 666.064 108.531H656.616V122.813ZM656.616 80.626V94.9082H664.087C665.21 94.9082 666.309 94.7861 667.383 94.542C668.457 94.2979 669.409 93.9072 670.239 93.3701C671.118 92.833 671.802 92.1006 672.29 91.1729C672.827 90.2451 673.096 89.0977 673.096 87.7305C673.096 86.3145 672.827 85.167 672.29 84.2881C671.753 83.3604 671.045 82.6279 670.166 82.0908C669.336 81.5537 668.359 81.1875 667.236 80.9922C666.162 80.748 665.063 80.626 663.94 80.626H656.616ZM757.251 63.1211C764.38 63.1211 770.605 64.1221 775.928 66.124C781.299 68.0771 785.767 70.7871 789.331 74.2539C792.896 77.6719 795.557 81.749 797.314 86.4854C799.121 91.1729 800.024 96.2266 800.024 101.646C800.024 107.066 799.121 112.145 797.314 116.881C795.557 121.568 792.896 125.67 789.331 129.186C785.767 132.652 781.299 135.387 775.928 137.389C770.605 139.342 764.38 140.318 757.251 140.318C750.122 140.318 743.872 139.342 738.501 137.389C733.179 135.387 728.735 132.652 725.171 129.186C721.655 125.67 718.994 121.568 717.188 116.881C715.43 112.145 714.551 107.066 714.551 101.646C714.551 96.2266 715.43 91.1729 717.188 86.4854C718.994 81.749 721.655 77.6719 725.171 74.2539C728.735 70.7871 733.179 68.0771 738.501 66.124C743.872 64.1221 750.122 63.1211 757.251 63.1211ZM757.251 82.75C754.761 82.75 752.588 83.2139 750.732 84.1416C748.877 85.0205 747.314 86.29 746.045 87.9502C744.824 89.5615 743.896 91.5391 743.262 93.8828C742.627 96.1777 742.31 98.7656 742.31 101.646C742.31 104.479 742.627 107.066 743.262 109.41C743.896 111.754 744.824 113.78 746.045 115.489C747.314 117.149 748.877 118.443 750.732 119.371C752.588 120.25 754.761 120.689 757.251 120.689C759.741 120.689 761.914 120.25 763.77 119.371C765.674 118.443 767.236 117.149 768.457 115.489C769.727 113.78 770.679 111.754 771.313 109.41C771.948 107.066 772.266 104.479 772.266 101.646C772.266 98.7656 771.948 96.1777 771.313 93.8828C770.679 91.5391 769.727 89.5615 768.457 87.9502C767.236 86.29 765.674 85.0205 763.77 84.1416C761.914 83.2139 759.741 82.75 757.251 82.75ZM860.303 99.6689C862.305 100.45 864.087 101.451 865.649 102.672C867.261 103.893 868.604 105.26 869.678 106.773C870.801 108.287 871.655 109.947 872.241 111.754C872.876 113.512 873.193 115.343 873.193 117.247C873.193 120.421 872.485 123.424 871.069 126.256C869.653 129.039 867.578 131.48 864.844 133.58C862.158 135.631 858.813 137.267 854.81 138.487C850.806 139.708 846.216 140.318 841.04 140.318C828.54 140.318 818.457 138.878 810.791 135.997V117.247C812.109 118.028 813.672 118.81 815.479 119.591C817.285 120.323 819.214 120.982 821.265 121.568C823.315 122.154 825.464 122.643 827.71 123.033C830.005 123.375 832.3 123.546 834.595 123.546C836.89 123.546 838.794 123.326 840.308 122.887C841.87 122.398 843.115 121.812 844.043 121.129C845.02 120.396 845.703 119.591 846.094 118.712C846.533 117.833 846.753 117.003 846.753 116.222C846.753 114.952 846.533 113.805 846.094 112.779C845.654 111.705 844.922 110.802 843.896 110.069C842.871 109.288 841.479 108.702 839.722 108.312C838.013 107.872 835.864 107.652 833.276 107.652H821.558V94.0293H832.837C835.034 94.0293 836.89 93.834 838.403 93.4434C839.966 93.0527 841.211 92.54 842.139 91.9053C843.115 91.2217 843.799 90.4404 844.189 89.5615C844.629 88.6338 844.849 87.6572 844.849 86.6318C844.849 84.6787 843.994 83.0674 842.285 81.7979C840.625 80.5283 837.866 79.8936 834.009 79.8936C830.347 79.8936 826.636 80.3818 822.876 81.3584C819.116 82.335 815.332 83.8486 811.523 85.8994V67.5889C812.744 66.9541 814.331 66.3682 816.284 65.8311C818.237 65.2939 820.41 64.8301 822.803 64.4395C825.244 64 827.808 63.6826 830.493 63.4873C833.228 63.2432 835.962 63.1211 838.696 63.1211C844.214 63.1211 848.999 63.6826 853.052 64.8057C857.153 65.8799 860.547 67.3691 863.232 69.2734C865.918 71.1289 867.92 73.3262 869.238 75.8652C870.557 78.3555 871.216 81.041 871.216 83.9219C871.216 85.6309 870.923 87.291 870.337 88.9023C869.8 90.5137 869.043 92.0273 868.066 93.4434C867.09 94.8105 865.942 96.0312 864.624 97.1055C863.306 98.1797 861.865 99.0342 860.303 99.6689Z" fill="#DDAC6B"/>
<path d="M154.186 386.714H134.85C131.09 383.784 127.281 380.464 123.424 376.753C119.615 373.091 115.611 368.379 111.412 362.617C107.262 356.904 103.771 350.264 100.938 342.695C98.1553 335.127 96.7637 326.899 96.7637 318.013C96.7637 306.538 99.0098 296.162 103.502 286.885C107.994 277.607 112.804 270.21 117.931 264.692C123.106 259.126 128.746 253.755 134.85 248.579H154.186C148.717 254.536 144.005 260.225 140.05 265.645C136.095 271.064 132.506 278.267 129.283 287.251C126.109 296.187 124.522 306.343 124.522 317.72C124.522 329.292 126.109 339.521 129.283 348.408C132.506 357.295 136.046 364.351 139.903 369.575C143.761 374.849 148.521 380.562 154.186 386.714ZM161.656 249.971H189.415L220.616 288.057L251.964 249.971H279.723V351.484H249.107V292.671L221.495 326.729H219.078L191.393 292.671V351.484H161.656V249.971ZM340.587 275.605C347.716 275.605 353.941 276.606 359.264 278.608C364.635 280.562 369.103 283.271 372.667 286.738C376.231 290.156 378.893 294.233 380.65 298.97C382.457 303.657 383.36 308.711 383.36 314.131C383.36 319.551 382.457 324.629 380.65 329.365C378.893 334.053 376.231 338.154 372.667 341.67C369.103 345.137 364.635 347.871 359.264 349.873C353.941 351.826 347.716 352.803 340.587 352.803C333.458 352.803 327.208 351.826 321.837 349.873C316.515 347.871 312.071 345.137 308.507 341.67C304.991 338.154 302.33 334.053 300.523 329.365C298.766 324.629 297.887 319.551 297.887 314.131C297.887 308.711 298.766 303.657 300.523 298.97C302.33 294.233 304.991 290.156 308.507 286.738C312.071 283.271 316.515 280.562 321.837 278.608C327.208 276.606 333.458 275.605 340.587 275.605ZM340.587 295.234C338.097 295.234 335.924 295.698 334.068 296.626C332.213 297.505 330.65 298.774 329.381 300.435C328.16 302.046 327.232 304.023 326.598 306.367C325.963 308.662 325.646 311.25 325.646 314.131C325.646 316.963 325.963 319.551 326.598 321.895C327.232 324.238 328.16 326.265 329.381 327.974C330.65 329.634 332.213 330.928 334.068 331.855C335.924 332.734 338.097 333.174 340.587 333.174C343.077 333.174 345.25 332.734 347.105 331.855C349.01 330.928 350.572 329.634 351.793 327.974C353.062 326.265 354.015 324.238 354.649 321.895C355.284 319.551 355.602 316.963 355.602 314.131C355.602 311.25 355.284 308.662 354.649 306.367C354.015 304.023 353.062 302.046 351.793 300.435C350.572 298.774 349.01 297.505 347.105 296.626C345.25 295.698 343.077 295.234 340.587 295.234ZM459.825 300.654C458.653 300.264 457.213 299.849 455.504 299.409C453.844 298.921 452.086 298.481 450.23 298.091C448.424 297.651 446.593 297.285 444.737 296.992C442.931 296.699 441.246 296.553 439.684 296.553C437.73 296.553 435.68 296.87 433.531 297.505C431.432 298.091 429.503 299.067 427.745 300.435C425.987 301.802 424.547 303.608 423.424 305.854C422.301 308.052 421.739 310.762 421.739 313.984C421.739 317.158 422.301 319.893 423.424 322.188C424.547 324.434 425.987 326.289 427.745 327.754C429.503 329.17 431.432 330.22 433.531 330.903C435.68 331.538 437.73 331.855 439.684 331.855C441.197 331.855 442.857 331.709 444.664 331.416C446.52 331.123 448.375 330.757 450.23 330.317C452.135 329.878 454.015 329.39 455.87 328.853C457.726 328.315 459.435 327.803 460.997 327.314V348.042C459.483 348.579 457.872 349.141 456.163 349.727C454.503 350.264 452.647 350.776 450.597 351.265C448.546 351.704 446.3 352.07 443.858 352.363C441.466 352.656 438.78 352.803 435.802 352.803C429.894 352.803 424.742 352.119 420.348 350.752C416.002 349.336 412.267 347.505 409.142 345.259C406.065 343.013 403.526 340.498 401.524 337.715C399.571 334.883 398.033 332.026 396.91 329.146C395.787 326.265 395.006 323.506 394.566 320.869C394.176 318.184 393.98 315.889 393.98 313.984C393.98 312.08 394.176 309.81 394.566 307.173C395.006 304.536 395.787 301.802 396.91 298.97C398.033 296.138 399.571 293.33 401.524 290.547C403.526 287.715 406.065 285.2 409.142 283.003C412.267 280.806 416.002 279.023 420.348 277.656C424.742 276.289 429.894 275.605 435.802 275.605C438.78 275.605 441.417 275.728 443.712 275.972C446.056 276.216 448.18 276.558 450.084 276.997C451.988 277.388 453.722 277.852 455.284 278.389C456.847 278.877 458.36 279.39 459.825 279.927V300.654ZM522.447 311.714C524.059 311.958 525.499 312.324 526.769 312.812C528.038 313.252 529.21 313.911 530.284 314.79C531.407 315.669 532.506 316.816 533.58 318.232C534.654 319.648 535.802 321.431 537.022 323.579L552.916 351.484H523.546L513.731 332.148C512.657 329.951 511.607 328.169 510.582 326.802C509.605 325.386 508.58 324.287 507.506 323.506C506.432 322.676 505.309 322.114 504.137 321.821C502.965 321.479 501.671 321.309 500.255 321.309V351.484H473.888V276.924H500.255V304.243C501.573 304.243 502.794 304.097 503.917 303.804C505.04 303.511 506.09 302.974 507.066 302.192C508.092 301.411 509.068 300.386 509.996 299.116C510.924 297.798 511.876 296.162 512.853 294.209L515.709 288.496C516.637 286.592 517.589 284.932 518.565 283.516C519.591 282.051 520.934 280.83 522.594 279.854C524.254 278.877 526.402 278.145 529.039 277.656C531.725 277.168 535.191 276.924 539.439 276.924H547.496V296.553H544.347C543.272 296.553 542.345 296.626 541.563 296.772C540.831 296.87 540.172 297.114 539.586 297.505C539 297.847 538.438 298.359 537.901 299.043C537.413 299.678 536.876 300.557 536.29 301.68L534.752 304.39C534.264 305.22 533.604 306.074 532.774 306.953C531.944 307.783 530.992 308.54 529.918 309.224C528.844 309.907 527.672 310.493 526.402 310.981C525.133 311.421 523.814 311.665 522.447 311.714ZM563.683 276.924H601.769C608.409 276.924 613.731 277.51 617.735 278.682C621.739 279.805 624.815 281.294 626.964 283.149C629.112 284.956 630.528 287.031 631.212 289.375C631.896 291.719 632.237 294.062 632.237 296.406C632.237 300.117 631.163 303.389 629.015 306.221C626.915 309.053 623.79 311.03 619.64 312.153C621.983 312.495 624.156 313.081 626.158 313.911C628.16 314.741 629.918 315.84 631.432 317.207C632.945 318.525 634.117 320.137 634.947 322.041C635.826 323.896 636.266 326.069 636.266 328.56C636.266 331.685 635.753 334.639 634.728 337.422C633.702 340.205 631.969 342.646 629.527 344.746C627.086 346.846 623.839 348.506 619.786 349.727C615.782 350.898 610.777 351.484 604.771 351.484H563.683V276.924ZM589.317 335.298H598.033C602.281 335.298 605.309 334.712 607.115 333.54C608.922 332.368 609.825 330.61 609.825 328.267C609.825 325.63 608.897 323.774 607.042 322.7C605.187 321.577 602.428 321.016 598.766 321.016H589.317V335.298ZM589.317 293.11V307.393H596.788C597.911 307.393 599.01 307.271 600.084 307.026C601.158 306.782 602.11 306.392 602.94 305.854C603.819 305.317 604.503 304.585 604.991 303.657C605.528 302.729 605.797 301.582 605.797 300.215C605.797 298.799 605.528 297.651 604.991 296.772C604.454 295.845 603.746 295.112 602.867 294.575C602.037 294.038 601.061 293.672 599.938 293.477C598.863 293.232 597.765 293.11 596.642 293.11H589.317ZM649.742 285.786C654.771 282.271 660.265 279.707 666.222 278.096C672.228 276.436 678.453 275.605 684.898 275.605C690.465 275.605 695.274 276.167 699.327 277.29C703.429 278.413 706.798 280 709.435 282.051C712.12 284.102 714.122 286.567 715.44 289.448C716.759 292.329 717.418 295.552 717.418 299.116V327.9C717.418 330.537 717.662 332.563 718.15 333.979C718.639 335.347 719.591 336.03 721.007 336.03C721.642 336.03 722.276 335.957 722.911 335.811C723.595 335.615 724.229 335.42 724.815 335.225C725.45 334.98 726.012 334.736 726.5 334.492C726.988 334.248 727.403 334.053 727.745 333.906V347.749C726.427 348.286 725.011 348.848 723.497 349.434C721.983 350.02 720.299 350.581 718.443 351.118C716.637 351.606 714.635 351.997 712.438 352.29C710.24 352.632 707.848 352.803 705.26 352.803C702.77 352.803 700.743 352.51 699.181 351.924C697.618 351.387 696.373 350.703 695.445 349.873C694.518 349.043 693.834 348.188 693.395 347.31C693.004 346.382 692.711 345.576 692.516 344.893C691.49 345.723 690.318 346.602 689 347.529C687.682 348.457 686.095 349.312 684.239 350.093C682.433 350.874 680.309 351.509 677.867 351.997C675.475 352.534 672.667 352.803 669.444 352.803C665.05 352.803 661.412 352.217 658.531 351.045C655.699 349.824 653.429 348.311 651.72 346.504C650.06 344.648 648.888 342.622 648.204 340.425C647.569 338.228 647.252 336.104 647.252 334.053C647.252 330.439 647.96 327.363 649.376 324.824C650.841 322.236 652.818 320.015 655.309 318.159C657.848 316.304 660.851 314.692 664.317 313.325C667.784 311.958 671.544 310.64 675.597 309.37C678.429 308.442 680.699 307.71 682.408 307.173C684.117 306.636 685.484 306.196 686.51 305.854C687.535 305.513 688.365 305.22 689 304.976C689.635 304.683 690.318 304.341 691.051 303.95C691.051 302.534 690.929 301.143 690.685 299.775C690.489 298.408 690.001 297.188 689.22 296.113C688.438 294.99 687.267 294.087 685.704 293.403C684.142 292.72 682.018 292.378 679.332 292.378C676.158 292.378 673.131 292.793 670.25 293.623C667.418 294.404 664.757 295.454 662.267 296.772C659.776 298.042 657.481 299.482 655.382 301.094C653.282 302.705 651.402 304.341 649.742 306.001V285.786ZM691.051 315.815C688.463 316.89 686.07 317.939 683.873 318.965C681.676 319.941 679.771 320.991 678.16 322.114C676.549 323.237 675.279 324.507 674.352 325.923C673.473 327.339 673.033 328.999 673.033 330.903C673.033 332.271 673.229 333.442 673.619 334.419C674.059 335.396 674.62 336.201 675.304 336.836C675.987 337.422 676.744 337.861 677.574 338.154C678.453 338.447 679.332 338.594 680.211 338.594C681.285 338.594 682.359 338.398 683.434 338.008C684.508 337.617 685.509 337.153 686.437 336.616C687.413 336.079 688.292 335.518 689.073 334.932C689.903 334.346 690.562 333.857 691.051 333.467V315.815ZM779.894 317.28C779.894 326.069 778.478 334.297 775.646 341.963C772.862 349.629 769.396 356.367 765.245 362.178C761.095 368.037 757.042 372.871 753.087 376.68C749.181 380.488 745.421 383.833 741.808 386.714H722.398C727.867 380.903 732.579 375.239 736.534 369.722C740.538 364.253 744.127 357.051 747.301 348.115C750.523 339.131 752.135 328.95 752.135 317.573C752.135 306.001 750.548 295.796 747.374 286.958C744.2 278.12 740.66 271.064 736.754 265.791C732.896 260.518 728.111 254.78 722.398 248.579H741.808C746.935 252.534 752.281 257.441 757.848 263.301C763.414 269.16 768.468 276.802 773.009 286.226C777.599 295.601 779.894 305.952 779.894 317.28Z" fill="#DDAC6B"/>
</svg>
