<svg width="1156" height="562" viewBox="0 0 1156 562" fill="none" xmlns="http://www.w3.org/2000/svg">
<path d="M559.862 0V561.225H0V0H559.862ZM180.644 134.571C162.811 137.559 153.75 163.008 152.4 178.721C149.701 208.604 153.268 260.755 195.296 254.778C237.324 248.801 241.373 124.256 180.741 134.571H180.644ZM120.686 137.27H51.282V253.428H72.3926V155.392H101.022V253.428H120.686V137.27ZM271.641 137.27H250.53V171.202C250.53 180.552 265.086 196.072 273.954 196.072H297.378V253.428H318.489V137.27H297.378V178.046C292.848 179.299 271.737 177.178 271.737 171.298V137.366L271.641 137.27ZM401.388 137.27H345.576V155.392H363.698V253.428H383.363V155.392H401.485V137.27H401.388ZM473.106 137.27C461.057 135.245 444.188 138.716 431.56 137.27L427.03 253.428H448.14L449.682 196.072H478.312L483.517 251.982C485.638 254.971 499.711 252.657 503.953 253.428L492.964 155.007C491.229 146.909 480.722 138.523 473.01 137.27H473.106ZM368.229 348.476V307.7H351.649V423.859H368.229V376.335C368.229 374.311 393.773 351.079 396.858 346.934L399.846 423.859H417.968C416.426 383.661 414.98 343.463 413.438 303.169L372.759 346.163L368.229 348.38V348.476ZM458.744 348.476V307.7H440.621V423.859H458.744V376.335C458.744 374.311 483.613 350.018 487.373 346.934L490.361 423.859L508.483 423.088L503.953 303.169L458.647 348.38L458.744 348.476ZM144.4 306.543C130.615 309.339 122.904 331.221 120.879 343.367C117.409 363.514 117.987 418.075 143.243 424.726C168.498 431.378 180.451 406.7 183.825 385.3C188.163 358.309 184.886 298.349 144.4 306.64V306.543ZM258.049 306.254C181.415 300.085 182.668 431.089 258.049 426.943C257.374 423.666 259.013 410.267 257.856 409.014C257.278 408.339 244.843 406.7 241.373 405.158C207.538 389.734 214.864 322.352 257.953 324.377V306.35L258.049 306.254ZM330.442 306.254C253.904 300.085 255.157 431.185 330.442 426.943C329.767 423.666 331.406 410.267 330.249 409.014C329.671 408.339 317.236 406.7 313.765 405.158C279.931 389.734 287.257 322.352 330.345 324.377V306.35L330.442 306.254ZM69.4043 390.698C78.0799 393.976 85.0203 398.603 93.5994 391.566C108.541 379.323 107.48 336.619 97.1661 321.388C92.6356 314.641 81.1645 307.7 73.1637 307.7H51.282V423.859H69.4043V390.698Z" fill="#DDAC6B"/>
<path d="M1155.97 0V561.225H594.564V0H1155.97ZM1121.27 34.703H629.267V526.522H1121.27V34.703Z" fill="#DDAC6B"/>
<path d="M475.323 176.504H449.682L451.224 155.393C468.864 152.694 474.552 159.731 475.419 176.504H475.323Z" fill="#DDAC6B"/>
<path d="M185.175 152.597C199.731 149.609 204.455 171.202 205.226 181.709C206.19 193.759 205.997 236.849 187.778 236.945C176.307 236.945 172.548 216.605 171.873 207.544C170.909 195.88 170.042 155.779 185.079 152.694L185.175 152.597Z" fill="#DDAC6B"/>
<path d="M150.472 323.026C171.776 319.652 168.016 379.322 164.739 391.661C157.027 420.002 142.086 409.784 137.749 386.552C135.339 373.924 133.7 325.725 150.569 323.026H150.472Z" fill="#DDAC6B"/>
<path d="M69.4049 326.594C70.4652 322.835 75.8633 325.534 77.984 326.883C88.2019 333.535 89.5515 374.889 78.948 376.914C73.3571 377.974 69.3085 366.695 69.3085 362.84C69.3085 354.935 67.7662 332.282 69.3085 326.594H69.4049Z" fill="#DDAC6B"/>
<path d="M769.617 295.65C770.677 294.589 776.075 288.516 775.69 288.131C772.22 288.709 770.099 290.734 766.34 291.698C763.833 292.372 760.652 291.023 759.11 291.794C754.579 294.108 739.638 318.014 733.469 323.509C727.685 328.714 719.973 332.088 712.358 333.245C712.069 328.618 713.226 324.087 714.672 319.749C716.889 313.098 721.805 307.892 724.408 301.626C717.949 304.133 714.479 309.82 707.828 312.905C701.176 315.99 693.947 317.339 686.717 316.664C689.995 302.687 700.791 294.011 710.816 285.046C698.092 289.095 683.054 297.578 669.27 295.553C667.631 295.361 666.185 296.132 667.053 293.336C674.09 270.49 713.129 263.164 733.469 262.393C734.24 266.923 732.312 264.803 729.902 265.574C720.359 268.755 711.009 272.033 701.755 275.985C701.755 279.07 707.635 277.142 709.37 276.756C713.033 276.081 733.083 269.815 734.625 268.177C734.915 267.887 735.204 260.561 736.457 259.404C708.117 264.514 679.102 269.719 650.473 263.935C649.798 260.465 650.858 261.525 652.401 260.561C666.281 251.789 689.224 247.933 705.514 247.258C707.442 247.258 733.758 246.969 728.938 250.343L707.442 252.271L694.236 256.32C710.334 258.826 725.564 249.765 740.988 253.331L741.662 256.32L749.952 253.331L737.421 251.5C733.276 248.897 725.854 248.801 727.3 242.728C703.683 247.74 677.656 245.716 655.774 235.016C653.654 233.956 643.339 227.979 642.761 226.919C641.219 223.834 645.268 224.991 646.521 224.701C668.788 220.749 689.995 224.894 712.166 227.69L675.15 217.183C661.944 211.399 648.352 205.615 641.219 192.216C665.607 188.745 688.934 199.445 712.166 205.036L686.042 189.709C667.535 176.503 656.256 163.104 659.341 138.715C663.775 133.799 717.082 184.504 722.865 189.131C726.625 192.216 724.793 196.457 733.372 194.433C708.31 173.707 679.873 151.825 683.729 115.483C684.693 106.422 685.175 99.8671 693.368 108.446C702.912 118.472 712.744 130.232 720.359 141.8C729.035 154.91 738.096 169.177 737.903 185.371C740.506 185.757 739.349 181.901 739.349 180.07C739.831 169.177 735.686 159.923 749.181 170.237C758.05 176.985 762.676 187.974 763.544 198.867C766.339 199.156 764.99 195.493 764.894 193.758C764.701 190.095 762.098 186.046 765.858 182.287C769.713 187.492 772.605 193.469 777.136 198.192C783.016 204.265 799.403 212.363 801.042 219.592C803.837 232.028 791.981 242.053 793.812 252.464C795.258 260.754 817.814 260.368 823.887 256.416L825.526 259.308L824.08 248.801C829.767 250.247 836.129 252.56 839.118 245.812C824.369 252.946 812.706 236.848 823.984 226.147C827.743 239.547 843.166 233.377 846.636 223.159C839.985 229.136 833.623 232.317 830.056 221.617L837.575 220.846L848.179 208.025C848.468 213.134 848.372 218.146 846.733 223.063C851.938 218.339 850.107 218.436 852.806 214.001C853.77 216.026 855.023 217.086 854.348 220.074C857.915 219.496 853.384 215.447 858.879 218.532C859.168 222.677 860.517 226.147 858.879 230.582C861.578 229.811 864.759 220.074 867.169 220.074C869.868 220.074 869.675 228.75 869.482 230.582C872.374 228.365 873.338 227.69 877.001 229.039C868.229 220.556 867.072 214.869 877.001 206.386C877.097 210.82 881.628 213.23 881.628 217.664C881.628 222.099 876.712 227.015 877.001 227.497C877.194 227.786 881.242 229.618 882.977 232.028C882.785 235.594 883.459 239.065 882.303 242.631C881.339 245.62 875.555 249.572 876.905 251.596C877.194 251.982 884.231 253.331 884.134 258.151C884.038 262.971 877.579 267.887 876.905 272.804C872.856 269.141 865.337 259.983 868.614 254.681C870.35 251.885 876.423 253.042 875.459 249.476C875.169 248.319 871.603 248.222 869.771 244.656C868.036 241.378 867.843 237.33 867.94 233.666C865.337 233.281 866.205 239.065 866.494 240.414C867.168 243.692 869.482 245.62 869.386 248.801L863.409 245.812C870.543 255.549 863.602 260.947 860.325 269.912C855.794 267.213 849.625 260.272 850.396 254.777C850.589 253.717 855.312 241.667 855.891 241.185C856.758 240.511 859.939 243.21 860.421 242.728L858.879 232.22L850.589 247.258L845.287 236.751C842.202 242.728 849.335 247.066 849.625 252.464C849.625 254.777 846.637 266.538 845.287 268.369C844.998 268.755 837.768 272.611 837.768 273.768C837.768 277.045 840.082 279.648 838.925 285.335C838.539 287.456 827.84 310.591 826.394 310.591C824.755 310.591 824.948 305.579 822.634 306.061L825.622 319.653L819.646 318.207C824.176 325.437 824.273 337.004 818.875 343.848C811.26 336.329 808.464 323.316 807.5 312.905C807.211 309.145 811.067 301.53 806.054 298.638C806.44 301.241 803.162 305.482 803.066 307.025C803.066 307.7 806.054 307.603 806.151 308.567C806.44 312.23 803.741 330.642 802.68 335.173C797.861 355.513 792.463 345.102 791.017 331.028C790.438 325.726 790.246 313.291 790.824 308.278C791.209 305.386 794.005 306.254 794.005 305.29C794.101 302.012 791.402 293.915 791.691 289.577L786.39 294.879L790.92 294.107C789.378 312.327 791.498 339.414 769.81 346.162C761.038 330.546 772.605 314.833 778.871 300.855C778.871 298.927 770.677 300.855 769.81 300.084C769.52 299.795 770.002 296.807 769.81 295.553C762.002 303.458 750.627 312.037 750.241 324.183C756.796 322.641 764.411 303.458 767.111 301.916C769.135 300.759 773.376 301.916 775.883 301.626C764.99 318.014 758.821 335.848 738.192 342.306C736.939 330.064 742.337 318.496 748.989 308.663C753.905 301.337 760.17 292.854 769.81 292.565C769.906 293.529 769.617 294.686 769.81 295.553L769.617 295.65ZM734.915 177.949C727.685 168.984 720.648 157.802 713.033 149.319C711.78 147.873 703.394 138.619 701.659 140.257C707.249 153.368 718.72 165.803 729.613 174.96C731.348 176.406 732.023 178.624 734.915 177.949ZM722.865 199.06C719.877 194.626 687.488 169.755 685.175 171.972C694.043 184.6 708.31 193.951 722.865 199.06ZM753.037 203.59C750.82 199.735 748.603 196.746 743.976 199.06L753.037 203.59ZM766.629 217.183C751.013 221.617 741.277 219.592 732.698 205.133C735.397 215.062 723.058 206.386 716.889 206.675L742.53 217.279L736.554 220.267C742.916 221.038 754.001 220.364 759.688 221.713C761.327 222.099 759.977 224.701 761.423 224.798C761.038 214.387 772.027 217.472 778.775 220.267L768.942 208.218C770.966 217.375 765.665 209.664 763.64 211.206L766.629 217.183ZM733.372 226.244C733.758 223.063 733.662 222.195 730.866 220.46C722.191 215.158 700.213 211.399 689.609 209.664L712.551 219.11C717.66 221.135 725.372 220.653 729.999 222.677C732.409 223.738 730.866 226.533 733.276 226.147L733.372 226.244ZM769.617 235.305C769.617 235.305 769.424 233.859 769.617 233.088L765.086 229.329C764.701 232.606 766.05 238.583 769.617 235.305ZM763.544 235.305C750.531 238.294 737.421 231.642 724.311 230.775L737.518 236.462C746.675 234.245 758.146 243.403 763.544 235.305ZM710.045 233.859C703.104 233.184 695.2 234.341 688.163 233.859L707.249 238.197C714.768 237.522 722.576 240.703 729.71 240.607C731.059 240.607 733.854 240.414 733.469 238.39C725.854 238.101 717.467 234.63 710.045 233.859ZM772.605 250.44L761.327 244.367C759.785 246.294 761.616 249.572 757.568 248.897C758.724 251.886 764.026 249.765 767.111 251.886C769.038 253.139 767.111 258.537 772.605 250.44ZM764.99 263.839C765.375 263.26 765.761 259.597 764.411 259.501L759.11 265.478C760.17 265.767 764.797 264.224 764.99 263.839ZM780.22 264.032H775.69C778.485 268.755 776.461 270.683 772.702 273.864L777.232 277.624L780.22 264.032ZM753.037 268.562L740.988 270.105L746.289 271.551C747.928 271.936 747.253 273.575 746.289 274.635C744.94 275.985 709.756 290.252 715.346 295.746C719.106 295.264 723.058 292.854 726.336 290.926C728.938 289.384 747.542 275.214 748.506 276.178C750.916 278.588 730.191 293.144 728.938 296.517C728.745 297.674 730.481 297.578 731.155 297.289C732.409 296.71 750.338 280.419 750.916 279.166C751.784 277.142 744.458 273.189 753.037 268.659V268.562ZM828.514 271.551L822.441 272.418V280.612C825.815 280.612 822.923 274.25 824.08 273.189C825.044 272.322 828.996 274.539 828.514 271.647V271.551ZM817.911 282.154C814.826 282.829 810.392 276.081 809.621 276.081C808.175 276.081 802.295 287.552 797.186 279.455C794.873 275.792 797.379 273.671 790.824 276.081C793.041 277.624 793.523 283.022 793.908 283.6C794.294 284.082 805.09 280.515 804.416 286.685C808.175 284.95 805.476 275.214 811.26 280.612C813.862 283.022 813.091 288.324 817.911 282.154ZM763.544 279.07H755.254L753.037 280.515C756.7 279.552 762.098 283.793 763.64 279.07H763.544ZM759.013 288.131C759.013 288.131 759.592 284.95 758.242 285.143C755.158 286.492 728.36 304.326 731.83 307.796C741.18 304.518 748.217 296.228 755.254 289.673C756.411 288.613 758.821 288.324 759.013 288.131ZM784.751 297.192L781.763 297.867C784.462 307.892 774.34 317.628 777.232 328.811C780.413 326.786 781.377 320.038 782.245 316.472C783.691 310.109 785.233 303.747 784.751 297.096V297.192ZM798.246 330.353C798.825 324.569 802.873 314.736 796.8 310.784C796.897 315.508 796.608 320.328 796.8 325.147C796.8 326.979 795.644 330.738 798.246 330.449V330.353ZM817.911 318.303C818.393 317.725 813.38 312.519 811.934 312.327L814.923 328.907C819.068 328.136 814.922 320.424 815.019 318.978C815.019 317.918 817.718 318.592 817.911 318.303Z" fill="#DDAC6B"/>
<path d="M905.439 267.02C906.595 269.623 906.21 271.743 909.969 273.093C909.391 275.599 906.885 283.407 906.885 284.275C906.885 285.143 909.295 285.143 909.777 286.299C914.114 295.843 914.693 301.434 908.909 310.399C907.752 312.134 905.728 312.327 905.632 312.519C905.246 313.483 909.68 331.895 900.812 330.353C896.86 323.412 891.462 306.446 903.8 309.242C900.137 301.145 900.137 297.674 903.8 289.673C894.161 292.951 901.101 296.71 898.884 305.193C897.342 311.266 891.172 312.712 890.208 313.869C889.919 314.255 893.389 319.267 893.389 323.605C893.389 326.979 891.558 333.823 889.437 336.426C887.316 339.029 884.81 335.076 883.557 333.341C879.219 327.172 877.677 321.099 880.569 313.965C884.714 303.651 888.088 311.555 888.763 310.784C889.148 310.302 885.196 303.265 885.678 297.963C886.256 291.987 890.787 282.444 896.281 289.673C891.076 278.78 893.004 273.479 899.366 264.032C902.065 263.55 903.318 266.056 905.342 267.02H905.439Z" fill="#DDAC6B"/>
<path d="M925.102 420.87C926.259 420.002 948.912 426.075 953.153 426.75C955.659 427.136 963.853 426.557 964.335 426.943C964.721 427.232 964.046 430.317 964.335 431.473C960.286 435.137 923.753 427.907 923.656 424.726C923.656 424.533 925.006 421.063 925.102 420.966V420.87Z" fill="#DDAC6B"/>
<path d="M854.155 291.12C848.66 293.819 841.624 279.649 842.106 275.407C842.106 274.636 844.515 269.527 845.094 268.563C845.479 267.888 848.853 263.454 850.299 264.032C863.12 274.636 857.818 278.974 854.155 291.12Z" fill="#DDAC6B"/>
<path d="M878.255 182.48C878.93 185.758 883.364 185.565 882.786 194.53C880.087 197.711 877.195 200.7 876.713 205.134L869.194 196.072C875.363 208.411 868.712 211.785 863.121 221.714C862.639 222.1 859.844 219.401 858.591 218.726C858.302 214.002 857.241 210.146 858.591 205.134C855.795 206.58 854.157 211.496 852.614 214.195C852.422 213.81 850.204 213.713 849.626 210.436C848.565 204.17 848.662 190.963 857.145 189.999L860.133 203.591C860.711 201.567 862.736 190.481 863.218 189.999C866.302 186.818 865.724 193.855 867.748 192.988C865.917 187.975 873.532 183.734 873.821 182.48C875.074 182.577 877.098 182.673 878.352 182.48H878.255Z" fill="#DDAC6B"/>
<path d="M900.908 330.353C906.596 340.282 918.548 340.378 924.043 351.464C924.621 352.717 923.465 354.356 923.561 354.452C924.043 354.742 931.273 355.127 934.55 356.284C938.695 357.826 949.395 366.309 949.202 370.262C949.009 372.768 942.84 371.322 943.226 374.021C952.383 377.781 956.046 391.18 959.806 399.663C962.312 398.988 961.734 394.939 963.661 392.144C972.433 379.419 988.049 378.166 999.038 389.059C998.363 381.058 992.483 372.961 984.001 372.479L986.989 369.49C980.338 370.165 978.313 367.852 979.47 361.297C981.012 352.235 1005.88 333.245 1005.11 352.91L1008.1 351.368C1006.75 364.574 1016.2 374.599 1015.52 388.095C1014.85 400.723 1007.81 408.049 1000.58 417.014C997.689 420.484 999.52 425.304 991.519 423.858C991.423 426.847 996.629 424.533 997.496 427.811C999.52 435.233 992.291 435.233 986.989 432.92C991.423 447.187 978.603 436.968 977.928 437.45C977.639 437.643 978.892 440.632 975.711 440.632C970.505 440.632 965.397 436.486 964.336 431.474C969.734 426.654 962.794 425.304 961.637 422.894C956.335 412.194 956.432 404.483 946.985 393.686C943.322 389.541 927.706 378.166 923.079 378.937C920.959 379.323 917.199 383.564 912.958 381.636L914.5 387.613C903.415 388.095 899.173 377.106 891.847 371.033C890.883 382.408 909.005 387.709 911.415 396C912.09 398.41 911.223 398.409 909.102 398.313C895.607 397.542 879.605 374.599 888.763 362.068C892.04 359.658 904.089 381.058 909.584 378.359C909.969 378.166 910.933 373.346 917.392 375.66C918.838 363.321 904.668 366.02 897.245 361.875C893.679 359.947 890.016 354.645 887.22 351.56C887.124 347.512 885.099 343.656 885.774 339.511C888.184 339.896 898.402 354.356 900.812 347.801C901.198 346.933 896.474 346.933 894.643 344.909C890.401 340.282 892.618 332.667 896.281 328.136C897.824 326.883 899.27 330.16 900.812 330.449L900.908 330.353ZM922.019 351.464L912.958 349.922C913.729 353.97 920.187 355.416 922.019 351.464ZM925.103 362.068L919.802 356.091C919.512 362.261 916.813 360.718 911.512 360.622C914.307 365.731 920.766 359.947 925.103 362.068ZM928.092 371.129L922.115 368.044L923.658 375.563L928.188 371.033L928.092 371.129ZM995.954 414.797C1010.12 385.01 964.914 376.817 965.011 407.085C965.011 419.424 975.325 410.074 978.892 409.11C987.085 406.892 990.363 409.688 995.857 414.797H995.954ZM979.374 428.389C980.338 427.618 980.434 420.484 978.603 419.328L974.843 422.316C979.374 421.641 978.314 424.533 976.386 427.618C976.193 428.871 979.181 428.485 979.374 428.293V428.389Z" fill="#DDAC6B"/>
<path d="M854.155 291.121C856.276 290.06 857.722 288.229 859.457 286.59C862.349 289.193 865.819 294.109 866.205 298.061C866.59 302.013 864.663 304.616 864.663 306.833C864.663 307.797 866.976 307.797 867.651 308.858C875.555 321.582 872.471 326.306 864.663 337.873C864.181 337.68 862.638 338.355 861.963 337.584C861.481 337.102 857.529 325.727 857.433 324.667C856.951 319.558 862.542 313.87 861.674 312.232C861.578 311.942 859.65 313.774 857.143 311.653C849.817 305.387 851.842 298.64 854.155 291.121Z" fill="#DDAC6B"/>
<path d="M822.442 149.319C822.442 149.319 821.67 150.669 824.562 150.958C833.816 151.922 844.612 150.09 854.059 150.862L849.529 149.319C850.3 138.523 861.674 139.776 867.651 134.281L863.12 133.51C866.398 128.594 862.156 130.522 859.746 126.377C855.698 119.34 849.625 100.446 864.663 107.194V102.663C869.772 101.024 866.976 108.061 870.735 108.736C870.35 105.94 873.049 103.531 873.049 101.024C873.049 96.108 863.602 94.662 876.037 87.625C875.844 94.18 880.568 91.4809 881.339 92.1556C881.532 92.3484 881.532 96.4935 881.339 96.6863C880.568 97.5539 876.23 94.7584 876.808 98.9999C876.808 99.4819 881.05 106.904 881.339 107.29C882.785 108.832 883.749 101.024 887.315 102.759L885.869 110.278L888.087 105.651C903.124 102.856 894.063 121.75 890.303 128.787C889.339 130.618 885.869 128.305 888.858 134.378L884.327 135.149C891.749 138.33 897.34 140.354 902.449 147.199L897.919 150.958C906.787 149.898 918.836 152.5 927.223 150.958C928.476 150.765 927.994 149.416 928.09 149.416C923.56 149.03 919.029 149.223 914.499 147.873L917.487 146.331C918.74 144.789 903.703 129.558 913.728 129.654C916.041 129.654 918.258 133.221 918.933 132.739C918.74 130.522 921.15 128.883 921.632 127.051C923.367 120.207 921.054 123.099 918.547 122.135C912.378 119.822 921.439 119.147 921.728 118.858C922.692 117.99 921.728 114.905 922.017 114.616C925.584 110.857 926.452 117.894 927.03 118.665C927.608 119.436 929.343 119.05 929.44 119.243C931.271 121.75 922.789 124.449 926.355 128.979C929.151 132.546 931.175 129.654 933.392 129.847C941.971 130.618 931.85 139.872 931.271 142.861C930.886 144.789 932.814 147.584 932.524 147.777C932.139 148.066 929.633 147.295 928.283 148.066C927.801 148.355 927.994 149.319 927.898 149.319C932.043 149.705 935.898 150.283 939.947 149.319C940.718 153.753 937.344 156.453 935.416 159.827C939.369 160.501 940.332 155.778 943.031 154.621C951.611 150.765 959.419 156.356 955.467 165.514C951.707 174.19 948.333 167.924 943.61 167.442C930.307 165.996 938.308 173.129 938.597 178.817C939.272 192.698 933.296 180.166 930.018 178.238C926.355 176.021 916.812 171.876 915.848 178.046L921.921 178.817C913.053 183.058 913.824 188.746 911.029 196.554C910.354 198.482 909.1 203.398 906.883 203.687C902.546 190.674 904.57 188.842 914.402 180.263C910.739 177.853 908.426 184.986 905.341 185.565C904.281 180.456 907.269 178.624 909.872 175.057C900.136 175.828 901.196 194.915 893.292 182.576L891.75 191.638C885.869 188.36 889.532 180.07 890.207 175.057C885.677 178.142 884.038 181.709 878.158 182.576C877.001 176.889 883.749 171.876 887.219 168.213L881.146 164.454C884.134 165.418 892.906 161.947 892.906 159.152C892.906 157.513 886.255 154.717 893.195 153.079C888.472 152.211 891.075 148.934 889.822 146.62C889.34 145.753 886.159 144.981 884.809 143.343C882.978 141.125 881.242 134.86 878.832 135.631C877.386 136.113 878.254 140.933 875.748 141.704C870.446 143.246 873.82 135.824 873.531 135.727C868.036 132.642 869.868 137.848 869.482 138.716C866.109 145.463 860.518 145.753 860.036 146.427C859.843 146.716 862.638 151.44 858.397 153.079C865.337 154.717 858.011 157.706 859.072 159.827C860.325 162.429 866.012 164.55 869 164.357L864.47 168.117C867.747 170.912 874.591 177.853 873.531 182.48C868.615 181.998 866.88 180.841 863.024 177.949C862.156 179.202 864.663 190.384 860.036 191.541C859.746 184.119 851.842 176.021 850.974 169.659C850.107 163.297 858.108 172.455 858.493 171.876C857.722 170.141 860.421 167.731 860.036 167.346C858.879 166.382 848.757 164.454 846.444 165.803C844.998 167.346 857.722 182.383 855.505 186.914L843.456 176.407L844.901 185.468L841.913 186.239C850.685 189.517 843.456 196.265 844.901 203.591C836.901 196.168 840.275 183.637 828.322 178.72L834.394 177.949C830.249 171.587 817.718 179.106 815.501 185.468C810.296 180.07 814.248 174.286 816.272 168.888C811.067 164.743 800.367 170.527 799.114 170.237C795.162 169.37 792.945 157.031 798.15 154.525C809.524 149.03 810.296 162.236 820.803 162.815L819.26 156.838L817.043 159.827C812.224 156.453 807.597 147.777 816.272 149.223L817.043 153.754C819.357 153.754 814.055 149.416 822.345 149.223C817.815 146.909 821.092 145.367 820.128 143.246C818.778 140.065 814.152 134.667 814.826 131.968C816.079 126.859 823.405 133.028 823.887 132.642C824.369 132.257 825.912 124.545 825.526 123.099C825.14 121.75 822.634 122.232 822.538 122.039C820.321 119.05 824.659 119.147 825.044 118.569C825.526 117.797 826.49 110.76 830.057 114.52C830.346 114.809 829.382 117.894 830.346 118.761C830.635 119.05 839.6 119.629 833.527 122.039C831.213 122.906 827.454 120.882 830.828 128.015C833.045 132.643 837.286 128.979 839.118 130.233C843.745 133.317 836.515 140.354 835.358 143.246C834.587 145.271 836.13 147.391 836.033 147.584C834.877 149.223 825.14 149.126 822.538 149.223L822.442 149.319ZM878.254 128.208L879.796 114.616L876.808 122.135L872.278 116.062C872.278 124.642 878.447 129.847 866.205 128.112C865.819 130.715 869.675 129.558 871.507 129.558C876.037 129.751 880.568 129.461 885.098 129.558L878.351 128.015L878.254 128.208ZM827.165 140.065C826.394 139.39 828.032 136.691 825.526 137.27C826.972 142.475 823.309 146.138 830.057 144.789V138.716C830.057 138.716 827.551 140.354 827.261 139.969L827.165 140.065ZM922.017 140.258C921.439 139.776 923.271 136.691 920.475 137.27C921.825 139.101 920.09 144.596 920.475 144.789C925.198 147.102 926.162 141.125 926.548 137.27C925.873 136.402 922.885 141.029 922.017 140.258ZM903.895 165.9L899.268 165.225L890.303 168.888C894.834 171.298 896.666 167.635 900.811 167.442V174.961L903.799 165.9H903.895ZM839.022 168.984C839.022 168.984 832.852 167.346 831.503 165.9C827.358 171.683 843.456 173.611 839.022 168.984ZM920.572 165.9C919.8 165.032 910.547 169.852 913.053 171.876C913.728 172.455 923.753 170.527 920.572 165.9Z" fill="#DDAC6B"/>
<path d="M846.636 310.785C848.661 309.821 849.914 307.315 852.613 307.797C856.372 315.797 856.18 319.461 852.613 327.365C858.782 325.726 862.638 346.837 851.071 346.934C851.264 347.03 850.107 350.982 853.288 349.922C858.204 348.38 862.06 341.728 864.662 337.872C869.386 340.282 862.06 347.994 866.108 349.922C865.819 346.452 866.301 346.741 869.097 348.476C866.108 344.235 871.217 326.208 873.627 324.377C876.423 322.352 881.435 332.86 881.917 334.884C884.616 345.584 878.543 352.332 876.615 362.068L870.639 353.007C870.639 356.284 873.145 365.249 875.94 366.599C879.314 360.526 882.206 354.067 882.784 347.03C884.712 347.609 885.869 350.018 887.315 351.561C887.701 364.478 883.652 365.056 881.917 374.118C879.989 384.143 885.58 382.601 888.376 386.746C891.942 391.951 894.352 398.41 899.461 403.615C902.353 406.507 914.98 414.315 915.655 415.376C916.33 416.436 915.944 418.171 916.041 419.424C918.836 415.761 927.704 406.314 928.861 402.844C929.536 401.013 925.488 398.41 926.548 396.868C927.03 396.193 941.103 391.759 941.585 392.337L940.043 408.917C939.658 409.496 934.741 405.447 934.067 405.929C933.392 406.411 926.837 418.557 925.005 420.967C918.065 430.317 910.739 439.475 903.895 448.922C903.991 449.597 908.04 455.381 908.426 455.67C909.293 456.345 911.896 451.525 914.402 452.682V469.262C913.92 469.84 901.003 464.538 900.039 463.285C898.786 461.55 905.245 458.755 900.039 455.766L886.448 473.793L876.615 455.766C875.362 454.802 866.205 471.383 866.012 473.889C864.855 474.757 851.745 457.501 852.42 454.32C851.553 453.646 848.179 458.755 847.89 459.622C847.6 460.779 854.83 461.55 850.878 464.153C847.697 466.274 840.949 467.141 837.286 469.455V452.874C842.106 458.08 848.95 447.38 847.793 445.355C847.601 444.97 845.576 446.705 844.034 445.548C840.756 443.042 830.635 424.63 828.996 424.437C824.562 427.136 819.646 428.389 814.633 429.546C805.572 431.474 794.969 431.474 786.968 433.306C785.426 433.691 784.558 439.764 777.425 440.825C776.557 440.921 766.436 440.825 765.858 440.632C762.58 439.572 762.677 436.005 761.327 435.234C759.978 434.462 750.916 433.98 753.326 428.775C754.868 425.498 759.881 427.233 760.17 424.244C750.627 425.69 754.097 423.088 751.109 418.943C742.241 406.604 734.143 398.314 736.36 381.54C737.71 371.515 744.651 362.165 743.494 351.754L746.482 354.742C744.458 326.305 790.053 369.009 763.062 369.876L766.05 372.865C757.278 374.118 753.133 383.276 751.013 390.987C764.99 376.142 782.823 380.673 791.017 398.506C792.462 398.506 800.463 374.021 806.825 374.311C808.464 372.575 801.62 372.575 802.295 369.105C802.777 366.406 809.139 366.599 811.356 366.792L806.825 365.249C807.115 359.562 815.694 356.766 820.417 355.417C827.165 353.489 835.84 355.61 838.539 350.211C835.262 350.018 832.274 351.464 829.093 352.139C827.068 352.525 826.104 354.935 826.49 350.982L843.841 336.619C845.287 339.8 846.058 343.945 844.612 347.127C846.154 347.512 849.914 346.645 850.685 347.127C841.817 337.101 848.372 336.041 852.227 327.558C848.661 328.522 846.54 333.92 844.13 322.642C843.166 317.918 845.094 315.508 846.154 310.978C845.094 311.46 844.13 312.809 843.166 311.845C835.069 302.302 836.611 295.65 841.72 285.336C852.806 294.301 848.661 300.278 846.251 310.978L846.636 310.785ZM864.662 365.056C863.506 359.947 862.927 356.574 864.662 351.464C858.108 358.116 852.517 369.202 842.588 359.851C841.72 359.08 842.106 357.537 842.01 357.441C841.335 356.959 839.021 360.333 836.708 360.526C833.719 360.815 829.767 355.417 828.514 359.658C828.514 359.947 833.43 362.936 834.009 363.032C837.961 363.611 841.335 357.73 845.094 364.189C837.19 365.538 833.912 366.599 834.491 375.467C840.949 372.961 842.299 378.552 842.781 378.552C847.697 378.552 856.951 365.153 860.903 361.972L864.662 364.96V365.056ZM825.43 396.771C819.646 405.061 829.864 410.363 833.719 417.882C841.817 411.134 850.3 405.736 857.047 397.542C858.589 395.614 867.747 383.083 868.422 381.733C870.542 377.106 868.036 372.768 867.651 368.238L859.264 387.71C854.444 393.012 846.733 400.531 839.021 397.639C844.419 387.035 858.3 384.047 860.132 371.226C852.035 377.106 847.89 388.674 836.033 387.806L839.021 381.83C834.394 381.83 828.9 383.372 828.418 377.299C825.912 376.72 827.55 379.034 826.683 379.998C826.201 380.48 818.489 382.601 815.308 384.529C798.246 395.036 796.704 406.7 789.667 423.666C788.703 425.883 784.173 425.787 786.197 431.571C789.281 432.053 786.39 427.329 788.51 426.943C791.016 426.558 794.294 427.329 797.282 426.943C807.114 425.498 817.814 420.87 826.875 422.606C828.032 421.545 817.525 407.278 816.368 406.7C814.344 405.64 812.898 410.267 810.296 409.014V392.433L825.333 396.964L825.43 396.771ZM882.303 388.192C882.303 388.192 876.423 383.468 876.037 383.468C875.555 383.468 868.325 387.613 868.036 387.903C867.843 388.095 868.904 390.505 867.554 392.626C860.517 404.29 848.95 416.243 836.033 420.87C835.166 421.931 850.878 439.475 849.625 443.427C854.348 440.632 860.614 424.534 863.216 422.316C864.084 421.545 865.337 422.124 866.301 423.28C868.614 425.883 874.977 441.982 875.94 441.982L886.544 422.413L899.364 441.982C900.521 442.753 915.462 422.413 914.402 420.87C906.016 417.593 898.304 410.942 892.52 404.29C888.086 399.181 885.484 392.337 882.206 388.192H882.303ZM757.568 414.797C758.435 408.532 766.339 407.857 771.641 409.11C776.943 410.363 777.328 415.761 784.076 411.906C789.571 408.724 785.04 396.578 781.763 392.915C772.123 382.119 753.519 389.445 752.94 403.519C752.844 406.507 754.483 413.352 757.568 414.797ZM777.136 420.87C775.593 421.352 773.087 418.943 772.605 419.328C771.352 420.292 768.749 431.86 775.593 428.389C770.581 422.509 774.051 425.208 777.136 420.87ZM863.988 436.005C854.541 446.801 854.541 449.308 863.988 460.104C873.242 451.236 873.145 445.163 863.988 436.005ZM888.857 436.005C886.448 433.98 880.375 445.645 880.182 447.572C880.085 448.826 885.387 459.719 885.869 460.104C886.737 460.779 887.99 460.297 888.954 459.14C889.532 458.465 896.184 449.211 896.28 448.537C896.376 447.862 889.436 436.39 888.857 435.908V436.005Z" fill="#DDAC6B"/>
<path d="M882.785 194.625C883.653 193.565 886.545 189.516 887.316 190.094L891.847 200.602C893.678 195.107 894.16 184.985 900.137 193.179C904.378 199.059 901.004 204.65 902.836 209.374C903.125 209.952 910.933 219.11 911.511 219.496C915.656 222.484 924.043 220.363 919.898 226.34C917.777 229.328 911.608 228.268 908.523 227.786C910.837 232.702 917.488 235.112 922.597 233.57C925.97 232.509 927.802 224.026 930.501 227.786C936.67 236.462 927.416 251.596 916.909 247.547C912.09 245.716 909.969 240.607 905.631 238.293C903.318 244.077 913.921 245.619 914.692 248.415C916.042 253.331 913.632 260.368 913.15 265.477C916.235 264.899 912.861 260.946 917.681 264.031L916.138 250.439L928.188 248.897L926.742 257.958C935.706 257.283 944.478 262.2 953.732 257.09C966.842 249.861 947.274 232.606 949.587 221.327C950.841 214.965 970.601 202.433 976.578 195.396C980.434 190.866 982.94 185.853 986.314 181.033L988.531 197.613C989.495 183.347 998.17 169.176 1012.73 165.995V182.575C1017.06 180.84 1013.5 176.02 1014.94 170.429C1016.49 164.453 1029.6 144.017 1033.84 138.04C1042.8 125.026 1053.5 113.459 1064.78 102.662C1079.14 141.607 1045.69 177.466 1014.27 194.722H1023.33L1018.8 206.771C1023.81 204.747 1023.33 198.77 1025.45 194.625C1028.63 188.552 1060.54 159.826 1067.86 154.042C1075.19 148.258 1082.13 142.956 1090.52 138.907C1095.14 139.197 1091.29 159.151 1090.23 162.718C1086.08 176.406 1072.88 183.829 1062.47 192.312L1035.48 206.771C1060.34 200.12 1084.64 189.709 1110.95 191.733C1104.49 203.204 1093.02 210.723 1081.17 215.543C1061.02 223.737 1030.94 229.521 1009.74 233.184C1002.7 234.437 996.435 238.582 988.627 235.498C988.242 238.004 992.579 237.04 993.061 239.353C993.351 240.703 990.363 243.691 992.387 244.559C997.399 233.955 1005.01 238.389 1013.4 236.943C1017.16 236.269 1024 232.606 1029.02 231.449C1056.01 225.183 1081.36 220.749 1109.31 224.99C1110.18 228.461 1108.64 227.497 1107.39 228.461C1085.79 245.234 1053.12 247.258 1026.99 244.752L1023.33 240.799L1045.02 238.389L1064.1 234.052C1048.78 232.798 1033.84 235.883 1018.8 238.582C1023.91 241.378 1022.85 247.354 1023.33 247.644C1025.26 248.8 1060.35 248.222 1067.67 249.282C1078.85 250.921 1089.75 257.669 1100.25 261.236C1101.41 264.995 1097.36 264.802 1094.57 265.284C1069.31 269.719 1038.85 264.899 1014.27 258.151C1013.79 261.236 1015.43 262.103 1018.12 262.585C1037.98 266.634 1058.13 264.995 1074.71 279.937C1076.44 281.479 1085.21 292.565 1085.21 293.529C1084.73 303.168 1041.93 285.239 1036.92 283.696L1047.52 290.444C1054.95 297.481 1062.66 306.253 1064.1 316.857C1043.38 319.267 1033.16 304.132 1019.57 292.757C1017.83 291.312 1017.16 289.094 1014.27 289.769C1025.84 302.397 1039.81 314.64 1039.91 333.534C1032.97 332.955 1026.51 330.063 1021.11 325.918C1016.77 322.641 997.399 299.794 994.604 295.071C993.543 293.239 991.423 286.588 995.375 288.227C1003.28 295.939 1011.18 305.193 1021.79 309.338C1019.38 300.758 993.254 287.07 991.615 282.925C989.784 278.394 999.423 282.829 999.134 279.165H987.085C1001.93 299.891 979.18 288.805 978.024 289.769C980.241 296.903 980.144 292.468 984.386 293.047C998.267 295.071 1017.06 328.039 1014.17 342.498C993.351 337.486 986.603 318.206 976.481 301.819C984.289 296.131 994.315 321.58 1001.35 324.472C1003.66 318.014 987.953 299.505 983.229 297.288C981.976 296.71 983.615 300.18 980.241 300.469C976.578 300.758 973.782 299.023 970.408 298.831C981.012 312.23 987.567 329.967 982.458 347.126C964.625 341.342 962.794 321.677 961.348 305.675C961.155 303.265 962.986 289.769 960.576 289.866C959.805 295.264 959.516 299.698 957.588 305C956.431 308.085 953.539 314.35 950.84 311.073C950.551 316.086 950.84 320.809 952.093 325.725C952.768 328.328 951.033 329.967 955.275 329.196C956.142 321.869 952.383 311.169 959.805 306.542C961.155 319.941 963.564 336.233 954.503 347.222C943.804 333.823 948.623 314.35 945.442 298.927C944.864 298.927 938.309 313.29 944.671 307.988C943.707 315.893 943.032 324.087 940.622 331.798C939.177 336.136 936.67 344.041 931.176 344.234C929.923 343.077 926.163 316.857 935.707 318.592L937.249 327.653L940.237 312.615C935.899 316.182 931.08 319.652 925.2 320.134L928.188 309.627L923.657 311.169C921.054 298.349 912.764 292.757 913.054 278.683C913.054 276.756 914.789 273.671 914.596 273.478C914.114 273.092 911.126 273.864 910.065 273.478C911.511 267.309 913.054 271.068 905.535 267.405C902.065 259.597 902.161 254.584 903.318 246.294C896.377 248.608 902.932 253.524 900.233 261.332C899.655 263.067 893.775 271.936 891.268 268.947C887.605 264.417 884.81 257.572 885.967 251.692C886.545 248.8 889.34 247.836 888.955 244.848L882.978 247.836C886.16 240.992 887.509 238.968 882.978 232.798C883.171 228.846 882.786 224.701 882.978 220.749L891.268 229.81C892.136 223.641 893.1 219.785 896.57 214.772L904.089 221.52L902.547 211.784L900.329 214.772L894.257 207.253C893.485 207.253 893.485 224.99 888.955 221.616C887.798 220.749 880.472 210.82 880.183 209.181C879.026 203.59 882.593 200.698 882.978 195.203L882.785 194.625ZM1018.61 176.502C1020.73 178.623 1050.9 147.776 1048.78 140.257L1036.73 151.632L1018.61 176.502ZM1066.9 171.972C1051.67 177.756 1038.56 190.287 1026.13 200.602C1041.64 195.011 1056.68 184.985 1066.9 171.972ZM1030.66 208.217C1027.09 210.531 1016.39 207.928 1015.71 208.314C1015.43 208.506 1014.85 211.495 1013.4 212.748C1008.68 216.989 1004.53 219.303 997.978 219.688C993.061 219.978 988.627 215.447 989.977 223.255C995.279 222.195 1003.66 220.074 1008.87 220.074C1014.08 220.074 1016.68 223.255 1020.73 223.159C1029.69 222.966 1050.61 215.64 1059.09 211.591C1062.47 209.952 1062.27 209.374 1058.71 209.759C1045.79 210.82 1029.4 220.363 1020.34 221.134C1017.35 221.424 1013.4 217.76 1009.64 218.821L1030.75 208.314L1030.66 208.217ZM989.977 209.663C987.374 208.988 986.025 211.495 983.904 211.977C982.169 212.362 980.337 211.205 979.663 211.495C979.084 211.687 972.915 218.821 971.855 220.17C979.759 219.592 985.35 215.832 989.977 209.663ZM897.92 244.366L893.389 233.859C893.967 237.811 892.425 239.932 890.401 242.92C894.064 241.571 895.028 242.342 897.92 244.462V244.366ZM994.507 248.897C991.808 244.752 979.662 248.8 979.47 251.114C979.373 252.849 983.133 253.717 984.579 251.789L994.507 248.897ZM1057.84 254.97C1046.85 254.199 1031.14 249.09 1020.53 249.475C1015.14 249.668 1008.48 253.813 1002.03 251.981L1010.32 256.512L1010.99 253.524C1025.16 250.825 1037.31 257.187 1052.54 256.512C1054.37 256.512 1058.13 257.669 1057.74 255.066L1057.84 254.97ZM1009.55 270.008C1001.45 269.333 989.398 266.441 986.892 257.958C983.904 257.669 986.41 261.525 985.061 263.742C984.579 264.609 981.783 263.067 982.458 265.477C986.699 262.296 1002.99 270.972 1003.47 273.96C1003.76 275.888 1000.19 277.912 1000.58 279.744C1000.77 280.515 1011.57 289.48 1012.63 287.359C1010.89 287.07 999.038 273.092 1005.79 276.081C1008.2 277.141 1017.35 286.106 1021.79 288.805C1023.81 290.058 1035.67 296.613 1036.73 295.746C1034.32 289.287 1026.9 285.335 1021.11 281.961C1017.83 280.033 1002.6 275.406 1005.01 271.646L1009.55 270.104V270.008ZM1048.78 276.081C1038.85 272.128 1028.15 266.634 1017.83 264.127C1016.58 263.838 1017.45 267.019 1015.62 267.791C1024.49 271.068 1033.26 275.213 1042.7 276.948C1044.25 277.238 1049.07 279.069 1048.78 276.177V276.081ZM958.263 285.142C958.263 280.419 960.673 274.249 955.275 271.55C957.685 286.202 945.346 279.937 944.671 280.611C943.996 281.286 945.057 290.348 944.671 292.661C948.045 292.179 944.478 286.684 947.659 284.371C948.141 283.985 955.371 282.057 955.949 282.057C957.588 282.154 955.757 285.817 958.263 285.142ZM1023.14 276.081L1011.09 273.092C1011.76 275.406 1022.27 279.455 1023.14 276.081ZM974.843 328.81C973.783 319.652 971.662 308.085 968.77 299.505C967.902 296.999 967.71 295.071 964.336 295.649C968.481 301.915 967.999 310.205 969.927 317.917C970.698 320.809 972.24 327.268 974.843 328.81Z" fill="#DDAC6B"/>
<path d="M968.673 123.871C971.276 127.438 965.106 134.861 965.974 137.753C966.842 140.548 975.806 142.765 974.939 147.778H965.878L964.335 138.716C963.854 144.404 965.492 151.152 963.179 156.454C962.215 158.574 962.793 158.767 959.805 158.285C960.962 152.887 957.106 147.199 957.009 142.476C957.009 136.499 962.022 131.294 961.154 125.221C957.588 125.221 954.696 123.582 951.708 121.847C949.78 120.787 943.9 117.509 944.671 114.617C951.9 113.268 955.949 117.895 961.443 121.269C963.275 122.425 968.288 123.389 968.673 123.871Z" fill="#DDAC6B"/>
<path d="M789.186 122.135C792.464 134.667 797.091 145.849 789.957 158.381C786.198 150.669 787.933 145.367 777.137 147.006C777.33 141.126 785.812 140.644 786.198 140.162C788.029 138.137 776.173 121.653 789.283 122.135H789.186Z" fill="#DDAC6B"/>
<path d="M950.358 142.957C949.105 144.21 945.056 144.981 943.225 146.331C948.237 137.076 940.14 133.703 938.983 127.051C937.923 121.267 939.755 113.363 945.056 121.074C948.334 125.894 955.274 137.848 950.358 142.86V142.957Z" fill="#DDAC6B"/>
<path d="M807.307 117.605C805.958 116.159 794.872 127.437 790.727 125.124C789.281 118.376 801.523 113.267 806.343 114.52C807.982 114.906 807.211 117.508 807.307 117.605C809.139 119.147 813.091 118.279 812.994 124.16C812.802 131.679 805.09 133.221 807.018 142.861C807.886 147.102 801.813 144.403 800.559 141.8C795.932 132.161 806.632 126.473 807.307 117.701V117.605Z" fill="#DDAC6B"/>
<path d="M870.735 292.661C858.107 289.095 858.011 272.418 865.53 264.031C877.001 271.261 875.073 281.576 870.735 292.661Z" fill="#DDAC6B"/>
<path d="M881.338 292.661C875.747 280.901 874.784 273.382 885.098 264.031C893.484 270.683 893.099 289.866 881.338 292.661Z" fill="#DDAC6B"/>
<path d="M876.713 288.131C882.401 299.409 886.353 304.808 875.942 315.218C865.82 307.796 867.363 295.553 876.713 288.131Z" fill="#DDAC6B"/>
<path d="M903.895 419.328C894.641 419.81 888.664 410.556 879.796 411.809C879.603 414.797 883.941 411.809 882.784 415.568C874.783 427.522 874.398 424.919 867.746 414.123L870.735 411.905C865.433 409.11 865.144 413.544 861.192 415.183C857.239 416.822 852.42 419.039 848.082 419.424C858.204 408.628 868.229 398.41 876.711 386.264C881.049 400.53 895.605 407.857 903.895 419.424V419.328Z" fill="#DDAC6B"/>
</svg>
