<svg width="512" height="512" viewBox="0 0 512 512" fill="none" xmlns="http://www.w3.org/2000/svg">
<path d="M264.597 511.156H247.572C247.572 511.156 246.477 510.792 245.869 510.792C186.889 510.184 123.896 482.102 81.3334 442.106C34.2711 397.855 1.6801 331.236 0.950447 265.954C0.950447 265.468 1.19368 264.617 0.585637 264.252C0.707245 258.539 0.342421 252.947 0.585637 247.233C5.32835 106.215 124.383 -4.77668 265.57 0.69386C406.757 6.1644 506.111 112.415 511.097 246.504C516.447 387.644 405.419 506.294 264.475 511.156H264.597ZM406.149 73.0266C307.403 -7.93743 162.568 4.21933 78.4149 99.5283C0.220832 188.151 -0.265687 321.025 76.7123 410.62C155.514 502.282 291.594 519.544 391.191 450.494C451.022 409.161 489.207 340.597 492.612 267.656C496.139 192.163 464.156 120.438 406.027 72.7835L406.149 73.0266Z" fill="#DDAC6B" stroke="#DDAC6B" stroke-miterlimit="10"/>
<path d="M279.92 358.71C270.556 351.78 261.313 344.729 251.95 337.922C245.018 344.365 238.329 351.294 231.398 357.737C227.628 361.263 223.372 365.76 219.359 368.8C216.075 371.474 212.549 373.055 208.292 373.662C208.292 371.353 208.292 369.043 208.292 366.855C208.9 354.09 210.36 340.474 211.332 327.588C211.819 321.267 212.549 314.945 213.035 308.624C213.521 307.165 220.696 301.451 222.277 299.871C247.207 276.53 272.501 253.554 297.674 230.577C308.497 220.609 321.266 210.519 331.117 199.821C331.968 198.848 334.643 197.146 332.454 195.809C330.265 194.472 327.711 195.323 325.644 196.417L177.404 289.659C172.783 288.93 168.526 286.985 164.149 285.647C151.501 281.757 138.854 277.867 126.207 273.977C120.978 272.397 107.601 269.844 104.925 265.467C101.52 260.118 108.574 254.769 112.83 252.703C116.721 250.879 121.464 249.177 125.599 247.475C152.596 236.777 179.836 226.687 206.833 216.232C255.841 197.268 304.484 177.939 353.614 159.582C360.911 156.786 371.126 150.586 377.814 157.88C384.502 165.174 380.368 175.872 378.665 184.625C368.572 236.291 356.897 287.836 345.831 339.38C343.277 351.172 341.453 364.545 338.048 375.972C333.914 390.074 325.036 390.925 313.483 383.388C301.931 375.851 290.743 366.611 279.798 358.466L279.92 358.71Z" fill="#DDAC6B"/>
</svg>
