<svg width="509" height="511" viewBox="0 0 509 511" fill="none" xmlns="http://www.w3.org/2000/svg">
<path d="M0 510.656L35.6256 379.702C-20.0622 282.672 -5.22834 159.864 71.6159 79.0059C162.808 -17.0514 313.213 -27.0219 415.834 57.3626C536.694 156.581 539.612 339.455 422.765 443.173C343.61 513.331 227.007 526.463 133.869 475.759L1.58062 510.534H0.121522L0 510.656ZM61.4024 449.982L140.192 429.554C148.703 433.932 156.85 439.16 165.604 443.294C283.91 498.983 423.616 433.81 457.904 308.692C491.22 187.101 410.241 63.3206 286.099 45.3251C146.028 25.0193 26.2632 145.517 47.7845 285.468C52.648 316.961 64.9285 346.507 82.4373 372.893L61.4024 449.982Z" fill="#DDAC6B"/>
<path d="M165.969 128.25C177.763 127.155 188.463 129.83 193.448 141.503C200.622 158.161 205.364 176.522 212.659 193.18C214.726 199.502 209.984 205.825 206.215 210.567C201.352 216.525 187.977 227.468 190.53 235.737C191.625 239.384 196.731 247.045 199.041 250.449C216.915 278.415 238.923 298.235 268.104 314.042C274.305 317.325 284.519 323.161 290.841 317.689C294.975 314.042 300.69 307.111 304.459 302.734C307.62 299.086 310.66 294.709 313.821 291.304C315.645 289.359 317.104 287.778 320.023 287.656C326.345 287.17 341.179 295.924 347.38 299.086C357.594 304.436 370.36 310.515 379.966 316.595C385.194 319.878 385.802 321.58 385.559 328.025C384.829 343.953 379.236 357.815 366.47 367.42C328.899 395.994 290.72 378.728 253.149 360.976C206.337 338.846 171.806 298.356 145.056 255.07C129.249 229.536 117.942 201.934 126.21 171.415C130.952 153.906 146.637 130.074 166.334 128.25H165.969Z" fill="#DDAC6B"/>
</svg>
