<svg width="1226" height="240" viewBox="0 0 1226 240" fill="none" xmlns="http://www.w3.org/2000/svg">
<path d="M33.7867 199.727C-19.6161 146.708 -7.95238 55.1307 56.3431 16.9574C146.28 -36.3503 255.109 44.1414 230.432 145.551C209.129 233.369 97.7929 263.252 33.7867 199.727ZM158.233 46.6478H108.107C98.4676 46.6478 80.0562 58.2154 74.658 66.5056C57.6925 92.3401 71.4771 124.826 95.8651 139.671L64.633 187.099H91.3345L125.651 135.526L125.169 133.791C108.396 122.32 90.6597 112.198 91.9128 88.9662C92.4912 79.2301 101.745 66.1199 112.059 66.1199H133.555V187.099H158.233V46.5513V46.6478Z" fill="#F4E3CE"/>
<path d="M418.403 29.7773C419.077 30.2593 417.149 31.4161 417.149 31.7053V179.386H434.019V239.249H405.389V202.81H318.248V239.249H289.619V179.386C303.018 181.217 303.5 177.169 306.874 166.083C312.465 147.96 313.428 121.355 314.392 102.075C315.549 79.2291 314.971 55.901 315.646 33.0548L317.574 29.7773H418.403ZM387.171 53.2018H341.672C339.841 95.1346 343.022 138.995 330.009 179.386H387.267V53.2018H387.171Z" fill="#DDAC6B"/>
<path d="M961.589 77.8803C989.35 81.6398 1000.24 114.222 978.458 132.537L968.722 137.743C1002.85 142.852 1003.04 187.58 972.192 199.148C970.071 199.919 960.335 202.811 958.89 202.811H898.354V77.8803C918.018 79.8082 942.406 75.2775 961.492 77.8803H961.589ZM928.429 127.332H951.178C955.13 127.332 961.01 118.078 960.914 113.644C960.914 108.824 956.19 99.9553 951.178 99.9553H928.429V127.236V127.332ZM929.007 149.407L927.079 151.335V178.615L929.007 180.543H949.828C963.227 180.543 969.3 159.432 957.444 152.106C956.673 151.624 951.467 149.311 951.178 149.311H929.104L929.007 149.407Z" fill="#DDAC6B"/>
<path d="M1225.04 202.811H1195.15L1193.8 192.4C1179.44 207.728 1146.76 209.27 1132.69 192.979C1121.03 179.483 1119.39 153.745 1132.11 140.442C1139.34 133.02 1160.84 124.729 1170.96 124.729H1193.71C1199.88 85.2066 1152.93 98.895 1132.59 110.463V85.785C1165.08 71.3255 1219.64 64.1919 1223.69 112.487C1226.1 141.792 1220.89 173.506 1225.04 202.908V202.811ZM1193.8 144.202C1178.77 143.623 1153.32 143.527 1153.41 164.349C1153.41 183.435 1174.91 187.966 1188.6 178.615C1189.56 177.941 1193.9 173.892 1193.9 173.506V144.202H1193.8Z" fill="#DDAC6B"/>
<path d="M782.679 87.6168C804.272 72.0004 858.446 66.7949 870.495 96.0996C877.821 113.837 873.002 163.192 873.676 185.267C873.869 190.858 876.086 196.835 875.026 202.811H846.396L843.794 192.401C812.369 222.573 759.352 194.136 776.414 150.371C782.487 134.948 806.585 124.73 822.298 124.73H843.119C844.469 124.73 845.143 121.741 845.143 120.295C844.95 84.7249 801.958 101.016 782.679 110.463V87.7131V87.6168ZM845.143 144.202H826.25C822.394 144.202 810.827 148.733 808.128 152.106C803.983 157.215 803.404 169.072 806.296 174.663C811.501 184.882 827.021 184.785 836.179 180.158C837.914 179.29 845.24 173.121 845.24 172.254V144.298L845.143 144.202Z" fill="#DDAC6B"/>
<path d="M487.036 75.5676C573.406 63.8071 573.695 197.606 506.122 205.222C424.765 214.283 424.668 84.0505 487.036 75.5676ZM490.892 98.992C469.299 103.426 471.227 153.071 477.975 168.591C486.843 188.738 512.581 186.135 519.907 165.795C524.823 151.914 524.919 115.09 514.027 103.908C508.436 98.2208 498.41 97.4497 490.892 98.992Z" fill="#DDAC6B"/>
<path d="M1044.2 135.141L1085.07 79.1341L1115.72 77.8809L1074.56 135.719L1120.93 202.812H1089.12L1044.2 141.599V202.812H1014.22V77.8809H1044.2V135.141Z" fill="#DDAC6B"/>
<path d="M659.1 80.4841V105.162C626.133 90.895 600.203 97.3536 599.239 136.973C598.371 170.712 614.758 191.534 650.039 178.616C653.509 177.363 655.726 174.568 659.197 174.086V196.836C639.821 211.391 600.781 207.054 584.297 189.702C567.814 172.351 566.079 134.466 573.309 112.199C585.744 74.0254 625.073 68.2417 659.197 80.3877L659.1 80.4841Z" fill="#DDAC6B"/>
<path d="M769.666 77.8809V99.9559H736.506L734.578 101.98V202.812H704.599V99.9559H669.512V77.8809H769.666Z" fill="#DDAC6B"/>
</svg>
