<svg width="1113" height="546" viewBox="0 0 1113 546" fill="none" xmlns="http://www.w3.org/2000/svg">
<path d="M175.058 0C190.096 2.60273 222.003 21.6894 234.438 31.9075C316.855 99.8675 293.239 240.511 191.156 276.082C161.949 286.3 84.6401 285.721 51.7694 283.022C39.1416 281.962 30.3697 274.347 26.8031 262.393L27.0923 75.7682C-1.537 63.9114 -4.1398 26.6056 4.05377 0.0963995H175.058V0ZM172.745 114.038H122.523V168.792H172.745V114.038Z" fill="#DDAC6B"/>
<path d="M911.612 266.828C910.648 270.395 904.478 273.19 900.333 273.769C890.019 275.215 860.136 275.311 849.919 273.769C841.918 272.515 838.544 264.418 831.796 264.322C825.049 264.225 817.723 272.419 808.854 273.576C741.378 283.023 704.844 240.897 710.628 175.347C714.098 136.21 741.86 107.773 781.285 104.688C798.926 103.338 812.517 108.64 829.386 109.411C830.64 99.0004 824.952 50.127 836.231 50.127H904.671C905.153 50.127 911.515 56.4892 911.515 56.9712V266.732L911.612 266.828ZM788.997 213.809C791.118 215.352 813.289 215.159 817.627 213.809C822.928 212.267 835.652 191.831 833.628 185.372C833.242 184.119 821.579 166.864 820.615 166.189C816.277 163.201 790.443 162.912 788.804 164.551C787.165 166.189 778.587 189.71 779.069 193.759C779.261 195.398 788.129 213.135 788.997 213.809Z" fill="#DDAC6B"/>
<path d="M610.572 173.323H574.135V266.828C574.135 267.31 567.772 273.672 567.29 273.672H498.85C498.368 273.672 492.006 267.31 492.006 266.828V107.194C492.006 104.302 499.332 100.736 503.284 100.254C513.116 98.9041 558.807 98.7113 566.519 101.121C571.339 102.567 574.038 110.086 580.207 109.122C586.377 108.158 599.005 98.5185 609.222 96.7833C660.505 87.9148 692.122 117.123 697.038 166.768C698.677 182.866 700.123 249.477 696.556 261.719C694.05 270.491 684.988 273.287 676.891 273.961C664.649 275.022 610.572 277.143 610.572 262.394V173.419V173.323Z" fill="#DDAC6B"/>
<path d="M1079.34 115.001C1081.75 117.219 1096.79 138.426 1099.39 142.764C1111.53 163.104 1114.81 182.19 1110.09 205.422C1100.35 253.621 1050.61 290.444 1001.36 281.769C931.854 269.623 900.622 186.335 943.325 129.847C965.496 100.542 1005.21 90.4201 1040.49 96.686C1045.79 97.6499 1076.25 112.11 1079.24 114.905L1079.34 115.001ZM1021.02 159.633C1014.37 150.765 1010.9 167.827 1007.52 171.008C1003.28 174.961 994.993 177.37 989.113 177.852C997.499 187.781 1000.2 195.493 998.27 209.76C1014.08 206.772 1020.83 203.976 1034.71 214.291C1036.44 202.819 1028.25 184.215 1043.77 186.817C1046.56 172.743 1032.2 175.732 1025.45 171.008C1020.44 167.634 1021.89 160.694 1021.02 159.537V159.633Z" fill="#DDAC6B"/>
<path d="M454.411 254.296C449.592 259.308 426.457 273.286 419.131 275.985C383.85 289.192 344.039 281.48 318.591 253.139C284.274 214.773 286.781 144.307 329.869 113.845C343.846 103.916 376.621 93.8908 393.683 95.9151C415.757 98.5178 446.7 116.737 460.099 134.474C479.281 160.019 482.559 193.951 471.57 223.545C469.353 229.618 458.171 250.343 454.411 254.296ZM409.877 173.322C392.719 170.045 377.006 173.419 359.752 173.322L382.597 218.918C392.719 218.147 412.576 175.732 409.974 173.322H409.877Z" fill="#DDAC6B"/>
<path d="M50.1356 424.319H48.5657C48.2604 424.081 47.9512 423.812 47.638 423.511C47.3288 423.213 47.0037 422.831 46.6628 422.363C46.3258 421.899 46.0423 421.36 45.8124 420.745C45.5864 420.131 45.4734 419.463 45.4734 418.741C45.4734 417.81 45.6558 416.967 46.0205 416.214C46.3852 415.461 46.7757 414.86 47.192 414.412C47.6122 413.96 48.0701 413.524 48.5657 413.104H50.1356C49.6916 413.588 49.309 414.05 48.9879 414.49C48.6668 414.93 48.3754 415.514 48.1137 416.244C47.856 416.969 47.7272 417.794 47.7272 418.718C47.7272 419.657 47.856 420.488 48.1137 421.209C48.3754 421.931 48.6628 422.504 48.976 422.928C49.2892 423.356 49.6757 423.82 50.1356 424.319ZM50.7421 413.217H52.9959L55.5292 416.309L58.0743 413.217H60.3281V421.459H57.8424V416.684L55.6005 419.449H55.4043L53.1565 416.684V421.459H50.7421V413.217ZM62.005 416.125C62.4134 415.839 62.8593 415.631 63.343 415.5C63.8306 415.366 64.3361 415.298 64.8594 415.298C65.3113 415.298 65.7018 415.344 66.0309 415.435C66.3639 415.526 66.6374 415.655 66.8515 415.822C67.0696 415.988 67.2321 416.188 67.3391 416.422C67.4462 416.656 67.4997 416.918 67.4997 417.207V419.544C67.4997 419.758 67.5195 419.923 67.5592 420.038C67.5988 420.149 67.6761 420.204 67.7911 420.204C67.8426 420.204 67.8942 420.198 67.9457 420.186C68.0012 420.171 68.0527 420.155 68.1003 420.139C68.1518 420.119 68.1974 420.099 68.2371 420.079C68.2767 420.06 68.3104 420.044 68.3382 420.032V421.156C68.2311 421.199 68.1162 421.245 67.9933 421.292C67.8704 421.34 67.7336 421.386 67.5829 421.429C67.4363 421.469 67.2737 421.501 67.0953 421.524C66.9169 421.552 66.7227 421.566 66.5126 421.566C66.3104 421.566 66.1458 421.542 66.019 421.495C65.8921 421.451 65.791 421.396 65.7157 421.328C65.6404 421.261 65.5849 421.191 65.5492 421.12C65.5175 421.045 65.4937 420.979 65.4778 420.924C65.3946 420.991 65.2994 421.063 65.1924 421.138C65.0854 421.213 64.9565 421.283 64.8059 421.346C64.6592 421.409 64.4867 421.461 64.2885 421.501C64.0943 421.544 63.8663 421.566 63.6047 421.566C63.2479 421.566 62.9525 421.518 62.7186 421.423C62.4887 421.324 62.3043 421.201 62.1656 421.055C62.0308 420.904 61.9356 420.739 61.8801 420.561C61.8286 420.383 61.8028 420.21 61.8028 420.044C61.8028 419.75 61.8603 419.501 61.9753 419.294C62.0942 419.084 62.2548 418.904 62.457 418.753C62.6631 418.603 62.9069 418.472 63.1884 418.361C63.4699 418.25 63.7751 418.143 64.1042 418.04C64.3341 417.964 64.5185 417.905 64.6572 417.861C64.796 417.818 64.907 417.782 64.9902 417.754C65.0735 417.726 65.1409 417.703 65.1924 417.683C65.2439 417.659 65.2994 417.631 65.3589 417.6C65.3589 417.485 65.349 417.372 65.3292 417.261C65.3133 417.15 65.2737 417.051 65.2102 416.963C65.1468 416.872 65.0517 416.799 64.9248 416.743C64.7979 416.688 64.6255 416.66 64.4075 416.66C64.1498 416.66 63.904 416.694 63.6701 416.761C63.4401 416.825 63.2241 416.91 63.0219 417.017C62.8197 417.12 62.6334 417.237 62.4629 417.368C62.2924 417.499 62.1398 417.631 62.005 417.766V416.125ZM65.3589 418.563C65.1488 418.65 64.9545 418.735 64.7761 418.819C64.5977 418.898 64.4431 418.983 64.3123 419.074C64.1815 419.166 64.0784 419.269 64.0031 419.384C63.9317 419.499 63.896 419.633 63.896 419.788C63.896 419.899 63.9119 419.994 63.9436 420.073C63.9793 420.153 64.0249 420.218 64.0804 420.27C64.1359 420.317 64.1973 420.353 64.2647 420.377C64.3361 420.4 64.4075 420.412 64.4788 420.412C64.566 420.412 64.6532 420.397 64.7405 420.365C64.8277 420.333 64.9089 420.295 64.9843 420.252C65.0636 420.208 65.1349 420.163 65.1984 420.115C65.2657 420.067 65.3193 420.028 65.3589 419.996V418.563ZM71.026 415.405L72.144 417.053L73.2739 415.405H75.6168L73.3274 418.278L75.7595 421.459H73.1192L71.9478 419.74L70.7822 421.459H68.4393L70.7822 418.486L68.3917 415.405H71.026ZM76.4553 416.125C76.8636 415.839 77.3096 415.631 77.7933 415.5C78.2809 415.366 78.7864 415.298 79.3097 415.298C79.7616 415.298 80.1521 415.344 80.4812 415.435C80.8142 415.526 81.0877 415.655 81.3018 415.822C81.5198 415.988 81.6824 416.188 81.7894 416.422C81.8964 416.656 81.95 416.918 81.95 417.207V419.544C81.95 419.758 81.9698 419.923 82.0094 420.038C82.0491 420.149 82.1264 420.204 82.2414 420.204C82.2929 420.204 82.3444 420.198 82.396 420.186C82.4515 420.171 82.503 420.155 82.5506 420.139C82.6021 420.119 82.6477 420.099 82.6873 420.079C82.727 420.06 82.7607 420.044 82.7884 420.032V421.156C82.6814 421.199 82.5664 421.245 82.4435 421.292C82.3206 421.34 82.1839 421.386 82.0332 421.429C81.8865 421.469 81.724 421.501 81.5456 421.524C81.3672 421.552 81.1729 421.566 80.9628 421.566C80.7606 421.566 80.5961 421.542 80.4693 421.495C80.3424 421.451 80.2413 421.396 80.166 421.328C80.0907 421.261 80.0352 421.191 79.9995 421.12C79.9678 421.045 79.944 420.979 79.9281 420.924C79.8449 420.991 79.7497 421.063 79.6427 421.138C79.5356 421.213 79.4068 421.283 79.2562 421.346C79.1095 421.409 78.937 421.461 78.7388 421.501C78.5445 421.544 78.3166 421.566 78.0549 421.566C77.6981 421.566 77.4028 421.518 77.1689 421.423C76.939 421.324 76.7546 421.201 76.6159 421.055C76.4811 420.904 76.3859 420.739 76.3304 420.561C76.2789 420.383 76.2531 420.21 76.2531 420.044C76.2531 419.75 76.3106 419.501 76.4256 419.294C76.5445 419.084 76.7051 418.904 76.9072 418.753C77.1134 418.603 77.3572 418.472 77.6387 418.361C77.9201 418.25 78.2254 418.143 78.5545 418.04C78.7844 417.964 78.9687 417.905 79.1075 417.861C79.2462 417.818 79.3572 417.782 79.4405 417.754C79.5237 417.726 79.5911 417.703 79.6427 417.683C79.6942 417.659 79.7497 417.631 79.8092 417.6C79.8092 417.485 79.7993 417.372 79.7795 417.261C79.7636 417.15 79.724 417.051 79.6605 416.963C79.5971 416.872 79.5019 416.799 79.3751 416.743C79.2482 416.688 79.0758 416.66 78.8577 416.66C78.6 416.66 78.3542 416.694 78.1203 416.761C77.8904 416.825 77.6744 416.91 77.4722 417.017C77.27 417.12 77.0837 417.237 76.9132 417.368C76.7427 417.499 76.5901 417.631 76.4553 417.766V416.125ZM79.8092 418.563C79.5991 418.65 79.4048 418.735 79.2264 418.819C79.048 418.898 78.8934 418.983 78.7626 419.074C78.6318 419.166 78.5287 419.269 78.4534 419.384C78.382 419.499 78.3463 419.633 78.3463 419.788C78.3463 419.899 78.3622 419.994 78.3939 420.073C78.4296 420.153 78.4752 420.218 78.5307 420.27C78.5862 420.317 78.6476 420.353 78.715 420.377C78.7864 420.4 78.8577 420.412 78.9291 420.412C79.0163 420.412 79.1035 420.397 79.1907 420.365C79.278 420.333 79.3592 420.295 79.4346 420.252C79.5138 420.208 79.5852 420.163 79.6486 420.115C79.716 420.067 79.7695 420.028 79.8092 419.996V418.563ZM87.5933 421.459V419.378C87.3792 419.556 87.1215 419.703 86.8202 419.818C86.519 419.929 86.1423 419.984 85.6904 419.984C85.2781 419.984 84.9193 419.939 84.6141 419.847C84.3128 419.752 84.061 419.606 83.8588 419.407C83.6606 419.205 83.5119 418.951 83.4128 418.646C83.3177 418.337 83.2701 417.968 83.2701 417.54V415.405H85.4109V416.963C85.4109 417.221 85.4268 417.437 85.4585 417.612C85.4902 417.786 85.5437 417.927 85.619 418.034C85.6983 418.141 85.8014 418.218 85.9283 418.266C86.0591 418.309 86.2196 418.331 86.4099 418.331C86.5368 418.331 86.6597 418.315 86.7786 418.283C86.9015 418.248 87.0145 418.202 87.1176 418.147C87.2246 418.091 87.3178 418.03 87.3971 417.962C87.4803 417.891 87.5457 417.818 87.5933 417.742V415.405H89.7341V421.459H87.5933ZM95.0444 418.23C95.1752 418.25 95.2922 418.28 95.3953 418.319C95.4983 418.355 95.5935 418.408 95.6807 418.48C95.7719 418.551 95.8611 418.644 95.9483 418.759C96.0355 418.874 96.1287 419.019 96.2278 419.193L97.5182 421.459H95.1336L94.3368 419.889C94.2496 419.711 94.1643 419.566 94.0811 419.455C94.0018 419.34 93.9185 419.251 93.8313 419.187C93.7441 419.12 93.6529 419.074 93.5578 419.051C93.4626 419.023 93.3576 419.009 93.2426 419.009V421.459H91.1018V415.405H93.2426V417.623C93.3496 417.623 93.4487 417.612 93.5399 417.588C93.6311 417.564 93.7163 417.52 93.7956 417.457C93.8789 417.393 93.9582 417.31 94.0335 417.207C94.1088 417.1 94.1861 416.967 94.2654 416.809L94.4973 416.345C94.5727 416.19 94.65 416.055 94.7292 415.941C94.8125 415.822 94.9215 415.722 95.0563 415.643C95.1911 415.564 95.3655 415.504 95.5796 415.465C95.7977 415.425 96.0791 415.405 96.424 415.405H97.0782V416.999H96.8225C96.7352 416.999 96.6599 417.005 96.5965 417.017C96.537 417.025 96.4835 417.045 96.4359 417.076C96.3884 417.104 96.3428 417.146 96.2992 417.201C96.2595 417.253 96.2159 417.324 96.1683 417.415L96.0434 417.635C96.0038 417.703 95.9503 417.772 95.8829 417.843C95.8155 417.911 95.7382 417.972 95.651 418.028C95.5638 418.083 95.4686 418.131 95.3655 418.171C95.2625 418.206 95.1554 418.226 95.0444 418.23ZM98.3388 416.125C98.7472 415.839 99.1932 415.631 99.6768 415.5C100.164 415.366 100.67 415.298 101.193 415.298C101.645 415.298 102.036 415.344 102.365 415.435C102.698 415.526 102.971 415.655 103.185 415.822C103.403 415.988 103.566 416.188 103.673 416.422C103.78 416.656 103.834 416.918 103.834 417.207V419.544C103.834 419.758 103.853 419.923 103.893 420.038C103.933 420.149 104.01 420.204 104.125 420.204C104.176 420.204 104.228 420.198 104.28 420.186C104.335 420.171 104.387 420.155 104.434 420.139C104.486 420.119 104.531 420.099 104.571 420.079C104.611 420.06 104.644 420.044 104.672 420.032V421.156C104.565 421.199 104.45 421.245 104.327 421.292C104.204 421.34 104.067 421.386 103.917 421.429C103.77 421.469 103.608 421.501 103.429 421.524C103.251 421.552 103.056 421.566 102.846 421.566C102.644 421.566 102.48 421.542 102.353 421.495C102.226 421.451 102.125 421.396 102.05 421.328C101.974 421.261 101.919 421.191 101.883 421.12C101.851 421.045 101.828 420.979 101.812 420.924C101.728 420.991 101.633 421.063 101.526 421.138C101.419 421.213 101.29 421.283 101.14 421.346C100.993 421.409 100.821 421.461 100.622 421.501C100.428 421.544 100.2 421.566 99.9385 421.566C99.5817 421.566 99.2863 421.518 99.0524 421.423C98.8225 421.324 98.6382 421.201 98.4994 421.055C98.3646 420.904 98.2695 420.739 98.214 420.561C98.1624 420.383 98.1367 420.21 98.1367 420.044C98.1367 419.75 98.1941 419.501 98.3091 419.294C98.428 419.084 98.5886 418.904 98.7908 418.753C98.9969 418.603 99.2407 418.472 99.5222 418.361C99.8037 418.25 100.109 418.143 100.438 418.04C100.668 417.964 100.852 417.905 100.991 417.861C101.13 417.818 101.241 417.782 101.324 417.754C101.407 417.726 101.475 417.703 101.526 417.683C101.578 417.659 101.633 417.631 101.693 417.6C101.693 417.485 101.683 417.372 101.663 417.261C101.647 417.15 101.607 417.051 101.544 416.963C101.481 416.872 101.385 416.799 101.259 416.743C101.132 416.688 100.959 416.66 100.741 416.66C100.484 416.66 100.238 416.694 100.004 416.761C99.774 416.825 99.5579 416.91 99.3557 417.017C99.1535 417.12 98.9672 417.237 98.7967 417.368C98.6263 417.499 98.4736 417.631 98.3388 417.766V416.125ZM101.693 418.563C101.483 418.65 101.288 418.735 101.11 418.819C100.932 418.898 100.777 418.983 100.646 419.074C100.515 419.166 100.412 419.269 100.337 419.384C100.266 419.499 100.23 419.633 100.23 419.788C100.23 419.899 100.246 419.994 100.277 420.073C100.313 420.153 100.359 420.218 100.414 420.27C100.47 420.317 100.531 420.353 100.599 420.377C100.67 420.4 100.741 420.412 100.813 420.412C100.9 420.412 100.987 420.397 101.074 420.365C101.162 420.333 101.243 420.295 101.318 420.252C101.397 420.208 101.469 420.163 101.532 420.115C101.6 420.067 101.653 420.028 101.693 419.996V418.563ZM109.429 421.459L108.175 418.295L106.783 421.459H104.702L107.455 415.405H109.037L111.731 421.459H109.429ZM112.397 416.125C112.805 415.839 113.251 415.631 113.735 415.5C114.222 415.366 114.728 415.298 115.251 415.298C115.703 415.298 116.093 415.344 116.422 415.435C116.756 415.526 117.029 415.655 117.243 415.822C117.461 415.988 117.624 416.188 117.731 416.422C117.838 416.656 117.891 416.918 117.891 417.207V419.544C117.891 419.758 117.911 419.923 117.951 420.038C117.99 420.149 118.068 420.204 118.183 420.204C118.234 420.204 118.286 420.198 118.337 420.186C118.393 420.171 118.444 420.155 118.492 420.139C118.543 420.119 118.589 420.099 118.629 420.079C118.668 420.06 118.702 420.044 118.73 420.032V421.156C118.623 421.199 118.508 421.245 118.385 421.292C118.262 421.34 118.125 421.386 117.975 421.429C117.828 421.469 117.665 421.501 117.487 421.524C117.309 421.552 117.114 421.566 116.904 421.566C116.702 421.566 116.537 421.542 116.411 421.495C116.284 421.451 116.183 421.396 116.107 421.328C116.032 421.261 115.977 421.191 115.941 421.12C115.909 421.045 115.885 420.979 115.869 420.924C115.786 420.991 115.691 421.063 115.584 421.138C115.477 421.213 115.348 421.283 115.197 421.346C115.051 421.409 114.878 421.461 114.68 421.501C114.486 421.544 114.258 421.566 113.996 421.566C113.639 421.566 113.344 421.518 113.11 421.423C112.88 421.324 112.696 421.201 112.557 421.055C112.422 420.904 112.327 420.739 112.272 420.561C112.22 420.383 112.194 420.21 112.194 420.044C112.194 419.75 112.252 419.501 112.367 419.294C112.486 419.084 112.646 418.904 112.849 418.753C113.055 418.603 113.299 418.472 113.58 418.361C113.861 418.25 114.167 418.143 114.496 418.04C114.726 417.964 114.91 417.905 115.049 417.861C115.188 417.818 115.299 417.782 115.382 417.754C115.465 417.726 115.532 417.703 115.584 417.683C115.636 417.659 115.691 417.631 115.751 417.6C115.751 417.485 115.741 417.372 115.721 417.261C115.705 417.15 115.665 417.051 115.602 416.963C115.538 416.872 115.443 416.799 115.316 416.743C115.19 416.688 115.017 416.66 114.799 416.66C114.541 416.66 114.296 416.694 114.062 416.761C113.832 416.825 113.616 416.91 113.414 417.017C113.211 417.12 113.025 417.237 112.855 417.368C112.684 417.499 112.531 417.631 112.397 417.766V416.125ZM115.751 418.563C115.54 418.65 115.346 418.735 115.168 418.819C114.989 418.898 114.835 418.983 114.704 419.074C114.573 419.166 114.47 419.269 114.395 419.384C114.323 419.499 114.288 419.633 114.288 419.788C114.288 419.899 114.304 419.994 114.335 420.073C114.371 420.153 114.417 420.218 114.472 420.27C114.528 420.317 114.589 420.353 114.656 420.377C114.728 420.4 114.799 420.412 114.87 420.412C114.958 420.412 115.045 420.397 115.132 420.365C115.219 420.333 115.301 420.295 115.376 420.252C115.455 420.208 115.527 420.163 115.59 420.115C115.657 420.067 115.711 420.028 115.751 419.996V418.563ZM122.964 418.682C122.964 419.396 122.849 420.064 122.619 420.686C122.393 421.308 122.111 421.855 121.774 422.327C121.437 422.803 121.108 423.195 120.787 423.505C120.47 423.814 120.165 424.085 119.872 424.319H118.296C118.74 423.848 119.122 423.388 119.443 422.94C119.768 422.496 120.06 421.911 120.318 421.185C120.579 420.456 120.71 419.629 120.71 418.706C120.71 417.766 120.581 416.938 120.323 416.22C120.066 415.502 119.778 414.93 119.461 414.501C119.148 414.073 118.76 413.607 118.296 413.104H119.872C120.288 413.425 120.722 413.824 121.174 414.299C121.626 414.775 122.036 415.395 122.405 416.161C122.777 416.922 122.964 417.762 122.964 418.682Z" fill="#DDAC6B"/>
</svg>
