<svg width="635" height="561" viewBox="0 0 635 561" fill="none" xmlns="http://www.w3.org/2000/svg">
<path d="M608.075 436.485C578.053 401.51 530.227 410.603 491.129 395.564C450.634 380.175 402.808 334.008 374.183 300.781C360.568 285.043 356.03 266.506 348.001 247.27L334.386 270.003C320.073 289.589 303.317 306.727 283.768 321.417C282.371 322.466 278.88 323.865 277.833 324.914C277.135 324.914 276.786 325.963 277.135 326.313C316.582 344.15 354.634 364.436 390.939 387.869C408.394 398.712 441.209 419.347 449.936 437.534C456.918 452.223 457.965 471.809 463.551 487.198C489.034 556.099 580.497 578.483 618.897 507.484C632.162 482.652 625.879 457.12 608.075 436.135V436.485ZM582.591 501.538C571.769 520.075 551.871 519.026 533.369 512.38C512.424 504.686 496.365 486.849 492.176 464.814C490.082 452.573 492.176 430.539 507.536 428.091C540.351 422.495 604.933 464.465 582.591 501.888V501.538Z" fill="#DDAC6B"/>
<path d="M97.3523 330.863C90.7196 328.065 81.6432 324.218 76.7559 318.971C165.425 307.43 242.575 250.07 290.401 176.273C308.903 147.593 322.168 117.165 329.848 83.2394C332.292 81.1409 338.226 93.7319 338.925 94.7811C343.812 104.574 346.605 116.116 348.35 126.958C375.579 281.898 243.971 392.069 97.0032 330.863H97.3523Z" fill="#DDAC6B"/>
<path d="M327.055 70.6473C322.866 133.253 269.804 202.503 224.073 242.375C179.389 281.547 99.7959 326.665 39.0538 313.024C28.2319 310.226 14.2682 300.783 10.4282 289.591C7.98451 282.946 13.2209 266.508 20.5519 264.059C22.9955 263.01 27.8828 270.005 28.2319 272.453C28.2319 273.503 27.1846 275.951 28.2319 276.301C28.2319 276.301 34.5156 277.7 35.9119 277.7C51.9702 279.448 71.5194 277.7 87.5777 274.902C190.211 257.414 254.444 174.523 287.608 81.4896C289.353 76.9428 299.128 48.613 298.43 46.1648C298.43 45.4653 297.383 44.0663 296.684 44.0663C295.288 43.3668 295.637 45.4653 295.288 45.4653C292.495 45.4653 269.804 27.2782 269.804 25.5295C281.324 17.835 295.288 14.6872 308.204 20.9827C310.997 22.3817 319.724 28.6773 321.47 31.1255C327.405 38.82 328.801 61.2041 328.103 70.2976L327.055 70.6473Z" fill="#DDAC6B"/>
<path d="M285.512 73.4456C253.745 178.021 176.595 263.01 63.489 273.503C46.0343 274.902 36.2597 277 25.4378 260.912C11.125 240.277 7.98319 201.804 10.0777 177.671C18.1069 89.8839 82.6891 13.2885 173.453 8.74174C205.919 6.99299 266.312 19.584 286.21 47.5641C292.843 56.6576 288.305 64.0023 285.163 73.4456H285.512Z" fill="#DDAC6B"/>
</svg>
